<?xml version="1.0" encoding="UTF-8"?>
<svg width="1000" height="1000" xmlns="http://www.w3.org/2000/svg">
  <rect width="1000" height="1000" fill="white"/>
  <path d="M 950.00,500.00 L 950.00,502.00 L 949.98,504.00 L 949.96,506.00 L 949.93,508.00 L 949.89,510.00 L 949.84,512.00 L 949.78,514.00 L 949.72,516.00 L 949.64,518.00 L 949.56,520.00 L 949.46,522.00 L 949.36,524.00 L 949.25,526.00 L 949.13,528.00 L 949.00,529.99 L 948.86,531.99 L 948.71,533.98 L 948.56,535.98 L 948.39,537.97 L 948.22,539.97 L 948.04,541.96 L 947.85,543.95 L 947.65,545.94 L 947.44,547.93 L 947.22,549.92 L 947.00,551.91 L 946.76,553.90 L 946.52,555.88 L 946.26,557.87 L 946.00,559.85 L 945.73,561.84 L 945.45,563.82 L 945.16,565.80 L 944.87,567.78 L 944.56,569.75 L 944.25,571.73 L 943.92,573.70 L 943.59,575.68 L 943.25,577.65 L 942.90,579.62 L 942.54,581.59 L 942.17,583.55 L 941.80,585.52 L 941.41,587.48 L 941.02,589.45 L 940.62,591.41 L 940.21,593.36 L 939.79,595.32 L 939.36,597.28 L 938.92,599.23 L 938.48,601.18 L 938.02,603.13 L 937.56,605.07 L 937.09,607.02 L 936.61,608.96 L 936.12,610.90 L 935.62,612.84 L 935.12,614.78 L 934.60,616.71 L 934.08,618.64 L 933.55,620.57 L 933.01,622.50 L 932.46,624.42 L 931.90,626.34 L 931.33,628.26 L 930.76,630.18 L 930.18,632.09 L 929.58,634.00 L 928.98,635.91 L 928.38,637.82 L 927.76,639.72 L 927.13,641.62 L 926.50,643.52 L 925.86,645.42 L 925.21,647.31 L 924.55,649.20 L 923.88,651.09 L 923.20,652.97 L 922.52,654.85 L 921.83,656.73 L 921.12,658.60 L 920.42,660.47 L 919.70,662.34 L 918.97,664.20 L 918.24,666.07 L 917.49,667.92 L 916.74,669.78 L 915.98,671.63 L 915.22,673.48 L 914.44,675.32 L 913.66,677.16 L 912.87,679.00 L 912.07,680.84 L 911.26,682.67 L 910.44,684.49 L 909.62,686.32 L 908.78,688.14 L 907.94,689.95 L 907.10,691.76 L 906.24,693.57 L 905.37,695.38 L 904.50,697.18 L 903.62,698.97 L 902.73,700.77 L 901.83,702.56 L 900.93,704.34 L 900.02,706.12 L 899.10,707.90 L 898.17,709.67 L 897.23,711.44 L 896.29,713.20 L 895.34,714.96 L 894.38,716.72 L 893.41,718.47 L 892.43,720.22 L 891.45,721.96 L 890.46,723.70 L 889.46,725.43 L 888.45,727.16 L 887.44,728.89 L 886.42,730.61 L 885.39,732.32 L 884.35,734.04 L 883.31,735.74 L 882.26,737.44 L 881.20,739.14 L 880.13,740.83 L 879.06,742.52 L 877.97,744.21 L 876.88,745.88 L 875.79,747.56 L 874.68,749.23 L 873.57,750.89 L 872.45,752.55 L 871.32,754.20 L 870.19,755.85 L 869.05,757.49 L 867.90,759.13 L 866.74,760.77 L 865.58,762.39 L 864.41,764.02 L 863.23,765.64 L 862.05,767.25 L 860.86,768.86 L 859.66,770.46 L 858.45,772.05 L 857.24,773.64 L 856.02,775.23 L 854.79,776.81 L 853.56,778.39 L 852.31,779.96 L 851.07,781.52 L 849.81,783.08 L 848.55,784.63 L 847.28,786.18 L 846.00,787.72 L 844.72,789.25 L 843.43,790.78 L 842.13,792.31 L 840.83,793.83 L 839.52,795.34 L 838.20,796.85 L 836.88,798.35 L 835.55,799.84 L 834.21,801.33 L 832.87,802.81 L 831.52,804.29 L 830.16,805.76 L 828.80,807.23 L 827.43,808.69 L 826.06,810.14 L 824.67,811.59 L 823.29,813.03 L 821.89,814.46 L 820.49,815.89 L 819.08,817.31 L 817.67,818.73 L 816.25,820.14 L 814.82,821.54 L 813.39,822.94 L 811.95,824.33 L 810.50,825.71 L 809.05,827.09 L 807.59,828.46 L 806.13,829.82 L 804.66,831.18 L 803.18,832.53 L 801.70,833.88 L 800.22,835.22 L 798.72,836.55 L 797.22,837.87 L 795.72,839.19 L 794.21,840.50 L 792.69,841.81 L 791.17,843.11 L 789.64,844.40 L 788.10,845.68 L 786.56,846.96 L 785.02,848.23 L 783.47,849.50 L 781.91,850.75 L 780.35,852.00 L 778.78,853.25 L 777.21,854.48 L 775.63,855.71 L 774.04,856.93 L 772.45,858.15 L 770.86,859.36 L 769.26,860.56 L 767.65,861.75 L 766.04,862.94 L 764.42,864.12 L 762.80,865.29 L 761.17,866.45 L 759.54,867.61 L 757.90,868.76 L 756.26,869.91 L 754.61,871.04 L 752.96,872.17 L 751.30,873.29 L 749.64,874.40 L 747.98,875.51 L 746.30,876.61 L 744.63,877.70 L 742.94,878.79 L 741.26,879.86 L 739.57,880.93 L 737.87,881.99 L 736.17,883.05 L 734.46,884.09 L 732.75,885.13 L 731.04,886.16 L 729.32,887.19 L 727.59,888.20 L 725.87,889.21 L 724.13,890.21 L 722.40,891.20 L 720.65,892.19 L 718.91,893.17 L 717.16,894.14 L 715.40,895.10 L 713.64,896.05 L 711.88,897.00 L 710.11,897.94 L 708.34,898.87 L 706.57,899.79 L 704.79,900.70 L 703.00,901.61 L 701.21,902.51 L 699.42,903.40 L 697.63,904.28 L 695.83,905.16 L 694.02,906.02 L 692.22,906.88 L 690.40,907.73 L 688.59,908.58 L 686.77,909.41 L 684.95,910.24 L 683.12,911.05 L 681.29,911.86 L 679.46,912.67 L 677.62,913.46 L 675.78,914.25 L 673.94,915.02 L 672.09,915.79 L 670.24,916.55 L 668.39,917.31 L 666.53,918.05 L 664.67,918.79 L 662.81,919.52 L 660.94,920.24 L 659.07,920.95 L 657.19,921.65 L 655.32,922.35 L 653.44,923.03 L 651.56,923.71 L 649.67,924.38 L 647.78,925.04 L 645.89,925.69 L 644.00,926.34 L 642.10,926.98 L 640.20,927.60 L 638.30,928.22 L 636.39,928.83 L 634.48,929.44 L 632.57,930.03 L 630.66,930.61 L 628.74,931.19 L 626.82,931.76 L 624.90,932.32 L 622.98,932.87 L 621.05,933.41 L 619.12,933.95 L 617.19,934.47 L 615.26,934.99 L 613.32,935.50 L 611.39,936.00 L 609.45,936.49 L 607.51,936.97 L 605.56,937.44 L 603.61,937.91 L 601.67,938.37 L 599.72,938.81 L 597.76,939.25 L 595.81,939.68 L 593.85,940.10 L 591.90,940.52 L 589.94,940.92 L 587.97,941.32 L 586.01,941.70 L 584.05,942.08 L 582.08,942.45 L 580.11,942.81 L 578.14,943.16 L 576.17,943.51 L 574.20,943.84 L 572.22,944.17 L 570.25,944.48 L 568.27,944.79 L 566.29,945.09 L 564.31,945.38 L 562.33,945.66 L 560.35,945.94 L 558.36,946.20 L 556.38,946.45 L 554.39,946.70 L 552.41,946.94 L 550.42,947.17 L 548.43,947.39 L 546.44,947.60 L 544.45,947.80 L 542.46,947.99 L 540.47,948.18 L 538.47,948.35 L 536.48,948.52 L 534.48,948.68 L 532.49,948.83 L 530.49,948.97 L 528.50,949.10 L 526.50,949.22 L 524.50,949.33 L 522.50,949.44 L 520.50,949.53 L 518.50,949.62 L 516.50,949.70 L 514.50,949.77 L 512.50,949.83 L 510.50,949.88 L 508.50,949.92 L 506.50,949.95 L 504.50,949.98 L 502.50,949.99 L 500.50,950.00 L 498.50,950.00 L 496.50,949.99 L 494.50,949.97 L 492.50,949.94 L 490.50,949.90 L 488.50,949.85 L 486.50,949.80 L 484.50,949.73 L 482.50,949.66 L 480.50,949.58 L 478.50,949.49 L 476.50,949.39 L 474.50,949.28 L 472.50,949.16 L 470.51,949.03 L 468.51,948.90 L 466.51,948.75 L 464.52,948.60 L 462.52,948.44 L 460.53,948.27 L 458.54,948.09 L 456.55,947.90 L 454.55,947.70 L 452.56,947.49 L 450.57,947.28 L 448.59,947.05 L 446.60,946.82 L 444.61,946.58 L 442.63,946.33 L 440.64,946.07 L 438.66,945.80 L 436.68,945.52 L 434.70,945.24 L 432.72,944.94 L 430.74,944.64 L 428.76,944.33 L 426.79,944.00 L 424.82,943.67 L 422.84,943.34 L 420.87,942.99 L 418.90,942.63 L 416.94,942.27 L 414.97,941.89 L 413.01,941.51 L 411.04,941.12 L 409.08,940.72 L 407.12,940.31 L 405.17,939.89 L 403.21,939.47 L 401.26,939.03 L 399.31,938.59 L 397.36,938.14 L 395.41,937.68 L 393.47,937.21 L 391.52,936.73 L 389.58,936.24 L 387.64,935.75 L 385.71,935.24 L 383.77,934.73 L 381.84,934.21 L 379.91,933.68 L 377.98,933.14 L 376.06,932.60 L 374.14,932.04 L 372.22,931.48 L 370.30,930.90 L 368.38,930.32 L 366.47,929.73 L 364.56,929.14 L 362.66,928.53 L 360.75,927.91 L 358.85,927.29 L 356.95,926.66 L 355.06,926.02 L 353.16,925.37 L 351.27,924.71 L 349.39,924.05 L 347.50,923.37 L 345.62,922.69 L 343.74,922.00 L 341.87,921.30 L 340.00,920.59 L 338.13,919.88 L 336.26,919.15 L 334.40,918.42 L 332.54,917.68 L 330.69,916.93 L 328.83,916.18 L 326.98,915.41 L 325.14,914.64 L 323.30,913.85 L 321.46,913.07 L 319.62,912.27 L 317.79,911.46 L 315.96,910.65 L 314.14,909.82 L 312.32,908.99 L 310.50,908.16 L 308.69,907.31 L 306.88,906.45 L 305.07,905.59 L 303.27,904.72 L 301.47,903.84 L 299.68,902.95 L 297.89,902.06 L 296.11,901.16 L 294.32,900.25 L 292.55,899.33 L 290.77,898.40 L 289.00,897.47 L 287.24,896.53 L 285.48,895.58 L 283.72,894.62 L 281.97,893.65 L 280.22,892.68 L 278.47,891.70 L 276.74,890.71 L 275.00,889.71 L 273.27,888.71 L 271.54,887.70 L 269.82,886.68 L 268.10,885.65 L 266.39,884.61 L 264.68,883.57 L 262.98,882.52 L 261.28,881.46 L 259.59,880.40 L 257.90,879.32 L 256.21,878.24 L 254.53,877.16 L 252.86,876.06 L 251.19,874.96 L 249.53,873.85 L 247.87,872.73 L 246.21,871.61 L 244.56,870.47 L 242.92,869.33 L 241.28,868.19 L 239.64,867.03 L 238.01,865.87 L 236.39,864.70 L 234.77,863.53 L 233.15,862.34 L 231.55,861.15 L 229.94,859.96 L 228.34,858.75 L 226.75,857.54 L 225.17,856.32 L 223.58,855.10 L 222.01,853.86 L 220.44,852.62 L 218.87,851.38 L 217.31,850.12 L 215.76,848.86 L 214.21,847.60 L 212.67,846.32 L 211.13,845.04 L 209.60,843.75 L 208.07,842.46 L 206.55,841.16 L 205.04,839.85 L 203.53,838.53 L 202.03,837.21 L 200.53,835.88 L 199.04,834.55 L 197.56,833.21 L 196.08,831.86 L 194.60,830.50 L 193.14,829.14 L 191.68,827.78 L 190.22,826.40 L 188.77,825.02 L 187.33,823.63 L 185.90,822.24 L 184.47,820.84 L 183.04,819.43 L 181.63,818.02 L 180.21,816.60 L 178.81,815.18 L 177.41,813.75 L 176.02,812.31 L 174.63,810.86 L 173.25,809.41 L 171.88,807.96 L 170.52,806.50 L 169.16,805.03 L 167.80,803.55 L 166.46,802.07 L 165.12,800.59 L 163.78,799.10 L 162.46,797.60 L 161.14,796.09 L 159.82,794.58 L 158.52,793.07 L 157.22,791.55 L 155.92,790.02 L 154.64,788.49 L 153.36,786.95 L 152.09,785.40 L 150.82,783.85 L 149.56,782.30 L 148.31,780.74 L 147.06,779.17 L 145.83,777.60 L 144.60,776.02 L 143.37,774.44 L 142.16,772.85 L 140.95,771.26 L 139.74,769.66 L 138.55,768.05 L 137.36,766.44 L 136.18,764.83 L 135.00,763.21 L 133.84,761.58 L 132.68,759.95 L 131.53,758.31 L 130.38,756.67 L 129.24,755.03 L 128.11,753.38 L 126.99,751.72 L 125.87,750.06 L 124.77,748.39 L 123.66,746.72 L 122.57,745.05 L 121.49,743.36 L 120.41,741.68 L 119.34,739.99 L 118.27,738.29 L 117.22,736.59 L 116.17,734.89 L 115.13,733.18 L 114.09,731.47 L 113.07,729.75 L 112.05,728.03 L 111.04,726.30 L 110.04,724.57 L 109.04,722.83 L 108.06,721.09 L 107.08,719.34 L 106.11,717.60 L 105.14,715.84 L 104.19,714.08 L 103.24,712.32 L 102.30,710.56 L 101.37,708.78 L 100.44,707.01 L 99.53,705.23 L 98.62,703.45 L 97.72,701.66 L 96.82,699.87 L 95.94,698.08 L 95.06,696.28 L 94.19,694.47 L 93.33,692.67 L 92.48,690.86 L 91.63,689.04 L 90.80,687.23 L 89.97,685.40 L 89.15,683.58 L 88.34,681.75 L 87.53,679.92 L 86.74,678.08 L 85.95,676.24 L 85.17,674.40 L 84.40,672.55 L 83.63,670.70 L 82.88,668.85 L 82.13,666.99 L 81.39,665.13 L 80.66,663.27 L 79.94,661.41 L 79.23,659.54 L 78.52,657.66 L 77.83,655.79 L 77.14,653.91 L 76.46,652.03 L 75.79,650.14 L 75.12,648.25 L 74.47,646.36 L 73.82,644.47 L 73.18,642.57 L 72.55,640.67 L 71.93,638.77 L 71.32,636.87 L 70.71,634.96 L 70.12,633.05 L 69.53,631.14 L 68.95,629.22 L 68.38,627.30 L 67.82,625.38 L 67.27,623.46 L 66.72,621.53 L 66.19,619.61 L 65.66,617.68 L 65.14,615.74 L 64.63,613.81 L 64.13,611.87 L 63.63,609.93 L 63.15,607.99 L 62.67,606.05 L 62.21,604.10 L 61.75,602.15 L 61.30,600.20 L 60.86,598.25 L 60.42,596.30 L 60.00,594.34 L 59.59,592.39 L 59.18,590.43 L 58.78,588.47 L 58.39,586.50 L 58.01,584.54 L 57.64,582.57 L 57.28,580.60 L 56.92,578.63 L 56.58,576.66 L 56.24,574.69 L 55.91,572.72 L 55.60,570.74 L 55.28,568.76 L 54.98,566.79 L 54.69,564.81 L 54.41,562.83 L 54.13,560.84 L 53.87,558.86 L 53.61,556.88 L 53.36,554.89 L 53.12,552.90 L 52.89,550.92 L 52.67,548.93 L 52.45,546.94 L 52.25,544.95 L 52.05,542.96 L 51.87,540.96 L 51.69,538.97 L 51.52,536.98 L 51.36,534.98 L 51.21,532.99 L 51.07,530.99 L 50.94,528.99 L 50.81,527.00 L 50.69,525.00 L 50.59,523.00 L 50.49,521.00 L 50.40,519.00 L 50.32,517.00 L 50.25,515.00 L 50.19,513.00 L 50.13,511.00 L 50.09,509.00 L 50.05,507.00 L 50.03,505.00 L 50.01,503.00 L 50.00,501.00 L 50.00,499.00 L 50.01,497.00 L 50.03,495.00 L 50.05,493.00 L 50.09,491.00 L 50.13,489.00 L 50.19,487.00 L 50.25,485.00 L 50.32,483.00 L 50.40,481.00 L 50.49,479.00 L 50.59,477.00 L 50.69,475.00 L 50.81,473.00 L 50.94,471.01 L 51.07,469.01 L 51.21,467.01 L 51.36,465.02 L 51.52,463.02 L 51.69,461.03 L 51.87,459.04 L 52.05,457.04 L 52.25,455.05 L 52.45,453.06 L 52.67,451.07 L 52.89,449.08 L 53.12,447.10 L 53.36,445.11 L 53.61,443.12 L 53.87,441.14 L 54.13,439.16 L 54.41,437.17 L 54.69,435.19 L 54.98,433.21 L 55.28,431.24 L 55.60,429.26 L 55.91,427.28 L 56.24,425.31 L 56.58,423.34 L 56.92,421.37 L 57.28,419.40 L 57.64,417.43 L 58.01,415.46 L 58.39,413.50 L 58.78,411.53 L 59.18,409.57 L 59.59,407.61 L 60.00,405.66 L 60.42,403.70 L 60.86,401.75 L 61.30,399.80 L 61.75,397.85 L 62.21,395.90 L 62.67,393.95 L 63.15,392.01 L 63.63,390.07 L 64.13,388.13 L 64.63,386.19 L 65.14,384.26 L 65.66,382.32 L 66.19,380.39 L 66.72,378.47 L 67.27,376.54 L 67.82,374.62 L 68.38,372.70 L 68.95,370.78 L 69.53,368.86 L 70.12,366.95 L 70.71,365.04 L 71.32,363.13 L 71.93,361.23 L 72.55,359.33 L 73.18,357.43 L 73.82,355.53 L 74.47,353.64 L 75.12,351.75 L 75.79,349.86 L 76.46,347.97 L 77.14,346.09 L 77.83,344.21 L 78.52,342.34 L 79.23,340.46 L 79.94,338.59 L 80.66,336.73 L 81.39,334.87 L 82.13,333.01 L 82.88,331.15 L 83.63,329.30 L 84.40,327.45 L 85.17,325.60 L 85.95,323.76 L 86.74,321.92 L 87.53,320.08 L 88.34,318.25 L 89.15,316.42 L 89.97,314.60 L 90.80,312.77 L 91.63,310.96 L 92.48,309.14 L 93.33,307.33 L 94.19,305.53 L 95.06,303.72 L 95.94,301.92 L 96.82,300.13 L 97.72,298.34 L 98.62,296.55 L 99.53,294.77 L 100.44,292.99 L 101.37,291.22 L 102.30,289.44 L 103.24,287.68 L 104.19,285.92 L 105.14,284.16 L 106.11,282.40 L 107.08,280.66 L 108.06,278.91 L 109.04,277.17 L 110.04,275.43 L 111.04,273.70 L 112.05,271.97 L 113.07,270.25 L 114.09,268.53 L 115.13,266.82 L 116.17,265.11 L 117.22,263.41 L 118.27,261.71 L 119.34,260.01 L 120.41,258.32 L 121.49,256.64 L 122.57,254.95 L 123.66,253.28 L 124.77,251.61 L 125.87,249.94 L 126.99,248.28 L 128.11,246.62 L 129.24,244.97 L 130.38,243.33 L 131.53,241.69 L 132.68,240.05 L 133.84,238.42 L 135.00,236.79 L 136.18,235.17 L 137.36,233.56 L 138.55,231.95 L 139.74,230.34 L 140.95,228.74 L 142.16,227.15 L 143.37,225.56 L 144.60,223.98 L 145.83,222.40 L 147.06,220.83 L 148.31,219.26 L 149.56,217.70 L 150.82,216.15 L 152.09,214.60 L 153.36,213.05 L 154.64,211.51 L 155.92,209.98 L 157.22,208.45 L 158.52,206.93 L 159.82,205.42 L 161.14,203.91 L 162.46,202.40 L 163.78,200.90 L 165.12,199.41 L 166.46,197.93 L 167.80,196.45 L 169.16,194.97 L 170.52,193.50 L 171.88,192.04 L 173.25,190.59 L 174.63,189.14 L 176.02,187.69 L 177.41,186.25 L 178.81,184.82 L 180.21,183.40 L 181.63,181.98 L 183.04,180.57 L 184.47,179.16 L 185.90,177.76 L 187.33,176.37 L 188.77,174.98 L 190.22,173.60 L 191.68,172.22 L 193.14,170.86 L 194.60,169.50 L 196.08,168.14 L 197.56,166.79 L 199.04,165.45 L 200.53,164.12 L 202.03,162.79 L 203.53,161.47 L 205.04,160.15 L 206.55,158.84 L 208.07,157.54 L 209.60,156.25 L 211.13,154.96 L 212.67,153.68 L 214.21,152.40 L 215.76,151.14 L 217.31,149.88 L 218.87,148.62 L 220.44,147.38 L 222.01,146.14 L 223.58,144.90 L 225.17,143.68 L 226.75,142.46 L 228.34,141.25 L 229.94,140.04 L 231.55,138.85 L 233.15,137.66 L 234.77,136.47 L 236.39,135.30 L 238.01,134.13 L 239.64,132.97 L 241.28,131.81 L 242.92,130.67 L 244.56,129.53 L 246.21,128.39 L 247.87,127.27 L 249.53,126.15 L 251.19,125.04 L 252.86,123.94 L 254.53,122.84 L 256.21,121.76 L 257.90,120.68 L 259.59,119.60 L 261.28,118.54 L 262.98,117.48 L 264.68,116.43 L 266.39,115.39 L 268.10,114.35 L 269.82,113.32 L 271.54,112.30 L 273.27,111.29 L 275.00,110.29 L 276.74,109.29 L 278.47,108.30 L 280.22,107.32 L 281.97,106.35 L 283.72,105.38 L 285.48,104.42 L 287.24,103.47 L 289.00,102.53 L 290.77,101.60 L 292.55,100.67 L 294.32,99.75 L 296.11,98.84 L 297.89,97.94 L 299.68,97.05 L 301.47,96.16 L 303.27,95.28 L 305.07,94.41 L 306.88,93.55 L 308.69,92.69 L 310.50,91.84 L 312.32,91.01 L 314.14,90.18 L 315.96,89.35 L 317.79,88.54 L 319.62,87.73 L 321.46,86.93 L 323.30,86.15 L 325.14,85.36 L 326.98,84.59 L 328.83,83.82 L 330.69,83.07 L 332.54,82.32 L 334.40,81.58 L 336.26,80.85 L 338.13,80.12 L 340.00,79.41 L 341.87,78.70 L 343.74,78.00 L 345.62,77.31 L 347.50,76.63 L 349.39,75.95 L 351.27,75.29 L 353.16,74.63 L 355.06,73.98 L 356.95,73.34 L 358.85,72.71 L 360.75,72.09 L 362.66,71.47 L 364.56,70.86 L 366.47,70.27 L 368.38,69.68 L 370.30,69.10 L 372.22,68.52 L 374.14,67.96 L 376.06,67.40 L 377.98,66.86 L 379.91,66.32 L 381.84,65.79 L 383.77,65.27 L 385.71,64.76 L 387.64,64.25 L 389.58,63.76 L 391.52,63.27 L 393.47,62.79 L 395.41,62.32 L 397.36,61.86 L 399.31,61.41 L 401.26,60.97 L 403.21,60.53 L 405.17,60.11 L 407.12,59.69 L 409.08,59.28 L 411.04,58.88 L 413.01,58.49 L 414.97,58.11 L 416.94,57.73 L 418.90,57.37 L 420.87,57.01 L 422.84,56.66 L 424.82,56.33 L 426.79,56.00 L 428.76,55.67 L 430.74,55.36 L 432.72,55.06 L 434.70,54.76 L 436.68,54.48 L 438.66,54.20 L 440.64,53.93 L 442.63,53.67 L 444.61,53.42 L 446.60,53.18 L 448.59,52.95 L 450.57,52.72 L 452.56,52.51 L 454.55,52.30 L 456.55,52.10 L 458.54,51.91 L 460.53,51.73 L 462.52,51.56 L 464.52,51.40 L 466.51,51.25 L 468.51,51.10 L 470.51,50.97 L 472.50,50.84 L 474.50,50.72 L 476.50,50.61 L 478.50,50.51 L 480.50,50.42 L 482.50,50.34 L 484.50,50.27 L 486.50,50.20 L 488.50,50.15 L 490.50,50.10 L 492.50,50.06 L 494.50,50.03 L 496.50,50.01 L 498.50,50.00 L 500.50,50.00 L 502.50,50.01 L 504.50,50.02 L 506.50,50.05 L 508.50,50.08 L 510.50,50.12 L 512.50,50.17 L 514.50,50.23 L 516.50,50.30 L 518.50,50.38 L 520.50,50.47 L 522.50,50.56 L 524.50,50.67 L 526.50,50.78 L 528.50,50.90 L 530.49,51.03 L 532.49,51.17 L 534.48,51.32 L 536.48,51.48 L 538.47,51.65 L 540.47,51.82 L 542.46,52.01 L 544.45,52.20 L 546.44,52.40 L 548.43,52.61 L 550.42,52.83 L 552.41,53.06 L 554.39,53.30 L 556.38,53.55 L 558.36,53.80 L 560.35,54.06 L 562.33,54.34 L 564.31,54.62 L 566.29,54.91 L 568.27,55.21 L 570.25,55.52 L 572.22,55.83 L 574.20,56.16 L 576.17,56.49 L 578.14,56.84 L 580.11,57.19 L 582.08,57.55 L 584.05,57.92 L 586.01,58.30 L 587.97,58.68 L 589.94,59.08 L 591.90,59.48 L 593.85,59.90 L 595.81,60.32 L 597.76,60.75 L 599.72,61.19 L 601.67,61.63 L 603.61,62.09 L 605.56,62.56 L 607.51,63.03 L 609.45,63.51 L 611.39,64.00 L 613.32,64.50 L 615.26,65.01 L 617.19,65.53 L 619.12,66.05 L 621.05,66.59 L 622.98,67.13 L 624.90,67.68 L 626.82,68.24 L 628.74,68.81 L 630.66,69.39 L 632.57,69.97 L 634.48,70.56 L 636.39,71.17 L 638.30,71.78 L 640.20,72.40 L 642.10,73.02 L 644.00,73.66 L 645.89,74.31 L 647.78,74.96 L 649.67,75.62 L 651.56,76.29 L 653.44,76.97 L 655.32,77.65 L 657.19,78.35 L 659.07,79.05 L 660.94,79.76 L 662.81,80.48 L 664.67,81.21 L 666.53,81.95 L 668.39,82.69 L 670.24,83.45 L 672.09,84.21 L 673.94,84.98 L 675.78,85.75 L 677.62,86.54 L 679.46,87.33 L 681.29,88.14 L 683.12,88.95 L 684.95,89.76 L 686.77,90.59 L 688.59,91.42 L 690.40,92.27 L 692.22,93.12 L 694.02,93.98 L 695.83,94.84 L 697.63,95.72 L 699.42,96.60 L 701.21,97.49 L 703.00,98.39 L 704.79,99.30 L 706.57,100.21 L 708.34,101.13 L 710.11,102.06 L 711.88,103.00 L 713.64,103.95 L 715.40,104.90 L 717.16,105.86 L 718.91,106.83 L 720.65,107.81 L 722.40,108.80 L 724.13,109.79 L 725.87,110.79 L 727.59,111.80 L 729.32,112.81 L 731.04,113.84 L 732.75,114.87 L 734.46,115.91 L 736.17,116.95 L 737.87,118.01 L 739.57,119.07 L 741.26,120.14 L 742.94,121.21 L 744.63,122.30 L 746.30,123.39 L 747.98,124.49 L 749.64,125.60 L 751.30,126.71 L 752.96,127.83 L 754.61,128.96 L 756.26,130.09 L 757.90,131.24 L 759.54,132.39 L 761.17,133.55 L 762.80,134.71 L 764.42,135.88 L 766.04,137.06 L 767.65,138.25 L 769.26,139.44 L 770.86,140.64 L 772.45,141.85 L 774.04,143.07 L 775.63,144.29 L 777.21,145.52 L 778.78,146.75 L 780.35,148.00 L 781.91,149.25 L 783.47,150.50 L 785.02,151.77 L 786.56,153.04 L 788.10,154.32 L 789.64,155.60 L 791.17,156.89 L 792.69,158.19 L 794.21,159.50 L 795.72,160.81 L 797.22,162.13 L 798.72,163.45 L 800.22,164.78 L 801.70,166.12 L 803.18,167.47 L 804.66,168.82 L 806.13,170.18 L 807.59,171.54 L 809.05,172.91 L 810.50,174.29 L 811.95,175.67 L 813.39,177.06 L 814.82,178.46 L 816.25,179.86 L 817.67,181.27 L 819.08,182.69 L 820.49,184.11 L 821.89,185.54 L 823.29,186.97 L 824.67,188.41 L 826.06,189.86 L 827.43,191.31 L 828.80,192.77 L 830.16,194.24 L 831.52,195.71 L 832.87,197.19 L 834.21,198.67 L 835.55,200.16 L 836.88,201.65 L 838.20,203.15 L 839.52,204.66 L 840.83,206.17 L 842.13,207.69 L 843.43,209.22 L 844.72,210.75 L 846.00,212.28 L 847.28,213.82 L 848.55,215.37 L 849.81,216.92 L 851.07,218.48 L 852.31,220.04 L 853.56,221.61 L 854.79,223.19 L 856.02,224.77 L 857.24,226.36 L 858.45,227.95 L 859.66,229.54 L 860.86,231.14 L 862.05,232.75 L 863.23,234.36 L 864.41,235.98 L 865.58,237.61 L 866.74,239.23 L 867.90,240.87 L 869.05,242.51 L 870.19,244.15 L 871.32,245.80 L 872.45,247.45 L 873.57,249.11 L 874.68,250.77 L 875.79,252.44 L 876.88,254.12 L 877.97,255.79 L 879.06,257.48 L 880.13,259.17 L 881.20,260.86 L 882.26,262.56 L 883.31,264.26 L 884.35,265.96 L 885.39,267.68 L 886.42,269.39 L 887.44,271.11 L 888.45,272.84 L 889.46,274.57 L 890.46,276.30 L 891.45,278.04 L 892.43,279.78 L 893.41,281.53 L 894.38,283.28 L 895.34,285.04 L 896.29,286.80 L 897.23,288.56 L 898.17,290.33 L 899.10,292.10 L 900.02,293.88 L 900.93,295.66 L 901.83,297.44 L 902.73,299.23 L 903.62,301.03 L 904.50,302.82 L 905.37,304.62 L 906.24,306.43 L 907.10,308.24 L 907.94,310.05 L 908.78,311.86 L 909.62,313.68 L 910.44,315.51 L 911.26,317.33 L 912.07,319.16 L 912.87,321.00 L 913.66,322.84 L 914.44,324.68 L 915.22,326.52 L 915.98,328.37 L 916.74,330.22 L 917.49,332.08 L 918.24,333.93 L 918.97,335.80 L 919.70,337.66 L 920.42,339.53 L 921.12,341.40 L 921.83,343.27 L 922.52,345.15 L 923.20,347.03 L 923.88,348.91 L 924.55,350.80 L 925.21,352.69 L 925.86,354.58 L 926.50,356.48 L 927.13,358.38 L 927.76,360.28 L 928.38,362.18 L 928.98,364.09 L 929.58,366.00 L 930.18,367.91 L 930.76,369.82 L 931.33,371.74 L 931.90,373.66 L 932.46,375.58 L 933.01,377.50 L 933.55,379.43 L 934.08,381.36 L 934.60,383.29 L 935.12,385.22 L 935.62,387.16 L 936.12,389.10 L 936.61,391.04 L 937.09,392.98 L 937.56,394.93 L 938.02,396.87 L 938.48,398.82 L 938.92,400.77 L 939.36,402.72 L 939.79,404.68 L 940.21,406.64 L 940.62,408.59 L 941.02,410.55 L 941.41,412.52 L 941.80,414.48 L 942.17,416.45 L 942.54,418.41 L 942.90,420.38 L 943.25,422.35 L 943.59,424.32 L 943.92,426.30 L 944.25,428.27 L 944.56,430.25 L 944.87,432.22 L 945.16,434.20 L 945.45,436.18 L 945.73,438.16 L 946.00,440.15 L 946.26,442.13 L 946.52,444.12 L 946.76,446.10 L 947.00,448.09 L 947.22,450.08 L 947.44,452.07 L 947.65,454.06 L 947.85,456.05 L 948.04,458.04 L 948.22,460.03 L 948.39,462.03 L 948.56,464.02 L 948.71,466.02 L 948.86,468.01 L 949.00,470.01 L 949.13,472.00 L 949.25,474.00 L 949.36,476.00 L 949.46,478.00 L 949.56,480.00 L 949.64,482.00 L 949.72,484.00 L 949.78,486.00 L 949.84,488.00 L 949.89,490.00 L 949.93,492.00 L 949.96,494.00 L 949.98,496.00 L 950.00,498.00 Z" fill="none" stroke="black" stroke-width="3"/>
  <path d="M 946.06,501.06 L 945.61,502.59 L 943.85,502.82 L 943.74,504.71 L 945.60,508.59 L 945.99,510.99 L 945.15,512.18 L 944.43,513.50 L 944.11,515.21 L 944.90,518.06 L 943.58,518.80 L 944.77,522.06 L 943.21,522.58 L 944.10,525.56 L 944.74,528.29 L 943.94,529.59 L 942.56,530.32 L 943.61,533.49 L 944.75,536.75 L 943.82,537.96 L 943.58,539.86 L 944.06,542.50 L 943.95,544.54 L 943.26,546.02 L 942.38,547.31 L 940.77,547.88 L 942.94,552.24 L 941.10,552.60 L 942.25,555.96 L 941.15,557.07 L 940.27,558.41 L 939.76,560.13 L 941.67,564.27 L 939.20,564.05 L 938.90,565.99 L 940.42,569.78 L 939.49,571.11 L 939.82,573.71 L 940.00,576.17 L 938.58,577.05 L 939.03,579.78 L 937.88,580.93 L 938.59,583.95 L 936.40,584.08 L 935.92,585.92 L 936.10,588.43 L 936.41,591.07 L 936.39,593.40 L 933.88,593.24 L 933.96,595.68 L 934.37,598.45 L 934.71,601.16 L 931.73,600.56 L 931.31,602.52 L 933.26,606.86 L 930.90,606.89 L 932.57,610.97 L 929.84,610.65 L 931.40,614.61 L 930.12,615.76 L 928.08,616.15 L 927.91,618.41 L 928.66,621.60 L 928.68,624.07 L 928.00,625.84 L 925.18,625.48 L 926.21,628.97 L 924.37,629.60 L 926.01,633.71 L 925.72,635.90 L 923.24,635.91 L 923.69,638.86 L 922.55,640.21 L 920.76,640.93 L 921.63,644.31 L 920.10,645.29 L 921.07,648.78 L 919.69,649.93 L 917.92,650.69 L 917.55,652.85 L 916.86,654.71 L 916.73,657.12 L 915.20,658.14 L 913.99,659.49 L 914.32,662.38 L 914.23,664.86 L 911.46,664.66 L 911.75,667.53 L 910.39,668.75 L 909.68,670.63 L 908.90,672.44 L 908.01,674.15 L 907.08,675.81 L 907.88,679.22 L 906.47,680.42 L 907.17,683.73 L 904.64,683.82 L 904.46,686.27 L 902.16,686.59 L 903.31,690.37 L 902.79,692.48 L 901.12,693.46 L 899.40,694.38 L 898.97,696.60 L 897.04,697.32 L 897.34,700.27 L 897.71,703.31 L 895.89,704.15 L 894.75,705.67 L 893.47,707.06 L 894.02,710.29 L 891.23,710.18 L 891.75,713.38 L 889.67,713.99 L 888.58,715.59 L 887.20,716.89 L 885.85,718.24 L 886.86,721.95 L 886.23,724.03 L 883.30,723.80 L 884.38,727.59 L 881.39,727.31 L 879.85,728.49 L 878.92,730.27 L 879.48,733.56 L 876.51,733.31 L 877.00,736.53 L 874.98,737.23 L 873.72,738.70 L 874.55,742.27 L 873.20,743.65 L 870.62,743.82 L 871.65,747.59 L 870.57,749.25 L 867.26,748.69 L 867.71,751.89 L 865.72,752.65 L 865.44,755.13 L 864.77,757.22 L 863.65,758.85 L 861.76,759.72 L 859.65,760.37 L 859.98,763.47 L 856.62,762.88 L 855.41,764.44 L 856.47,768.26 L 854.83,769.40 L 852.42,769.76 L 851.03,771.14 L 851.32,774.21 L 849.87,775.54 L 848.37,776.82 L 846.34,777.56 L 845.58,779.59 L 846.14,782.93 L 842.75,782.33 L 842.84,785.20 L 839.62,784.77 L 839.06,787.00 L 837.76,788.49 L 838.50,792.02 L 834.80,791.11 L 833.50,792.60 L 831.66,793.55 L 832.33,797.02 L 831.26,798.74 L 828.14,798.42 L 827.87,800.94 L 826.54,802.41 L 826.63,805.30 L 824.77,806.23 L 823.60,807.86 L 821.79,808.85 L 819.41,809.27 L 817.82,810.48 L 818.41,813.86 L 814.34,812.59 L 814.84,815.89 L 812.27,816.12 L 811.79,818.43 L 810.56,820.01 L 809.43,821.67 L 807.23,822.27 L 806.62,824.46 L 804.45,825.09 L 803.97,827.40 L 800.65,826.88 L 799.30,828.32 L 799.59,831.41 L 795.57,830.19 L 794.90,832.30 L 793.52,833.72 L 793.92,836.91 L 791.38,837.17 L 788.86,837.43 L 787.28,838.64 L 785.39,839.54 L 783.83,840.77 L 782.84,842.57 L 782.93,845.44 L 781.29,846.58 L 778.24,846.32 L 778.17,849.03 L 775.40,849.04 L 772.82,849.24 L 773.37,852.56 L 770.38,852.35 L 770.10,854.84 L 769.26,856.78 L 767.04,857.33 L 763.35,856.40 L 764.00,859.82 L 761.35,859.93 L 761.34,862.69 L 757.08,861.19 L 755.88,862.75 L 756.26,865.89 L 754.45,866.83 L 750.72,865.85 L 748.90,866.79 L 748.63,869.26 L 746.27,869.64 L 745.34,871.46 L 744.95,873.81 L 740.86,872.45 L 740.98,875.32 L 737.64,874.70 L 736.74,876.54 L 735.38,877.90 L 733.63,878.87 L 730.62,878.59 L 729.45,880.13 L 728.57,881.97 L 726.16,882.28 L 726.01,884.83 L 724.33,885.86 L 722.60,886.84 L 718.63,885.56 L 718.18,887.81 L 715.34,887.66 L 715.12,890.13 L 713.24,890.94 L 711.15,891.53 L 710.75,893.81 L 706.31,892.04 L 705.72,894.12 L 705.73,896.81 L 702.23,895.97 L 699.43,895.83 L 699.51,898.57 L 698.40,900.11 L 696.41,900.77 L 692.22,899.22 L 692.11,901.75 L 689.88,902.16 L 688.57,903.49 L 685.39,902.93 L 685.86,906.03 L 681.88,904.66 L 680.82,906.22 L 680.67,908.68 L 676.66,907.28 L 674.97,908.18 L 675.01,910.82 L 671.31,909.71 L 669.99,910.98 L 669.64,913.21 L 667.73,913.89 L 664.48,913.21 L 661.87,913.17 L 660.62,914.48 L 657.93,914.35 L 657.71,916.68 L 655.92,917.43 L 652.62,916.68 L 653.15,919.75 L 649.76,918.89 L 648.71,920.36 L 646.14,920.32 L 645.24,921.93 L 642.76,921.96 L 639.56,921.27 L 639.83,924.04 L 637.89,924.59 L 635.68,924.87 L 632.22,923.90 L 631.28,925.44 L 630.56,927.18 L 627.48,926.57 L 625.32,926.86 L 622.90,926.90 L 621.64,928.09 L 619.93,928.82 L 618.60,929.92 L 614.41,928.16 L 612.87,929.05 L 611.05,929.65 L 610.51,931.52 L 606.93,930.34 L 605.30,931.11 L 604.95,933.14 L 602.51,933.09 L 599.66,932.62 L 598.04,933.37 L 595.82,933.51 L 593.79,933.84 L 591.83,934.24 L 590.82,935.57 L 589.85,936.93 L 586.17,935.58 L 584.71,936.45 L 581.72,935.77 L 580.06,936.43 L 578.92,937.59 L 576.47,937.44 L 573.83,937.09 L 574.13,939.67 L 571.82,939.63 L 568.58,938.66 L 567.66,940.00 L 566.11,940.70 L 563.51,940.35 L 560.79,939.86 L 559.95,941.25 L 559.00,942.52 L 555.52,941.26 L 553.45,941.40 L 552.62,942.77 L 549.74,942.07 L 547.86,942.38 L 546.08,942.78 L 544.82,943.69 L 541.42,942.45 L 540.15,943.33 L 538.34,943.66 L 536.20,943.66 L 532.61,942.20 L 531.97,943.68 L 530.48,944.30 L 528.33,944.26 L 526.48,944.50 L 524.71,944.82 L 521.49,943.68 L 521.19,945.45 L 516.91,943.23 L 517.40,945.78 L 514.44,944.87 L 512.85,945.31 L 509.81,944.31 L 508.82,945.33 L 506.39,944.91 L 504.75,945.27 L 503.93,946.45 L 499.85,944.35 L 499.66,946.14 L 497.91,946.36 L 494.82,945.23 L 493.22,945.57 L 490.25,944.55 L 488.43,944.66 L 485.41,943.57 L 485.93,946.00 L 481.95,943.92 L 480.91,944.78 L 477.54,943.30 L 478.00,945.63 L 476.01,945.51 L 471.39,942.75 L 471.33,944.54 L 467.45,942.49 L 466.12,943.00 L 465.24,943.94 L 463.72,944.24 L 460.51,942.82 L 460.25,944.36 L 456.80,942.70 L 454.65,942.31 L 454.02,943.45 L 450.49,941.68 L 448.10,941.03 L 447.72,942.38 L 445.23,941.62 L 442.16,940.27 L 441.70,941.51 L 439.37,940.87 L 437.81,941.00 L 434.43,939.29 L 434.96,941.49 L 431.29,939.48 L 428.61,938.45 L 427.52,938.99 L 426.70,939.80 L 423.95,938.66 L 420.95,937.26 L 420.72,938.62 L 419.21,938.70 L 416.37,937.44 L 414.70,937.33 L 411.52,935.71 L 411.36,937.09 L 408.74,936.00 L 405.62,934.41 L 403.07,933.36 L 400.95,932.75 L 401.32,934.61 L 398.63,933.40 L 396.04,932.28 L 395.72,933.42 L 393.63,932.78 L 390.91,931.49 L 387.52,929.53 L 388.39,931.82 L 386.05,930.89 L 382.05,928.28 L 380.84,928.46 L 379.94,928.93 L 377.44,927.79 L 374.76,926.47 L 372.59,925.64 L 372.13,926.50 L 370.89,926.59 L 368.79,925.79 L 365.49,923.79 L 362.70,922.28 L 362.96,923.82 L 360.03,922.15 L 358.65,922.02 L 357.51,922.13 L 355.16,921.00 L 353.31,920.37 L 351.03,919.30 L 348.99,918.46 L 346.08,916.74 L 346.46,918.30 L 342.67,915.66 L 342.59,916.73 L 339.80,915.08 L 337.94,914.36 L 334.83,912.36 L 334.83,913.47 L 331.47,911.20 L 331.94,912.76 L 330.11,912.00 L 327.49,910.44 L 324.34,908.34 L 324.46,909.49 L 322.49,908.55 L 318.79,905.87 L 318.67,906.75 L 317.13,906.20 L 314.77,904.81 L 311.64,902.66 L 309.33,901.30 L 309.34,902.25 L 306.30,900.14 L 306.92,901.69 L 304.20,899.87 L 302.41,898.98 L 299.34,896.80 L 297.78,896.11 L 295.23,894.42 L 294.70,894.74 L 292.67,893.54 L 291.46,893.17 L 290.03,892.55 L 286.87,890.19 L 286.83,890.94 L 285.43,890.31 L 282.47,888.12 L 279.82,886.23 L 277.80,884.95 L 277.20,885.09 L 276.80,885.40 L 274.89,884.20 L 273.75,883.75 L 271.45,882.13 L 268.60,879.95 L 266.18,878.19 L 265.28,877.94 L 263.08,876.37 L 262.74,876.65 L 260.50,875.02 L 258.32,873.43 L 258.33,874.04 L 254.77,871.04 L 255.44,872.27 L 252.84,870.23 L 250.06,867.98 L 248.06,866.51 L 246.35,865.31 L 246.50,865.96 L 243.00,862.95 L 243.43,863.86 L 240.31,861.19 L 238.52,859.85 L 239.14,860.91 L 235.62,857.82 L 234.76,857.37 L 234.34,857.35 L 229.87,853.27 L 231.16,854.94 L 227.17,851.31 L 228.09,852.58 L 226.12,850.95 L 224.81,849.98 L 221.40,846.88 L 221.75,847.53 L 218.44,844.52 L 216.31,842.66 L 215.02,841.63 L 213.38,840.25 L 213.06,840.17 L 209.99,837.33 L 211.20,838.75 L 208.24,836.00 L 206.98,834.93 L 204.78,832.91 L 202.52,830.81 L 202.06,830.51 L 201.85,830.44 L 198.21,826.93 L 198.46,827.30 L 197.35,826.29 L 195.51,824.54 L 194.46,823.57 L 192.62,821.79 L 191.02,820.26 L 190.47,819.74 L 188.50,817.80 L 186.06,815.38 L 185.51,814.84 L 184.05,813.37 L 182.57,811.87 L 181.85,811.12 L 180.72,809.94 L 177.76,806.92 L 175.53,804.62 L 176.87,805.88 L 173.64,802.55 L 172.21,801.02 L 170.23,798.92 L 169.92,798.47 L 167.85,796.26 L 166.24,794.49 L 167.35,795.43 L 165.14,793.04 L 162.71,790.42 L 162.34,789.84 L 160.60,787.88 L 159.71,786.76 L 159.25,786.05 L 158.28,784.83 L 157.39,783.67 L 153.36,779.36 L 153.18,778.89 L 153.07,778.47 L 150.88,775.96 L 150.85,775.60 L 147.27,771.68 L 146.05,770.11 L 147.33,771.02 L 144.09,767.40 L 144.80,767.72 L 142.10,764.61 L 139.95,762.04 L 140.08,761.74 L 139.52,760.75 L 137.86,758.63 L 138.13,758.43 L 134.57,754.40 L 134.75,754.08 L 134.41,753.24 L 131.07,749.39 L 130.72,748.51 L 129.95,747.20 L 128.96,745.66 L 126.63,742.76 L 126.57,742.13 L 125.10,740.07 L 124.27,738.64 L 124.74,738.50 L 123.34,736.47 L 121.65,734.14 L 119.44,731.29 L 118.75,729.94 L 118.83,729.34 L 116.59,726.42 L 114.87,724.00 L 114.83,723.26 L 114.52,722.22 L 113.64,720.61 L 111.61,717.83 L 110.66,716.12 L 109.19,713.88 L 109.89,713.81 L 108.43,711.55 L 106.26,708.58 L 105.94,707.44 L 106.01,706.68 L 105.10,704.93 L 102.93,701.90 L 104.56,702.67 L 103.51,700.74 L 100.98,697.33 L 99.54,694.99 L 100.93,695.47 L 97.67,691.28 L 98.13,690.81 L 97.26,688.99 L 97.12,687.89 L 94.61,684.41 L 95.24,684.06 L 94.33,682.16 L 93.43,680.25 L 90.67,676.47 L 90.08,674.85 L 89.35,673.08 L 90.24,672.93 L 89.74,671.36 L 89.66,670.20 L 86.67,666.13 L 87.37,665.74 L 85.11,662.36 L 86.32,662.46 L 83.49,658.50 L 84.46,658.32 L 82.09,654.79 L 83.23,654.77 L 82.08,652.44 L 81.63,650.81 L 80.30,648.27 L 79.40,646.16 L 79.05,644.60 L 77.91,642.22 L 78.59,641.65 L 77.01,638.82 L 75.35,635.89 L 76.07,635.33 L 75.13,633.11 L 74.66,631.33 L 73.81,629.18 L 74.17,628.22 L 72.25,624.97 L 73.03,624.40 L 72.11,622.12 L 71.73,620.38 L 70.72,617.99 L 69.18,615.07 L 71.45,615.93 L 70.48,613.55 L 68.80,610.46 L 69.76,609.99 L 67.06,605.84 L 66.07,603.40 L 66.54,602.42 L 67.50,601.91 L 67.67,600.58 L 65.36,596.79 L 64.15,594.07 L 66.16,594.57 L 63.06,589.94 L 64.63,589.98 L 63.00,586.80 L 62.10,584.35 L 63.96,584.64 L 63.31,582.40 L 63.06,580.57 L 63.05,578.96 L 62.62,576.92 L 61.77,574.46 L 60.52,571.58 L 59.80,569.22 L 61.03,568.81 L 60.44,566.56 L 59.92,564.37 L 57.87,560.64 L 60.33,561.41 L 59.09,558.47 L 59.60,557.28 L 56.94,552.90 L 59.30,553.53 L 57.30,549.79 L 56.42,547.17 L 57.15,546.14 L 57.88,545.10 L 56.65,542.10 L 57.84,541.51 L 57.08,538.95 L 56.89,536.95 L 55.05,533.29 L 56.93,533.35 L 56.31,530.91 L 56.28,529.02 L 56.59,527.49 L 54.83,523.86 L 54.24,521.41 L 55.63,520.91 L 54.70,518.10 L 54.24,515.74 L 54.05,513.64 L 53.86,511.54 L 55.67,511.42 L 55.79,509.61 L 54.26,506.13 L 53.87,503.79 L 56.17,504.13 L 55.10,501.09 L 54.02,498.03 L 55.27,497.29 L 56.40,496.43 L 56.07,494.09 L 53.81,489.82 L 55.37,489.35 L 54.76,486.71 L 53.93,483.84 L 54.62,482.49 L 54.00,479.81 L 55.27,479.01 L 56.46,478.13 L 56.92,476.51 L 56.93,474.43 L 55.29,470.69 L 56.83,470.13 L 55.92,467.10 L 57.66,466.72 L 56.35,463.28 L 57.92,462.71 L 55.96,458.60 L 56.48,456.97 L 57.63,455.96 L 58.21,454.37 L 58.33,452.31 L 58.72,450.51 L 58.54,448.13 L 56.92,444.32 L 59.67,444.86 L 58.50,441.47 L 59.11,439.85 L 59.30,437.81 L 58.35,434.62 L 60.32,434.34 L 61.50,433.28 L 61.84,431.36 L 60.65,427.89 L 60.73,425.69 L 61.07,423.75 L 61.10,421.50 L 62.19,420.29 L 63.98,419.77 L 62.67,416.15 L 63.94,415.10 L 63.76,412.60 L 64.71,411.21 L 63.81,407.97 L 65.35,407.17 L 65.66,405.13 L 65.46,402.56 L 65.25,399.99 L 67.89,400.25 L 66.18,396.17 L 66.14,393.74 L 67.35,392.56 L 69.64,392.44 L 67.52,387.92 L 68.84,386.83 L 69.43,385.00 L 70.24,383.38 L 70.91,381.62 L 70.82,379.10 L 73.20,379.04 L 72.07,375.46 L 71.77,372.70 L 73.33,371.81 L 73.25,369.26 L 76.18,369.71 L 76.55,367.60 L 75.58,364.15 L 76.76,362.84 L 77.00,360.59 L 78.69,359.77 L 77.12,355.70 L 79.69,355.75 L 78.48,352.03 L 79.47,350.50 L 82.56,351.06 L 81.08,347.04 L 81.61,345.03 L 82.79,343.67 L 84.54,342.87 L 83.42,339.20 L 85.94,339.15 L 87.46,338.12 L 87.20,335.29 L 87.04,332.55 L 88.73,331.67 L 88.88,329.23 L 88.75,326.51 L 89.69,324.86 L 92.21,324.78 L 91.19,321.15 L 91.53,318.89 L 93.37,318.11 L 94.90,317.03 L 94.31,313.82 L 97.54,314.42 L 96.19,310.44 L 96.44,308.06 L 98.00,306.99 L 99.56,305.90 L 99.77,303.47 L 102.58,303.63 L 103.25,301.65 L 103.35,299.09 L 105.17,298.25 L 105.31,295.72 L 106.52,294.25 L 107.93,293.00 L 108.08,290.47 L 107.16,286.87 L 109.78,286.81 L 111.73,286.07 L 111.55,283.19 L 111.67,280.63 L 111.98,278.24 L 114.78,278.34 L 113.93,274.78 L 115.41,273.55 L 118.55,273.98 L 119.53,272.25 L 119.49,269.50 L 119.97,267.26 L 121.98,266.55 L 122.05,263.89 L 124.58,263.69 L 123.81,260.19 L 125.60,259.25 L 126.39,257.30 L 127.56,255.74 L 130.19,255.63 L 131.40,254.09 L 130.52,250.46 L 131.20,248.40 L 134.57,249.01 L 134.96,246.65 L 135.70,244.64 L 135.92,242.10 L 137.11,240.53 L 138.27,238.93 L 140.10,237.99 L 141.69,236.82 L 141.59,233.95 L 142.91,232.50 L 145.73,232.55 L 147.04,231.09 L 148.13,229.40 L 149.28,227.78 L 149.54,225.27 L 150.86,223.81 L 150.73,220.90 L 154.11,221.49 L 154.70,219.30 L 157.11,218.92 L 157.78,216.81 L 157.92,214.16 L 159.66,213.11 L 160.65,211.32 L 161.72,209.59 L 162.50,207.59 L 166.40,208.69 L 167.33,206.83 L 168.74,205.45 L 169.28,203.19 L 171.54,202.66 L 172.21,200.53 L 171.53,197.06 L 173.85,196.58 L 175.84,195.77 L 176.65,193.79 L 176.81,191.15 L 180.80,192.34 L 181.10,189.85 L 181.89,187.84 L 185.04,188.19 L 186.22,186.57 L 187.54,185.09 L 188.06,182.81 L 190.82,182.77 L 191.24,180.39 L 193.65,180.01 L 193.87,177.43 L 195.81,176.57 L 196.49,174.46 L 196.81,171.98 L 200.47,172.84 L 200.78,170.36 L 201.27,168.05 L 203.91,167.90 L 206.05,167.24 L 206.79,165.19 L 206.92,162.54 L 209.61,162.43 L 212.63,162.66 L 213.19,160.43 L 213.36,157.82 L 216.30,157.97 L 218.88,157.76 L 220.41,156.50 L 220.99,154.30 L 222.03,152.56 L 223.83,151.58 L 225.06,150.03 L 225.40,147.59 L 227.30,146.72 L 230.43,147.07 L 230.57,144.44 L 231.45,142.54 L 235.70,144.03 L 236.57,142.13 L 237.88,140.68 L 240.15,140.18 L 241.82,139.09 L 242.53,137.04 L 244.04,135.79 L 244.88,133.88 L 248.20,134.45 L 249.48,132.98 L 250.99,131.73 L 251.67,129.66 L 253.14,128.40 L 255.29,127.81 L 257.88,127.66 L 257.85,124.88 L 260.14,124.44 L 261.79,123.36 L 265.28,124.12 L 265.33,121.44 L 266.88,120.28 L 270.47,121.14 L 269.37,117.33 L 271.92,117.16 L 274.43,116.97 L 275.74,115.56 L 276.53,113.65 L 279.42,113.83 L 279.75,111.47 L 282.36,111.38 L 283.16,109.49 L 285.42,109.07 L 287.49,108.45 L 289.62,107.90 L 289.92,105.52 L 294.35,107.28 L 294.53,104.79 L 295.58,103.17 L 298.31,103.24 L 301.63,103.90 L 300.91,100.52 L 304.78,101.74 L 306.42,100.74 L 306.74,98.42 L 309.48,98.52 L 309.61,96.01 L 314.07,97.85 L 314.21,95.35 L 316.61,95.14 L 318.16,94.07 L 320.75,94.05 L 320.79,91.47 L 323.51,91.59 L 326.07,91.55 L 327.00,89.89 L 330.41,90.70 L 331.60,89.32 L 331.88,87.02 L 335.61,88.17 L 336.04,86.03 L 336.86,84.28 L 338.47,83.33 L 342.85,85.15 L 343.42,83.17 L 346.23,83.44 L 347.32,81.99 L 348.65,80.78 L 349.94,79.54 L 352.80,79.88 L 354.88,79.44 L 355.94,77.99 L 358.81,78.35 L 361.11,78.15 L 361.46,76.00 L 364.43,76.48 L 365.95,75.51 L 368.53,75.62 L 370.97,75.58 L 371.94,74.09 L 372.20,71.88 L 375.25,72.48 L 376.26,71.04 L 379.53,71.86 L 382.21,72.10 L 382.63,70.09 L 385.51,70.54 L 387.40,70.01 L 388.70,68.90 L 392.07,69.87 L 391.80,67.20 L 394.15,67.15 L 397.34,67.95 L 397.78,66.01 L 399.62,65.47 L 400.91,64.40 L 403.81,64.94 L 405.19,63.96 L 407.57,64.00 L 410.93,65.01 L 413.22,64.97 L 414.63,64.05 L 416.73,63.83 L 419.17,63.96 L 420.24,62.72 L 421.93,62.11 L 423.34,61.23 L 425.63,61.23 L 426.71,60.04 L 429.63,60.68 L 432.39,61.18 L 434.58,61.12 L 435.73,60.02 L 437.17,59.22 L 440.26,60.07 L 441.18,58.77 L 444.51,59.88 L 444.76,57.91 L 446.02,56.98 L 449.07,57.82 L 450.74,57.31 L 453.47,57.86 L 455.63,57.84 L 458.23,58.28 L 460.47,58.36 L 460.79,56.54 L 463.59,57.20 L 463.89,55.36 L 466.41,55.75 L 468.15,55.38 L 471.98,57.11 L 473.84,56.86 L 474.84,55.77 L 477.97,56.81 L 479.84,56.62 L 479.67,54.37 L 482.61,55.26 L 485.35,55.95 L 486.06,54.62 L 489.49,56.01 L 491.75,56.25 L 492.69,55.17 L 496.02,56.50 L 496.22,54.69 L 497.53,54.02 L 501.66,56.17 L 501.16,53.70 L 504.43,55.00 L 507.37,55.99 L 507.24,53.91 L 509.05,53.78 L 513.42,56.23 L 514.58,55.47 L 514.94,53.92 L 518.84,55.92 L 521.74,56.93 L 523.72,57.02 L 524.64,56.07 L 527.07,56.64 L 527.34,55.05 L 529.17,55.04 L 532.35,56.39 L 535.46,57.67 L 536.94,57.33 L 538.98,57.56 L 540.54,57.33 L 542.44,57.44 L 543.45,56.67 L 546.80,58.25 L 548.47,58.16 L 550.12,58.06 L 550.43,56.63 L 554.69,59.16 L 556.96,59.71 L 559.08,60.13 L 560.52,59.87 L 562.30,59.95 L 562.41,58.38 L 566.99,61.29 L 566.90,59.54 L 568.45,59.44 L 572.00,61.35 L 572.03,59.75 L 576.73,62.83 L 578.60,63.09 L 580.71,63.59 L 582.09,63.39 L 582.30,62.02 L 583.60,61.75 L 587.73,64.32 L 587.56,62.60 L 590.46,63.96 L 591.84,63.82 L 594.85,65.31 L 595.92,64.87 L 598.41,65.86 L 600.71,66.68 L 603.57,68.06 L 605.76,68.78 L 605.05,66.62 L 609.49,69.63 L 609.87,68.56 L 611.55,68.83 L 613.31,69.18 L 616.48,70.95 L 617.28,70.36 L 619.24,70.94 L 620.62,70.94 L 622.38,71.35 L 625.20,72.83 L 627.42,73.71 L 629.43,74.40 L 629.63,73.28 L 634.23,76.58 L 634.93,75.99 L 638.11,77.88 L 638.75,77.26 L 639.23,76.48 L 641.63,77.63 L 645.59,80.35 L 645.01,78.55 L 647.16,79.49 L 649.21,80.33 L 650.53,80.47 L 654.85,83.60 L 655.56,83.14 L 656.54,82.97 L 659.00,84.29 L 660.98,85.13 L 662.62,85.65 L 665.32,87.24 L 665.68,86.49 L 668.14,87.87 L 669.15,87.79 L 673.49,91.07 L 673.62,90.15 L 675.60,91.08 L 678.34,92.79 L 680.52,93.96 L 680.31,92.73 L 684.06,95.49 L 685.16,95.61 L 685.52,94.99 L 689.08,97.59 L 690.48,98.03 L 691.02,97.64 L 694.60,100.30 L 695.92,100.70 L 696.96,100.84 L 698.75,101.74 L 701.47,103.58 L 702.14,103.37 L 704.42,104.80 L 706.57,106.11 L 707.43,106.14 L 710.40,108.29 L 711.12,108.20 L 714.30,110.59 L 715.55,111.05 L 716.78,111.51 L 717.28,111.24 L 718.68,111.90 L 720.94,113.43 L 723.49,115.25 L 726.07,117.11 L 727.41,117.75 L 729.83,119.49 L 730.86,119.84 L 730.74,119.06 L 733.81,121.48 L 735.84,122.86 L 736.68,123.08 L 739.82,125.60 L 739.06,124.24 L 742.05,126.64 L 742.55,126.56 L 743.90,127.34 L 747.49,130.38 L 747.74,130.08 L 749.16,130.98 L 751.28,132.58 L 752.79,133.58 L 756.47,136.77 L 757.65,137.46 L 757.52,136.87 L 761.06,139.95 L 762.65,141.09 L 763.94,141.95 L 763.51,141.11 L 767.73,144.91 L 768.24,145.03 L 769.74,146.15 L 772.39,148.43 L 771.48,147.15 L 774.70,150.03 L 775.85,150.85 L 777.88,152.55 L 780.25,154.62 L 781.32,155.39 L 782.50,156.29 L 782.50,156.01 L 785.79,159.05 L 786.99,160.00 L 786.49,159.26 L 789.48,162.04 L 791.04,163.38 L 792.08,164.23 L 793.14,165.10 L 795.94,167.73 L 797.52,169.15 L 798.98,170.46 L 799.94,171.29 L 801.57,172.80 L 803.27,174.38 L 803.75,174.76 L 805.63,176.55 L 808.01,178.86 L 809.10,179.89 L 809.13,179.88 L 809.89,180.60 L 812.07,182.76 L 814.12,184.79 L 814.24,184.92 L 817.80,188.49 L 818.18,188.89 L 818.50,189.26 L 819.57,190.38 L 822.88,193.75 L 823.45,194.40 L 824.67,195.71 L 825.14,196.28 L 828.55,199.80 L 828.53,199.91 L 830.75,202.26 L 833.15,204.81 L 833.33,205.16 L 835.93,207.94 L 835.68,207.87 L 836.31,208.70 L 839.16,211.77 L 840.06,212.89 L 841.28,214.35 L 842.27,215.59 L 844.16,217.74 L 845.57,219.43 L 845.66,219.80 L 845.80,220.24 L 847.13,221.89 L 851.02,226.11 L 851.69,227.11 L 852.62,228.39 L 854.68,230.81 L 853.13,229.63 L 856.36,233.25 L 855.49,232.77 L 859.16,236.86 L 859.67,237.79 L 860.63,239.18 L 860.67,239.67 L 861.23,240.69 L 862.67,242.61 L 866.00,246.42 L 865.13,246.04 L 868.65,250.07 L 868.47,250.42 L 868.15,250.63 L 870.59,253.61 L 872.80,256.38 L 873.88,258.03 L 873.48,258.21 L 876.28,261.61 L 874.87,260.80 L 878.09,264.64 L 877.10,264.29 L 879.01,266.84 L 880.53,269.02 L 879.70,268.85 L 883.10,272.93 L 883.26,273.78 L 885.15,276.38 L 885.19,277.13 L 885.08,277.75 L 885.85,279.25 L 889.19,283.34 L 888.60,283.52 L 890.16,285.86 L 891.90,288.39 L 893.18,290.46 L 892.03,290.12 L 895.21,294.13 L 893.34,293.09 L 896.17,296.76 L 895.29,296.75 L 897.19,299.51 L 899.18,302.39 L 897.79,301.89 L 899.53,304.53 L 899.72,305.64 L 900.72,307.57 L 902.82,310.62 L 904.68,313.43 L 903.86,313.57 L 904.18,314.87 L 904.85,316.53 L 906.79,319.47 L 908.59,322.27 L 907.41,322.12 L 909.88,325.62 L 909.62,326.41 L 912.01,329.86 L 912.43,331.35 L 912.78,332.78 L 912.15,333.24 L 914.49,336.68 L 915.22,338.53 L 915.76,340.20 L 914.45,340.02 L 915.02,341.73 L 916.27,344.14 L 919.26,348.31 L 919.15,349.38 L 918.44,349.86 L 919.93,352.56 L 920.39,354.23 L 920.95,356.02 L 920.95,357.26 L 923.36,360.92 L 923.71,362.53 L 923.06,363.15 L 923.13,364.51 L 925.06,367.73 L 926.53,370.51 L 925.83,371.13 L 925.79,372.41 L 927.39,375.35 L 926.16,375.47 L 927.10,377.77 L 930.07,382.11 L 929.03,382.45 L 929.27,384.08 L 930.78,387.00 L 929.94,387.57 L 931.59,390.65 L 932.74,393.24 L 930.90,392.84 L 933.31,396.71 L 934.03,398.89 L 934.20,400.54 L 935.15,402.98 L 933.44,402.76 L 934.66,405.49 L 934.28,406.64 L 935.00,408.88 L 937.44,412.87 L 937.37,414.34 L 938.05,416.59 L 935.93,416.05 L 937.23,418.92 L 937.84,421.13 L 939.41,424.29 L 939.92,426.43 L 939.37,427.49 L 938.17,427.92 L 939.76,431.16 L 941.05,434.10 L 941.45,436.17 L 939.26,435.65 L 940.33,438.41 L 940.72,440.48 L 941.07,442.54 L 942.70,445.88 L 943.04,447.95 L 942.78,449.42 L 941.52,449.90 L 941.88,452.01 L 942.67,454.56 L 942.74,456.40 L 941.96,457.41 L 943.04,460.28 L 944.51,463.55 L 943.21,464.05 L 944.54,467.21 L 943.11,467.60 L 942.71,469.04 L 945.10,473.28 L 943.05,473.08 L 943.91,475.81 L 945.45,479.22 L 946.05,481.71 L 945.97,483.53 L 943.80,483.26 L 945.57,486.94 L 944.44,487.72 L 945.40,490.61 L 944.16,491.31 L 943.65,492.76 L 945.06,496.12 L 946.33,499.36 Z" fill="none" stroke="red" stroke-width="2"/>
</svg>