<?xml version="1.0" encoding="UTF-8"?>
<svg width="1000" height="1000" xmlns="http://www.w3.org/2000/svg">
  <rect width="1000" height="1000" fill="white"/>
  <path d="M 950.00,500.00 L 950.00,502.00 L 949.98,504.00 L 949.96,506.00 L 949.93,508.00 L 949.89,510.00 L 949.84,512.00 L 949.78,514.00 L 949.72,516.00 L 949.64,518.00 L 949.56,520.00 L 949.46,522.00 L 949.36,524.00 L 949.25,526.00 L 949.13,528.00 L 949.00,529.99 L 948.86,531.99 L 948.71,533.98 L 948.56,535.98 L 948.39,537.97 L 948.22,539.97 L 948.04,541.96 L 947.85,543.95 L 947.65,545.94 L 947.44,547.93 L 947.22,549.92 L 947.00,551.91 L 946.76,553.90 L 946.52,555.88 L 946.26,557.87 L 946.00,559.85 L 945.73,561.84 L 945.45,563.82 L 945.16,565.80 L 944.87,567.78 L 944.56,569.75 L 944.25,571.73 L 943.92,573.70 L 943.59,575.68 L 943.25,577.65 L 942.90,579.62 L 942.54,581.59 L 942.17,583.55 L 941.80,585.52 L 941.41,587.48 L 941.02,589.45 L 940.62,591.41 L 940.21,593.36 L 939.79,595.32 L 939.36,597.28 L 938.92,599.23 L 938.48,601.18 L 938.02,603.13 L 937.56,605.07 L 937.09,607.02 L 936.61,608.96 L 936.12,610.90 L 935.62,612.84 L 935.12,614.78 L 934.60,616.71 L 934.08,618.64 L 933.55,620.57 L 933.01,622.50 L 932.46,624.42 L 931.90,626.34 L 931.33,628.26 L 930.76,630.18 L 930.18,632.09 L 929.58,634.00 L 928.98,635.91 L 928.38,637.82 L 927.76,639.72 L 927.13,641.62 L 926.50,643.52 L 925.86,645.42 L 925.21,647.31 L 924.55,649.20 L 923.88,651.09 L 923.20,652.97 L 922.52,654.85 L 921.83,656.73 L 921.12,658.60 L 920.42,660.47 L 919.70,662.34 L 918.97,664.20 L 918.24,666.07 L 917.49,667.92 L 916.74,669.78 L 915.98,671.63 L 915.22,673.48 L 914.44,675.32 L 913.66,677.16 L 912.87,679.00 L 912.07,680.84 L 911.26,682.67 L 910.44,684.49 L 909.62,686.32 L 908.78,688.14 L 907.94,689.95 L 907.10,691.76 L 906.24,693.57 L 905.37,695.38 L 904.50,697.18 L 903.62,698.97 L 902.73,700.77 L 901.83,702.56 L 900.93,704.34 L 900.02,706.12 L 899.10,707.90 L 898.17,709.67 L 897.23,711.44 L 896.29,713.20 L 895.34,714.96 L 894.38,716.72 L 893.41,718.47 L 892.43,720.22 L 891.45,721.96 L 890.46,723.70 L 889.46,725.43 L 888.45,727.16 L 887.44,728.89 L 886.42,730.61 L 885.39,732.32 L 884.35,734.04 L 883.31,735.74 L 882.26,737.44 L 881.20,739.14 L 880.13,740.83 L 879.06,742.52 L 877.97,744.21 L 876.88,745.88 L 875.79,747.56 L 874.68,749.23 L 873.57,750.89 L 872.45,752.55 L 871.32,754.20 L 870.19,755.85 L 869.05,757.49 L 867.90,759.13 L 866.74,760.77 L 865.58,762.39 L 864.41,764.02 L 863.23,765.64 L 862.05,767.25 L 860.86,768.86 L 859.66,770.46 L 858.45,772.05 L 857.24,773.64 L 856.02,775.23 L 854.79,776.81 L 853.56,778.39 L 852.31,779.96 L 851.07,781.52 L 849.81,783.08 L 848.55,784.63 L 847.28,786.18 L 846.00,787.72 L 844.72,789.25 L 843.43,790.78 L 842.13,792.31 L 840.83,793.83 L 839.52,795.34 L 838.20,796.85 L 836.88,798.35 L 835.55,799.84 L 834.21,801.33 L 832.87,802.81 L 831.52,804.29 L 830.16,805.76 L 828.80,807.23 L 827.43,808.69 L 826.06,810.14 L 824.67,811.59 L 823.29,813.03 L 821.89,814.46 L 820.49,815.89 L 819.08,817.31 L 817.67,818.73 L 816.25,820.14 L 814.82,821.54 L 813.39,822.94 L 811.95,824.33 L 810.50,825.71 L 809.05,827.09 L 807.59,828.46 L 806.13,829.82 L 804.66,831.18 L 803.18,832.53 L 801.70,833.88 L 800.22,835.22 L 798.72,836.55 L 797.22,837.87 L 795.72,839.19 L 794.21,840.50 L 792.69,841.81 L 791.17,843.11 L 789.64,844.40 L 788.10,845.68 L 786.56,846.96 L 785.02,848.23 L 783.47,849.50 L 781.91,850.75 L 780.35,852.00 L 778.78,853.25 L 777.21,854.48 L 775.63,855.71 L 774.04,856.93 L 772.45,858.15 L 770.86,859.36 L 769.26,860.56 L 767.65,861.75 L 766.04,862.94 L 764.42,864.12 L 762.80,865.29 L 761.17,866.45 L 759.54,867.61 L 757.90,868.76 L 756.26,869.91 L 754.61,871.04 L 752.96,872.17 L 751.30,873.29 L 749.64,874.40 L 747.98,875.51 L 746.30,876.61 L 744.63,877.70 L 742.94,878.79 L 741.26,879.86 L 739.57,880.93 L 737.87,881.99 L 736.17,883.05 L 734.46,884.09 L 732.75,885.13 L 731.04,886.16 L 729.32,887.19 L 727.59,888.20 L 725.87,889.21 L 724.13,890.21 L 722.40,891.20 L 720.65,892.19 L 718.91,893.17 L 717.16,894.14 L 715.40,895.10 L 713.64,896.05 L 711.88,897.00 L 710.11,897.94 L 708.34,898.87 L 706.57,899.79 L 704.79,900.70 L 703.00,901.61 L 701.21,902.51 L 699.42,903.40 L 697.63,904.28 L 695.83,905.16 L 694.02,906.02 L 692.22,906.88 L 690.40,907.73 L 688.59,908.58 L 686.77,909.41 L 684.95,910.24 L 683.12,911.05 L 681.29,911.86 L 679.46,912.67 L 677.62,913.46 L 675.78,914.25 L 673.94,915.02 L 672.09,915.79 L 670.24,916.55 L 668.39,917.31 L 666.53,918.05 L 664.67,918.79 L 662.81,919.52 L 660.94,920.24 L 659.07,920.95 L 657.19,921.65 L 655.32,922.35 L 653.44,923.03 L 651.56,923.71 L 649.67,924.38 L 647.78,925.04 L 645.89,925.69 L 644.00,926.34 L 642.10,926.98 L 640.20,927.60 L 638.30,928.22 L 636.39,928.83 L 634.48,929.44 L 632.57,930.03 L 630.66,930.61 L 628.74,931.19 L 626.82,931.76 L 624.90,932.32 L 622.98,932.87 L 621.05,933.41 L 619.12,933.95 L 617.19,934.47 L 615.26,934.99 L 613.32,935.50 L 611.39,936.00 L 609.45,936.49 L 607.51,936.97 L 605.56,937.44 L 603.61,937.91 L 601.67,938.37 L 599.72,938.81 L 597.76,939.25 L 595.81,939.68 L 593.85,940.10 L 591.90,940.52 L 589.94,940.92 L 587.97,941.32 L 586.01,941.70 L 584.05,942.08 L 582.08,942.45 L 580.11,942.81 L 578.14,943.16 L 576.17,943.51 L 574.20,943.84 L 572.22,944.17 L 570.25,944.48 L 568.27,944.79 L 566.29,945.09 L 564.31,945.38 L 562.33,945.66 L 560.35,945.94 L 558.36,946.20 L 556.38,946.45 L 554.39,946.70 L 552.41,946.94 L 550.42,947.17 L 548.43,947.39 L 546.44,947.60 L 544.45,947.80 L 542.46,947.99 L 540.47,948.18 L 538.47,948.35 L 536.48,948.52 L 534.48,948.68 L 532.49,948.83 L 530.49,948.97 L 528.50,949.10 L 526.50,949.22 L 524.50,949.33 L 522.50,949.44 L 520.50,949.53 L 518.50,949.62 L 516.50,949.70 L 514.50,949.77 L 512.50,949.83 L 510.50,949.88 L 508.50,949.92 L 506.50,949.95 L 504.50,949.98 L 502.50,949.99 L 500.50,950.00 L 498.50,950.00 L 496.50,949.99 L 494.50,949.97 L 492.50,949.94 L 490.50,949.90 L 488.50,949.85 L 486.50,949.80 L 484.50,949.73 L 482.50,949.66 L 480.50,949.58 L 478.50,949.49 L 476.50,949.39 L 474.50,949.28 L 472.50,949.16 L 470.51,949.03 L 468.51,948.90 L 466.51,948.75 L 464.52,948.60 L 462.52,948.44 L 460.53,948.27 L 458.54,948.09 L 456.55,947.90 L 454.55,947.70 L 452.56,947.49 L 450.57,947.28 L 448.59,947.05 L 446.60,946.82 L 444.61,946.58 L 442.63,946.33 L 440.64,946.07 L 438.66,945.80 L 436.68,945.52 L 434.70,945.24 L 432.72,944.94 L 430.74,944.64 L 428.76,944.33 L 426.79,944.00 L 424.82,943.67 L 422.84,943.34 L 420.87,942.99 L 418.90,942.63 L 416.94,942.27 L 414.97,941.89 L 413.01,941.51 L 411.04,941.12 L 409.08,940.72 L 407.12,940.31 L 405.17,939.89 L 403.21,939.47 L 401.26,939.03 L 399.31,938.59 L 397.36,938.14 L 395.41,937.68 L 393.47,937.21 L 391.52,936.73 L 389.58,936.24 L 387.64,935.75 L 385.71,935.24 L 383.77,934.73 L 381.84,934.21 L 379.91,933.68 L 377.98,933.14 L 376.06,932.60 L 374.14,932.04 L 372.22,931.48 L 370.30,930.90 L 368.38,930.32 L 366.47,929.73 L 364.56,929.14 L 362.66,928.53 L 360.75,927.91 L 358.85,927.29 L 356.95,926.66 L 355.06,926.02 L 353.16,925.37 L 351.27,924.71 L 349.39,924.05 L 347.50,923.37 L 345.62,922.69 L 343.74,922.00 L 341.87,921.30 L 340.00,920.59 L 338.13,919.88 L 336.26,919.15 L 334.40,918.42 L 332.54,917.68 L 330.69,916.93 L 328.83,916.18 L 326.98,915.41 L 325.14,914.64 L 323.30,913.85 L 321.46,913.07 L 319.62,912.27 L 317.79,911.46 L 315.96,910.65 L 314.14,909.82 L 312.32,908.99 L 310.50,908.16 L 308.69,907.31 L 306.88,906.45 L 305.07,905.59 L 303.27,904.72 L 301.47,903.84 L 299.68,902.95 L 297.89,902.06 L 296.11,901.16 L 294.32,900.25 L 292.55,899.33 L 290.77,898.40 L 289.00,897.47 L 287.24,896.53 L 285.48,895.58 L 283.72,894.62 L 281.97,893.65 L 280.22,892.68 L 278.47,891.70 L 276.74,890.71 L 275.00,889.71 L 273.27,888.71 L 271.54,887.70 L 269.82,886.68 L 268.10,885.65 L 266.39,884.61 L 264.68,883.57 L 262.98,882.52 L 261.28,881.46 L 259.59,880.40 L 257.90,879.32 L 256.21,878.24 L 254.53,877.16 L 252.86,876.06 L 251.19,874.96 L 249.53,873.85 L 247.87,872.73 L 246.21,871.61 L 244.56,870.47 L 242.92,869.33 L 241.28,868.19 L 239.64,867.03 L 238.01,865.87 L 236.39,864.70 L 234.77,863.53 L 233.15,862.34 L 231.55,861.15 L 229.94,859.96 L 228.34,858.75 L 226.75,857.54 L 225.17,856.32 L 223.58,855.10 L 222.01,853.86 L 220.44,852.62 L 218.87,851.38 L 217.31,850.12 L 215.76,848.86 L 214.21,847.60 L 212.67,846.32 L 211.13,845.04 L 209.60,843.75 L 208.07,842.46 L 206.55,841.16 L 205.04,839.85 L 203.53,838.53 L 202.03,837.21 L 200.53,835.88 L 199.04,834.55 L 197.56,833.21 L 196.08,831.86 L 194.60,830.50 L 193.14,829.14 L 191.68,827.78 L 190.22,826.40 L 188.77,825.02 L 187.33,823.63 L 185.90,822.24 L 184.47,820.84 L 183.04,819.43 L 181.63,818.02 L 180.21,816.60 L 178.81,815.18 L 177.41,813.75 L 176.02,812.31 L 174.63,810.86 L 173.25,809.41 L 171.88,807.96 L 170.52,806.50 L 169.16,805.03 L 167.80,803.55 L 166.46,802.07 L 165.12,800.59 L 163.78,799.10 L 162.46,797.60 L 161.14,796.09 L 159.82,794.58 L 158.52,793.07 L 157.22,791.55 L 155.92,790.02 L 154.64,788.49 L 153.36,786.95 L 152.09,785.40 L 150.82,783.85 L 149.56,782.30 L 148.31,780.74 L 147.06,779.17 L 145.83,777.60 L 144.60,776.02 L 143.37,774.44 L 142.16,772.85 L 140.95,771.26 L 139.74,769.66 L 138.55,768.05 L 137.36,766.44 L 136.18,764.83 L 135.00,763.21 L 133.84,761.58 L 132.68,759.95 L 131.53,758.31 L 130.38,756.67 L 129.24,755.03 L 128.11,753.38 L 126.99,751.72 L 125.87,750.06 L 124.77,748.39 L 123.66,746.72 L 122.57,745.05 L 121.49,743.36 L 120.41,741.68 L 119.34,739.99 L 118.27,738.29 L 117.22,736.59 L 116.17,734.89 L 115.13,733.18 L 114.09,731.47 L 113.07,729.75 L 112.05,728.03 L 111.04,726.30 L 110.04,724.57 L 109.04,722.83 L 108.06,721.09 L 107.08,719.34 L 106.11,717.60 L 105.14,715.84 L 104.19,714.08 L 103.24,712.32 L 102.30,710.56 L 101.37,708.78 L 100.44,707.01 L 99.53,705.23 L 98.62,703.45 L 97.72,701.66 L 96.82,699.87 L 95.94,698.08 L 95.06,696.28 L 94.19,694.47 L 93.33,692.67 L 92.48,690.86 L 91.63,689.04 L 90.80,687.23 L 89.97,685.40 L 89.15,683.58 L 88.34,681.75 L 87.53,679.92 L 86.74,678.08 L 85.95,676.24 L 85.17,674.40 L 84.40,672.55 L 83.63,670.70 L 82.88,668.85 L 82.13,666.99 L 81.39,665.13 L 80.66,663.27 L 79.94,661.41 L 79.23,659.54 L 78.52,657.66 L 77.83,655.79 L 77.14,653.91 L 76.46,652.03 L 75.79,650.14 L 75.12,648.25 L 74.47,646.36 L 73.82,644.47 L 73.18,642.57 L 72.55,640.67 L 71.93,638.77 L 71.32,636.87 L 70.71,634.96 L 70.12,633.05 L 69.53,631.14 L 68.95,629.22 L 68.38,627.30 L 67.82,625.38 L 67.27,623.46 L 66.72,621.53 L 66.19,619.61 L 65.66,617.68 L 65.14,615.74 L 64.63,613.81 L 64.13,611.87 L 63.63,609.93 L 63.15,607.99 L 62.67,606.05 L 62.21,604.10 L 61.75,602.15 L 61.30,600.20 L 60.86,598.25 L 60.42,596.30 L 60.00,594.34 L 59.59,592.39 L 59.18,590.43 L 58.78,588.47 L 58.39,586.50 L 58.01,584.54 L 57.64,582.57 L 57.28,580.60 L 56.92,578.63 L 56.58,576.66 L 56.24,574.69 L 55.91,572.72 L 55.60,570.74 L 55.28,568.76 L 54.98,566.79 L 54.69,564.81 L 54.41,562.83 L 54.13,560.84 L 53.87,558.86 L 53.61,556.88 L 53.36,554.89 L 53.12,552.90 L 52.89,550.92 L 52.67,548.93 L 52.45,546.94 L 52.25,544.95 L 52.05,542.96 L 51.87,540.96 L 51.69,538.97 L 51.52,536.98 L 51.36,534.98 L 51.21,532.99 L 51.07,530.99 L 50.94,528.99 L 50.81,527.00 L 50.69,525.00 L 50.59,523.00 L 50.49,521.00 L 50.40,519.00 L 50.32,517.00 L 50.25,515.00 L 50.19,513.00 L 50.13,511.00 L 50.09,509.00 L 50.05,507.00 L 50.03,505.00 L 50.01,503.00 L 50.00,501.00 L 50.00,499.00 L 50.01,497.00 L 50.03,495.00 L 50.05,493.00 L 50.09,491.00 L 50.13,489.00 L 50.19,487.00 L 50.25,485.00 L 50.32,483.00 L 50.40,481.00 L 50.49,479.00 L 50.59,477.00 L 50.69,475.00 L 50.81,473.00 L 50.94,471.01 L 51.07,469.01 L 51.21,467.01 L 51.36,465.02 L 51.52,463.02 L 51.69,461.03 L 51.87,459.04 L 52.05,457.04 L 52.25,455.05 L 52.45,453.06 L 52.67,451.07 L 52.89,449.08 L 53.12,447.10 L 53.36,445.11 L 53.61,443.12 L 53.87,441.14 L 54.13,439.16 L 54.41,437.17 L 54.69,435.19 L 54.98,433.21 L 55.28,431.24 L 55.60,429.26 L 55.91,427.28 L 56.24,425.31 L 56.58,423.34 L 56.92,421.37 L 57.28,419.40 L 57.64,417.43 L 58.01,415.46 L 58.39,413.50 L 58.78,411.53 L 59.18,409.57 L 59.59,407.61 L 60.00,405.66 L 60.42,403.70 L 60.86,401.75 L 61.30,399.80 L 61.75,397.85 L 62.21,395.90 L 62.67,393.95 L 63.15,392.01 L 63.63,390.07 L 64.13,388.13 L 64.63,386.19 L 65.14,384.26 L 65.66,382.32 L 66.19,380.39 L 66.72,378.47 L 67.27,376.54 L 67.82,374.62 L 68.38,372.70 L 68.95,370.78 L 69.53,368.86 L 70.12,366.95 L 70.71,365.04 L 71.32,363.13 L 71.93,361.23 L 72.55,359.33 L 73.18,357.43 L 73.82,355.53 L 74.47,353.64 L 75.12,351.75 L 75.79,349.86 L 76.46,347.97 L 77.14,346.09 L 77.83,344.21 L 78.52,342.34 L 79.23,340.46 L 79.94,338.59 L 80.66,336.73 L 81.39,334.87 L 82.13,333.01 L 82.88,331.15 L 83.63,329.30 L 84.40,327.45 L 85.17,325.60 L 85.95,323.76 L 86.74,321.92 L 87.53,320.08 L 88.34,318.25 L 89.15,316.42 L 89.97,314.60 L 90.80,312.77 L 91.63,310.96 L 92.48,309.14 L 93.33,307.33 L 94.19,305.53 L 95.06,303.72 L 95.94,301.92 L 96.82,300.13 L 97.72,298.34 L 98.62,296.55 L 99.53,294.77 L 100.44,292.99 L 101.37,291.22 L 102.30,289.44 L 103.24,287.68 L 104.19,285.92 L 105.14,284.16 L 106.11,282.40 L 107.08,280.66 L 108.06,278.91 L 109.04,277.17 L 110.04,275.43 L 111.04,273.70 L 112.05,271.97 L 113.07,270.25 L 114.09,268.53 L 115.13,266.82 L 116.17,265.11 L 117.22,263.41 L 118.27,261.71 L 119.34,260.01 L 120.41,258.32 L 121.49,256.64 L 122.57,254.95 L 123.66,253.28 L 124.77,251.61 L 125.87,249.94 L 126.99,248.28 L 128.11,246.62 L 129.24,244.97 L 130.38,243.33 L 131.53,241.69 L 132.68,240.05 L 133.84,238.42 L 135.00,236.79 L 136.18,235.17 L 137.36,233.56 L 138.55,231.95 L 139.74,230.34 L 140.95,228.74 L 142.16,227.15 L 143.37,225.56 L 144.60,223.98 L 145.83,222.40 L 147.06,220.83 L 148.31,219.26 L 149.56,217.70 L 150.82,216.15 L 152.09,214.60 L 153.36,213.05 L 154.64,211.51 L 155.92,209.98 L 157.22,208.45 L 158.52,206.93 L 159.82,205.42 L 161.14,203.91 L 162.46,202.40 L 163.78,200.90 L 165.12,199.41 L 166.46,197.93 L 167.80,196.45 L 169.16,194.97 L 170.52,193.50 L 171.88,192.04 L 173.25,190.59 L 174.63,189.14 L 176.02,187.69 L 177.41,186.25 L 178.81,184.82 L 180.21,183.40 L 181.63,181.98 L 183.04,180.57 L 184.47,179.16 L 185.90,177.76 L 187.33,176.37 L 188.77,174.98 L 190.22,173.60 L 191.68,172.22 L 193.14,170.86 L 194.60,169.50 L 196.08,168.14 L 197.56,166.79 L 199.04,165.45 L 200.53,164.12 L 202.03,162.79 L 203.53,161.47 L 205.04,160.15 L 206.55,158.84 L 208.07,157.54 L 209.60,156.25 L 211.13,154.96 L 212.67,153.68 L 214.21,152.40 L 215.76,151.14 L 217.31,149.88 L 218.87,148.62 L 220.44,147.38 L 222.01,146.14 L 223.58,144.90 L 225.17,143.68 L 226.75,142.46 L 228.34,141.25 L 229.94,140.04 L 231.55,138.85 L 233.15,137.66 L 234.77,136.47 L 236.39,135.30 L 238.01,134.13 L 239.64,132.97 L 241.28,131.81 L 242.92,130.67 L 244.56,129.53 L 246.21,128.39 L 247.87,127.27 L 249.53,126.15 L 251.19,125.04 L 252.86,123.94 L 254.53,122.84 L 256.21,121.76 L 257.90,120.68 L 259.59,119.60 L 261.28,118.54 L 262.98,117.48 L 264.68,116.43 L 266.39,115.39 L 268.10,114.35 L 269.82,113.32 L 271.54,112.30 L 273.27,111.29 L 275.00,110.29 L 276.74,109.29 L 278.47,108.30 L 280.22,107.32 L 281.97,106.35 L 283.72,105.38 L 285.48,104.42 L 287.24,103.47 L 289.00,102.53 L 290.77,101.60 L 292.55,100.67 L 294.32,99.75 L 296.11,98.84 L 297.89,97.94 L 299.68,97.05 L 301.47,96.16 L 303.27,95.28 L 305.07,94.41 L 306.88,93.55 L 308.69,92.69 L 310.50,91.84 L 312.32,91.01 L 314.14,90.18 L 315.96,89.35 L 317.79,88.54 L 319.62,87.73 L 321.46,86.93 L 323.30,86.15 L 325.14,85.36 L 326.98,84.59 L 328.83,83.82 L 330.69,83.07 L 332.54,82.32 L 334.40,81.58 L 336.26,80.85 L 338.13,80.12 L 340.00,79.41 L 341.87,78.70 L 343.74,78.00 L 345.62,77.31 L 347.50,76.63 L 349.39,75.95 L 351.27,75.29 L 353.16,74.63 L 355.06,73.98 L 356.95,73.34 L 358.85,72.71 L 360.75,72.09 L 362.66,71.47 L 364.56,70.86 L 366.47,70.27 L 368.38,69.68 L 370.30,69.10 L 372.22,68.52 L 374.14,67.96 L 376.06,67.40 L 377.98,66.86 L 379.91,66.32 L 381.84,65.79 L 383.77,65.27 L 385.71,64.76 L 387.64,64.25 L 389.58,63.76 L 391.52,63.27 L 393.47,62.79 L 395.41,62.32 L 397.36,61.86 L 399.31,61.41 L 401.26,60.97 L 403.21,60.53 L 405.17,60.11 L 407.12,59.69 L 409.08,59.28 L 411.04,58.88 L 413.01,58.49 L 414.97,58.11 L 416.94,57.73 L 418.90,57.37 L 420.87,57.01 L 422.84,56.66 L 424.82,56.33 L 426.79,56.00 L 428.76,55.67 L 430.74,55.36 L 432.72,55.06 L 434.70,54.76 L 436.68,54.48 L 438.66,54.20 L 440.64,53.93 L 442.63,53.67 L 444.61,53.42 L 446.60,53.18 L 448.59,52.95 L 450.57,52.72 L 452.56,52.51 L 454.55,52.30 L 456.55,52.10 L 458.54,51.91 L 460.53,51.73 L 462.52,51.56 L 464.52,51.40 L 466.51,51.25 L 468.51,51.10 L 470.51,50.97 L 472.50,50.84 L 474.50,50.72 L 476.50,50.61 L 478.50,50.51 L 480.50,50.42 L 482.50,50.34 L 484.50,50.27 L 486.50,50.20 L 488.50,50.15 L 490.50,50.10 L 492.50,50.06 L 494.50,50.03 L 496.50,50.01 L 498.50,50.00 L 500.50,50.00 L 502.50,50.01 L 504.50,50.02 L 506.50,50.05 L 508.50,50.08 L 510.50,50.12 L 512.50,50.17 L 514.50,50.23 L 516.50,50.30 L 518.50,50.38 L 520.50,50.47 L 522.50,50.56 L 524.50,50.67 L 526.50,50.78 L 528.50,50.90 L 530.49,51.03 L 532.49,51.17 L 534.48,51.32 L 536.48,51.48 L 538.47,51.65 L 540.47,51.82 L 542.46,52.01 L 544.45,52.20 L 546.44,52.40 L 548.43,52.61 L 550.42,52.83 L 552.41,53.06 L 554.39,53.30 L 556.38,53.55 L 558.36,53.80 L 560.35,54.06 L 562.33,54.34 L 564.31,54.62 L 566.29,54.91 L 568.27,55.21 L 570.25,55.52 L 572.22,55.83 L 574.20,56.16 L 576.17,56.49 L 578.14,56.84 L 580.11,57.19 L 582.08,57.55 L 584.05,57.92 L 586.01,58.30 L 587.97,58.68 L 589.94,59.08 L 591.90,59.48 L 593.85,59.90 L 595.81,60.32 L 597.76,60.75 L 599.72,61.19 L 601.67,61.63 L 603.61,62.09 L 605.56,62.56 L 607.51,63.03 L 609.45,63.51 L 611.39,64.00 L 613.32,64.50 L 615.26,65.01 L 617.19,65.53 L 619.12,66.05 L 621.05,66.59 L 622.98,67.13 L 624.90,67.68 L 626.82,68.24 L 628.74,68.81 L 630.66,69.39 L 632.57,69.97 L 634.48,70.56 L 636.39,71.17 L 638.30,71.78 L 640.20,72.40 L 642.10,73.02 L 644.00,73.66 L 645.89,74.31 L 647.78,74.96 L 649.67,75.62 L 651.56,76.29 L 653.44,76.97 L 655.32,77.65 L 657.19,78.35 L 659.07,79.05 L 660.94,79.76 L 662.81,80.48 L 664.67,81.21 L 666.53,81.95 L 668.39,82.69 L 670.24,83.45 L 672.09,84.21 L 673.94,84.98 L 675.78,85.75 L 677.62,86.54 L 679.46,87.33 L 681.29,88.14 L 683.12,88.95 L 684.95,89.76 L 686.77,90.59 L 688.59,91.42 L 690.40,92.27 L 692.22,93.12 L 694.02,93.98 L 695.83,94.84 L 697.63,95.72 L 699.42,96.60 L 701.21,97.49 L 703.00,98.39 L 704.79,99.30 L 706.57,100.21 L 708.34,101.13 L 710.11,102.06 L 711.88,103.00 L 713.64,103.95 L 715.40,104.90 L 717.16,105.86 L 718.91,106.83 L 720.65,107.81 L 722.40,108.80 L 724.13,109.79 L 725.87,110.79 L 727.59,111.80 L 729.32,112.81 L 731.04,113.84 L 732.75,114.87 L 734.46,115.91 L 736.17,116.95 L 737.87,118.01 L 739.57,119.07 L 741.26,120.14 L 742.94,121.21 L 744.63,122.30 L 746.30,123.39 L 747.98,124.49 L 749.64,125.60 L 751.30,126.71 L 752.96,127.83 L 754.61,128.96 L 756.26,130.09 L 757.90,131.24 L 759.54,132.39 L 761.17,133.55 L 762.80,134.71 L 764.42,135.88 L 766.04,137.06 L 767.65,138.25 L 769.26,139.44 L 770.86,140.64 L 772.45,141.85 L 774.04,143.07 L 775.63,144.29 L 777.21,145.52 L 778.78,146.75 L 780.35,148.00 L 781.91,149.25 L 783.47,150.50 L 785.02,151.77 L 786.56,153.04 L 788.10,154.32 L 789.64,155.60 L 791.17,156.89 L 792.69,158.19 L 794.21,159.50 L 795.72,160.81 L 797.22,162.13 L 798.72,163.45 L 800.22,164.78 L 801.70,166.12 L 803.18,167.47 L 804.66,168.82 L 806.13,170.18 L 807.59,171.54 L 809.05,172.91 L 810.50,174.29 L 811.95,175.67 L 813.39,177.06 L 814.82,178.46 L 816.25,179.86 L 817.67,181.27 L 819.08,182.69 L 820.49,184.11 L 821.89,185.54 L 823.29,186.97 L 824.67,188.41 L 826.06,189.86 L 827.43,191.31 L 828.80,192.77 L 830.16,194.24 L 831.52,195.71 L 832.87,197.19 L 834.21,198.67 L 835.55,200.16 L 836.88,201.65 L 838.20,203.15 L 839.52,204.66 L 840.83,206.17 L 842.13,207.69 L 843.43,209.22 L 844.72,210.75 L 846.00,212.28 L 847.28,213.82 L 848.55,215.37 L 849.81,216.92 L 851.07,218.48 L 852.31,220.04 L 853.56,221.61 L 854.79,223.19 L 856.02,224.77 L 857.24,226.36 L 858.45,227.95 L 859.66,229.54 L 860.86,231.14 L 862.05,232.75 L 863.23,234.36 L 864.41,235.98 L 865.58,237.61 L 866.74,239.23 L 867.90,240.87 L 869.05,242.51 L 870.19,244.15 L 871.32,245.80 L 872.45,247.45 L 873.57,249.11 L 874.68,250.77 L 875.79,252.44 L 876.88,254.12 L 877.97,255.79 L 879.06,257.48 L 880.13,259.17 L 881.20,260.86 L 882.26,262.56 L 883.31,264.26 L 884.35,265.96 L 885.39,267.68 L 886.42,269.39 L 887.44,271.11 L 888.45,272.84 L 889.46,274.57 L 890.46,276.30 L 891.45,278.04 L 892.43,279.78 L 893.41,281.53 L 894.38,283.28 L 895.34,285.04 L 896.29,286.80 L 897.23,288.56 L 898.17,290.33 L 899.10,292.10 L 900.02,293.88 L 900.93,295.66 L 901.83,297.44 L 902.73,299.23 L 903.62,301.03 L 904.50,302.82 L 905.37,304.62 L 906.24,306.43 L 907.10,308.24 L 907.94,310.05 L 908.78,311.86 L 909.62,313.68 L 910.44,315.51 L 911.26,317.33 L 912.07,319.16 L 912.87,321.00 L 913.66,322.84 L 914.44,324.68 L 915.22,326.52 L 915.98,328.37 L 916.74,330.22 L 917.49,332.08 L 918.24,333.93 L 918.97,335.80 L 919.70,337.66 L 920.42,339.53 L 921.12,341.40 L 921.83,343.27 L 922.52,345.15 L 923.20,347.03 L 923.88,348.91 L 924.55,350.80 L 925.21,352.69 L 925.86,354.58 L 926.50,356.48 L 927.13,358.38 L 927.76,360.28 L 928.38,362.18 L 928.98,364.09 L 929.58,366.00 L 930.18,367.91 L 930.76,369.82 L 931.33,371.74 L 931.90,373.66 L 932.46,375.58 L 933.01,377.50 L 933.55,379.43 L 934.08,381.36 L 934.60,383.29 L 935.12,385.22 L 935.62,387.16 L 936.12,389.10 L 936.61,391.04 L 937.09,392.98 L 937.56,394.93 L 938.02,396.87 L 938.48,398.82 L 938.92,400.77 L 939.36,402.72 L 939.79,404.68 L 940.21,406.64 L 940.62,408.59 L 941.02,410.55 L 941.41,412.52 L 941.80,414.48 L 942.17,416.45 L 942.54,418.41 L 942.90,420.38 L 943.25,422.35 L 943.59,424.32 L 943.92,426.30 L 944.25,428.27 L 944.56,430.25 L 944.87,432.22 L 945.16,434.20 L 945.45,436.18 L 945.73,438.16 L 946.00,440.15 L 946.26,442.13 L 946.52,444.12 L 946.76,446.10 L 947.00,448.09 L 947.22,450.08 L 947.44,452.07 L 947.65,454.06 L 947.85,456.05 L 948.04,458.04 L 948.22,460.03 L 948.39,462.03 L 948.56,464.02 L 948.71,466.02 L 948.86,468.01 L 949.00,470.01 L 949.13,472.00 L 949.25,474.00 L 949.36,476.00 L 949.46,478.00 L 949.56,480.00 L 949.64,482.00 L 949.72,484.00 L 949.78,486.00 L 949.84,488.00 L 949.89,490.00 L 949.93,492.00 L 949.96,494.00 L 949.98,496.00 L 950.00,498.00 Z" fill="none" stroke="black" stroke-width="3"/>
<path d="M 965.14,499.53 L 959.38,485.78 L 953.71,472.25 L 959.31,486.42 L 964.42,500.87 L 958.21,515.10 L 964.04,501.11 L 958.31,514.93 L 964.02,501.24 L 957.70,515.01 L 962.60,501.13 L 957.00,487.03 L 962.58,501.21 L 957.16,515.34 L 962.05,501.40 L 956.24,487.73 L 961.30,501.96 L 955.72,487.97 L 960.67,502.03 L 955.00,515.87 L 960.69,502.32 L 955.16,488.89 L 960.81,502.63 L 954.67,489.05 L 960.27,503.23 L 954.75,517.12 L 959.82,503.07 L 964.90,489.54 L 958.99,503.65 L 964.43,489.29 L 958.48,503.14 L 963.79,488.82 L 957.83,502.69 L 962.75,488.35 L 956.40,474.11 L 961.89,487.73 L 955.70,474.27 L 960.74,488.67 L 954.77,475.20 L 960.13,489.21 L 954.21,475.22 L 959.86,489.25 L 954.50,502.67 L 959.63,488.89 L 954.00,474.70 L 959.07,488.36 L 964.87,502.87 L 958.80,489.55 L 964.20,503.47 L 958.33,516.85 L 963.44,502.62 L 957.61,488.56 L 963.28,502.46 L 957.26,488.49 L 962.18,502.63 L 956.33,516.70 L 961.63,502.42 L 956.19,516.36 L 961.75,501.93 L 956.16,488.38 L 961.97,502.75 L 955.88,488.87 L 960.83,503.27 L 955.36,517.40 L 960.33,503.78 L 965.42,517.39 L 960.06,503.12 L 965.57,488.73 L 959.93,502.26 L 965.59,488.63 L 959.81,502.16 L 954.32,516.27 L 959.82,502.02 L 964.74,487.83 L 958.40,501.89 L 963.91,515.94 L 958.30,502.44 L 963.83,488.81 L 957.78,502.40 L 963.03,488.62 L 957.12,502.45 L 962.78,516.59 L 957.12,530.58 L 962.71,516.80 L 957.19,502.95 L 962.20,489.31 L 956.74,502.76 L 961.73,488.53 L 956.17,474.86 L 961.38,489.01 L 955.47,475.56 L 960.88,489.91 L 955.40,476.14 L 960.91,489.76 L 955.53,504.01 L 960.68,489.63 L 955.08,475.82 L 960.71,489.67 L 954.78,476.18 L 960.01,490.39 L 954.06,476.29 L 959.45,490.67 L 964.80,504.99 L 958.67,491.55 L 964.30,505.56 L 958.47,491.33 L 964.02,504.96 L 958.17,491.37 L 964.02,505.46 L 958.05,491.94 L 963.06,505.65 L 957.61,492.14 L 963.46,506.47 L 957.27,520.41 L 962.99,506.06 L 956.95,519.83 L 962.51,505.47 L 956.88,492.13 L 962.45,505.69 L 956.94,491.48 L 961.87,505.53 L 956.24,519.53 L 961.72,505.54 L 955.81,519.54 L 960.67,505.76 L 954.29,519.54 L 959.51,505.16 L 965.05,491.58 L 958.95,505.56 L 964.20,491.32 L 958.30,505.46 L 963.36,491.69 L 957.14,478.12 L 962.61,492.27 L 957.15,478.23 L 962.71,491.85 L 956.58,478.54 L 961.45,492.24 L 955.95,478.40 L 961.55,492.65 L 955.19,479.27 L 960.37,492.95 L 954.25,479.62 L 959.34,493.85 L 964.94,507.78 L 958.65,494.25 L 964.06,480.17 L 957.77,493.60 L 962.97,507.40 L 956.96,520.70 Z" fill="none" stroke="red" stroke-width="2"/>
<path d="M 979.38,504.92 L 973.00,518.62 L 970.73,503.97 L 976.17,489.85 L 971.21,504.12 L 976.79,490.29 L 972.15,504.61 L 977.45,490.83 L 972.24,504.89 L 977.18,490.87 L 971.24,477.00 L 977.88,490.43 L 972.45,504.79 L 977.72,491.04 L 971.44,477.75 L 977.59,491.44 L 972.38,505.74 L 977.67,491.99 L 971.56,478.02 L 977.69,492.00 L 971.34,477.96 L 977.13,492.08 L 972.42,505.73 L 978.03,491.15 L 973.00,505.01 L 978.32,490.71 L 971.73,476.91 L 969.70,491.55 L 974.73,505.97 L 970.67,491.52 L 975.39,505.43 L 970.53,490.95 L 976.10,505.10 L 971.50,490.90 L 976.36,505.02 L 971.30,490.43 L 976.06,505.01 L 971.13,491.24 L 976.30,505.75 L 972.19,491.04 L 977.60,504.77 L 972.95,490.66 L 977.55,505.14 L 973.11,490.84 L 978.09,504.56 L 973.09,490.27 L 966.73,476.32 L 973.42,489.67 L 967.33,475.88 L 974.39,489.52 L 967.84,476.06 L 974.17,489.89 L 967.89,476.26 L 974.72,490.03 L 970.46,504.09 L 975.59,490.34 L 969.02,477.03 L 975.28,490.92 L 970.84,505.07 L 975.85,491.33 L 971.08,505.33 L 975.94,491.12 L 971.04,504.84 L 975.90,490.45 L 969.88,477.23 L 976.45,490.42 L 971.77,504.29 L 976.53,490.05 L 972.21,503.90 L 977.73,489.32 L 973.34,503.12 L 978.34,488.68 L 973.35,502.88 L 978.29,489.01 L 973.88,503.33 L 979.12,488.95 L 974.24,503.37 L 979.47,489.56 L 974.09,503.38 L 978.96,489.69 L 973.82,503.99 L 979.04,489.51 L 974.28,503.85 L 979.22,490.11 L 972.70,476.85 L 969.86,492.10 L 975.03,506.67 L 970.34,492.59 L 975.22,506.89 L 970.79,492.43 L 976.11,506.27 L 971.71,491.81 L 976.43,506.20 L 972.01,492.30 L 977.26,506.31 L 972.27,491.89 L 977.22,505.99 L 972.26,491.38 L 977.12,505.74 L 972.65,491.26 L 977.32,505.73 L 972.29,491.45 L 977.56,505.75 L 972.51,491.00 L 977.18,505.29 L 972.37,490.88 L 977.85,504.52 L 973.00,490.07 L 977.70,504.69 L 973.16,490.95 L 978.63,505.15 L 973.78,490.81 L 979.19,504.95 L 972.76,518.63 L 969.84,503.54 L 974.58,489.51 L 968.65,476.31 L 975.26,489.87 L 969.07,476.70 L 975.21,490.54 Z" fill="none" stroke="blue" stroke-width="2"/>
<path d="M 986.33,518.55 L 972.42,523.74 L 964.51,510.99 L 969.50,524.92 L 962.48,511.71 L 967.52,525.24 L 981.27,520.14 L 966.89,525.33 L 980.88,520.31 L 988.33,507.07 L 984.91,492.05 L 978.77,478.75 L 985.99,492.34 L 979.85,478.60 L 986.36,492.20 L 979.94,478.69 L 987.08,491.66 L 980.36,478.20 L 986.74,491.29 L 980.48,477.72 L 987.56,490.65 L 981.59,477.17 L 987.73,490.92 L 981.16,477.23 L 987.70,490.27 L 981.43,477.19 L 987.73,490.53 L 981.51,476.50 L 987.70,490.10 L 981.19,476.19 L 988.37,489.62 L 981.60,476.10 L 988.27,489.18 L 982.11,475.73 L 988.89,489.07 L 982.43,475.26 L 988.82,488.85 L 981.96,475.31 L 988.21,489.04 L 981.66,475.36 L 987.99,489.17 L 981.62,475.73 L 988.43,488.70 L 981.80,474.79 L 988.68,488.32 L 981.78,474.90 L 988.38,488.16 L 982.34,474.64 L 968.58,469.52 L 961.67,482.90 L 967.71,469.44 L 960.87,482.70 L 966.72,468.50 L 980.50,473.55 L 966.52,468.61 L 980.91,474.21 L 987.28,487.53 L 981.16,474.02 L 966.57,468.65 L 980.81,473.43 L 966.29,468.25 L 980.69,473.27 L 967.03,467.88 L 959.86,480.82 L 963.25,495.62 L 957.99,481.54 L 964.31,467.67 L 978.81,472.43 L 985.60,485.23 L 979.80,471.07 L 987.09,483.82 L 983.25,498.55 L 988.29,484.87 L 984.70,499.45 L 990.09,485.52 L 985.70,500.28 L 990.60,486.27 L 985.67,500.53 L 991.17,485.93 L 986.98,500.41 L 992.26,485.98 L 987.84,500.08 L 981.86,513.18 L 978.06,527.35 L 964.42,521.76 L 978.54,526.41 L 964.80,520.65 L 978.93,526.01 L 965.13,520.58 L 979.62,525.33 L 965.40,519.92 L 979.36,525.09 L 965.69,519.88 L 979.71,524.97 L 965.30,519.36 L 979.76,524.77 Z" fill="none" stroke="green" stroke-width="2"/>
<path d="M 990.23,533.41 L 997.39,520.06 L 994.83,505.75 L 999.84,491.51 L 993.52,477.70 L 998.87,491.85 L 992.72,477.60 L 998.33,491.21 L 992.41,477.05 L 997.64,491.40 L 991.81,478.03 L 997.07,491.71 L 991.15,478.38 L 997.08,492.31 L 991.25,478.76 L 984.95,465.26 L 991.76,478.06 L 997.57,492.21 L 992.15,478.01 L 997.85,491.86 L 992.27,477.78 L 997.57,492.18 L 991.82,478.29 L 997.22,492.47 L 991.72,478.70 L 985.47,465.12 L 992.78,478.40 L 998.54,491.87 L 992.49,477.98 L 997.91,491.90 L 992.28,478.28 L 997.56,492.10 L 991.46,478.25 L 997.02,492.47 L 990.75,478.76 L 985.44,465.34 L 992.87,478.37 L 998.21,492.24 L 992.21,478.86 L 998.06,492.53 L 992.16,478.25 L 997.39,492.07 L 991.21,478.73 L 985.00,465.12 L 991.80,478.51 L 997.19,492.19 L 990.84,478.15 L 997.04,492.07 L 991.62,478.55 L 985.63,464.94 L 992.36,477.75 L 998.15,492.04 L 991.79,478.40 L 997.28,492.21 L 991.31,478.67 L 985.42,465.26 L 992.89,478.48 L 998.56,492.11 L 993.03,478.79 L 998.36,492.93 L 992.52,479.46 L 997.53,492.94 L 992.17,478.95 L 997.55,492.63 L 991.62,479.30 L 997.55,493.10 L 991.38,478.86 L 985.12,465.20 L 992.19,478.65 L 997.66,492.49 L 991.71,478.87 L 986.00,465.46 L 992.59,478.54 L 998.39,492.71 L 992.73,479.10 L 998.53,492.93 Z" fill="none" stroke="purple" stroke-width="2"/>
<path d="M 989.09,548.13 L 996.96,535.52 L 1004.93,522.28 L 1003.71,507.73 L 1010.32,494.70 L 1004.16,508.36 L 1010.61,494.40 L 1004.58,507.79 L 1011.05,494.52 L 1004.56,508.07 L 1011.38,494.34 L 1005.08,508.24 L 1012.00,494.54 L 1005.74,507.60 L 1012.52,493.95 L 1005.96,507.10 L 1012.02,493.55 L 1005.77,507.60 L 1011.69,494.08 L 1004.86,507.39 L 1010.81,493.65 L 1004.35,507.01 L 1010.37,493.76 L 1003.89,507.55 L 1010.13,494.46 L 1004.24,508.14 L 1010.30,494.25 L 1003.45,507.35 L 1010.41,493.44 L 1003.88,506.87 L 1010.38,493.32 L 1003.96,506.65 L 1010.75,492.94 L 1004.19,506.08 L 1010.90,492.43 L 1004.49,506.24 L 1011.23,492.52 L 1004.84,505.90 L 1011.17,492.00 L 1004.90,505.12 L 1010.84,491.07 L 1004.80,504.58 L 1010.87,491.38 L 1004.94,504.98 L 1010.97,491.81 L 1004.06,504.97 L 1010.87,491.27 L 1004.28,504.52 L 1010.93,491.07 L 1004.61,505.11 L 1011.02,492.00 L 1004.83,505.81 L 1011.58,492.38 L 1005.04,505.75 L 1011.64,491.73 L 1005.22,505.52 L 1011.50,492.32 L 1005.21,505.97 L 1011.28,492.31 L 1005.19,505.38 L 1011.72,492.19 Z" fill="none" stroke="orange" stroke-width="2"/>
<path d="M 983.52,561.91 L 977.08,548.16 L 986.84,536.99 L 989.64,522.43 L 992.30,507.70 L 996.83,493.99 L 991.72,507.96 L 996.61,494.13 L 991.02,508.14 L 995.74,494.17 L 990.20,507.85 L 1002.05,498.34 L 1008.07,485.27 L 1000.33,497.63 L 995.45,512.24 L 998.76,497.93 L 1004.74,484.85 L 1019.15,490.52 L 1015.19,505.08 L 1020.20,491.02 L 1006.65,484.89 L 998.81,498.16 L 1005.68,484.71 L 1019.19,490.51 L 1015.75,505.01 L 1020.54,491.18 L 1006.55,485.61 L 998.69,498.69 L 994.10,513.16 L 997.76,499.11 L 1004.11,485.61 L 1018.27,491.41 L 1014.95,506.05 L 1019.70,492.10 L 1005.74,486.18 L 998.17,499.31 L 1004.32,486.18 L 996.83,499.58 L 1002.65,485.49 L 1016.86,490.39 L 1013.46,505.52 L 1019.03,491.00 L 1005.51,485.71 L 1019.63,491.77 L 1005.45,485.69 L 1019.56,491.34 L 1005.92,485.52 L 998.80,498.73 L 1004.86,484.83 L 1018.78,490.62 L 1015.61,505.47 Z" fill="none" stroke="brown" stroke-width="2"/>
<path d="M 979.04,575.99 L 987.86,564.02 L 996.26,551.46 L 1004.51,539.38 L 1012.63,526.92 L 1019.41,513.93 L 1024.68,499.49 L 1019.12,512.80 L 1013.28,526.41 L 1019.93,512.73 L 1025.00,499.21 L 1019.16,512.70 L 1012.69,526.52 L 1019.86,513.44 L 1025.30,499.86 L 1019.43,513.87 L 1025.01,500.40 L 1019.38,513.78 L 1024.91,499.60 L 1019.16,513.09 L 1012.73,527.06 L 1020.03,514.22 L 1025.95,500.11 L 1019.89,514.03 L 1025.42,499.58 L 1019.89,512.93 L 1024.94,498.62 L 1018.92,512.76 L 1013.33,526.10 L 1020.46,512.66 L 1025.53,498.80 L 1019.75,513.07 L 1025.44,498.72 L 1019.94,512.31 L 1013.40,525.77 L 1020.20,512.53 L 1025.81,498.97 L 1019.93,512.54 L 1025.21,498.68 L 1019.39,512.26 L 1013.10,525.47 L 1019.57,511.79 L 1013.55,525.83 Z" fill="none" stroke="pink" stroke-width="2"/>
<path d="M 970.57,588.94 L 972.70,574.02 L 986.36,579.11 L 996.33,567.42 L 1005.76,555.86 L 1014.47,543.75 L 1022.90,530.88 L 1029.63,517.03 L 1034.54,502.51 L 1027.99,489.16 L 1034.22,502.62 L 1028.29,489.05 L 1034.55,502.11 L 1020.87,495.97 L 1012.73,508.50 L 1006.78,522.15 L 998.56,534.01 L 987.76,544.35 L 998.06,533.86 L 1008.71,523.29 L 1012.47,508.54 L 1006.04,522.63 L 997.50,534.69 L 1008.54,524.21 L 997.85,535.37 L 1008.58,524.30 L 998.00,535.43 L 987.25,546.42 L 998.31,536.10 L 987.39,546.03 L 998.07,535.54 L 987.43,545.64 L 997.88,534.77 L 987.87,545.07 L 998.22,534.06 L 1008.45,523.54 Z" fill="none" stroke="cyan" stroke-width="2"/>
<path d="M 963.04,601.75 L 964.96,587.21 L 978.97,592.81 L 965.26,586.54 L 968.02,571.56 L 978.97,561.02 L 967.73,571.41 L 978.06,561.02 L 966.96,571.44 L 977.64,561.04 L 966.38,571.27 L 976.48,560.79 L 979.91,546.02 L 984.19,531.82 L 997.25,523.41 L 1003.45,509.62 L 995.49,522.77 L 1001.45,509.12 L 994.18,522.45 L 1000.56,508.39 L 993.22,521.41 L 987.71,535.35 L 981.05,549.27 L 985.34,535.06 L 978.95,549.20 L 983.07,534.55 L 995.14,526.04 L 1001.05,512.05 L 993.78,525.33 L 999.80,511.97 L 992.75,525.59 L 999.29,511.87 Z" fill="none" stroke="magenta" stroke-width="2"/>
</svg>