<?xml version='1.0' encoding='utf-8'?>
<svg width="1200" height="1200" xmlns="http://www.w3.org/2000/svg" version="1.1"><rect width="1200" height="1200" fill="white" /><path d="M 1000.0 500.0 L 999.1 530.0 L 996.4 559.9 L 991.9 589.5 L 985.7 618.9 L 977.7 647.8 L 967.9 676.2 L 956.5 703.9 L 943.5 730.9 L 928.8 757.1 L 912.6 782.4 L 895.0 806.6 L 875.9 829.7 L 855.4 851.7 L 833.7 872.4 L 810.7 891.7 L 786.7 909.6 L 761.6 926.1 L 735.6 941.0 L 708.7 954.4 L 681.1 966.1 L 652.8 976.1 L 624.0 984.4 L 594.7 991.0 L 565.1 995.7 L 535.2 998.8 L 505.3 1000.0 L 475.3 999.4 L 445.3 997.0 L 415.6 992.8 L 386.2 986.9 L 357.2 979.2 L 328.8 969.8 L 300.9 958.6 L 273.7 945.9 L 247.4 931.5 L 222.0 915.6 L 197.6 898.2 L 174.2 879.3 L 152.1 859.1 L 131.2 837.6 L 111.6 814.8 L 93.4 791.0 L 76.7 766.1 L 61.5 740.2 L 47.9 713.5 L 35.9 686.0 L 25.5 657.8 L 16.9 629.0 L 10.1 599.8 L 5.0 570.3 L 1.6 540.5 L 0.1 510.5 L 0.4 480.5 L 2.4 450.6 L 6.3 420.8 L 11.9 391.4 L 19.3 362.3 L 28.5 333.7 L 39.3 305.7 L 51.8 278.4 L 65.9 252.0 L 81.5 226.4 L 98.7 201.8 L 117.3 178.2 L 137.3 155.8 L 158.6 134.7 L 181.1 114.9 L 204.8 96.5 L 229.5 79.5 L 255.2 64.0 L 281.8 50.1 L 309.2 37.8 L 337.2 27.2 L 365.9 18.3 L 395.0 11.1 L 424.5 5.7 L 454.3 2.1 L 484.2 0.2 L 514.3 0.2 L 544.2 2.0 L 574.0 5.5 L 603.5 10.8 L 632.7 17.9 L 661.3 26.7 L 689.4 37.3 L 716.8 49.5 L 743.5 63.3 L 769.2 78.7 L 794.0 95.6 L 817.7 113.9 L 840.3 133.7 L 861.7 154.8 L 881.7 177.1 L 900.4 200.6 L 917.7 225.1 L 933.4 250.6 L 947.6 277.1 L 960.1 304.3 L 971.0 332.3 L 980.2 360.8 L 987.7 389.9 L 993.5 419.3 L 997.4 449.1 L 999.6 479.0" stroke="black" stroke-width="2" fill="none" /><path d="M 991.8 501.8 L 989.2 520.7 L 989.8 537.1 L 988.8 553.2 L 984.4 570.8 L 980.9 588.3 L 978.4 606.2 L 974.9 624.3 L 967.5 641.9 L 962.8 659.7 L 957.2 677.0 L 948.9 694.1 L 941.8 712.2 L 934.0 728.1 L 923.2 742.8 L 915.7 759.5 L 905.3 773.9 L 895.3 787.3 L 885.1 803.8 L 873.9 816.9 L 861.5 830.8 L 847.9 844.6 L 835.3 856.7 L 823.6 870.3 L 808.8 880.8 L 794.8 892.7 L 778.7 902.4 L 761.9 911.0 L 750.6 924.0 L 733.3 929.8 L 716.6 939.8 L 700.2 946.2 L 683.2 954.1 L 665.1 962.2 L 646.6 967.9 L 629.4 972.1 L 611.1 976.7 L 592.6 981.3 L 573.9 984.1 L 555.1 987.0 L 535.7 988.0 L 516.2 990.0 L 498.1 989.9 L 478.8 989.9 L 460.3 989.1 L 441.9 987.0 L 423.8 983.3 L 405.6 980.6 L 388.1 976.3 L 370.9 972.8 L 353.1 967.5 L 334.7 960.5 L 317.1 955.1 L 301.5 946.7 L 283.4 938.4 L 268.5 929.7 L 251.5 921.1 L 235.7 913.8 L 221.3 902.3 L 205.3 891.1 L 190.5 879.4 L 178.0 867.6 L 162.0 857.4 L 151.6 843.1 L 137.6 829.9 L 125.8 817.4 L 114.6 802.4 L 103.3 788.4 L 94.3 773.2 L 82.5 757.3 L 72.5 742.2 L 63.7 725.2 L 56.4 708.1 L 49.1 691.1 L 41.3 674.0 L 35.7 656.5 L 30.5 638.2 L 24.3 620.5 L 21.7 601.5 L 15.9 582.5 L 13.3 565.0 L 11.2 546.5 L 10.3 527.7 L 11.1 508.0 L 8.8 489.7 L 12.1 470.8 L 12.2 453.3 L 14.2 436.5 L 16.0 417.7 L 19.6 400.6 L 22.9 381.4 L 29.6 365.7 L 34.8 346.8 L 40.6 328.7 L 48.4 311.6 L 55.4 294.5 L 64.6 277.1 L 72.6 259.8 L 83.0 243.9 L 91.7 227.7 L 102.2 213.1 L 113.5 197.1 L 125.4 184.1 L 138.1 169.6 L 151.4 156.3 L 163.6 142.1 L 179.0 130.4 L 192.4 116.8 L 208.8 107.2 L 223.3 94.7 L 238.5 85.6 L 255.2 76.9 L 271.8 67.4 L 287.5 57.7 L 303.0 49.2 L 318.8 43.6 L 336.5 37.4 L 354.4 31.9 L 372.1 25.9 L 389.9 23.1 L 407.9 18.9 L 427.1 14.7 L 445.2 12.1 L 463.8 11.7 L 481.9 9.7 L 500.1 10.9 L 518.3 10.3 L 536.4 10.8 L 555.0 11.8 L 573.7 16.5 L 592.6 19.0 L 610.6 22.1 L 629.4 26.9 L 647.7 32.8 L 665.8 39.3 L 681.7 45.4 L 698.5 51.2 L 713.8 60.2 L 730.8 66.8 L 747.8 77.1 L 763.9 87.7 L 779.4 97.0 L 795.0 108.2 L 809.4 119.8 L 822.9 131.5 L 836.9 144.4 L 849.8 158.0 L 863.1 170.7 L 875.5 185.6 L 888.6 200.4 L 899.4 216.7 L 909.8 232.9 L 920.5 247.9 L 927.4 264.1 L 935.2 279.1 L 944.8 296.1 L 953.0 312.1 L 960.2 329.1 L 964.8 345.5 L 971.7 362.5 L 974.5 381.2 L 979.3 399.2 L 982.6 417.1 L 984.3 435.6 L 988.2 454.9 L 988.7 473.3 L 990.7 491.5" stroke="blue" stroke-width="2" fill="none" /><path d="M 981.8 502.4 L 979.1 519.9 L 978.8 536.2 L 978.7 552.5 L 974.9 568.3 L 970.5 585.8 L 967.5 602.6 L 965.6 616.8 L 959.9 635.1 L 956.5 651.5 L 946.7 667.3 L 941.9 685.1 L 936.2 701.9 L 927.9 718.8 L 917.3 732.6 L 910.4 746.9 L 903.2 762.9 L 891.9 776.2 L 881.4 791.7 L 871.5 804.3 L 861.4 817.9 L 848.6 830.7 L 835.8 843.2 L 826.4 853.5 L 814.5 866.2 L 799.5 876.3 L 786.2 885.2 L 772.4 895.3 L 756.5 903.3 L 744.6 915.2 L 729.7 920.2 L 714.3 929.8 L 698.8 936.5 L 682.3 944.2 L 667.0 950.2 L 649.6 955.0 L 632.9 960.4 L 618.7 965.1 L 603.2 967.2 L 586.2 971.7 L 569.1 974.6 L 552.2 976.8 L 533.4 977.5 L 517.0 978.7 L 499.2 979.1 L 481.3 979.8 L 463.6 980.3 L 446.3 976.9 L 431.0 972.2 L 414.0 972.2 L 398.2 968.9 L 381.2 965.1 L 363.3 962.2 L 348.5 955.2 L 332.3 949.5 L 315.5 943.0 L 301.6 935.9 L 286.6 930.0 L 272.1 922.0 L 257.0 911.9 L 242.4 907.2 L 230.6 896.0 L 215.6 887.8 L 201.1 877.9 L 187.9 865.9 L 176.1 851.6 L 164.6 842.8 L 152.4 831.9 L 143.4 820.3 L 129.8 807.4 L 118.7 794.1 L 108.4 778.8 L 101.4 763.8 L 90.6 749.2 L 81.0 734.9 L 73.5 719.4 L 64.6 704.5 L 57.3 688.6 L 50.5 672.6 L 47.2 657.5 L 40.1 640.3 L 35.4 624.7 L 32.5 609.0 L 28.9 591.5 L 25.3 574.1 L 24.9 560.0 L 21.3 545.0 L 18.9 527.8 L 22.1 512.8 L 18.3 499.1 L 20.2 483.9 L 21.6 464.8 L 22.4 449.7 L 24.1 433.6 L 27.7 418.0 L 28.6 400.4 L 32.3 384.4 L 37.2 368.8 L 42.1 355.2 L 48.0 337.4 L 55.1 320.1 L 61.9 304.1 L 72.3 287.9 L 77.3 274.3 L 84.0 261.6 L 93.7 246.5 L 99.7 231.5 L 111.0 217.9 L 123.2 203.5 L 134.4 189.6 L 143.0 179.0 L 154.5 165.5 L 167.8 153.5 L 181.2 141.4 L 194.2 131.0 L 205.6 121.1 L 218.1 112.6 L 231.0 100.7 L 245.1 94.3 L 258.7 86.7 L 274.9 77.8 L 288.9 69.2 L 302.0 62.8 L 317.9 58.7 L 334.5 52.1 L 346.2 44.1 L 361.7 42.6 L 378.5 33.3 L 394.9 31.9 L 413.3 28.3 L 429.2 23.8 L 446.2 22.1 L 461.5 21.8 L 475.4 21.7 L 493.7 20.0 L 512.8 19.4 L 530.8 20.8 L 544.9 20.1 L 560.5 24.5 L 578.6 26.6 L 596.4 29.1 L 615.2 33.0 L 632.5 38.2 L 648.7 42.5 L 663.7 49.0 L 680.4 54.2 L 694.7 61.9 L 710.0 70.0 L 726.0 75.7 L 740.7 85.3 L 757.0 95.5 L 771.2 104.7 L 787.3 115.3 L 801.4 126.8 L 813.2 135.5 L 825.3 146.3 L 837.9 158.9 L 850.8 173.4 L 864.1 185.9 L 874.3 198.6 L 884.6 211.7 L 892.6 226.1 L 904.7 240.2 L 912.2 255.9 L 920.2 268.3 L 925.8 284.4 L 935.7 299.5 L 940.4 312.7 L 947.7 326.0 L 951.4 341.8 L 958.3 354.9 L 963.8 373.2 L 968.1 389.0 L 967.0 401.3 L 972.0 416.5 L 973.8 431.0 L 977.3 448.8 L 978.1 466.1 L 978.6 482.4 L 981.5 501.3" stroke="red" stroke-width="2" fill="none" /><path d="M 972.1 502.3 L 967.8 519.6 L 967.0 536.7 L 968.3 548.5 L 965.0 565.0 L 962.9 581.1 L 961.3 596.0 L 956.1 611.4 L 953.6 627.4 L 949.3 643.8 L 943.6 658.7 L 937.8 674.5 L 931.2 687.8 L 924.2 701.7 L 917.6 716.1 L 909.3 728.3 L 903.5 739.9 L 894.2 755.8 L 884.6 771.0 L 875.0 783.1 L 866.6 796.7 L 856.9 808.5 L 843.9 821.5 L 832.4 833.0 L 823.2 841.6 L 811.3 852.3 L 798.8 862.8 L 787.9 870.9 L 777.2 878.8 L 762.0 890.1 L 745.5 898.8 L 733.7 908.6 L 720.2 915.8 L 704.3 922.3 L 689.9 929.2 L 674.7 935.4 L 660.2 942.4 L 643.3 947.1 L 629.3 952.0 L 618.0 955.4 L 601.0 957.6 L 586.7 960.6 L 574.3 964.2 L 558.5 966.4 L 543.8 968.3 L 528.1 966.4 L 512.4 969.0 L 494.9 968.3 L 476.9 970.1 L 459.7 967.2 L 443.8 967.4 L 429.0 963.7 L 412.3 963.6 L 397.4 956.6 L 379.5 954.7 L 365.3 949.5 L 348.7 944.0 L 333.8 940.4 L 319.4 933.1 L 306.9 926.9 L 293.1 920.4 L 280.1 912.4 L 264.3 905.6 L 250.8 903.2 L 239.7 888.8 L 227.8 881.7 L 216.5 874.9 L 203.6 865.5 L 190.0 852.8 L 179.2 844.2 L 169.4 832.8 L 154.6 821.8 L 145.7 808.3 L 135.2 796.2 L 124.3 783.5 L 114.3 769.5 L 106.8 754.6 L 96.1 741.1 L 90.1 729.7 L 81.8 716.3 L 75.5 706.1 L 68.6 692.3 L 62.8 677.5 L 60.2 660.4 L 55.5 652.5 L 50.9 640.5 L 45.4 627.5 L 39.6 613.0 L 41.3 596.7 L 35.0 580.5 L 34.6 566.0 L 31.6 552.7 L 31.1 539.7 L 30.2 523.2 L 30.8 509.6 L 29.1 497.1 L 30.3 481.3 L 30.0 463.8 L 35.0 450.0 L 35.3 433.3 L 38.4 417.9 L 37.6 400.9 L 41.9 387.1 L 49.8 373.8 L 50.0 360.9 L 55.4 345.7 L 62.4 328.7 L 69.2 313.0 L 76.0 297.1 L 85.4 282.4 L 92.0 270.2 L 99.8 254.7 L 104.1 244.6 L 114.7 231.3 L 124.3 215.9 L 136.0 201.8 L 144.7 194.5 L 155.2 179.9 L 167.0 168.8 L 177.5 159.4 L 190.9 146.5 L 201.7 134.8 L 213.3 126.2 L 224.0 119.6 L 240.4 109.1 L 253.7 98.3 L 266.6 92.9 L 280.8 86.2 L 291.6 76.1 L 308.1 70.3 L 322.8 64.2 L 338.6 58.7 L 353.0 50.5 L 367.9 49.6 L 384.5 45.5 L 399.8 43.8 L 418.0 39.1 L 432.8 34.5 L 447.7 31.2 L 463.4 33.1 L 472.9 30.0 L 486.9 31.1 L 505.0 29.2 L 519.1 32.0 L 537.7 30.8 L 551.4 31.3 L 567.7 37.0 L 582.4 37.9 L 600.2 41.0 L 615.3 45.3 L 632.9 46.2 L 647.2 54.2 L 661.4 57.5 L 676.7 66.8 L 691.5 72.0 L 706.1 80.2 L 721.7 82.8 L 734.4 92.4 L 747.2 102.6 L 762.7 110.0 L 777.4 120.0 L 792.5 131.8 L 803.4 137.4 L 813.4 149.2 L 823.4 161.3 L 838.4 173.3 L 848.7 186.1 L 861.2 198.8 L 870.9 210.5 L 878.8 222.1 L 889.0 237.0 L 899.6 252.8 L 909.0 267.1 L 913.7 284.2 L 925.1 299.9 L 930.0 312.3 L 937.2 325.9 L 942.3 342.5 L 945.2 354.0 L 950.4 366.1 L 954.5 383.5 L 959.6 396.4 L 961.1 410.1 L 965.4 425.6 L 966.1 443.0 L 967.0 461.4 L 968.3 479.6 L 969.7 495.8" stroke="green" stroke-width="2" fill="none" /><path d="M 963.6 501.6 L 958.2 516.1 L 956.7 531.2 L 956.0 544.2 L 956.9 552.7 L 955.6 569.3 L 950.0 584.0 L 948.7 597.4 L 947.9 611.2 L 943.1 626.3 L 939.1 641.4 L 934.0 656.0 L 928.2 669.1 L 921.9 682.9 L 919.5 694.7 L 909.9 706.5 L 902.6 717.7 L 897.0 729.0 L 889.0 740.3 L 882.6 755.6 L 872.1 767.8 L 863.9 779.8 L 854.0 793.5 L 847.8 804.9 L 836.8 816.5 L 825.9 825.1 L 818.6 832.5 L 805.6 844.1 L 793.3 853.8 L 781.9 861.3 L 770.3 871.2 L 756.4 881.8 L 739.8 890.2 L 731.9 897.9 L 721.8 902.8 L 705.0 911.2 L 691.5 917.8 L 676.3 922.4 L 662.1 929.8 L 646.0 936.9 L 632.5 939.7 L 621.9 941.7 L 607.5 948.2 L 592.0 950.8 L 577.8 953.1 L 564.6 953.7 L 549.7 958.2 L 537.6 959.1 L 522.8 959.6 L 506.8 961.6 L 491.1 958.6 L 476.8 958.2 L 460.2 958.3 L 444.9 956.0 L 431.5 951.1 L 418.0 952.4 L 402.3 949.3 L 386.3 947.0 L 369.6 939.7 L 357.2 937.2 L 342.4 931.9 L 326.9 927.0 L 314.9 921.8 L 302.6 914.8 L 288.9 907.6 L 274.3 900.8 L 261.5 895.5 L 250.8 886.6 L 238.9 877.6 L 229.6 871.2 L 216.9 862.6 L 206.2 854.4 L 193.8 843.1 L 181.0 832.2 L 169.4 819.4 L 158.3 806.9 L 145.7 796.3 L 137.1 781.1 L 128.7 771.5 L 120.4 758.0 L 113.0 747.2 L 104.7 735.0 L 97.4 724.6 L 89.7 708.8 L 86.7 702.9 L 80.9 691.0 L 74.8 678.4 L 68.2 661.3 L 65.1 655.2 L 63.0 642.9 L 58.2 628.9 L 54.1 615.9 L 52.2 605.6 L 47.7 587.4 L 44.9 575.1 L 42.0 565.3 L 43.7 551.2 L 41.0 536.3 L 40.9 519.6 L 42.8 510.9 L 39.5 498.1 L 41.4 481.9 L 41.7 466.2 L 44.2 451.4 L 45.3 436.9 L 46.5 420.7 L 46.2 404.6 L 51.5 391.4 L 58.7 375.8 L 62.2 360.7 L 66.5 345.5 L 72.3 330.4 L 79.3 315.0 L 84.5 303.8 L 93.0 288.9 L 98.1 278.2 L 105.4 266.8 L 112.3 253.8 L 119.2 242.4 L 125.3 229.1 L 134.4 217.4 L 145.9 206.7 L 152.7 196.6 L 165.0 184.7 L 175.3 175.1 L 186.5 165.4 L 197.9 153.0 L 209.6 141.7 L 221.6 131.9 L 236.2 125.7 L 250.9 114.3 L 266.5 106.0 L 276.5 100.1 L 288.2 90.4 L 298.9 86.3 L 315.0 79.6 L 329.0 72.5 L 343.3 67.8 L 356.4 61.2 L 366.9 60.2 L 382.4 56.4 L 398.3 50.5 L 413.0 48.9 L 428.8 42.1 L 441.6 44.7 L 457.3 38.6 L 469.0 41.2 L 478.2 39.5 L 495.0 41.9 L 508.5 40.7 L 527.0 40.4 L 544.7 39.6 L 558.1 43.0 L 575.9 45.9 L 592.1 47.5 L 606.6 53.2 L 624.2 57.0 L 637.6 62.1 L 653.6 66.4 L 661.2 70.5 L 676.3 75.6 L 689.6 79.9 L 698.2 89.9 L 710.9 90.5 L 723.8 99.3 L 736.6 106.4 L 751.6 115.1 L 762.7 125.5 L 776.9 131.7 L 790.2 145.1 L 798.0 150.1 L 811.4 159.9 L 821.6 172.7 L 833.1 182.8 L 843.2 191.6 L 853.6 206.9 L 861.8 215.7 L 871.1 229.6 L 882.3 241.3 L 892.2 257.1 L 899.6 271.2 L 905.0 285.3 L 912.7 300.1 L 921.5 311.2 L 924.5 323.7 L 931.5 339.3 L 938.1 350.9 L 937.9 362.4 L 942.4 377.3 L 949.0 391.9 L 949.6 407.6 L 955.8 423.3 L 953.9 441.5 L 958.3 457.3 L 958.9 474.4 L 959.6 492.3 L 961.1 502.3" stroke="purple" stroke-width="2" fill="none" /><path d="M 953.8 502.5 L 947.5 515.4 L 947.3 528.5 L 945.9 539.0 L 949.8 545.8 L 944.7 562.8 L 944.7 574.5 L 936.3 590.0 L 939.0 600.1 L 936.3 612.7 L 931.1 628.7 L 929.2 639.7 L 921.4 653.4 L 918.0 668.0 L 912.7 684.0 L 905.1 692.0 L 900.4 705.0 L 891.9 715.5 L 890.1 725.1 L 879.8 734.1 L 875.1 749.7 L 862.9 760.9 L 857.1 775.2 L 847.4 787.1 L 838.1 798.7 L 826.8 808.7 L 817.3 817.3 L 808.8 827.7 L 797.3 837.8 L 787.4 848.7 L 774.7 855.3 L 761.6 864.3 L 747.3 874.3 L 734.3 882.9 L 727.4 890.6 L 717.3 890.9 L 705.4 900.1 L 692.0 907.3 L 682.7 911.8 L 665.7 916.2 L 652.7 924.7 L 635.6 930.9 L 623.5 933.4 L 610.8 938.5 L 595.3 940.4 L 580.5 941.1 L 567.4 944.9 L 553.4 948.8 L 540.3 949.1 L 523.7 947.4 L 510.1 949.7 L 493.5 946.7 L 479.7 951.3 L 461.7 948.6 L 445.6 946.3 L 432.4 942.4 L 418.6 942.7 L 403.3 939.7 L 386.6 938.4 L 374.0 930.9 L 362.4 930.7 L 347.0 924.6 L 331.8 916.0 L 317.4 909.6 L 303.1 905.0 L 289.3 896.6 L 273.8 887.1 L 258.9 884.3 L 248.3 871.1 L 234.2 861.8 L 224.6 852.6 L 210.9 848.1 L 206.3 837.0 L 191.1 828.3 L 179.9 815.3 L 167.0 802.4 L 158.1 793.6 L 148.0 782.1 L 140.8 768.9 L 132.0 758.6 L 130.0 742.2 L 117.0 737.7 L 111.0 725.3 L 102.6 715.0 L 99.0 702.6 L 92.4 693.3 L 86.2 683.0 L 82.9 665.3 L 79.4 652.4 L 74.1 648.6 L 71.7 639.7 L 65.6 624.0 L 65.9 611.0 L 60.9 602.1 L 59.1 584.7 L 54.9 575.3 L 54.4 565.1 L 52.0 552.0 L 50.4 536.0 L 50.2 519.5 L 53.9 508.5 L 48.2 501.4 L 50.9 483.1 L 50.8 468.3 L 54.2 451.9 L 54.4 438.1 L 55.5 420.7 L 57.5 407.7 L 60.6 392.6 L 69.1 379.1 L 72.5 361.7 L 75.1 348.5 L 82.9 335.6 L 90.3 319.5 L 93.1 308.4 L 102.1 296.0 L 108.7 282.7 L 114.0 268.7 L 120.2 256.3 L 130.0 244.1 L 137.8 232.8 L 148.0 221.2 L 155.5 209.2 L 164.9 200.8 L 175.0 189.9 L 184.1 180.4 L 192.1 169.6 L 205.4 160.4 L 218.1 147.8 L 224.3 142.5 L 234.6 136.5 L 246.1 130.5 L 260.6 121.2 L 271.7 114.4 L 284.4 107.2 L 296.9 99.9 L 309.5 92.6 L 324.4 85.7 L 336.8 80.6 L 351.2 75.2 L 360.6 70.0 L 373.3 70.3 L 387.4 63.6 L 402.0 61.6 L 416.7 57.0 L 431.1 51.1 L 444.5 54.2 L 457.0 46.9 L 469.7 50.5 L 476.9 49.7 L 495.7 52.6 L 508.2 48.5 L 521.3 51.6 L 537.1 50.9 L 551.2 50.2 L 567.9 55.4 L 580.8 57.3 L 594.6 61.5 L 610.9 66.1 L 628.3 67.6 L 641.7 74.0 L 649.5 78.3 L 657.8 79.5 L 670.8 85.6 L 680.3 87.7 L 693.3 92.7 L 699.6 97.3 L 715.1 99.8 L 723.4 110.7 L 737.8 116.4 L 750.1 128.9 L 760.0 135.3 L 773.7 143.0 L 786.7 155.9 L 796.2 161.4 L 807.7 172.6 L 818.6 183.7 L 831.3 193.8 L 837.9 203.9 L 851.2 215.8 L 859.4 230.1 L 867.2 240.2 L 877.5 254.5 L 887.5 270.0 L 893.2 282.6 L 899.2 297.0 L 909.9 310.4 L 909.5 322.2 L 918.2 334.6 L 923.0 351.7 L 930.9 357.1 L 931.6 366.2 L 934.8 381.2 L 937.1 395.9 L 939.8 411.1 L 945.0 424.1 L 942.4 441.6 L 947.3 455.5 L 948.4 474.8 L 947.9 493.0 L 952.4 501.9" stroke="orange" stroke-width="2" fill="none" /><text x="10" y="25" font-family="Arial" font-size="16" fill="black">Distance: 10px, Segment: 2px, Error: 2.0 (Simplified)</text><text x="10" y="45" font-family="Arial" font-size="16" fill="black">Curves: 6 (Simplified)</text></svg>