<?xml version='1.0' encoding='utf-8'?>
<svg width="1200" height="1200" xmlns="http://www.w3.org/2000/svg" version="1.1"><rect width="1200" height="1200" fill="white" /><path d="M 1000.0 500.0 L 999.1 530.0 L 996.4 559.9 L 991.9 589.5 L 985.7 618.9 L 977.7 647.8 L 967.9 676.2 L 956.5 703.9 L 943.5 730.9 L 928.8 757.1 L 912.6 782.4 L 895.0 806.6 L 875.9 829.7 L 855.4 851.7 L 833.7 872.4 L 810.7 891.7 L 786.7 909.6 L 761.6 926.1 L 735.6 941.0 L 708.7 954.4 L 681.1 966.1 L 652.8 976.1 L 624.0 984.4 L 594.7 991.0 L 565.1 995.7 L 535.2 998.8 L 505.3 1000.0 L 475.3 999.4 L 445.3 997.0 L 415.6 992.8 L 386.2 986.9 L 357.2 979.2 L 328.8 969.8 L 300.9 958.6 L 273.7 945.9 L 247.4 931.5 L 222.0 915.6 L 197.6 898.2 L 174.2 879.3 L 152.1 859.1 L 131.2 837.6 L 111.6 814.8 L 93.4 791.0 L 76.7 766.1 L 61.5 740.2 L 47.9 713.5 L 35.9 686.0 L 25.5 657.8 L 16.9 629.0 L 10.1 599.8 L 5.0 570.3 L 1.6 540.5 L 0.1 510.5 L 0.4 480.5 L 2.4 450.6 L 6.3 420.8 L 11.9 391.4 L 19.3 362.3 L 28.5 333.7 L 39.3 305.7 L 51.8 278.4 L 65.9 252.0 L 81.5 226.4 L 98.7 201.8 L 117.3 178.2 L 137.3 155.8 L 158.6 134.7 L 181.1 114.9 L 204.8 96.5 L 229.5 79.5 L 255.2 64.0 L 281.8 50.1 L 309.2 37.8 L 337.2 27.2 L 365.9 18.3 L 395.0 11.1 L 424.5 5.7 L 454.3 2.1 L 484.2 0.2 L 514.3 0.2 L 544.2 2.0 L 574.0 5.5 L 603.5 10.8 L 632.7 17.9 L 661.3 26.7 L 689.4 37.3 L 716.8 49.5 L 743.5 63.3 L 769.2 78.7 L 794.0 95.6 L 817.7 113.9 L 840.3 133.7 L 861.7 154.8 L 881.7 177.1 L 900.4 200.6 L 917.7 225.1 L 933.4 250.6 L 947.6 277.1 L 960.1 304.3 L 971.0 332.3 L 980.2 360.8 L 987.7 389.9 L 993.5 419.3 L 997.4 449.1 L 999.6 479.0" stroke="black" stroke-width="2" fill="none" /><path d="M 997.4 499.9 L 996.6 519.8 L 995.3 539.6 L 993.6 559.4 L 990.4 579.1 L 987.4 598.8 L 982.6 618.1 L 977.4 637.4 L 971.5 656.4 L 964.9 675.3 L 957.6 693.8 L 949.6 712.1 L 940.7 730.0 L 930.8 747.3 L 920.9 764.5 L 909.7 781.0 L 898.4 797.4 L 886.4 813.2 L 873.4 828.3 L 859.8 842.8 L 845.7 857.0 L 831.0 870.5 L 815.9 883.5 L 800.4 895.9 L 784.3 907.8 L 767.9 919.0 L 750.7 929.1 L 733.1 938.6 L 715.5 948.0 L 697.2 956.1 L 678.8 963.6 L 660.2 970.9 L 641.2 976.8 L 621.9 981.8 L 602.5 986.1 L 583.0 989.7 L 563.3 992.9 L 543.6 995.4 L 523.6 996.8 L 503.7 997.0 L 483.9 996.6 L 464.0 996.0 L 444.2 994.0 L 424.4 991.2 L 404.8 988.1 L 385.5 983.3 L 366.3 978.6 L 347.2 973.4 L 328.4 966.7 L 309.9 959.2 L 291.6 951.3 L 273.8 942.4 L 256.1 933.2 L 238.9 923.1 L 222.1 912.3 L 205.7 901.0 L 190.7 888.3 L 175.2 875.8 L 160.2 862.7 L 145.9 848.8 L 132.3 834.4 L 119.2 819.3 L 106.5 804.0 L 94.8 787.8 L 83.5 771.4 L 72.6 754.8 L 63.3 737.3 L 54.1 719.6 L 46.0 701.4 L 37.9 683.2 L 31.1 664.5 L 24.7 645.6 L 19.6 626.4 L 14.6 607.2 L 11.0 587.6 L 7.5 568.0 L 5.4 548.2 L 3.8 528.3 L 2.7 508.5 L 3.2 488.6 L 3.7 468.6 L 5.7 448.8 L 8.1 429.0 L 11.4 409.5 L 15.5 390.0 L 19.8 370.5 L 25.8 351.6 L 32.0 332.6 L 39.4 314.1 L 46.8 295.6 L 55.3 277.6 L 64.5 259.9 L 74.8 242.9 L 85.4 226.1 L 96.6 209.6 L 108.4 193.5 L 121.1 178.2 L 134.5 163.4 L 148.4 149.0 L 162.5 135.0 L 177.6 121.9 L 192.9 109.4 L 208.7 97.2 L 225.2 86.0 L 242.2 75.5 L 259.0 64.8 L 276.8 55.8 L 294.7 47.1 L 313.2 39.7 L 331.6 32.1 L 350.5 25.8 L 369.7 20.5 L 389.0 15.3 L 408.5 11.3 L 428.3 8.3 L 448.1 6.2 L 467.9 3.9 L 487.8 3.3 L 507.7 3.3 L 527.6 3.6 L 547.5 5.3 L 567.3 7.8 L 587.0 10.3 L 606.5 14.5 L 625.8 19.3 L 645.1 24.5 L 663.9 30.8 L 682.6 37.7 L 701.0 45.3 L 719.0 53.8 L 736.6 63.2 L 753.9 73.1 L 770.9 83.5 L 787.7 94.3 L 803.4 106.5 L 819.1 118.8 L 834.2 131.6 L 848.4 145.6 L 862.3 159.9 L 875.7 174.7 L 888.6 190.0 L 900.6 206.0 L 912.0 222.3 L 923.0 239.0 L 932.8 256.3 L 942.3 273.7 L 951.3 291.5 L 959.0 309.9 L 966.3 328.3 L 973.1 347.1 L 978.6 366.2 L 983.2 385.6 L 988.1 405.0 L 991.3 424.6 L 994.2 444.4 L 995.3 464.2 L 996.4 484.0" stroke="blue" stroke-width="2" fill="none" /><path d="M 993.9 500.1 L 993.6 520.0 L 992.5 539.5 L 990.9 559.3 L 987.9 579.0 L 984.3 598.5 L 979.7 617.8 L 974.1 636.8 L 968.6 656.0 L 962.3 674.8 L 954.5 693.1 L 946.3 711.3 L 937.7 729.2 L 928.2 746.6 L 917.8 763.5 L 906.5 779.9 L 895.1 796.1 L 883.3 812.0 L 870.6 827.3 L 857.1 841.7 L 842.8 855.5 L 828.3 869.0 L 813.2 881.7 L 797.5 893.7 L 781.9 906.1 L 765.3 916.9 L 748.3 927.1 L 731.0 936.8 L 713.1 945.6 L 695.1 953.9 L 676.7 961.3 L 658.4 968.4 L 639.2 973.6 L 620.2 979.6 L 600.7 983.8 L 581.2 987.2 L 561.6 989.9 L 542.0 992.7 L 522.3 993.8 L 502.4 993.6 L 482.8 993.4 L 463.0 993.1 L 443.3 991.2 L 423.7 987.8 L 404.1 984.8 L 384.8 980.1 L 366.0 975.2 L 346.8 969.9 L 328.2 963.3 L 309.9 956.0 L 291.8 948.0 L 274.1 939.1 L 256.6 929.6 L 239.4 919.8 L 223.0 908.9 L 206.6 897.8 L 191.3 885.4 L 176.2 872.8 L 161.4 859.6 L 147.5 845.6 L 133.4 831.5 L 120.7 816.3 L 107.8 801.2 L 96.2 785.1 L 85.1 768.9 L 75.2 751.9 L 65.3 734.8 L 56.0 717.4 L 47.9 699.3 L 40.2 681.2 L 33.4 662.4 L 27.5 643.4 L 22.4 624.3 L 16.9 605.4 L 13.5 585.9 L 10.9 566.2 L 8.3 546.4 L 6.8 526.6 L 5.7 506.8 L 6.6 487.1 L 7.1 467.3 L 8.8 447.6 L 11.4 428.2 L 14.6 408.7 L 18.5 389.3 L 23.3 370.2 L 28.6 351.3 L 34.9 332.5 L 42.7 314.3 L 49.8 295.8 L 58.6 278.0 L 68.0 260.7 L 77.9 243.5 L 88.7 226.8 L 99.6 210.3 L 111.4 194.3 L 124.1 179.1 L 137.4 164.3 L 151.4 150.2 L 165.2 136.1 L 180.4 123.2 L 195.6 110.7 L 211.5 98.9 L 228.0 88.0 L 244.9 77.5 L 261.7 67.1 L 279.4 58.1 L 297.1 49.4 L 315.4 41.8 L 333.6 34.6 L 352.4 28.1 L 371.6 23.5 L 390.8 18.3 L 410.2 14.2 L 429.7 11.7 L 449.3 8.8 L 469.1 7.1 L 488.9 6.5 L 508.7 5.8 L 528.6 6.4 L 548.4 8.5 L 568.1 10.8 L 587.7 13.6 L 607.1 17.7 L 626.2 22.1 L 644.9 28.1 L 663.9 33.8 L 682.5 41.1 L 700.8 48.5 L 718.6 57.4 L 736.3 66.2 L 753.4 76.0 L 770.3 86.5 L 786.9 97.3 L 802.6 109.6 L 818.0 121.9 L 832.7 135.1 L 847.2 148.5 L 860.9 162.9 L 874.3 177.4 L 887.0 192.7 L 898.7 208.6 L 909.7 225.1 L 921.0 241.4 L 931.0 258.4 L 939.8 276.1 L 948.8 293.7 L 956.7 312.0 L 964.0 330.4 L 970.3 349.0 L 976.1 368.0 L 980.2 387.5 L 985.1 406.7 L 988.6 426.2 L 991.4 445.8 L 992.6 465.5 L 993.7 485.3" stroke="red" stroke-width="2" fill="none" /><path d="M 990.9 500.2 L 990.6 520.0 L 989.5 539.8 L 987.5 559.6 L 984.5 579.2 L 981.1 598.8 L 976.7 618.1 L 971.4 637.2 L 965.1 655.9 L 959.1 674.8 L 951.7 693.0 L 943.0 710.9 L 934.7 729.0 L 925.1 746.1 L 914.6 762.8 L 903.4 779.2 L 892.1 795.7 L 880.0 810.8 L 867.6 826.3 L 854.1 840.7 L 839.8 854.2 L 825.4 867.6 L 810.0 880.2 L 794.4 892.2 L 778.8 904.4 L 762.7 915.8 L 745.1 924.7 L 728.4 935.4 L 710.6 943.8 L 692.4 951.7 L 674.5 959.3 L 655.9 965.8 L 636.7 971.0 L 617.8 977.4 L 598.4 980.8 L 579.1 984.8 L 560.0 987.3 L 540.6 989.6 L 520.8 991.3 L 501.0 990.5 L 481.3 990.7 L 461.7 989.8 L 442.2 988.4 L 422.9 984.1 L 403.3 982.1 L 384.1 977.4 L 365.2 972.4 L 346.5 966.0 L 327.7 959.8 L 309.7 952.5 L 291.7 944.4 L 274.1 935.4 L 256.9 925.8 L 239.8 916.7 L 223.3 905.7 L 206.8 894.5 L 191.9 882.3 L 177.1 869.7 L 162.5 856.3 L 148.7 842.1 L 134.9 828.1 L 121.9 813.4 L 109.3 798.2 L 98.3 782.3 L 86.7 766.4 L 77.5 749.0 L 67.3 732.0 L 58.2 714.9 L 49.8 697.1 L 42.6 678.6 L 35.6 660.3 L 29.8 641.3 L 24.4 622.1 L 19.7 603.2 L 16.0 583.9 L 13.3 564.7 L 11.1 545.0 L 10.3 525.1 L 8.8 505.6 L 9.9 485.7 L 10.5 466.0 L 11.9 446.5 L 14.3 427.0 L 17.6 407.4 L 22.2 388.1 L 26.5 368.7 L 32.6 349.8 L 38.8 330.9 L 46.2 312.6 L 54.7 294.8 L 62.3 276.6 L 72.2 259.5 L 82.0 242.4 L 92.6 225.7 L 104.4 209.9 L 116.2 194.2 L 128.8 178.9 L 141.6 163.6 L 155.6 149.8 L 169.4 136.0 L 184.3 123.1 L 200.1 111.4 L 216.1 99.7 L 232.1 88.1 L 249.0 78.2 L 266.1 68.2 L 283.5 59.1 L 301.6 51.2 L 319.8 43.5 L 337.8 35.8 L 356.6 30.1 L 375.8 25.6 L 394.7 19.8 L 414.1 16.4 L 433.5 14.0 L 453.0 11.1 L 472.7 10.5 L 492.2 8.9 L 512.0 9.3 L 531.6 10.4 L 551.2 11.5 L 570.9 14.3 L 590.6 16.8 L 609.5 22.0 L 628.8 26.0 L 647.3 32.2 L 666.4 38.0 L 684.9 45.0 L 702.8 52.9 L 720.7 60.9 L 737.7 71.0 L 754.9 80.9 L 772.0 90.9 L 788.1 102.6 L 804.2 114.2 L 819.5 126.9 L 834.5 140.0 L 848.2 154.2 L 862.1 168.4 L 875.3 183.1 L 887.3 198.7 L 899.4 214.5 L 910.6 230.6 L 920.7 247.6 L 931.5 264.3 L 939.7 282.1 L 948.2 299.8 L 956.2 317.9 L 963.7 336.2 L 968.6 355.1 L 974.2 373.9 L 979.2 393.0 L 982.7 412.4 L 986.1 431.8 L 988.4 451.4 L 990.1 471.0 L 991.1 490.8" stroke="green" stroke-width="2" fill="none" /><path d="M 988.2 499.7 L 987.8 519.3 L 986.5 539.2 L 984.3 558.9 L 981.1 578.3 L 978.5 597.4 L 974.1 616.6 L 968.5 635.5 L 962.7 654.4 L 956.2 673.0 L 948.8 691.2 L 940.3 709.0 L 932.3 727.1 L 922.6 744.3 L 911.8 761.2 L 901.1 778.0 L 889.6 794.2 L 877.3 809.6 L 864.8 825.0 L 850.7 838.7 L 836.8 852.5 L 822.4 866.1 L 807.5 879.1 L 791.5 890.6 L 775.8 902.1 L 760.0 913.7 L 742.7 923.2 L 726.2 933.7 L 708.1 941.0 L 690.4 949.6 L 672.2 957.1 L 653.5 963.4 L 634.6 968.7 L 615.7 974.5 L 596.5 978.5 L 577.3 981.8 L 557.9 984.7 L 538.4 986.1 L 518.7 988.1 L 498.8 987.4 L 479.0 987.2 L 459.3 986.0 L 439.5 984.5 L 420.1 981.0 L 400.7 977.9 L 381.7 973.2 L 362.7 968.0 L 343.8 962.1 L 324.9 955.6 L 306.5 948.3 L 288.6 939.9 L 270.9 931.1 L 254.4 920.5 L 237.2 911.0 L 221.0 899.8 L 204.4 889.0 L 189.8 876.4 L 174.7 863.8 L 160.1 850.4 L 146.3 836.4 L 133.2 821.4 L 120.3 806.4 L 108.4 790.7 L 97.1 775.0 L 86.1 758.6 L 76.4 741.4 L 66.6 724.4 L 58.1 706.9 L 49.5 688.9 L 43.1 670.2 L 35.9 651.7 L 30.6 632.6 L 25.3 613.4 L 20.5 594.3 L 17.2 574.8 L 15.6 555.3 L 12.8 535.7 L 12.2 516.0 L 12.5 496.3 L 12.7 476.6 L 14.0 457.1 L 15.7 437.5 L 18.6 418.0 L 22.3 398.7 L 27.5 379.6 L 32.4 360.5 L 38.7 341.7 L 44.7 323.0 L 52.8 305.3 L 60.8 287.5 L 69.8 270.1 L 79.2 252.8 L 89.3 236.3 L 100.6 220.0 L 111.4 203.7 L 123.9 188.6 L 137.5 174.1 L 150.6 159.4 L 164.6 145.6 L 178.7 132.1 L 193.8 119.8 L 209.4 107.4 L 225.7 96.1 L 242.6 85.7 L 259.7 75.8 L 276.6 65.8 L 294.5 56.9 L 313.0 50.0 L 331.1 42.0 L 349.5 35.5 L 368.5 30.5 L 387.4 24.9 L 406.2 20.6 L 425.4 17.1 L 445.0 15.7 L 464.7 13.1 L 484.1 12.1 L 503.5 12.3 L 523.4 12.0 L 542.2 13.9 L 561.8 16.0 L 581.4 18.9 L 601.0 21.8 L 619.8 27.1 L 638.8 32.1 L 657.7 38.0 L 676.5 44.5 L 694.7 52.4 L 711.3 61.0 L 729.1 69.2 L 746.6 78.1 L 762.6 89.5 L 779.5 99.6 L 795.0 111.7 L 810.6 123.9 L 825.6 136.7 L 840.3 149.9 L 854.3 164.1 L 867.3 179.0 L 880.4 193.6 L 891.9 209.2 L 903.2 225.5 L 914.3 241.9 L 924.3 258.9 L 933.4 276.3 L 942.4 293.6 L 949.9 311.6 L 957.4 329.6 L 964.3 348.1 L 970.0 366.8 L 973.5 385.9 L 978.5 404.5 L 982.2 424.0 L 985.5 443.6 L 986.0 463.4 L 987.2 483.2" stroke="purple" stroke-width="2" fill="none" /><path d="M 985.6 500.0 L 985.0 519.9 L 983.9 539.6 L 981.3 559.3 L 978.2 579.0 L 974.6 598.6 L 971.0 618.1 L 965.3 637.2 L 959.4 656.1 L 952.4 674.6 L 944.8 692.8 L 936.5 710.8 L 927.7 728.6 L 918.2 745.7 L 907.4 762.4 L 896.8 779.2 L 885.1 795.1 L 872.8 810.1 L 860.2 825.5 L 846.9 839.8 L 832.2 852.9 L 817.7 866.4 L 802.6 878.8 L 786.8 890.7 L 770.7 902.3 L 753.9 912.9 L 736.8 923.2 L 719.6 931.8 L 702.1 940.8 L 684.2 948.3 L 666.5 956.4 L 647.7 962.3 L 629.1 967.9 L 609.9 972.8 L 590.9 976.5 L 571.6 979.8 L 552.3 982.5 L 532.8 984.2 L 513.1 984.9 L 493.4 985.1 L 473.7 983.4 L 454.4 982.6 L 434.8 980.6 L 415.2 978.1 L 396.2 974.5 L 377.3 969.4 L 358.5 963.7 L 339.9 957.6 L 321.0 951.4 L 303.0 943.6 L 285.1 935.1 L 267.7 925.9 L 250.8 916.5 L 234.8 905.1 L 218.3 895.0 L 203.2 882.6 L 187.7 870.7 L 172.3 858.5 L 158.5 844.5 L 145.0 830.6 L 131.6 815.8 L 119.4 800.7 L 108.0 784.8 L 96.6 768.9 L 85.4 752.8 L 75.7 735.6 L 67.0 718.1 L 58.3 700.8 L 50.6 682.6 L 44.1 664.0 L 37.6 645.4 L 31.9 626.4 L 27.0 607.2 L 23.2 587.7 L 19.9 568.8 L 17.9 549.7 L 15.7 530.1 L 15.1 510.5 L 15.7 490.7 L 15.1 471.4 L 17.5 452.1 L 20.3 432.6 L 23.2 413.1 L 26.3 394.1 L 31.5 375.2 L 36.4 356.1 L 43.3 337.5 L 49.8 319.2 L 57.0 301.1 L 66.2 283.9 L 75.2 266.9 L 84.5 249.7 L 95.0 233.0 L 106.4 217.0 L 117.7 200.8 L 130.4 185.6 L 143.7 170.8 L 157.3 156.3 L 171.7 143.2 L 186.7 130.3 L 201.8 117.7 L 217.5 105.7 L 233.9 95.1 L 250.6 84.5 L 267.2 74.1 L 284.5 65.2 L 302.3 56.5 L 320.7 49.8 L 338.8 42.1 L 357.6 36.0 L 376.8 31.5 L 396.1 26.2 L 415.4 22.0 L 434.6 19.6 L 454.3 17.4 L 474.0 15.8 L 493.7 14.7 L 513.7 15.3 L 533.3 15.7 L 552.9 18.3 L 572.5 21.3 L 592.0 22.9 L 611.1 27.4 L 630.1 32.9 L 648.8 38.9 L 667.7 44.1 L 685.7 51.4 L 703.0 60.3 L 721.3 68.1 L 738.3 77.9 L 755.2 88.0 L 771.7 99.0 L 788.0 109.8 L 803.2 122.1 L 819.0 134.2 L 833.7 147.5 L 847.6 161.7 L 861.4 175.8 L 873.4 191.3 L 886.1 206.4 L 896.8 222.7 L 908.8 238.5 L 918.6 255.2 L 928.8 272.3 L 937.2 290.0 L 945.2 307.9 L 952.3 326.1 L 959.6 344.5 L 965.3 363.4 L 970.2 382.3 L 975.1 400.7 L 977.8 420.1 L 981.7 439.2 L 982.7 458.9 L 983.9 478.6 L 984.7 498.4" stroke="orange" stroke-width="2" fill="none" /><text x="10" y="25" font-family="Arial" font-size="16" fill="black">Distance: 3px, Segment: 2px, Error: 0.5 (Simplified)</text><text x="10" y="45" font-family="Arial" font-size="16" fill="black">Curves: 6 (Simplified)</text></svg>