<?xml version='1.0' encoding='utf-8'?>
<svg width="1200" height="1200" xmlns="http://www.w3.org/2000/svg" version="1.1"><rect width="1200" height="1200" fill="white" /><path d="M 1000.0 500.0 L 999.1 530.0 L 996.4 559.9 L 991.9 589.5 L 985.7 618.9 L 977.7 647.8 L 967.9 676.2 L 956.5 703.9 L 943.5 730.9 L 928.8 757.1 L 912.6 782.4 L 895.0 806.6 L 875.9 829.7 L 855.4 851.7 L 833.7 872.4 L 810.7 891.7 L 786.7 909.6 L 761.6 926.1 L 735.6 941.0 L 708.7 954.4 L 681.1 966.1 L 652.8 976.1 L 624.0 984.4 L 594.7 991.0 L 565.1 995.7 L 535.2 998.8 L 505.3 1000.0 L 475.3 999.4 L 445.3 997.0 L 415.6 992.8 L 386.2 986.9 L 357.2 979.2 L 328.8 969.8 L 300.9 958.6 L 273.7 945.9 L 247.4 931.5 L 222.0 915.6 L 197.6 898.2 L 174.2 879.3 L 152.1 859.1 L 131.2 837.6 L 111.6 814.8 L 93.4 791.0 L 76.7 766.1 L 61.5 740.2 L 47.9 713.5 L 35.9 686.0 L 25.5 657.8 L 16.9 629.0 L 10.1 599.8 L 5.0 570.3 L 1.6 540.5 L 0.1 510.5 L 0.4 480.5 L 2.4 450.6 L 6.3 420.8 L 11.9 391.4 L 19.3 362.3 L 28.5 333.7 L 39.3 305.7 L 51.8 278.4 L 65.9 252.0 L 81.5 226.4 L 98.7 201.8 L 117.3 178.2 L 137.3 155.8 L 158.6 134.7 L 181.1 114.9 L 204.8 96.5 L 229.5 79.5 L 255.2 64.0 L 281.8 50.1 L 309.2 37.8 L 337.2 27.2 L 365.9 18.3 L 395.0 11.1 L 424.5 5.7 L 454.3 2.1 L 484.2 0.2 L 514.3 0.2 L 544.2 2.0 L 574.0 5.5 L 603.5 10.8 L 632.7 17.9 L 661.3 26.7 L 689.4 37.3 L 716.8 49.5 L 743.5 63.3 L 769.2 78.7 L 794.0 95.6 L 817.7 113.9 L 840.3 133.7 L 861.7 154.8 L 881.7 177.1 L 900.4 200.6 L 917.7 225.1 L 933.4 250.6 L 947.6 277.1 L 960.1 304.3 L 971.0 332.3 L 980.2 360.8 L 987.7 389.9 L 993.5 419.3 L 997.4 449.1 L 999.6 479.0" stroke="black" stroke-width="2" fill="none" /><path d="M 995.2 500.4 L 994.1 530.2 L 991.9 559.8 L 986.5 589.1 L 980.8 618.3 L 972.4 646.9 L 962.6 674.9 L 952.2 702.8 L 938.7 729.4 L 924.0 755.2 L 907.9 780.2 L 891.2 804.9 L 871.6 827.2 L 851.1 849.0 L 829.5 869.3 L 806.7 888.3 L 782.4 905.6 L 757.8 922.5 L 732.3 937.4 L 706.1 950.8 L 678.3 961.3 L 650.5 971.7 L 621.8 980.0 L 592.5 985.7 L 563.3 990.9 L 533.8 993.2 L 504.2 994.5 L 474.7 994.5 L 444.9 992.6 L 415.6 988.3 L 386.6 981.7 L 357.7 974.4 L 329.5 965.0 L 301.8 954.2 L 275.2 940.8 L 249.0 926.8 L 224.2 910.9 L 200.3 893.2 L 176.7 875.0 L 154.5 855.1 L 133.5 833.9 L 114.6 810.8 L 96.7 787.1 L 80.1 762.4 L 65.1 736.9 L 52.5 709.9 L 40.4 683.1 L 30.4 655.1 L 21.4 626.9 L 14.5 598.1 L 10.2 568.7 L 7.3 539.2 L 5.1 509.7 L 5.1 480.0 L 8.1 450.4 L 10.9 420.8 L 16.6 391.6 L 24.1 362.9 L 33.2 334.6 L 44.8 307.1 L 56.2 279.6 L 71.2 253.9 L 86.2 228.0 L 103.1 203.6 L 122.0 180.4 L 141.8 158.0 L 162.9 137.1 L 185.7 118.4 L 208.6 99.7 L 233.0 83.1 L 258.6 67.9 L 284.6 53.5 L 311.9 42.4 L 339.8 31.9 L 368.0 22.5 L 396.8 15.2 L 426.1 10.7 L 455.8 7.1 L 485.3 5.2 L 515.0 5.5 L 544.7 7.2 L 574.3 10.3 L 603.3 15.9 L 632.2 23.0 L 660.8 31.4 L 688.5 42.4 L 715.4 54.5 L 742.0 67.7 L 767.3 83.5 L 791.5 100.9 L 815.3 118.7 L 837.6 138.5 L 859.2 158.9 L 878.8 181.5 L 897.4 204.7 L 914.4 229.2 L 929.8 254.5 L 943.8 280.7 L 956.1 308.0 L 966.7 335.7 L 976.3 363.7 L 983.2 392.7 L 989.6 421.7 L 992.9 450.9 L 994.1 480.3" stroke="blue" stroke-width="2" fill="none" /><path d="M 991.2 499.7 L 988.9 529.4 L 986.7 558.6 L 982.0 587.8 L 976.5 616.7 L 968.2 644.5 L 958.0 672.5 L 948.1 700.1 L 934.0 726.0 L 920.4 752.5 L 903.6 777.2 L 887.1 801.1 L 868.0 823.5 L 847.8 845.2 L 826.0 864.2 L 805.0 884.4 L 780.9 900.5 L 756.5 917.4 L 730.7 932.1 L 704.4 945.8 L 676.7 957.1 L 649.0 967.4 L 620.7 975.3 L 591.6 981.4 L 562.2 986.2 L 532.5 988.7 L 502.9 989.4 L 473.3 990.4 L 444.1 987.1 L 414.8 982.6 L 385.9 976.5 L 357.4 969.4 L 329.6 959.3 L 302.2 948.5 L 276.4 934.7 L 250.1 921.9 L 225.2 905.9 L 201.7 888.4 L 179.0 869.8 L 156.4 850.6 L 135.2 829.8 L 117.8 805.8 L 99.9 782.2 L 83.7 757.4 L 69.1 732.3 L 56.3 706.3 L 43.1 679.6 L 34.7 651.5 L 26.0 623.5 L 19.6 595.3 L 15.8 565.9 L 12.5 536.7 L 9.4 507.2 L 10.3 477.9 L 12.8 449.1 L 17.2 420.0 L 21.9 391.2 L 29.4 362.9 L 38.8 334.8 L 49.7 307.1 L 62.4 281.0 L 76.5 254.8 L 90.9 228.9 L 107.7 204.8 L 126.8 182.4 L 146.7 160.3 L 167.8 140.2 L 189.8 120.5 L 213.3 102.6 L 237.8 86.8 L 262.7 71.7 L 288.4 57.7 L 315.5 46.1 L 343.4 36.0 L 371.2 27.2 L 399.8 20.3 L 428.5 14.6 L 457.8 11.4 L 487.3 10.5 L 516.0 11.3 L 545.2 12.1 L 574.5 15.4 L 603.3 21.0 L 631.9 27.7 L 659.8 37.3 L 687.4 47.7 L 714.5 59.3 L 740.9 72.6 L 765.9 88.6 L 789.9 105.6 L 813.4 123.6 L 835.1 143.6 L 856.6 164.1 L 876.8 186.0 L 894.1 209.4 L 910.7 233.8 L 926.2 258.7 L 940.6 284.3 L 952.3 311.7 L 961.7 339.4 L 971.5 366.7 L 977.9 395.3 L 984.1 424.0 L 988.2 453.0 L 989.0 482.2" stroke="red" stroke-width="2" fill="none" /><path d="M 986.0 500.4 L 984.2 529.9 L 982.6 559.2 L 976.7 588.2 L 969.9 616.5 L 962.6 644.9 L 953.0 672.6 L 942.1 699.3 L 928.7 725.6 L 914.4 751.4 L 897.6 775.4 L 881.0 799.5 L 862.0 822.1 L 842.3 843.4 L 821.3 863.9 L 797.8 881.5 L 774.7 899.0 L 750.3 916.0 L 724.3 929.9 L 697.9 942.9 L 670.9 954.8 L 642.9 964.0 L 614.7 971.0 L 585.7 976.6 L 556.4 981.8 L 527.1 983.7 L 497.9 984.7 L 468.2 984.6 L 439.4 980.8 L 410.4 976.5 L 381.4 970.1 L 353.5 962.0 L 325.7 952.8 L 299.4 941.4 L 274.1 929.1 L 248.6 913.9 L 224.2 898.2 L 201.2 880.4 L 178.3 862.8 L 156.2 843.3 L 136.0 821.9 L 116.9 799.8 L 101.0 775.1 L 84.0 751.1 L 69.3 725.3 L 57.5 698.3 L 46.4 671.0 L 36.7 643.4 L 28.4 615.6 L 21.9 587.0 L 18.7 557.8 L 16.4 528.6 L 13.7 499.7 L 15.4 470.8 L 18.2 441.8 L 23.6 413.0 L 29.7 384.8 L 36.9 356.6 L 46.4 329.2 L 56.3 301.7 L 70.7 276.8 L 83.4 250.1 L 100.2 225.7 L 116.7 201.9 L 135.3 179.1 L 155.8 158.6 L 177.7 138.3 L 200.0 119.9 L 223.0 101.2 L 247.1 86.0 L 273.0 71.2 L 300.0 58.8 L 326.4 46.1 L 354.3 36.8 L 382.8 29.0 L 411.9 23.0 L 441.1 18.5 L 470.4 15.9 L 500.0 13.9 L 529.1 16.8 L 558.4 18.0 L 587.2 23.6 L 615.4 28.7 L 643.8 36.4 L 671.7 46.8 L 698.8 57.7 L 725.2 70.1 L 750.3 84.8 L 775.1 101.5 L 799.2 118.5 L 821.4 137.6 L 843.5 157.7 L 863.3 179.5 L 882.9 201.6 L 898.7 225.8 L 914.9 250.0 L 929.7 275.3 L 942.5 302.2 L 953.3 329.7 L 963.7 356.8 L 971.4 384.3 L 977.8 413.1 L 981.3 442.7 L 983.6 471.9 L 986.0 500.4" stroke="green" stroke-width="2" fill="none" /><path d="M 981.2 501.1 L 979.1 530.5 L 977.4 560.2 L 971.6 588.9 L 965.1 617.9 L 956.5 645.8 L 947.7 673.4 L 937.6 699.1 L 923.1 724.4 L 909.7 750.4 L 893.0 775.0 L 874.8 798.0 L 856.9 821.4 L 836.2 842.6 L 814.8 863.1 L 790.9 880.6 L 768.8 898.7 L 743.7 913.9 L 717.5 927.3 L 691.5 940.5 L 664.5 952.3 L 636.6 959.6 L 608.4 967.7 L 579.6 972.8 L 550.5 976.5 L 521.1 980.0 L 492.6 980.1 L 463.6 977.9 L 434.2 975.8 L 404.9 971.2 L 376.3 964.2 L 347.8 956.7 L 321.4 943.6 L 293.5 934.5 L 268.0 920.6 L 244.6 904.6 L 220.2 890.1 L 197.5 872.1 L 175.6 853.9 L 154.2 833.6 L 135.8 811.3 L 116.3 790.4 L 100.3 765.9 L 84.3 740.8 L 70.6 714.5 L 57.6 688.0 L 47.7 660.1 L 37.7 632.7 L 31.5 604.1 L 25.9 575.4 L 22.8 546.9 L 21.4 518.3 L 19.7 489.0 L 21.1 459.5 L 25.6 430.6 L 30.0 401.5 L 37.3 373.1 L 44.4 345.0 L 55.8 317.7 L 67.0 292.7 L 81.5 267.0 L 96.1 241.2 L 112.7 218.2 L 129.4 194.8 L 149.1 172.8 L 169.4 151.3 L 191.5 132.6 L 213.9 114.5 L 236.6 97.3 L 261.8 83.3 L 287.6 69.2 L 313.7 56.9 L 341.0 47.9 L 368.8 36.8 L 397.4 30.9 L 425.7 26.2 L 454.9 22.4 L 484.5 20.3 L 513.9 21.1 L 543.6 22.1 L 573.0 25.2 L 602.1 29.9 L 630.0 37.0 L 657.7 46.6 L 684.6 56.9 L 711.2 69.3 L 736.9 83.3 L 761.6 97.7 L 785.4 115.0 L 809.6 132.1 L 830.4 152.5 L 851.4 173.1 L 869.9 195.3 L 887.8 218.0 L 904.5 241.8 L 919.1 267.7 L 933.7 293.5 L 945.3 321.0 L 954.6 348.8 L 963.1 376.7 L 970.6 405.1 L 975.2 433.7 L 978.4 463.5 L 978.7 493.0" stroke="purple" stroke-width="2" fill="none" /><path d="M 975.2 501.1 L 973.8 530.7 L 971.9 560.5 L 966.2 589.6 L 960.3 618.4 L 951.8 646.3 L 941.7 673.7 L 931.1 700.2 L 915.9 725.1 L 903.4 751.5 L 886.7 775.8 L 867.4 797.6 L 851.1 821.4 L 828.9 841.3 L 807.5 861.6 L 785.1 880.8 L 760.8 897.8 L 734.7 912.1 L 709.2 927.3 L 682.2 938.1 L 655.3 947.8 L 627.5 956.1 L 599.7 964.2 L 570.8 969.1 L 542.1 972.3 L 513.2 973.6 L 484.3 975.1 L 456.1 972.8 L 426.8 969.1 L 398.0 964.3 L 368.9 957.4 L 341.2 947.6 L 313.5 937.5 L 288.0 923.6 L 261.7 911.0 L 238.0 896.2 L 214.2 879.0 L 192.0 860.5 L 169.0 841.8 L 147.8 821.8 L 130.0 799.1 L 113.5 774.9 L 96.3 751.1 L 81.2 725.5 L 69.4 698.2 L 57.0 671.8 L 47.8 643.7 L 39.7 615.7 L 33.2 587.4 L 29.8 558.6 L 27.4 530.5 L 23.6 501.5 L 24.2 472.5 L 28.5 444.4 L 33.5 415.1 L 38.7 386.2 L 46.9 358.0 L 56.9 330.3 L 66.4 302.4 L 81.6 277.9 L 94.8 251.1 L 110.5 227.5 L 129.2 205.6 L 146.8 182.1 L 167.8 161.2 L 189.0 140.6 L 211.5 123.2 L 234.1 105.9 L 258.5 90.4 L 284.0 76.8 L 310.5 64.1 L 337.9 53.4 L 365.9 43.3 L 394.6 35.8 L 423.0 30.5 L 452.2 26.9 L 481.9 25.1 L 511.6 25.8 L 541.3 27.5 L 570.9 29.9 L 600.0 34.8 L 628.0 42.6 L 656.0 51.8 L 683.5 60.7 L 710.1 73.7 L 735.6 88.6 L 760.1 103.4 L 784.3 119.9 L 807.4 137.9 L 828.3 158.6 L 850.3 178.6 L 869.1 201.3 L 886.6 224.7 L 902.2 248.9 L 917.4 274.3 L 931.5 300.6 L 941.8 328.2 L 952.4 355.2 L 960.0 383.3 L 968.3 411.3 L 971.5 440.3 L 973.3 469.6 L 976.1 499.3" stroke="orange" stroke-width="2" fill="none" /><text x="10" y="25" font-family="Arial" font-size="16" fill="black">Distance: 5px, Segment: 3px, Error: 1.0 (Simplified)</text><text x="10" y="45" font-family="Arial" font-size="16" fill="black">Curves: 6 (Simplified)</text></svg>