<?xml version='1.0' encoding='utf-8'?>
<svg width="1200" height="1200" xmlns="http://www.w3.org/2000/svg" version="1.1"><rect width="1200" height="1200" fill="white" /><path d="M 1000.0 500.0 L 999.1 530.0 L 996.4 559.9 L 991.9 589.5 L 985.7 618.9 L 977.7 647.8 L 967.9 676.2 L 956.5 703.9 L 943.5 730.9 L 928.8 757.1 L 912.6 782.4 L 895.0 806.6 L 875.9 829.7 L 855.4 851.7 L 833.7 872.4 L 810.7 891.7 L 786.7 909.6 L 761.6 926.1 L 735.6 941.0 L 708.7 954.4 L 681.1 966.1 L 652.8 976.1 L 624.0 984.4 L 594.7 991.0 L 565.1 995.7 L 535.2 998.8 L 505.3 1000.0 L 475.3 999.4 L 445.3 997.0 L 415.6 992.8 L 386.2 986.9 L 357.2 979.2 L 328.8 969.8 L 300.9 958.6 L 273.7 945.9 L 247.4 931.5 L 222.0 915.6 L 197.6 898.2 L 174.2 879.3 L 152.1 859.1 L 131.2 837.6 L 111.6 814.8 L 93.4 791.0 L 76.7 766.1 L 61.5 740.2 L 47.9 713.5 L 35.9 686.0 L 25.5 657.8 L 16.9 629.0 L 10.1 599.8 L 5.0 570.3 L 1.6 540.5 L 0.1 510.5 L 0.4 480.5 L 2.4 450.6 L 6.3 420.8 L 11.9 391.4 L 19.3 362.3 L 28.5 333.7 L 39.3 305.7 L 51.8 278.4 L 65.9 252.0 L 81.5 226.4 L 98.7 201.8 L 117.3 178.2 L 137.3 155.8 L 158.6 134.7 L 181.1 114.9 L 204.8 96.5 L 229.5 79.5 L 255.2 64.0 L 281.8 50.1 L 309.2 37.8 L 337.2 27.2 L 365.9 18.3 L 395.0 11.1 L 424.5 5.7 L 454.3 2.1 L 484.2 0.2 L 514.3 0.2 L 544.2 2.0 L 574.0 5.5 L 603.5 10.8 L 632.7 17.9 L 661.3 26.7 L 689.4 37.3 L 716.8 49.5 L 743.5 63.3 L 769.2 78.7 L 794.0 95.6 L 817.7 113.9 L 840.3 133.7 L 861.7 154.8 L 881.7 177.1 L 900.4 200.6 L 917.7 225.1 L 933.4 250.6 L 947.6 277.1 L 960.1 304.3 L 971.0 332.3 L 980.2 360.8 L 987.7 389.9 L 993.5 419.3 L 997.4 449.1 L 999.6 479.0" stroke="black" stroke-width="2" fill="none" /><path d="M 996.2 500.1 L 993.4 550.0 L 985.8 599.3 L 973.5 647.7 L 956.1 694.5 L 934.2 739.5 L 908.1 782.0 L 877.6 821.6 L 843.3 857.9 L 805.5 890.5 L 764.8 919.6 L 721.2 943.7 L 675.5 964.1 L 627.9 979.3 L 579.1 989.8 L 529.4 995.3 L 479.5 995.5 L 429.7 991.0 L 380.7 981.5 L 332.9 967.0 L 286.8 947.8 L 242.8 924.1 L 201.5 896.1 L 163.0 864.2 L 128.2 828.3 L 97.1 789.3 L 70.2 747.2 L 47.3 702.8 L 29.2 656.2 L 15.6 608.1 L 7.6 558.8 L 4.1 509.0 L 5.5 459.1 L 12.2 409.6 L 24.1 361.1 L 40.2 313.8 L 61.3 268.5 L 86.8 225.5 L 116.6 185.4 L 150.2 148.6 L 187.2 115.0 L 227.6 85.7 L 270.6 60.3 L 315.9 39.3 L 363.2 23.1 L 411.9 11.8 L 461.4 5.4 L 511.4 3.9 L 561.2 7.8 L 610.3 16.7 L 658.4 30.2 L 704.9 48.3 L 749.3 71.2 L 791.3 98.3 L 830.1 129.8 L 865.6 164.8 L 897.3 203.4 L 925.2 244.8 L 949.0 288.8 L 967.9 335.0 L 982.1 382.9 L 991.2 432.0 L 995.6 481.8" stroke="blue" stroke-width="2" fill="none" /><path d="M 992.0 500.3 L 989.3 550.2 L 981.6 599.6 L 969.1 647.9 L 952.0 694.8 L 929.5 739.5 L 903.3 781.9 L 872.5 821.3 L 838.1 857.5 L 800.0 889.7 L 759.1 918.2 L 715.3 942.1 L 669.4 961.9 L 621.8 976.6 L 572.8 986.5 L 523.1 991.4 L 473.1 991.2 L 423.4 986.0 L 374.5 975.6 L 326.9 960.5 L 281.2 940.4 L 237.8 916.0 L 197.0 887.2 L 159.1 854.7 L 124.9 818.3 L 94.6 778.7 L 68.5 736.1 L 46.7 691.1 L 29.7 644.2 L 17.4 595.8 L 10.6 546.3 L 7.8 496.4 L 10.7 446.5 L 18.9 397.3 L 31.7 349.0 L 49.3 302.3 L 71.6 257.6 L 98.6 215.6 L 129.4 176.3 L 164.2 140.4 L 202.4 108.2 L 243.7 80.2 L 287.6 56.3 L 333.6 36.9 L 381.4 22.3 L 430.5 13.0 L 480.2 8.3 L 530.1 8.9 L 579.8 14.3 L 628.6 24.8 L 676.0 40.7 L 721.7 60.8 L 765.0 85.7 L 805.7 114.6 L 843.4 147.4 L 877.3 184.1 L 907.3 224.0 L 933.1 266.8 L 954.6 311.9 L 971.3 358.9 L 983.0 407.4 L 990.3 456.8" stroke="red" stroke-width="2" fill="none" /><path d="M 988.0 500.1 L 985.4 549.9 L 977.5 599.3 L 964.9 647.6 L 947.9 694.6 L 925.4 739.2 L 898.6 781.4 L 867.8 820.7 L 833.2 856.8 L 795.0 889.0 L 753.7 916.9 L 709.8 940.7 L 663.8 959.9 L 615.9 974.1 L 566.8 983.2 L 517.0 987.5 L 467.1 986.7 L 417.4 981.2 L 368.7 970.0 L 321.3 954.3 L 275.8 933.8 L 232.9 908.2 L 192.6 878.8 L 155.4 845.4 L 121.7 808.6 L 92.3 768.2 L 66.9 725.2 L 46.2 679.7 L 30.4 632.3 L 19.2 583.6 L 13.1 534.0 L 12.3 484.1 L 16.2 434.3 L 25.7 385.2 L 40.3 337.5 L 58.9 291.2 L 82.8 247.4 L 110.4 205.8 L 142.7 167.6 L 178.5 132.8 L 217.8 101.9 L 260.1 75.3 L 304.6 52.7 L 351.5 35.3 L 399.7 22.6 L 449.0 14.6 L 498.9 12.3 L 548.8 14.4 L 598.2 21.6 L 646.4 34.4 L 693.3 51.7 L 737.9 74.2 L 780.3 100.5 L 819.7 131.4 L 855.6 166.0 L 887.9 204.1 L 916.3 245.2 L 940.1 289.1 L 959.5 335.1 L 973.4 383.0 L 983.1 431.9 L 987.9 481.6" stroke="green" stroke-width="2" fill="none" /><path d="M 983.9 499.9 L 981.4 549.8 L 973.4 599.1 L 960.8 647.5 L 943.4 694.3 L 920.8 738.9 L 894.0 781.0 L 862.7 819.9 L 828.1 855.9 L 789.8 888.0 L 748.3 915.6 L 704.2 938.9 L 657.9 957.6 L 609.9 971.3 L 560.7 980.1 L 510.9 983.8 L 461.0 982.1 L 411.4 976.1 L 363.0 963.9 L 315.6 948.0 L 270.6 926.4 L 227.8 900.7 L 188.5 869.8 L 151.8 836.1 L 119.2 798.3 L 90.3 757.7 L 65.8 714.2 L 46.3 668.1 L 31.7 620.4 L 21.4 571.5 L 16.5 521.8 L 17.1 471.8 L 22.3 422.2 L 32.8 373.4 L 48.5 326.0 L 68.9 280.6 L 93.6 237.2 L 122.8 196.7 L 156.1 159.5 L 193.2 126.0 L 233.3 96.3 L 276.4 71.0 L 321.7 49.9 L 369.0 33.8 L 417.8 23.2 L 467.4 17.0 L 517.3 16.4 L 566.9 21.0 L 615.9 30.1 L 663.7 44.4 L 709.7 63.8 L 753.5 87.9 L 794.6 116.3 L 832.7 148.6 L 867.2 184.7 L 897.7 224.2 L 923.9 266.8 L 945.8 311.6 L 962.8 358.5 L 974.9 406.9 L 982.1 456.3" stroke="purple" stroke-width="2" fill="none" /><path d="M 979.7 500.2 L 977.4 550.1 L 969.4 599.4 L 956.4 647.6 L 939.0 694.4 L 916.1 738.9 L 889.0 780.8 L 857.8 819.8 L 822.6 855.2 L 784.2 887.1 L 742.5 914.5 L 697.8 936.7 L 651.6 955.2 L 603.4 968.5 L 554.2 976.8 L 504.3 979.8 L 454.4 977.7 L 405.1 970.2 L 356.7 957.8 L 309.8 940.7 L 265.3 918.3 L 222.8 892.0 L 183.6 861.1 L 147.7 826.4 L 115.9 788.0 L 88.3 746.4 L 64.8 702.3 L 46.4 655.8 L 32.6 607.8 L 23.8 558.7 L 20.2 508.8 L 21.6 459.0 L 28.7 409.5 L 40.2 360.9 L 57.1 314.1 L 78.8 269.2 L 105.2 226.8 L 135.9 187.4 L 170.3 151.2 L 208.5 119.0 L 249.7 90.8 L 293.5 66.8 L 339.7 47.7 L 387.3 33.0 L 436.5 24.4 L 486.2 20.3 L 536.1 21.3 L 585.7 27.0 L 634.0 39.2 L 681.3 55.5 L 726.4 76.9 L 769.0 102.9 L 809.0 132.9 L 845.6 166.9 L 878.2 204.7 L 907.3 245.4 L 930.9 289.3 L 951.1 334.9 L 964.9 382.9 L 974.7 431.8 L 979.7 481.4" stroke="orange" stroke-width="2" fill="none" /><text x="10" y="25" font-family="Arial" font-size="16" fill="black">Distance: 4px, Segment: 5px, Error: 0.3 (Simplified)</text><text x="10" y="45" font-family="Arial" font-size="16" fill="black">Curves: 6 (Simplified)</text></svg>