<?xml version='1.0' encoding='utf-8'?>
<svg width="1200" height="1200" xmlns="http://www.w3.org/2000/svg" version="1.1"><rect width="1200" height="1200" fill="white" /><path d="M 1000.0 500.0 L 999.1 530.0 L 996.4 559.9 L 991.9 589.5 L 985.7 618.9 L 977.7 647.8 L 967.9 676.2 L 956.5 703.9 L 943.5 730.9 L 928.8 757.1 L 912.6 782.4 L 895.0 806.6 L 875.9 829.7 L 855.4 851.7 L 833.7 872.4 L 810.7 891.7 L 786.7 909.6 L 761.6 926.1 L 735.6 941.0 L 708.7 954.4 L 681.1 966.1 L 652.8 976.1 L 624.0 984.4 L 594.7 991.0 L 565.1 995.7 L 535.2 998.8 L 505.3 1000.0 L 475.3 999.4 L 445.3 997.0 L 415.6 992.8 L 386.2 986.9 L 357.2 979.2 L 328.8 969.8 L 300.9 958.6 L 273.7 945.9 L 247.4 931.5 L 222.0 915.6 L 197.6 898.2 L 174.2 879.3 L 152.1 859.1 L 131.2 837.6 L 111.6 814.8 L 93.4 791.0 L 76.7 766.1 L 61.5 740.2 L 47.9 713.5 L 35.9 686.0 L 25.5 657.8 L 16.9 629.0 L 10.1 599.8 L 5.0 570.3 L 1.6 540.5 L 0.1 510.5 L 0.4 480.5 L 2.4 450.6 L 6.3 420.8 L 11.9 391.4 L 19.3 362.3 L 28.5 333.7 L 39.3 305.7 L 51.8 278.4 L 65.9 252.0 L 81.5 226.4 L 98.7 201.8 L 117.3 178.2 L 137.3 155.8 L 158.6 134.7 L 181.1 114.9 L 204.8 96.5 L 229.5 79.5 L 255.2 64.0 L 281.8 50.1 L 309.2 37.8 L 337.2 27.2 L 365.9 18.3 L 395.0 11.1 L 424.5 5.7 L 454.3 2.1 L 484.2 0.2 L 514.3 0.2 L 544.2 2.0 L 574.0 5.5 L 603.5 10.8 L 632.7 17.9 L 661.3 26.7 L 689.4 37.3 L 716.8 49.5 L 743.5 63.3 L 769.2 78.7 L 794.0 95.6 L 817.7 113.9 L 840.3 133.7 L 861.7 154.8 L 881.7 177.1 L 900.4 200.6 L 917.7 225.1 L 933.4 250.6 L 947.6 277.1 L 960.1 304.3 L 971.0 332.3 L 980.2 360.8 L 987.7 389.9 L 993.5 419.3 L 997.4 449.1 L 999.6 479.0" stroke="black" stroke-width="2" fill="none" /><path d="M 997.1 500.4 L 996.3 520.4 L 993.8 540.3 L 989.9 559.9 L 984.7 579.2 L 978.0 598.0 L 970.1 616.4 L 960.8 634.1 L 950.3 651.1 L 938.5 667.3 L 925.6 682.6 L 911.6 696.9 L 896.7 710.1 L 880.7 722.2 L 864.0 733.1 L 846.5 742.7 L 828.3 751.0 L 809.5 757.9 L 790.3 763.4 L 770.7 767.4 L 750.8 769.9 L 730.9 770.8 L 710.9 770.2 L 691.0 768.1 L 671.3 764.4 L 652.0 759.1 L 633.2 752.4 L 615.0 744.1 L 597.6 734.3 L 581.0 723.1 L 565.5 710.5 L 551.0 696.7 L 537.9 681.6 L 526.1 665.4 L 515.9 648.3 L 507.4 630.2 L 500.6 611.4 L 495.7 592.0 L 492.8 572.2 L 492.0 552.2 L 493.4 532.3 L 497.0 512.6 L 502.9 493.5 L 511.0 475.2 L 521.4 458.2 L 533.9 442.6 L 548.5 428.9 L 564.9 417.5 L 582.8 408.6 L 601.8 402.6 L 621.6 399.6 L 641.6 400.0 L 661.2 403.6 L 680.5 409.1 L 699.7 414.6 L 718.9 420.2 L 738.1 425.7 L 757.3 431.3 L 776.5 436.8 L 795.8 442.4 L 815.0 447.9 L 834.2 453.4 L 853.4 459.0 L 872.6 464.5 L 891.8 470.1 L 911.1 475.6 L 930.3 481.2 L 949.5 486.7 L 968.7 492.2 L 987.9 497.8" stroke="blue" stroke-width="2" fill="none" /><path d="M 993.9 501.3 L 992.8 521.2 L 989.4 540.9 L 984.0 560.2 L 976.9 578.9 L 967.9 596.7 L 957.2 613.6 L 945.0 629.5 L 931.2 644.0 L 916.1 657.0 L 899.7 668.4 L 882.2 678.1 L 863.8 686.0 L 844.7 691.8 L 825.0 695.6 L 805.1 697.1 L 785.1 696.4 L 765.4 693.3 L 746.1 687.8 L 727.8 680.0 L 710.6 669.8 L 694.9 657.3 L 681.3 642.7 L 670.2 626.1 L 662.1 607.8 L 657.6 588.4 L 657.1 568.4 L 661.4 548.9 L 671.1 531.5 L 685.3 517.5 L 702.5 507.4 L 721.4 500.7 L 741.0 496.8 L 760.9 494.9 L 780.9 494.4 L 800.9 495.0 L 820.8 495.6 L 840.8 496.3 L 860.8 496.9 L 880.8 497.6 L 900.8 498.2 L 920.8 498.9 L 940.8 499.5 L 960.8 500.2 L 980.8 500.9" stroke="red" stroke-width="2" fill="none" /><path d="M 991.0 503.0 L 989.1 522.9 L 984.2 542.2 L 977.0 560.9 L 967.2 578.3 L 955.3 594.3 L 941.3 608.6 L 925.5 620.8 L 908.1 630.7 L 889.4 637.8 L 869.8 641.8 L 849.8 642.6 L 830.1 639.7 L 811.3 632.9 L 794.6 622.0 L 781.2 607.1 L 773.2 588.9 L 773.3 569.0 L 782.9 551.6 L 798.6 539.5 L 817.0 531.6 L 836.3 526.2 L 855.9 522.7 L 875.7 519.8 L 895.5 516.9 L 915.3 514.0 L 935.1 511.1 L 954.9 508.2 L 974.7 505.4" stroke="green" stroke-width="2" fill="none" /><path d="M 988.7 504.8 L 985.3 524.5 L 978.6 543.3 L 968.5 560.5 L 955.6 575.8 L 940.1 588.3 L 922.3 597.4 L 902.8 602.0 L 882.9 601.2 L 864.5 593.6 L 851.2 578.9 L 850.6 559.4 L 864.0 544.8 L 881.9 535.9 L 900.8 529.5 L 920.1 524.1 L 939.3 518.6 L 958.6 513.2 L 977.8 507.8" stroke="purple" stroke-width="2" fill="none" /><path d="M 986.6 506.5 L 981.4 525.8 L 972.0 543.4 L 958.7 558.3 L 941.8 569.0 L 922.3 572.7 L 903.7 566.0 L 900.0 547.7 L 915.4 535.2 L 933.6 527.0 L 952.3 519.7 L 971.0 512.5" stroke="orange" stroke-width="2" fill="none" /><text x="10" y="25" font-family="Arial" font-size="16" fill="black">Distance: 3px, Segment: 2px, Error: 0.5 (Simplified)</text><text x="10" y="45" font-family="Arial" font-size="16" fill="black">Curves: 6 (Simplified)</text></svg>