<?xml version='1.0' encoding='utf-8'?>
<svg width="1200" height="1200" xmlns="http://www.w3.org/2000/svg" version="1.1"><rect width="1200" height="1200" fill="white" /><path d="M 1000.0 500.0 L 999.1 530.0 L 996.4 559.9 L 991.9 589.5 L 985.7 618.9 L 977.7 647.8 L 967.9 676.2 L 956.5 703.9 L 943.5 730.9 L 928.8 757.1 L 912.6 782.4 L 895.0 806.6 L 875.9 829.7 L 855.4 851.7 L 833.7 872.4 L 810.7 891.7 L 786.7 909.6 L 761.6 926.1 L 735.6 941.0 L 708.7 954.4 L 681.1 966.1 L 652.8 976.1 L 624.0 984.4 L 594.7 991.0 L 565.1 995.7 L 535.2 998.8 L 505.3 1000.0 L 475.3 999.4 L 445.3 997.0 L 415.6 992.8 L 386.2 986.9 L 357.2 979.2 L 328.8 969.8 L 300.9 958.6 L 273.7 945.9 L 247.4 931.5 L 222.0 915.6 L 197.6 898.2 L 174.2 879.3 L 152.1 859.1 L 131.2 837.6 L 111.6 814.8 L 93.4 791.0 L 76.7 766.1 L 61.5 740.2 L 47.9 713.5 L 35.9 686.0 L 25.5 657.8 L 16.9 629.0 L 10.1 599.8 L 5.0 570.3 L 1.6 540.5 L 0.1 510.5 L 0.4 480.5 L 2.4 450.6 L 6.3 420.8 L 11.9 391.4 L 19.3 362.3 L 28.5 333.7 L 39.3 305.7 L 51.8 278.4 L 65.9 252.0 L 81.5 226.4 L 98.7 201.8 L 117.3 178.2 L 137.3 155.8 L 158.6 134.7 L 181.1 114.9 L 204.8 96.5 L 229.5 79.5 L 255.2 64.0 L 281.8 50.1 L 309.2 37.8 L 337.2 27.2 L 365.9 18.3 L 395.0 11.1 L 424.5 5.7 L 454.3 2.1 L 484.2 0.2 L 514.3 0.2 L 544.2 2.0 L 574.0 5.5 L 603.5 10.8 L 632.7 17.9 L 661.3 26.7 L 689.4 37.3 L 716.8 49.5 L 743.5 63.3 L 769.2 78.7 L 794.0 95.6 L 817.7 113.9 L 840.3 133.7 L 861.7 154.8 L 881.7 177.1 L 900.4 200.6 L 917.7 225.1 L 933.4 250.6 L 947.6 277.1 L 960.1 304.3 L 971.0 332.3 L 980.2 360.8 L 987.7 389.9 L 993.5 419.3 L 997.4 449.1 L 999.6 479.0" stroke="black" stroke-width="2" fill="none" /><path d="M 991.5 500.3 L 989.9 540.3 L 984.0 579.8 L 974.9 618.8 L 962.0 656.6 L 946.0 693.3 L 926.7 728.3 L 904.0 761.2 L 878.5 792.0 L 850.4 820.4 L 819.6 846.0 L 786.7 868.7 L 751.9 888.4 L 715.3 904.5 L 677.4 917.3 L 638.5 926.6 L 598.9 932.0 L 559.0 933.6 L 519.0 931.5 L 479.5 925.4 L 440.7 915.8 L 403.0 902.4 L 366.8 885.4 L 332.4 865.0 L 300.3 841.2 L 270.6 814.4 L 243.9 784.7 L 220.2 752.4 L 200.0 717.9 L 183.3 681.6 L 170.4 643.7 L 161.6 604.7 L 156.9 565.0 L 156.6 525.1 L 160.5 485.3 L 168.7 446.1 L 181.3 408.2 L 198.0 371.8 L 218.5 337.5 L 242.8 305.8 L 270.7 277.1 L 301.5 251.6 L 335.1 229.9 L 371.0 212.3 L 408.7 199.1 L 447.7 190.3 L 487.5 186.3 L 527.5 187.1 L 567.1 192.6 L 605.7 203.1 L 642.8 218.0 L 677.7 237.3 L 710.1 260.9 L 740.5 286.8 L 771.0 312.7 L 801.5 338.6 L 831.9 364.5 L 862.4 390.5 L 892.8 416.4 L 923.3 442.3 L 953.8 468.2 L 984.2 494.2" stroke="blue" stroke-width="2" fill="none" /><path d="M 984.5 500.4 L 980.4 540.2 L 972.3 579.3 L 959.3 617.1 L 941.8 653.1 L 920.2 686.7 L 894.4 717.3 L 865.2 744.5 L 832.7 767.8 L 797.4 786.7 L 760.0 800.7 L 721.0 809.7 L 681.2 813.4 L 641.3 811.5 L 602.0 804.2 L 564.2 791.1 L 528.8 772.6 L 496.6 748.9 L 468.6 720.4 L 445.7 687.6 L 428.8 651.4 L 418.8 612.7 L 416.4 572.8 L 422.1 533.3 L 436.2 496.0 L 458.5 462.8 L 488.5 436.5 L 524.2 418.7 L 563.3 410.4 L 603.2 410.0 L 642.8 415.7 L 681.7 425.1 L 720.5 434.7 L 759.3 444.4 L 798.1 454.0 L 837.0 463.7 L 875.8 473.3 L 914.6 483.0 L 953.4 492.6" stroke="red" stroke-width="2" fill="none" /><path d="M 976.1 501.5 L 970.7 541.1 L 959.2 579.4 L 941.2 615.1 L 917.7 647.4 L 889.3 675.5 L 856.2 697.9 L 819.6 714.0 L 780.7 722.9 L 740.7 723.9 L 701.5 716.5 L 665.1 700.1 L 634.0 675.1 L 611.3 642.3 L 600.9 603.8 L 606.6 564.5 L 630.5 532.8 L 665.7 514.2 L 704.7 505.4 L 744.6 502.9 L 784.6 502.6 L 824.6 502.4 L 864.6 502.2 L 904.6 501.9 L 944.6 501.7" stroke="green" stroke-width="2" fill="none" /><path d="M 969.3 505.5 L 960.4 544.5 L 943.9 580.9 L 919.7 612.6 L 888.6 637.7 L 852.4 654.5 L 812.9 660.1 L 773.9 652.4 L 741.3 629.6 L 726.7 593.0 L 745.2 558.7 L 780.7 540.6 L 819.5 531.0 L 858.9 524.3 L 898.3 517.6 L 937.8 510.9" stroke="purple" stroke-width="2" fill="none" /><path d="M 961.8 509.8 L 949.5 547.7 L 926.0 579.9 L 894.4 604.2 L 855.8 613.4 L 818.9 599.6 L 815.5 563.6 L 849.7 543.4 L 887.9 531.5 L 926.3 520.3 L 961.8 509.8" stroke="orange" stroke-width="2" fill="none" /><text x="10" y="25" font-family="Arial" font-size="16" fill="black">Distance: 8px, Segment: 4px, Error: 1.5 (Simplified)</text><text x="10" y="45" font-family="Arial" font-size="16" fill="black">Curves: 6 (Simplified)</text></svg>