<?xml version='1.0' encoding='utf-8'?>
<svg width="1200" height="1200" xmlns="http://www.w3.org/2000/svg" version="1.1"><rect width="1200" height="1200" fill="white" /><path d="M 1000.0 500.0 L 999.1 530.0 L 996.4 559.9 L 991.9 589.5 L 985.7 618.9 L 977.7 647.8 L 967.9 676.2 L 956.5 703.9 L 943.5 730.9 L 928.8 757.1 L 912.6 782.4 L 895.0 806.6 L 875.9 829.7 L 855.4 851.7 L 833.7 872.4 L 810.7 891.7 L 786.7 909.6 L 761.6 926.1 L 735.6 941.0 L 708.7 954.4 L 681.1 966.1 L 652.8 976.1 L 624.0 984.4 L 594.7 991.0 L 565.1 995.7 L 535.2 998.8 L 505.3 1000.0 L 475.3 999.4 L 445.3 997.0 L 415.6 992.8 L 386.2 986.9 L 357.2 979.2 L 328.8 969.8 L 300.9 958.6 L 273.7 945.9 L 247.4 931.5 L 222.0 915.6 L 197.6 898.2 L 174.2 879.3 L 152.1 859.1 L 131.2 837.6 L 111.6 814.8 L 93.4 791.0 L 76.7 766.1 L 61.5 740.2 L 47.9 713.5 L 35.9 686.0 L 25.5 657.8 L 16.9 629.0 L 10.1 599.8 L 5.0 570.3 L 1.6 540.5 L 0.1 510.5 L 0.4 480.5 L 2.4 450.6 L 6.3 420.8 L 11.9 391.4 L 19.3 362.3 L 28.5 333.7 L 39.3 305.7 L 51.8 278.4 L 65.9 252.0 L 81.5 226.4 L 98.7 201.8 L 117.3 178.2 L 137.3 155.8 L 158.6 134.7 L 181.1 114.9 L 204.8 96.5 L 229.5 79.5 L 255.2 64.0 L 281.8 50.1 L 309.2 37.8 L 337.2 27.2 L 365.9 18.3 L 395.0 11.1 L 424.5 5.7 L 454.3 2.1 L 484.2 0.2 L 514.3 0.2 L 544.2 2.0 L 574.0 5.5 L 603.5 10.8 L 632.7 17.9 L 661.3 26.7 L 689.4 37.3 L 716.8 49.5 L 743.5 63.3 L 769.2 78.7 L 794.0 95.6 L 817.7 113.9 L 840.3 133.7 L 861.7 154.8 L 881.7 177.1 L 900.4 200.6 L 917.7 225.1 L 933.4 250.6 L 947.6 277.1 L 960.1 304.3 L 971.0 332.3 L 980.2 360.8 L 987.7 389.9 L 993.5 419.3 L 997.4 449.1 L 999.6 479.0" stroke="black" stroke-width="2" fill="none" /><path d="M 989.1 498.7 L 990.5 536.3 L 986.1 571.4 L 979.6 608.3 L 970.0 640.7 L 959.7 677.5 L 942.9 710.1 L 929.7 745.0 L 909.1 775.4 L 886.7 806.3 L 859.7 833.2 L 834.5 861.9 L 806.7 884.6 L 776.6 908.0 L 743.4 926.8 L 712.7 943.9 L 677.7 957.2 L 644.5 971.2 L 608.4 978.2 L 572.7 985.6 L 533.9 991.1 L 497.6 992.1 L 460.5 991.1 L 424.6 983.8 L 386.7 980.4 L 356.2 969.7 L 320.7 957.3 L 284.8 943.9 L 252.6 923.8 L 221.1 903.9 L 191.1 883.1 L 161.1 857.5 L 135.0 830.9 L 112.0 802.9 L 89.1 770.9 L 69.2 737.2 L 53.4 707.6 L 39.2 674.4 L 27.9 639.8 L 20.8 603.5 L 14.2 570.1 L 7.9 532.2 L 6.9 498.4 L 10.5 459.8 L 15.0 423.7 L 19.9 388.6 L 31.4 352.6 L 43.3 318.7 L 56.8 286.5 L 72.4 253.2 L 92.0 222.9 L 115.9 192.4 L 138.9 167.7 L 162.9 140.8 L 192.8 117.4 L 222.5 94.5 L 253.6 73.2 L 287.1 57.5 L 321.2 41.9 L 357.0 30.9 L 391.2 21.8 L 426.5 12.4 L 462.8 7.2 L 499.0 7.1 L 536.4 10.8 L 571.9 13.3 L 609.3 18.9 L 644.2 30.1 L 679.9 41.5 L 710.1 56.2 L 741.9 74.5 L 772.8 90.0 L 802.9 113.0 L 827.7 135.4 L 855.2 161.6 L 883.3 188.8 L 904.2 219.4 L 923.7 253.2 L 942.3 282.8 L 957.6 317.4 L 970.3 352.0 L 979.7 387.5 L 987.8 423.8 L 990.2 460.2 L 990.4 497.9" stroke="blue" stroke-width="2" fill="none" /><path d="M 982.5 497.0 L 985.3 535.8 L 979.2 571.6 L 973.5 606.1 L 963.1 640.7 L 951.1 675.7 L 934.2 705.8 L 921.8 740.9 L 901.4 768.8 L 880.3 800.3 L 854.7 825.5 L 830.2 854.3 L 801.7 876.1 L 774.2 901.0 L 741.0 920.5 L 709.0 938.3 L 677.8 947.6 L 643.3 963.3 L 609.2 972.2 L 571.8 977.3 L 535.1 984.6 L 498.4 983.2 L 463.2 985.3 L 429.2 976.8 L 395.3 973.1 L 365.0 962.3 L 329.2 954.3 L 296.2 941.3 L 263.6 922.4 L 230.0 903.3 L 203.8 882.6 L 174.6 857.8 L 150.1 832.3 L 126.1 803.1 L 101.2 773.8 L 82.1 741.3 L 62.6 710.4 L 50.9 676.8 L 40.8 643.0 L 29.2 613.9 L 24.0 577.4 L 18.0 541.9 L 13.1 509.2 L 16.1 472.1 L 19.5 434.7 L 26.3 397.8 L 33.3 363.6 L 44.4 334.7 L 58.6 302.7 L 74.4 273.6 L 90.9 240.6 L 111.8 212.6 L 134.0 185.8 L 153.0 162.6 L 182.0 137.8 L 209.1 111.1 L 241.6 91.0 L 276.1 73.4 L 306.6 53.6 L 343.3 41.1 L 377.2 35.3 L 411.2 20.1 L 448.5 17.9 L 483.2 14.1 L 521.3 16.5 L 558.2 21.3 L 594.2 25.1 L 628.1 37.9 L 664.8 45.3 L 696.3 58.9 L 728.3 72.4 L 761.4 91.7 L 783.6 110.6 L 814.1 132.0 L 839.8 153.9 L 863.6 181.4 L 887.3 209.0 L 907.8 240.7 L 927.8 273.6 L 943.9 306.4 L 956.8 338.5 L 967.0 371.8 L 973.7 404.5 L 978.9 442.9 L 983.4 476.0" stroke="red" stroke-width="2" fill="none" /><path d="M 972.2 499.5 L 972.3 535.5 L 971.7 569.9 L 966.1 602.0 L 954.6 634.3 L 945.1 664.5 L 931.1 701.0 L 917.8 731.7 L 895.8 761.3 L 877.1 791.2 L 850.3 817.7 L 826.8 846.9 L 805.3 870.4 L 776.2 889.8 L 745.9 907.4 L 712.7 923.2 L 684.2 937.6 L 648.5 951.3 L 613.7 961.1 L 577.4 970.6 L 541.1 975.0 L 506.4 976.3 L 468.5 978.3 L 435.8 967.7 L 401.9 965.0 L 371.7 955.5 L 335.4 948.4 L 301.2 933.9 L 269.2 914.5 L 238.0 897.7 L 210.0 876.4 L 179.7 852.3 L 156.2 829.1 L 129.5 800.4 L 110.0 770.5 L 89.0 741.0 L 72.8 707.3 L 58.8 674.2 L 48.4 639.4 L 35.1 610.7 L 30.7 574.5 L 23.9 540.0 L 20.8 505.0 L 25.0 473.9 L 27.0 439.7 L 34.1 402.6 L 39.7 370.8 L 53.3 340.1 L 63.3 302.7 L 81.8 269.2 L 100.2 240.6 L 121.1 210.8 L 143.9 187.5 L 167.9 161.2 L 195.4 134.6 L 223.8 112.2 L 254.1 92.0 L 288.4 74.9 L 321.9 60.8 L 355.1 48.2 L 390.4 37.4 L 428.5 28.4 L 463.9 23.2 L 499.5 26.5 L 536.6 22.2 L 575.1 26.6 L 608.5 33.4 L 642.6 47.8 L 679.4 58.3 L 710.8 75.1 L 742.7 91.1 L 771.5 108.2 L 798.1 130.8 L 829.2 153.5 L 851.7 180.2 L 874.4 207.4 L 897.0 237.1 L 916.2 268.3 L 931.3 300.5 L 947.2 331.8 L 957.7 366.7 L 965.4 402.1 L 972.7 439.3 L 977.6 471.2" stroke="green" stroke-width="2" fill="none" /><path d="M 962.4 499.6 L 967.8 533.5 L 963.4 567.8 L 957.7 603.8 L 945.6 638.8 L 935.0 673.8 L 919.7 707.4 L 901.0 739.1 L 885.4 766.3 L 862.7 795.4 L 835.2 822.2 L 810.9 844.4 L 789.2 865.1 L 761.1 889.7 L 728.2 906.1 L 699.0 924.1 L 664.3 937.2 L 631.3 953.5 L 598.5 961.7 L 560.0 965.6 L 524.8 968.4 L 490.7 963.3 L 456.8 965.3 L 422.6 959.8 L 390.9 958.1 L 359.7 946.3 L 326.4 933.2 L 292.0 919.1 L 259.9 898.2 L 232.3 883.6 L 210.0 868.2 L 184.7 846.3 L 159.0 818.8 L 135.9 788.6 L 111.3 759.3 L 92.7 727.8 L 74.5 696.3 L 61.6 662.4 L 47.2 631.7 L 43.8 596.0 L 41.5 558.7 L 32.4 525.7 L 32.3 493.4 L 31.7 465.2 L 32.8 428.8 L 43.4 397.5 L 49.7 367.8 L 62.3 343.3 L 72.7 308.0 L 90.1 273.0 L 107.6 244.6 L 124.5 217.3 L 146.5 195.9 L 167.2 172.7 L 195.7 146.6 L 223.3 123.3 L 250.7 100.5 L 283.3 87.1 L 309.7 69.4 L 339.9 57.8 L 375.5 50.3 L 410.2 37.7 L 446.9 34.5 L 481.2 29.9 L 517.7 31.9 L 555.0 35.3 L 589.0 39.6 L 615.9 46.9 L 650.1 57.2 L 685.7 71.1 L 718.0 84.2 L 747.9 101.5 L 774.9 124.3 L 807.1 141.6 L 827.3 166.3 L 854.3 188.2 L 872.3 218.7 L 890.9 245.9 L 911.9 274.7 L 924.8 305.2 L 941.2 338.9 L 950.5 377.1 L 962.3 409.3 L 964.7 446.2 L 971.3 482.2" stroke="purple" stroke-width="2" fill="none" /><path d="M 955.7 500.9 L 955.4 534.4 L 953.8 570.3 L 947.6 608.6 L 938.0 643.6 L 922.7 678.4 L 911.4 710.8 L 892.0 736.1 L 876.8 767.2 L 850.6 793.1 L 827.1 818.0 L 806.4 840.8 L 782.2 860.8 L 752.7 882.0 L 723.0 902.1 L 693.7 917.2 L 656.8 930.6 L 622.5 944.5 L 586.0 954.6 L 551.6 955.4 L 515.3 956.5 L 480.0 956.6 L 443.3 955.7 L 413.8 946.9 L 378.7 946.3 L 346.6 934.6 L 312.8 919.3 L 278.1 901.5 L 246.3 884.1 L 220.6 864.0 L 192.6 845.2 L 166.3 817.7 L 143.3 789.4 L 118.5 760.9 L 103.5 731.6 L 85.8 697.3 L 71.1 664.0 L 59.3 631.4 L 52.6 596.2 L 49.2 560.7 L 37.0 529.2 L 41.5 494.7 L 41.1 463.2 L 44.8 426.4 L 55.3 392.9 L 62.2 359.1 L 74.7 326.0 L 87.4 289.7 L 106.7 257.0 L 127.1 237.3 L 145.9 212.9 L 165.6 188.9 L 189.2 164.7 L 218.9 140.1 L 247.1 117.6 L 272.9 98.0 L 303.0 82.0 L 336.5 70.1 L 370.6 58.0 L 406.2 47.6 L 444.1 42.2 L 476.7 43.5 L 511.5 40.2 L 546.6 37.7 L 578.0 43.7 L 612.2 55.2 L 642.2 63.4 L 676.2 79.7 L 704.0 93.0 L 735.6 106.8 L 765.2 125.5 L 792.9 145.8 L 822.9 167.9 L 841.6 194.5 L 865.1 223.0 L 887.1 252.1 L 908.6 277.3 L 917.0 305.5 L 934.0 338.3 L 942.0 376.8 L 952.5 404.6 L 958.5 443.4 L 963.6 481.5" stroke="orange" stroke-width="2" fill="none" /><path d="M 946.9 499.1 L 947.5 532.2 L 947.0 565.2 L 941.7 599.4 L 930.4 631.3 L 922.2 667.1 L 906.0 699.4 L 887.2 729.3 L 872.1 760.7 L 847.7 787.0 L 822.7 815.2 L 801.3 835.8 L 777.3 852.9 L 750.8 875.1 L 720.4 894.3 L 692.6 910.5 L 660.8 924.0 L 627.4 936.5 L 592.2 942.7 L 555.8 949.5 L 523.6 950.6 L 492.0 950.3 L 458.2 949.8 L 422.2 942.8 L 387.4 937.6 L 353.6 928.7 L 317.8 914.9 L 285.3 896.8 L 252.9 879.6 L 227.5 858.1 L 197.4 840.4 L 172.6 811.2 L 148.8 782.5 L 126.0 757.1 L 111.5 724.5 L 92.0 692.0 L 77.2 658.1 L 64.1 623.1 L 57.6 588.1 L 51.2 553.1 L 43.1 524.8 L 47.4 493.8 L 51.4 456.1 L 58.2 419.1 L 64.8 382.0 L 78.3 349.3 L 88.5 316.2 L 100.1 283.2 L 120.3 252.1 L 146.4 228.1 L 166.3 197.4 L 189.2 174.2 L 215.0 149.1 L 242.9 128.3 L 271.8 107.1 L 306.9 91.3 L 334.3 81.4 L 365.0 68.6 L 397.6 59.3 L 436.6 53.2 L 468.7 47.7 L 500.7 50.3 L 537.7 50.3 L 569.4 50.1 L 604.0 59.2 L 632.2 74.5 L 664.9 84.0 L 693.5 96.0 L 722.9 111.7 L 752.9 126.3 L 782.7 146.7 L 814.5 167.4 L 835.3 195.7 L 858.2 226.9 L 880.7 257.8 L 898.3 288.6 L 915.6 316.0 L 925.4 349.8 L 937.8 379.8 L 947.2 416.1 L 950.1 453.3 L 955.4 488.5" stroke="brown" stroke-width="2" fill="none" /><path d="M 940.1 498.2 L 939.6 526.2 L 939.1 558.9 L 934.9 594.0 L 926.4 624.6 L 914.0 660.8 L 900.9 692.4 L 882.8 723.9 L 862.8 756.0 L 840.3 782.9 L 817.0 812.0 L 795.4 831.0 L 765.8 849.5 L 737.9 873.7 L 704.6 893.1 L 672.3 909.1 L 638.0 923.4 L 603.4 932.6 L 568.9 942.1 L 531.8 944.7 L 497.4 941.4 L 461.9 944.8 L 428.6 931.9 L 395.2 932.1 L 365.1 918.1 L 331.4 912.5 L 300.8 890.7 L 267.5 878.4 L 236.1 864.3 L 212.2 837.8 L 186.7 814.1 L 158.8 789.6 L 138.6 760.6 L 120.1 728.4 L 105.0 693.1 L 86.4 661.7 L 78.9 627.8 L 71.3 595.1 L 65.4 561.8 L 49.1 533.1 L 55.4 500.4 L 55.6 466.4 L 59.9 430.2 L 71.9 397.9 L 80.0 364.6 L 89.7 328.6 L 103.4 298.6 L 121.4 264.9 L 139.9 237.0 L 159.8 217.6 L 180.4 193.6 L 206.3 172.7 L 228.1 150.2 L 255.4 126.9 L 288.7 110.0 L 320.4 95.5 L 351.1 80.6 L 381.9 74.1 L 416.5 66.2 L 450.4 58.5 L 481.8 54.1 L 516.8 57.3 L 550.4 57.2 L 578.4 62.6 L 611.4 75.2 L 646.2 80.9 L 678.7 96.0 L 706.1 100.9 L 732.9 118.0 L 760.5 138.0 L 790.7 161.2 L 814.8 187.7 L 839.8 213.9 L 865.0 242.4 L 883.8 275.5 L 893.7 308.7 L 910.5 338.0 L 924.6 365.3 L 931.8 394.9 L 941.2 431.5 L 940.7 468.4 L 941.9 493.5" stroke="pink" stroke-width="2" fill="none" /><path d="M 935.0 497.7 L 932.2 531.4 L 930.1 562.2 L 926.1 595.8 L 913.7 627.2 L 903.7 662.5 L 890.8 689.1 L 876.9 721.6 L 858.0 748.9 L 837.7 775.2 L 813.1 799.8 L 792.8 821.8 L 765.3 841.4 L 736.7 866.5 L 705.4 883.2 L 673.4 898.7 L 640.9 915.8 L 607.4 923.5 L 574.8 933.9 L 538.5 937.3 L 503.0 934.9 L 468.2 937.1 L 433.2 928.7 L 396.7 923.7 L 363.8 910.9 L 332.1 903.4 L 300.0 882.7 L 265.5 872.0 L 237.6 856.7 L 215.8 831.2 L 190.5 805.6 L 163.5 782.2 L 144.1 754.5 L 127.2 722.5 L 112.3 691.9 L 95.4 659.1 L 85.9 625.3 L 77.8 590.7 L 73.5 558.3 L 61.1 527.4 L 63.8 491.7 L 64.0 454.0 L 74.4 422.6 L 80.0 387.5 L 92.8 354.6 L 101.4 323.8 L 116.0 287.5 L 137.9 256.7 L 157.8 238.6 L 178.7 210.8 L 195.6 192.7 L 224.0 169.3 L 247.5 144.7 L 277.1 123.1 L 306.3 109.5 L 336.1 96.1 L 367.1 83.6 L 402.4 77.2 L 438.2 69.7 L 471.2 63.2 L 508.9 66.4 L 545.2 63.5 L 577.5 68.9 L 609.8 81.2 L 647.3 89.4 L 679.0 105.3 L 703.8 108.7 L 729.4 130.9 L 761.1 145.7 L 788.5 171.6 L 812.4 198.1 L 838.1 222.5 L 862.6 248.0 L 877.8 283.3 L 890.1 311.9 L 908.4 339.1 L 915.5 372.1 L 925.3 400.8 L 934.2 436.6 L 937.0 469.5 L 930.5 497.5" stroke="black" stroke-width="2" fill="none" /><path d="M 926.1 499.3 L 925.2 531.7 L 922.8 556.5 L 916.0 590.5 L 906.9 622.7 L 899.3 653.7 L 885.2 684.4 L 870.2 715.0 L 850.3 745.5 L 823.7 771.1 L 806.8 798.6 L 783.0 818.6 L 758.7 833.3 L 732.8 858.4 L 701.1 876.7 L 667.8 890.5 L 634.5 907.5 L 598.3 915.9 L 562.5 923.2 L 525.7 927.8 L 487.9 932.3 L 455.0 924.8 L 423.8 919.1 L 392.6 910.9 L 356.7 905.2 L 324.2 887.6 L 293.1 870.1 L 261.8 858.4 L 238.6 838.4 L 211.1 819.4 L 187.9 790.8 L 168.0 765.7 L 144.6 739.0 L 131.2 705.5 L 112.3 675.8 L 97.5 642.1 L 86.4 613.5 L 79.6 577.5 L 71.6 542.1 L 72.5 509.8 L 73.3 472.9 L 77.6 436.3 L 83.5 404.9 L 94.1 371.5 L 102.8 335.8 L 114.6 307.8 L 135.9 274.7 L 153.9 244.8 L 175.5 222.0 L 194.6 204.3 L 222.3 178.0 L 245.0 149.8 L 272.8 134.3 L 299.4 116.6 L 332.3 109.3 L 359.1 92.8 L 394.7 87.7 L 430.2 73.9 L 457.1 69.4 L 495.4 73.1 L 531.2 72.9 L 568.5 74.8 L 598.6 84.6 L 633.1 95.4 L 662.8 112.0 L 689.6 122.5 L 720.0 136.0 L 752.4 152.3 L 778.8 175.2 L 803.9 198.3 L 829.3 225.3 L 853.5 251.6 L 868.8 284.9 L 883.8 317.3 L 904.4 344.7 L 909.5 378.2 L 921.3 410.2 L 928.1 447.0 L 927.7 475.3 L 926.1 499.3" stroke="blue" stroke-width="2" fill="none" /><path d="M 915.6 496.8 L 915.2 528.7 L 914.1 558.6 L 908.7 587.7 L 902.5 617.9 L 889.5 652.9 L 879.4 684.2 L 864.8 710.9 L 848.0 738.6 L 822.3 762.3 L 804.2 791.6 L 777.2 812.5 L 753.5 826.4 L 724.9 852.7 L 697.7 873.0 L 665.1 882.8 L 637.6 894.7 L 603.3 906.3 L 568.4 915.2 L 535.7 923.3 L 498.1 919.4 L 466.5 922.9 L 436.3 911.6 L 398.9 909.6 L 367.9 894.1 L 333.9 882.9 L 301.0 871.1 L 271.5 858.2 L 247.1 839.4 L 225.8 816.4 L 204.4 793.0 L 176.9 771.7 L 157.2 746.3 L 141.0 712.8 L 124.8 680.1 L 109.1 648.5 L 97.9 618.2 L 87.9 585.5 L 81.8 549.3 L 79.1 512.2 L 81.7 475.3 L 82.7 439.2 L 91.6 411.0 L 99.4 377.3 L 112.7 342.4 L 122.1 314.9 L 140.4 284.4 L 156.1 252.3 L 179.6 233.3 L 195.1 210.4 L 221.6 191.8 L 244.1 167.6 L 269.9 150.6 L 299.0 128.8 L 331.4 115.5 L 359.5 100.6 L 393.8 98.6 L 429.1 84.0 L 464.4 78.1 L 499.7 80.5 L 531.2 79.2 L 569.8 79.2 L 601.0 94.4 L 633.4 103.3 L 664.0 117.7 L 699.0 127.8 L 727.0 149.2 L 759.2 167.0 L 784.7 181.5 L 804.9 211.6 L 826.4 237.7 L 847.7 262.3 L 864.6 293.8 L 879.5 324.7 L 892.2 355.7 L 905.0 392.1 L 917.0 428.3 L 917.8 463.5 L 919.2 493.1" stroke="red" stroke-width="2" fill="none" /><path d="M 908.7 496.7 L 909.0 529.3 L 902.6 562.2 L 900.9 595.5 L 892.7 620.5 L 881.7 651.5 L 874.2 679.5 L 856.8 702.6 L 842.5 733.8 L 820.6 761.0 L 798.1 784.0 L 772.8 805.9 L 749.4 821.2 L 720.0 843.9 L 694.7 862.6 L 663.8 874.0 L 637.6 890.2 L 602.6 900.5 L 567.9 905.0 L 532.6 913.0 L 496.3 913.8 L 466.4 912.1 L 431.7 901.3 L 398.8 896.9 L 364.3 885.7 L 328.2 872.5 L 297.3 855.7 L 268.3 840.9 L 248.9 822.2 L 222.6 807.6 L 201.7 780.2 L 177.1 753.0 L 154.9 727.0 L 144.7 691.1 L 123.0 662.8 L 111.2 631.6 L 103.6 598.5 L 97.0 565.6 L 79.6 530.7 L 88.0 497.1 L 89.8 464.4 L 94.8 431.5 L 107.2 399.9 L 115.6 369.9 L 122.6 333.4 L 136.1 302.2 L 159.1 273.3 L 178.8 254.0 L 194.4 226.6 L 217.0 202.2 L 242.9 180.8 L 267.7 158.5 L 290.1 141.4 L 324.4 126.6 L 356.9 116.1 L 391.1 103.9 L 426.3 91.4 L 461.7 87.8 L 499.0 88.8 L 530.2 88.0 L 565.3 87.5 L 598.7 103.1 L 632.0 111.7 L 662.7 125.3 L 698.7 134.1 L 727.3 158.8 L 753.9 178.0 L 788.0 194.0 L 809.7 221.0 L 827.0 252.6 L 845.4 281.8 L 861.2 313.5 L 883.5 344.0 L 893.6 378.7 L 904.1 415.5 L 910.2 449.9 L 912.4 479.1" stroke="green" stroke-width="2" fill="none" /><path d="M 898.2 497.9 L 900.7 528.4 L 894.7 558.5 L 892.4 592.5 L 883.9 616.1 L 878.6 645.3 L 863.6 676.3 L 849.2 701.9 L 830.2 733.7 L 805.4 760.6 L 787.5 787.0 L 761.8 812.1 L 738.3 824.6 L 707.7 846.0 L 679.0 868.0 L 647.5 871.7 L 615.1 885.8 L 579.1 898.6 L 545.5 903.4 L 509.7 901.0 L 481.7 901.4 L 443.6 899.4 L 409.1 895.9 L 382.1 879.8 L 346.5 873.3 L 312.8 858.4 L 280.9 847.7 L 258.9 831.8 L 237.3 806.7 L 218.6 782.0 L 189.4 760.4 L 169.9 735.4 L 155.6 704.6 L 141.4 674.6 L 126.1 644.6 L 109.0 612.6 L 105.7 581.7 L 100.5 545.2 L 95.3 516.5 L 96.9 481.1 L 96.0 442.5 L 108.0 413.0 L 117.2 380.4 L 127.2 349.0 L 136.0 322.1 L 152.3 293.6 L 169.3 262.9 L 191.3 245.2 L 207.2 221.3 L 236.5 201.9 L 257.0 170.7 L 288.5 159.1 L 313.3 140.7 L 346.3 131.1 L 373.6 113.7 L 409.2 110.7 L 439.2 96.5 L 474.1 92.3 L 505.5 100.3 L 538.2 92.6 L 573.6 97.6 L 606.9 117.1 L 640.1 125.1 L 673.2 134.3 L 704.6 150.3 L 735.0 168.5 L 761.1 191.1 L 787.5 213.0 L 810.3 243.4 L 836.6 271.1 L 848.2 301.3 L 864.8 328.9 L 879.0 358.7 L 886.9 390.9 L 898.9 428.7 L 899.3 463.1 L 902.3 494.4" stroke="purple" stroke-width="2" fill="none" /><path d="M 889.6 497.4 L 890.9 529.8 L 883.5 565.3 L 885.2 602.2 L 875.5 630.0 L 859.6 652.1 L 849.0 688.6 L 830.9 716.6 L 809.3 746.9 L 783.9 770.8 L 766.3 792.5 L 742.6 807.4 L 715.7 828.7 L 686.6 850.2 L 654.5 861.7 L 622.3 879.9 L 587.4 888.5 L 554.7 890.5 L 523.0 894.4 L 488.4 898.1 L 462.1 895.0 L 426.2 887.3 L 393.9 879.6 L 362.4 868.8 L 334.0 855.5 L 300.1 840.1 L 274.1 826.2 L 250.0 806.9 L 224.6 781.9 L 200.6 763.4 L 180.6 733.0 L 162.7 700.0 L 146.5 668.1 L 126.7 634.1 L 117.5 602.9 L 111.6 571.1 L 96.4 540.6 L 102.3 505.3 L 105.1 467.7 L 107.8 430.5 L 118.1 398.8 L 130.4 374.2 L 132.7 337.8 L 147.2 311.9 L 166.6 284.5 L 187.7 261.9 L 206.3 237.2 L 235.2 212.5 L 256.8 185.2 L 281.0 169.8 L 307.0 150.6 L 337.0 141.3 L 372.5 126.7 L 408.5 118.8 L 437.6 104.5 L 467.2 101.1 L 502.7 104.4 L 536.0 101.5 L 571.7 103.6 L 602.0 123.7 L 635.4 130.0 L 666.7 140.5 L 699.5 156.6 L 729.0 175.2 L 754.5 196.3 L 779.0 212.6 L 801.0 240.2 L 821.3 268.0 L 837.2 292.9 L 848.1 321.3 L 868.8 342.0 L 876.3 378.7 L 885.6 409.1 L 898.5 444.3 L 898.5 470.4 L 892.0 495.0" stroke="orange" stroke-width="2" fill="none" /><path d="M 878.9 498.6 L 885.6 527.9 L 873.8 562.3 L 877.9 596.8 L 869.8 629.7 L 852.7 659.4 L 835.1 692.9 L 814.2 724.5 L 793.9 753.7 L 765.6 779.1 L 743.4 804.5 L 718.2 818.2 L 687.1 836.9 L 660.6 858.2 L 628.7 862.7 L 597.4 874.4 L 564.6 878.7 L 536.9 886.7 L 500.2 888.7 L 467.9 887.1 L 430.2 879.5 L 393.1 870.4 L 363.9 858.6 L 332.8 842.5 L 299.3 831.0 L 270.6 818.7 L 252.2 793.7 L 228.4 769.3 L 202.2 747.9 L 179.2 717.5 L 168.8 683.2 L 145.1 654.7 L 132.1 621.1 L 124.9 585.7 L 117.9 551.9 L 109.2 520.4 L 111.7 486.3 L 114.3 449.9 L 126.1 415.3 L 137.0 382.8 L 141.3 347.1 L 152.8 321.7 L 170.9 294.5 L 185.4 269.0 L 206.1 248.4 L 232.1 225.4 L 259.2 200.7 L 281.1 181.0 L 303.9 160.0 L 335.3 146.3 L 371.8 136.4 L 407.8 130.1 L 438.3 114.8 L 469.5 108.3 L 495.5 114.3 L 527.1 113.1 L 563.9 113.6 L 596.0 127.6 L 631.5 137.4 L 658.7 145.7 L 692.2 160.9 L 722.0 178.3 L 744.2 201.2 L 772.4 213.6 L 794.8 243.1 L 814.0 271.0 L 832.3 302.8 L 846.4 332.8 L 859.9 356.2 L 868.6 391.7 L 879.4 419.5 L 890.0 452.5 L 890.2 477.1 L 882.0 497.6" stroke="brown" stroke-width="2" fill="none" /><path d="M 868.5 496.8 L 877.6 520.8 L 868.4 557.1 L 868.1 591.9 L 862.6 627.7 L 845.0 652.9 L 830.4 687.0 L 807.6 718.0 L 787.5 748.4 L 758.8 773.5 L 737.7 797.4 L 711.5 812.5 L 680.0 832.4 L 649.7 847.1 L 619.2 866.0 L 584.5 870.7 L 550.1 878.7 L 518.5 875.1 L 485.1 878.0 L 449.2 875.4 L 414.1 873.3 L 384.5 849.7 L 351.3 852.5 L 321.4 834.5 L 292.1 828.3 L 270.3 804.8 L 244.8 785.7 L 224.2 757.5 L 201.8 730.4 L 183.7 704.0 L 168.4 673.5 L 154.0 640.9 L 137.8 613.0 L 130.8 579.7 L 123.1 545.7 L 116.7 519.4 L 119.4 483.9 L 121.9 450.5 L 132.6 418.7 L 144.5 388.3 L 150.7 353.3 L 159.6 329.6 L 176.3 303.5 L 189.6 275.6 L 211.1 255.3 L 231.4 232.6 L 259.0 213.4 L 279.6 184.5 L 301.2 171.5 L 335.5 156.2 L 366.0 143.0 L 402.0 135.4 L 433.5 123.7 L 466.7 122.5 L 495.5 120.4 L 530.2 119.6 L 566.0 122.3 L 597.1 140.2 L 632.9 149.7 L 661.0 155.4 L 693.3 173.3 L 724.7 189.5 L 747.9 214.9 L 774.2 231.5 L 793.5 259.3 L 813.2 283.3 L 826.0 314.1 L 841.1 340.9 L 855.1 367.2 L 863.2 403.0 L 873.8 436.6 L 875.0 466.4 L 878.2 492.7" stroke="pink" stroke-width="2" fill="none" /><path d="M 857.8 496.5 L 872.1 521.1 L 861.7 556.6 L 860.8 586.9 L 856.0 623.8 L 836.0 651.1 L 824.6 680.0 L 800.9 710.9 L 785.0 741.0 L 756.8 764.9 L 734.8 791.7 L 708.6 805.4 L 676.6 825.2 L 646.2 843.5 L 612.6 855.0 L 578.0 863.7 L 545.3 870.9 L 510.0 869.4 L 482.9 869.7 L 446.2 865.0 L 411.0 862.5 L 381.4 848.2 L 349.8 835.4 L 324.2 823.6 L 293.5 811.5 L 263.3 788.8 L 245.1 762.9 L 215.7 738.7 L 192.7 710.0 L 181.8 679.8 L 161.7 648.9 L 151.5 618.7 L 142.0 587.5 L 133.3 552.2 L 123.2 524.7 L 129.7 489.9 L 129.5 454.0 L 137.2 424.1 L 149.4 393.4 L 157.5 361.4 L 165.1 333.7 L 184.1 301.7 L 205.3 275.6 L 228.3 253.8 L 251.3 233.8 L 269.5 210.1 L 294.0 194.9 L 308.8 175.8 L 341.5 167.2 L 375.4 148.9 L 411.3 140.8 L 444.1 127.9 L 478.4 125.0 L 500.4 127.9 L 537.6 125.2 L 571.6 132.4 L 604.0 149.0 L 641.6 160.1 L 675.3 172.4 L 704.2 192.7 L 729.8 213.2 L 760.5 222.3 L 782.3 252.3 L 803.1 275.6 L 816.4 299.7 L 822.4 333.1 L 845.2 358.0 L 856.7 390.6 L 865.7 422.7 L 872.2 452.2 L 877.7 475.8 L 857.8 496.5" stroke="black" stroke-width="2" fill="none" /><path d="M 847.1 493.6 L 863.6 521.8 L 853.1 552.9 L 854.1 582.9 L 848.6 619.8 L 829.2 646.0 L 817.5 675.8 L 798.9 702.0 L 782.8 727.9 L 757.8 755.3 L 734.7 783.7 L 706.9 795.5 L 676.2 816.6 L 646.8 836.4 L 614.7 848.2 L 578.9 853.5 L 552.7 860.3 L 517.6 862.0 L 487.3 859.4 L 451.3 858.9 L 420.0 854.5 L 391.0 840.0 L 361.8 835.7 L 335.8 824.3 L 305.6 816.4 L 278.3 789.8 L 251.4 765.5 L 226.6 740.8 L 202.0 711.7 L 190.2 679.8 L 170.0 646.6 L 159.7 617.6 L 149.6 584.2 L 140.4 546.9 L 134.4 518.3 L 135.9 481.6 L 140.6 444.2 L 147.4 409.0 L 167.7 380.8 L 164.9 349.3 L 180.7 321.9 L 199.9 291.1 L 223.3 264.9 L 246.2 244.7 L 273.0 225.9 L 294.4 201.4 L 314.2 181.3 L 347.2 169.7 L 383.3 157.3 L 416.7 148.8 L 450.3 139.6 L 483.3 130.3 L 504.6 136.6 L 539.2 133.6 L 577.1 141.4 L 611.1 157.8 L 644.8 168.5 L 677.5 181.8 L 710.3 199.4 L 733.8 226.2 L 760.1 244.4 L 779.7 275.0 L 806.5 295.4 L 817.7 328.0 L 834.5 354.4 L 844.3 387.9 L 855.8 417.4 L 865.5 448.3 L 863.7 466.2 L 857.2 496.0" stroke="blue" stroke-width="2" fill="none" /><path d="M 840.8 492.6 L 855.5 517.9 L 845.5 551.6 L 841.6 579.3 L 840.6 611.9 L 821.4 636.9 L 807.5 667.7 L 795.2 697.8 L 778.3 721.5 L 753.3 749.7 L 730.6 778.3 L 702.4 792.1 L 670.1 811.8 L 640.2 829.4 L 606.8 841.2 L 575.5 851.4 L 540.5 857.3 L 504.6 855.6 L 475.6 856.3 L 443.5 845.7 L 406.3 847.7 L 378.1 832.1 L 348.5 818.1 L 315.0 806.2 L 287.9 790.3 L 261.3 765.7 L 237.1 738.0 L 210.6 711.1 L 197.6 679.0 L 177.5 646.7 L 168.0 616.4 L 155.8 584.5 L 149.2 548.5 L 142.0 517.8 L 142.3 482.2 L 146.8 445.7 L 154.6 412.1 L 174.5 383.3 L 169.5 348.7 L 190.2 319.9 L 207.1 290.6 L 234.5 266.9 L 261.6 247.7 L 283.1 222.1 L 305.3 207.0 L 326.0 182.3 L 357.0 175.0 L 392.0 165.2 L 424.2 156.0 L 456.2 149.0 L 483.4 142.5 L 512.2 147.0 L 545.5 144.5 L 581.0 149.4 L 611.4 163.3 L 646.5 172.9 L 676.9 190.8 L 711.1 207.5 L 731.8 230.8 L 756.3 247.8 L 771.8 273.0 L 797.1 296.9 L 808.9 323.2 L 823.5 352.7 L 834.7 384.6 L 846.4 416.4 L 856.6 451.0 L 855.5 482.5" stroke="red" stroke-width="2" fill="none" /><path d="M 834.8 493.7 L 845.9 518.2 L 839.5 552.2 L 839.2 580.7 L 835.0 613.5 L 811.2 638.7 L 807.9 671.0 L 781.9 697.4 L 765.7 729.3 L 735.4 752.6 L 712.4 774.3 L 684.6 791.5 L 659.6 816.5 L 625.5 826.2 L 592.7 834.8 L 556.5 841.8 L 522.5 848.3 L 486.8 848.0 L 448.6 842.6 L 419.9 840.8 L 392.1 825.0 L 360.0 821.7 L 332.4 801.2 L 304.9 794.7 L 281.9 770.9 L 258.2 745.7 L 232.3 721.5 L 210.1 694.8 L 199.4 659.0 L 183.5 627.9 L 165.4 595.7 L 157.3 558.5 L 147.0 530.4 L 153.1 492.4 L 155.1 454.1 L 165.4 420.0 L 177.0 390.6 L 177.8 354.6 L 197.5 325.1 L 216.6 292.7 L 241.6 270.5 L 266.0 254.9 L 286.8 228.6 L 312.2 209.1 L 330.7 191.6 L 361.0 182.8 L 393.5 171.7 L 429.0 162.9 L 462.1 155.9 L 486.2 154.6 L 523.5 153.1 L 554.8 152.6 L 588.8 165.4 L 622.2 174.0 L 653.9 191.2 L 688.1 207.6 L 711.7 228.7 L 741.1 236.2 L 758.5 266.2 L 783.5 289.9 L 796.9 312.0 L 807.7 346.0 L 826.0 375.6 L 830.5 408.3 L 844.2 441.6 L 846.7 477.9 L 834.3 493.6" stroke="green" stroke-width="2" fill="none" /><path d="M 827.0 493.2 L 836.3 526.4 L 820.5 557.8 L 837.3 590.5 L 824.6 618.7 L 804.4 645.6 L 793.8 673.0 L 771.0 697.9 L 752.1 728.1 L 723.5 755.1 L 696.6 769.7 L 672.1 789.2 L 651.9 812.2 L 618.9 816.5 L 588.5 831.5 L 551.7 830.4 L 528.6 840.9 L 495.8 839.3 L 458.7 838.3 L 427.8 835.9 L 398.4 816.2 L 370.3 811.7 L 345.8 800.0 L 313.2 794.4 L 295.2 771.2 L 269.6 746.7 L 243.1 724.4 L 220.9 701.3 L 213.5 667.0 L 192.5 635.1 L 173.1 603.6 L 170.1 565.9 L 153.2 535.9 L 160.7 499.1 L 162.5 464.1 L 168.7 427.6 L 184.9 399.5 L 184.9 364.1 L 200.9 332.9 L 219.0 304.8 L 244.3 277.4 L 268.1 261.6 L 290.9 238.4 L 315.7 217.6 L 343.8 199.2 L 375.3 187.1 L 404.5 173.9 L 435.4 162.1 L 471.2 168.9 L 497.6 159.7 L 532.6 155.6 L 565.3 162.1 L 597.2 182.3 L 630.4 187.7 L 664.4 204.3 L 694.5 222.7 L 714.9 239.0 L 738.9 252.0 L 759.8 277.7 L 785.5 304.6 L 793.3 326.4 L 806.0 352.7 L 822.3 387.3 L 830.7 419.4 L 839.3 454.1 L 837.1 492.6" stroke="purple" stroke-width="2" fill="none" /><path d="M 818.0 495.2 L 827.8 524.9 L 814.5 557.3 L 828.2 589.4 L 816.7 615.8 L 798.6 642.4 L 786.8 669.9 L 766.5 693.7 L 745.0 725.4 L 715.0 749.1 L 692.0 765.0 L 666.4 788.7 L 643.7 805.1 L 613.7 812.5 L 581.4 820.1 L 547.8 826.7 L 514.6 833.0 L 478.7 832.2 L 447.2 821.0 L 411.7 820.8 L 384.9 806.8 L 354.9 796.6 L 323.9 785.6 L 302.3 771.5 L 280.0 749.2 L 260.3 724.7 L 234.5 704.6 L 217.5 677.1 L 207.3 643.2 L 190.6 609.6 L 181.2 577.1 L 168.1 543.5 L 164.8 510.2 L 171.4 473.6 L 172.6 438.6 L 181.0 407.2 L 192.9 376.7 L 205.7 348.3 L 222.4 318.5 L 241.1 294.0 L 263.4 271.4 L 289.3 257.0 L 307.6 228.7 L 333.3 205.6 L 366.2 197.7 L 399.8 186.4 L 431.4 178.3 L 464.1 172.0 L 492.0 168.5 L 528.1 164.8 L 562.7 170.9 L 592.2 188.0 L 629.5 195.4 L 662.6 212.7 L 696.9 230.0 L 719.0 249.3 L 740.7 269.1 L 764.9 291.3 L 784.2 314.7 L 792.4 348.6 L 811.5 374.7 L 814.6 410.7 L 827.0 441.7 L 829.5 477.7" stroke="orange" stroke-width="2" fill="none" /><path d="M 810.3 496.1 L 821.3 526.2 L 807.2 557.0 L 814.7 586.5 L 801.8 621.2 L 789.8 651.5 L 767.9 678.5 L 747.8 710.0 L 722.8 736.4 L 698.1 757.1 L 670.5 769.5 L 649.9 791.2 L 624.3 799.3 L 592.1 810.9 L 556.7 814.0 L 520.8 825.0 L 487.0 822.9 L 451.6 814.2 L 416.5 813.1 L 383.7 797.2 L 354.4 786.2 L 327.3 777.9 L 314.0 763.7 L 289.1 748.2 L 268.2 717.0 L 246.4 702.7 L 227.2 674.6 L 216.3 645.9 L 200.4 614.9 L 188.9 582.0 L 176.8 547.4 L 173.3 511.8 L 178.0 475.1 L 177.4 441.8 L 188.1 411.9 L 200.5 386.7 L 211.1 353.7 L 229.0 325.3 L 249.3 298.9 L 273.7 271.4 L 300.8 254.5 L 319.0 232.0 L 343.1 208.1 L 373.9 205.7 L 403.3 191.8 L 436.6 180.0 L 471.7 183.0 L 497.9 176.8 L 532.7 169.2 L 560.5 177.1 L 592.0 195.3 L 626.3 204.3 L 659.4 220.5 L 693.2 238.2 L 718.0 257.7 L 741.0 283.5 L 769.6 304.6 L 781.9 335.2 L 793.2 359.7 L 806.8 392.0 L 815.8 424.3 L 824.0 459.6 L 818.0 490.4" stroke="brown" stroke-width="2" fill="none" /><path d="M 804.6 494.3 L 809.4 525.0 L 798.3 557.6 L 803.5 589.6 L 787.3 619.8 L 779.0 654.6 L 758.1 681.5 L 732.3 710.9 L 706.6 738.8 L 681.0 751.6 L 655.1 776.4 L 635.1 790.2 L 598.6 802.3 L 565.4 805.9 L 527.6 817.1 L 494.1 815.6 L 463.5 811.6 L 427.4 808.5 L 399.6 792.5 L 366.4 782.2 L 339.2 773.4 L 317.0 754.9 L 291.9 736.5 L 267.9 710.3 L 243.8 697.0 L 235.6 664.6 L 219.5 634.2 L 201.3 601.2 L 194.2 565.3 L 179.2 533.1 L 185.9 496.3 L 185.6 462.1 L 196.1 433.1 L 204.0 406.9 L 207.5 371.5 L 228.0 342.4 L 244.7 311.4 L 272.7 285.2 L 304.3 263.5 L 322.4 239.9 L 346.3 216.3 L 380.2 208.0 L 413.2 197.7 L 441.7 184.2 L 474.9 187.2 L 491.3 183.2 L 528.4 178.1 L 553.6 184.8 L 582.6 200.8 L 616.0 208.0 L 646.6 224.6 L 682.3 239.0 L 710.2 255.5 L 728.7 274.3 L 751.1 302.7 L 771.0 331.7 L 785.5 362.4 L 799.4 389.7 L 805.4 425.3 L 816.2 459.4 L 808.3 489.2" stroke="pink" stroke-width="2" fill="none" /><path d="M 793.8 491.6 L 806.9 521.9 L 790.7 555.8 L 800.6 584.9 L 784.5 612.5 L 770.9 645.8 L 751.5 672.0 L 729.0 702.9 L 703.9 729.4 L 678.6 740.5 L 652.8 763.6 L 633.5 783.5 L 598.3 795.4 L 562.9 797.8 L 526.2 808.2 L 493.6 806.1 L 462.6 803.1 L 426.3 801.5 L 400.4 787.0 L 368.3 777.3 L 339.1 768.5 L 314.3 748.7 L 295.8 721.9 L 265.0 706.0 L 246.8 677.7 L 230.8 643.1 L 219.4 609.5 L 206.1 578.0 L 191.6 544.7 L 190.7 508.9 L 190.7 474.7 L 197.9 442.9 L 200.3 417.8 L 216.1 386.5 L 224.7 355.6 L 239.6 326.4 L 268.9 305.5 L 296.3 281.6 L 316.4 253.2 L 340.7 231.3 L 375.7 218.7 L 403.0 208.9 L 435.8 199.4 L 463.2 196.0 L 494.1 194.9 L 531.1 184.0 L 566.2 196.3 L 595.5 211.5 L 628.9 225.2 L 655.8 234.4 L 685.1 255.9 L 715.9 270.0 L 731.5 294.9 L 758.0 318.8 L 767.3 353.5 L 790.7 381.5 L 791.1 416.2 L 804.8 443.5 L 810.0 480.5" stroke="black" stroke-width="2" fill="none" /><path d="M 785.7 494.3 L 798.4 524.2 L 782.8 555.0 L 793.1 580.7 L 775.6 608.1 L 766.0 639.2 L 744.8 662.9 L 727.1 695.4 L 704.4 723.8 L 677.7 736.0 L 650.8 755.2 L 631.1 776.4 L 599.9 786.7 L 565.3 789.2 L 529.1 794.8 L 500.6 796.3 L 469.7 796.0 L 435.0 791.6 L 407.9 775.7 L 374.9 772.0 L 346.1 757.9 L 323.7 743.1 L 301.6 718.6 L 273.5 700.8 L 254.8 673.7 L 238.8 638.9 L 225.3 606.2 L 212.1 575.1 L 197.0 543.3 L 201.1 507.2 L 202.2 474.6 L 210.7 440.4 L 220.2 411.9 L 226.5 373.9 L 243.5 342.8 L 263.1 314.1 L 287.9 290.6 L 313.1 272.6 L 338.8 249.8 L 358.9 233.8 L 394.6 221.9 L 423.4 212.2 L 449.6 198.0 L 481.6 197.9 L 508.8 197.8 L 544.4 197.4 L 578.7 214.1 L 613.9 225.1 L 644.6 240.4 L 675.5 257.4 L 700.7 277.3 L 720.8 292.7 L 749.1 318.0 L 760.6 347.2 L 779.1 379.2 L 783.2 415.8 L 794.9 443.2 L 801.3 478.0" stroke="blue" stroke-width="2" fill="none" /><path d="M 779.3 495.3 L 789.9 525.1 L 777.2 549.8 L 784.2 576.2 L 769.5 603.4 L 760.6 638.3 L 737.0 666.5 L 718.6 697.3 L 694.8 719.4 L 667.9 731.9 L 640.2 756.6 L 619.2 767.8 L 586.5 779.0 L 557.4 786.0 L 523.8 794.8 L 495.0 789.0 L 462.3 783.6 L 428.2 786.9 L 396.7 771.9 L 367.4 759.0 L 337.4 756.3 L 322.6 731.1 L 299.4 703.2 L 272.0 683.3 L 258.0 651.8 L 240.4 622.3 L 221.7 591.1 L 214.3 553.2 L 205.9 519.5 L 208.0 483.9 L 213.8 448.3 L 222.6 418.8 L 228.7 384.1 L 249.1 353.2 L 269.1 324.0 L 291.7 298.9 L 314.7 283.2 L 342.4 258.0 L 361.7 240.7 L 394.5 228.8 L 426.9 222.1 L 452.1 207.6 L 481.9 206.0 L 514.3 203.9 L 547.4 205.6 L 580.8 225.9 L 616.7 231.8 L 645.4 250.5 L 675.3 268.8 L 699.2 286.5 L 720.2 302.5 L 742.9 331.6 L 758.0 361.4 L 777.6 392.9 L 779.5 427.7 L 793.1 460.1 L 785.8 493.4" stroke="red" stroke-width="2" fill="none" /><path d="M 773.0 493.1 L 781.7 522.9 L 769.7 549.6 L 772.4 579.2 L 758.4 607.7 L 749.7 642.7 L 724.6 669.5 L 701.1 699.1 L 682.3 726.0 L 651.4 736.1 L 632.0 754.6 L 603.7 761.4 L 572.5 772.1 L 540.9 778.5 L 510.2 785.2 L 485.4 783.7 L 450.9 772.9 L 419.3 768.4 L 387.1 756.8 L 363.0 746.8 L 338.8 736.8 L 312.2 710.8 L 292.2 693.4 L 273.3 674.2 L 264.4 641.1 L 246.3 614.4 L 227.6 584.7 L 224.6 549.9 L 213.9 518.5 L 217.3 487.5 L 219.5 449.8 L 230.7 419.0 L 233.9 385.9 L 255.2 356.8 L 272.5 327.1 L 299.9 304.9 L 322.8 290.1 L 345.4 264.5 L 367.4 245.0 L 401.3 233.4 L 439.5 226.1 L 466.4 215.4 L 501.2 219.1 L 531.9 210.5 L 564.2 223.3 L 594.2 238.3 L 629.4 247.7 L 661.9 264.4 L 691.8 283.4 L 714.1 305.7 L 734.8 333.5 L 749.7 362.0 L 766.0 392.5 L 772.7 424.0 L 785.7 450.6 L 784.6 486.1" stroke="green" stroke-width="2" fill="none" /><path d="M 763.7 490.7 L 776.8 519.4 L 761.7 546.3 L 761.7 576.6 L 750.8 605.1 L 742.5 639.5 L 718.3 666.9 L 699.3 691.4 L 675.5 719.4 L 644.4 729.6 L 622.9 756.4 L 592.9 761.9 L 560.0 761.9 L 524.2 767.1 L 503.9 771.5 L 468.4 767.0 L 434.5 771.2 L 408.7 757.4 L 376.2 748.5 L 344.5 742.8 L 327.7 714.7 L 301.8 689.8 L 280.2 676.8 L 274.1 640.7 L 251.5 616.5 L 235.9 584.1 L 230.4 548.3 L 221.2 513.8 L 223.7 478.2 L 233.4 443.3 L 245.6 417.7 L 251.8 383.2 L 265.1 351.0 L 289.9 328.9 L 317.4 304.6 L 334.2 284.7 L 359.0 265.1 L 388.1 244.3 L 423.9 239.1 L 449.5 221.4 L 479.3 221.7 L 513.6 223.1 L 545.0 223.5 L 573.6 239.4 L 606.8 243.7 L 637.8 260.8 L 666.7 281.3 L 700.2 298.7 L 721.2 327.8 L 740.5 355.9 L 755.6 389.5 L 764.1 418.0 L 775.2 441.8 L 772.9 475.5 L 763.7 490.7" stroke="purple" stroke-width="2" fill="none" /><path d="M 757.2 488.8 L 768.4 517.5 L 756.6 546.3 L 756.4 576.4 L 741.1 605.1 L 728.2 635.4 L 709.0 668.0 L 693.1 690.5 L 668.5 709.7 L 639.1 729.3 L 607.6 747.1 L 575.1 756.1 L 537.0 758.5 L 509.4 769.9 L 474.6 763.4 L 440.6 763.1 L 412.8 748.7 L 382.8 740.4 L 348.6 732.3 L 329.5 706.4 L 307.4 684.5 L 283.8 663.4 L 273.1 627.6 L 253.6 600.9 L 239.4 573.9 L 233.3 547.0 L 232.2 510.9 L 231.6 476.6 L 240.3 441.9 L 252.6 409.5 L 260.6 372.2 L 276.5 343.4 L 304.8 321.1 L 333.7 310.0 L 350.0 279.5 L 375.6 258.9 L 407.9 254.8 L 439.7 240.3 L 470.9 230.7 L 500.7 235.5 L 531.0 225.2 L 566.5 240.3 L 597.3 254.2 L 627.8 266.8 L 654.9 282.8 L 683.3 302.5 L 708.7 328.0 L 733.6 354.9 L 742.1 381.4 L 757.2 415.1 L 766.2 442.0 L 766.8 475.2 L 757.2 488.8" stroke="orange" stroke-width="2" fill="none" /><path d="M 751.1 486.4 L 757.9 518.4 L 746.4 554.0 L 744.9 580.3 L 734.0 609.5 L 714.7 638.0 L 697.3 673.7 L 674.1 693.9 L 646.0 708.2 L 620.2 736.3 L 585.2 743.3 L 553.6 749.6 L 519.5 758.2 L 491.7 756.1 L 455.9 751.1 L 423.8 743.9 L 393.8 736.6 L 361.8 724.8 L 344.0 705.8 L 317.1 678.9 L 291.3 657.2 L 282.5 624.1 L 265.6 598.9 L 245.3 572.1 L 242.0 544.2 L 243.1 508.7 L 238.5 473.7 L 246.9 442.0 L 261.0 407.1 L 267.6 370.1 L 289.1 342.8 L 314.1 322.8 L 337.4 308.7 L 363.2 285.2 L 389.4 263.6 L 419.8 255.7 L 454.0 238.2 L 484.8 238.5 L 518.2 234.8 L 551.9 240.6 L 581.3 263.1 L 612.5 262.9 L 644.4 280.7 L 668.4 302.6 L 696.1 324.7 L 720.0 351.2 L 736.5 381.1 L 746.0 409.7 L 754.8 442.1 L 756.4 474.8" stroke="brown" stroke-width="2" fill="none" /><path d="M 742.7 488.1 L 750.9 516.0 L 736.9 547.6 L 739.0 580.1 L 727.4 608.7 L 706.9 637.9 L 689.7 666.1 L 666.7 688.5 L 639.0 706.6 L 614.2 731.3 L 581.1 738.4 L 543.6 741.2 L 514.5 755.7 L 484.5 748.9 L 449.6 744.4 L 417.2 730.3 L 382.8 722.4 L 356.0 714.5 L 338.4 688.3 L 306.6 669.2 L 292.3 634.1 L 276.6 604.3 L 256.4 575.7 L 259.1 541.8 L 245.1 516.3 L 244.2 484.5 L 254.3 450.8 L 265.1 417.5 L 271.9 381.6 L 290.6 351.5 L 315.9 331.7 L 341.4 317.3 L 366.9 294.0 L 394.1 270.1 L 423.5 262.6 L 458.9 245.9 L 493.8 249.9 L 522.3 243.1 L 557.7 254.4 L 587.7 268.3 L 619.5 280.8 L 651.4 299.6 L 681.7 313.5 L 698.6 342.9 L 719.1 369.5 L 731.8 402.1 L 739.3 436.5 L 751.6 465.8 L 741.9 490.5" stroke="pink" stroke-width="2" fill="none" /><path d="M 734.8 486.0 L 743.9 517.3 L 731.3 549.8 L 732.9 578.0 L 719.3 606.5 L 698.4 634.8 L 680.4 664.6 L 656.5 689.9 L 625.0 707.3 L 606.6 722.2 L 573.0 732.1 L 537.1 736.6 L 509.4 747.9 L 477.5 736.6 L 441.4 735.8 L 406.6 722.9 L 372.8 711.0 L 357.3 696.5 L 330.5 670.3 L 304.5 645.9 L 292.2 615.6 L 277.7 581.1 L 262.1 552.2 L 256.4 531.5 L 258.0 502.2 L 257.1 468.4 L 267.1 438.0 L 275.4 401.8 L 292.7 370.1 L 314.6 345.9 L 341.6 328.6 L 362.3 301.4 L 389.6 281.5 L 418.9 279.2 L 449.7 258.0 L 483.4 255.9 L 516.1 248.8 L 547.2 254.3 L 575.0 276.9 L 609.4 283.5 L 643.1 301.0 L 666.1 321.8 L 691.1 342.2 L 715.4 366.7 L 721.1 400.6 L 733.5 433.5 L 748.2 459.1 L 740.2 494.8" stroke="black" stroke-width="2" fill="none" /><path d="M 725.6 485.0 L 735.6 515.8 L 722.2 546.7 L 725.7 578.1 L 712.1 610.4 L 688.3 637.0 L 666.2 668.2 L 636.1 689.8 L 614.2 712.4 L 580.3 721.1 L 542.4 722.8 L 514.1 739.3 L 483.2 731.1 L 454.6 730.3 L 419.5 717.8 L 383.9 707.7 L 363.6 694.4 L 344.5 673.4 L 316.5 652.5 L 304.2 616.2 L 286.6 583.6 L 272.1 554.4 L 266.3 531.7 L 265.1 504.9 L 261.0 469.0 L 273.4 437.8 L 284.8 402.4 L 299.8 370.6 L 326.7 344.1 L 350.3 326.5 L 377.1 306.1 L 402.8 284.6 L 434.2 278.2 L 466.3 259.9 L 495.3 264.0 L 524.1 259.3 L 554.3 271.4 L 586.4 285.8 L 617.6 296.1 L 643.9 318.4 L 670.5 324.8 L 689.4 354.4 L 709.5 379.9 L 720.6 410.4 L 730.4 444.3 L 730.4 474.7" stroke="blue" stroke-width="2" fill="none" /><path d="M 714.9 482.8 L 729.4 516.0 L 715.2 545.1 L 713.8 575.2 L 701.1 608.0 L 679.2 639.7 L 656.8 670.2 L 625.3 682.6 L 605.7 709.9 L 568.9 717.5 L 535.0 718.8 L 507.7 730.9 L 481.2 721.8 L 444.5 721.6 L 412.6 707.8 L 384.1 699.4 L 367.0 683.7 L 337.2 658.9 L 314.8 635.1 L 301.6 601.6 L 284.0 568.3 L 283.5 539.3 L 273.9 518.6 L 267.1 488.2 L 281.4 456.5 L 290.0 420.2 L 299.1 385.3 L 321.4 355.2 L 354.4 339.3 L 374.1 315.8 L 400.2 296.8 L 427.9 284.2 L 464.3 272.6 L 497.9 270.7 L 530.9 269.6 L 560.7 282.6 L 594.4 289.3 L 624.0 308.6 L 648.7 329.0 L 668.3 343.5 L 694.6 366.5 L 703.9 401.8 L 719.7 433.1 L 730.0 465.0 L 716.2 492.2" stroke="red" stroke-width="2" fill="none" /><path d="M 706.7 480.5 L 717.5 512.6 L 709.7 538.6 L 705.4 572.5 L 694.9 605.9 L 672.9 636.7 L 648.4 663.2 L 621.6 679.7 L 601.0 702.6 L 564.2 711.3 L 528.9 711.0 L 500.2 715.7 L 468.5 713.5 L 433.4 704.7 L 404.4 691.7 L 372.9 690.5 L 358.8 661.9 L 328.5 643.2 L 319.5 608.2 L 299.4 579.8 L 286.5 548.1 L 280.0 530.2 L 285.1 501.9 L 276.6 472.8 L 292.4 439.5 L 300.4 408.5 L 314.1 374.5 L 342.7 349.8 L 368.5 327.4 L 394.2 304.6 L 425.2 300.6 L 454.6 282.5 L 485.6 277.1 L 518.9 276.0 L 546.8 289.3 L 576.2 296.3 L 607.1 310.6 L 636.0 331.8 L 664.8 351.3 L 691.5 371.2 L 694.7 401.1 L 711.1 434.5 L 721.1 465.9 L 711.9 485.7" stroke="green" stroke-width="2" fill="none" /><path d="M 700.1 482.0 L 710.8 511.4 L 699.6 540.8 L 695.9 575.5 L 682.7 605.9 L 662.4 637.3 L 638.7 663.1 L 614.0 678.5 L 584.7 697.9 L 552.4 704.7 L 519.8 702.4 L 491.0 702.8 L 457.7 707.1 L 421.1 696.9 L 392.7 687.4 L 371.0 663.0 L 339.4 640.8 L 325.1 607.8 L 308.9 580.0 L 297.5 552.5 L 287.2 523.2 L 287.5 489.9 L 290.0 465.7 L 302.1 431.8 L 309.2 400.6 L 330.8 370.4 L 363.3 354.0 L 384.8 326.7 L 414.4 307.9 L 441.4 299.0 L 474.2 282.4 L 509.0 286.0 L 535.8 285.5 L 561.2 304.2 L 594.6 312.4 L 625.1 327.0 L 653.6 346.3 L 671.8 373.9 L 688.6 395.1 L 698.8 422.5 L 709.0 457.3 L 708.5 489.7" stroke="purple" stroke-width="2" fill="none" /><path d="M 689.6 481.9 L 697.6 510.2 L 690.1 536.1 L 687.2 573.4 L 677.3 604.7 L 657.5 635.1 L 630.5 660.0 L 604.2 673.7 L 581.5 691.8 L 552.2 697.3 L 518.4 694.9 L 490.8 693.2 L 457.9 700.1 L 423.7 689.8 L 390.3 679.0 L 366.9 652.6 L 336.4 628.5 L 324.2 598.4 L 309.4 563.2 L 305.3 534.4 L 296.9 502.2 L 297.7 470.7 L 309.1 437.1 L 313.9 404.5 L 336.6 376.4 L 366.9 359.6 L 387.7 333.9 L 413.1 314.4 L 442.9 306.6 L 473.3 291.7 L 508.3 292.8 L 541.3 295.7 L 570.1 310.4 L 601.9 327.5 L 627.9 343.3 L 655.2 364.3 L 676.4 380.7 L 680.6 408.6 L 695.7 436.3 L 705.7 464.8 L 693.0 484.3" stroke="orange" stroke-width="2" fill="none" /><path d="M 682.5 483.8 L 698.8 510.2 L 682.0 541.3 L 677.4 575.7 L 665.7 611.2 L 643.7 638.3 L 611.8 653.3 L 595.9 680.0 L 561.1 684.1 L 528.0 687.8 L 494.5 690.1 L 465.6 693.5 L 431.8 682.6 L 403.6 673.9 L 380.5 649.8 L 350.3 628.4 L 339.4 599.7 L 319.2 566.5 L 312.0 541.5 L 306.8 506.4 L 305.0 472.2 L 316.2 441.6 L 325.3 406.5 L 343.0 376.4 L 373.4 363.7 L 395.0 339.2 L 420.7 319.2 L 452.4 312.5 L 485.3 302.3 L 515.7 298.2 L 548.6 311.4 L 584.6 321.5 L 611.6 332.0 L 638.2 357.4 L 664.5 383.9 L 673.4 411.3 L 689.3 436.2 L 696.2 464.6 L 685.3 485.3" stroke="brown" stroke-width="2" fill="none" /><path d="M 672.8 484.5 L 686.9 509.3 L 674.8 544.0 L 672.9 577.9 L 654.8 606.7 L 631.4 637.5 L 603.0 655.8 L 575.6 676.2 L 542.0 677.4 L 505.6 686.4 L 471.1 682.2 L 441.2 673.1 L 411.9 666.0 L 390.2 649.4 L 361.1 629.5 L 345.6 599.7 L 329.4 565.6 L 320.4 535.0 L 315.0 503.9 L 312.6 468.1 L 326.8 438.4 L 334.2 399.7 L 358.7 377.5 L 386.0 360.4 L 407.8 333.9 L 437.9 328.8 L 468.7 311.4 L 505.9 312.0 L 533.7 307.3 L 565.7 325.7 L 599.1 343.2 L 624.2 356.1 L 650.6 383.6 L 674.1 409.1 L 682.5 435.6 L 688.3 466.2 L 675.9 486.3" stroke="pink" stroke-width="2" fill="none" /><text x="10" y="25" font-family="Arial" font-size="16" fill="black">Distance: 8px, Segment: 4px, Error: 3.0 (Simplified)</text><text x="10" y="45" font-family="Arial" font-size="16" fill="black">Curves: 40 (Simplified)</text></svg>