<?xml version='1.0' encoding='utf-8'?>
<svg width="1200" height="1200" xmlns="http://www.w3.org/2000/svg" version="1.1"><rect width="1200" height="1200" fill="white" /><path d="M 1000.0 500.0 L 999.1 530.0 L 996.4 559.9 L 991.9 589.5 L 985.7 618.9 L 977.7 647.8 L 967.9 676.2 L 956.5 703.9 L 943.5 730.9 L 928.8 757.1 L 912.6 782.4 L 895.0 806.6 L 875.9 829.7 L 855.4 851.7 L 833.7 872.4 L 810.7 891.7 L 786.7 909.6 L 761.6 926.1 L 735.6 941.0 L 708.7 954.4 L 681.1 966.1 L 652.8 976.1 L 624.0 984.4 L 594.7 991.0 L 565.1 995.7 L 535.2 998.8 L 505.3 1000.0 L 475.3 999.4 L 445.3 997.0 L 415.6 992.8 L 386.2 986.9 L 357.2 979.2 L 328.8 969.8 L 300.9 958.6 L 273.7 945.9 L 247.4 931.5 L 222.0 915.6 L 197.6 898.2 L 174.2 879.3 L 152.1 859.1 L 131.2 837.6 L 111.6 814.8 L 93.4 791.0 L 76.7 766.1 L 61.5 740.2 L 47.9 713.5 L 35.9 686.0 L 25.5 657.8 L 16.9 629.0 L 10.1 599.8 L 5.0 570.3 L 1.6 540.5 L 0.1 510.5 L 0.4 480.5 L 2.4 450.6 L 6.3 420.8 L 11.9 391.4 L 19.3 362.3 L 28.5 333.7 L 39.3 305.7 L 51.8 278.4 L 65.9 252.0 L 81.5 226.4 L 98.7 201.8 L 117.3 178.2 L 137.3 155.8 L 158.6 134.7 L 181.1 114.9 L 204.8 96.5 L 229.5 79.5 L 255.2 64.0 L 281.8 50.1 L 309.2 37.8 L 337.2 27.2 L 365.9 18.3 L 395.0 11.1 L 424.5 5.7 L 454.3 2.1 L 484.2 0.2 L 514.3 0.2 L 544.2 2.0 L 574.0 5.5 L 603.5 10.8 L 632.7 17.9 L 661.3 26.7 L 689.4 37.3 L 716.8 49.5 L 743.5 63.3 L 769.2 78.7 L 794.0 95.6 L 817.7 113.9 L 840.3 133.7 L 861.7 154.8 L 881.7 177.1 L 900.4 200.6 L 917.7 225.1 L 933.4 250.6 L 947.6 277.1 L 960.1 304.3 L 971.0 332.3 L 980.2 360.8 L 987.7 389.9 L 993.5 419.3 L 997.4 449.1 L 999.6 479.0" stroke="black" stroke-width="2" fill="none" /><path d="M 991.6 500.8 L 990.3 539.4 L 985.4 578.6 L 978.8 615.7 L 969.6 652.2 L 954.4 687.8 L 938.0 722.9 L 919.8 756.7 L 898.0 789.7 L 873.3 820.6 L 846.4 849.1 L 817.1 876.0 L 786.9 900.8 L 754.2 920.4 L 721.0 940.5 L 685.0 956.3 L 647.9 968.7 L 609.6 978.6 L 571.6 988.1 L 532.8 990.9 L 493.9 993.0 L 456.4 989.4 L 416.9 985.4 L 378.6 976.6 L 341.6 964.6 L 304.4 951.7 L 269.6 933.5 L 236.1 914.9 L 203.1 892.7 L 174.3 867.9 L 145.7 841.2 L 119.3 811.9 L 95.7 780.3 L 74.0 747.7 L 56.2 712.7 L 41.7 676.4 L 29.2 639.0 L 18.5 601.5 L 11.3 563.2 L 7.7 523.6 L 9.2 484.7 L 12.0 445.5 L 18.2 406.6 L 26.2 368.0 L 39.3 331.5 L 51.5 294.3 L 70.0 259.5 L 91.4 226.2 L 115.1 194.9 L 139.1 165.3 L 166.9 137.2 L 195.4 112.8 L 227.8 90.1 L 261.2 70.4 L 295.4 51.6 L 332.4 37.7 L 368.3 27.1 L 406.2 15.9 L 445.4 11.3 L 483.5 8.4 L 522.4 8.5 L 560.9 12.4 L 599.4 19.4 L 638.2 26.6 L 675.1 39.8 L 711.4 54.8 L 745.9 74.1 L 779.9 94.5 L 810.6 118.2 L 839.2 142.9 L 865.6 172.6 L 890.4 202.7 L 914.2 233.9 L 934.0 268.2 L 952.1 303.7 L 965.8 340.1 L 975.9 378.2 L 984.4 416.5 L 990.4 455.4 L 992.1 494.9" stroke="blue" stroke-width="2" fill="none" /><path d="M 982.3 500.5 L 983.8 539.4 L 977.7 576.7 L 971.2 613.5 L 963.1 648.5 L 947.8 683.9 L 931.6 718.3 L 913.0 751.8 L 892.8 784.6 L 867.9 814.8 L 841.4 842.1 L 813.1 869.0 L 783.8 893.5 L 750.2 913.4 L 718.6 931.9 L 684.1 949.0 L 646.7 959.4 L 609.5 971.0 L 571.1 979.0 L 532.5 984.2 L 493.9 984.3 L 454.5 980.9 L 415.3 976.6 L 376.8 967.7 L 339.2 956.9 L 303.3 940.2 L 267.5 924.8 L 234.4 904.7 L 202.7 881.3 L 171.8 856.8 L 144.8 828.5 L 120.2 798.0 L 96.8 767.5 L 76.4 734.9 L 58.6 700.1 L 43.8 663.5 L 32.4 625.6 L 25.2 587.2 L 18.5 549.1 L 16.1 509.6 L 17.6 470.6 L 21.1 431.3 L 26.6 392.8 L 38.3 355.3 L 50.8 320.2 L 65.6 284.0 L 85.6 252.4 L 106.4 218.6 L 130.0 187.6 L 156.6 159.5 L 185.9 133.9 L 215.8 108.1 L 248.4 86.7 L 281.1 68.9 L 316.3 52.2 L 352.9 40.0 L 390.5 29.2 L 428.9 21.2 L 467.5 18.2 L 505.6 15.4 L 543.5 17.9 L 582.0 22.3 L 620.0 31.1 L 657.9 41.8 L 692.3 55.2 L 727.5 72.3 L 761.0 91.8 L 792.8 114.4 L 821.6 139.3 L 849.0 165.4 L 875.3 192.7 L 898.6 224.4 L 919.6 258.0 L 938.6 292.5 L 951.9 329.2 L 964.7 366.2 L 974.0 404.5 L 980.9 442.7 L 985.1 481.6" stroke="red" stroke-width="2" fill="none" /><path d="M 973.1 501.8 L 973.9 539.8 L 969.9 579.0 L 961.3 616.7 L 950.7 652.9 L 937.1 689.3 L 918.8 724.0 L 898.3 757.2 L 877.2 790.4 L 852.1 819.7 L 825.0 848.1 L 795.6 874.1 L 762.9 896.0 L 731.3 913.7 L 697.5 932.8 L 661.2 947.7 L 624.3 960.1 L 585.6 968.8 L 546.8 972.4 L 508.8 976.0 L 469.1 976.5 L 430.8 970.6 L 392.3 962.6 L 354.6 953.3 L 318.4 938.7 L 282.7 925.6 L 249.4 905.0 L 216.0 884.0 L 185.4 859.4 L 158.4 830.5 L 132.2 801.1 L 108.7 770.1 L 88.1 738.2 L 69.0 704.1 L 55.1 667.3 L 43.3 630.2 L 33.3 593.9 L 25.9 555.8 L 24.3 516.6 L 26.1 478.0 L 28.0 438.7 L 34.2 399.8 L 44.9 363.0 L 56.3 327.1 L 71.7 290.9 L 91.1 257.8 L 112.0 224.4 L 135.3 193.4 L 161.0 164.9 L 190.3 140.1 L 219.9 114.8 L 251.8 94.8 L 285.6 75.3 L 321.6 59.7 L 357.2 44.4 L 394.5 35.8 L 432.3 28.5 L 470.5 26.8 L 509.5 24.1 L 548.4 26.9 L 587.5 30.7 L 623.9 38.0 L 661.1 49.4 L 695.4 65.0 L 729.4 83.5 L 762.9 102.8 L 794.0 125.7 L 824.2 150.6 L 850.5 178.6 L 874.9 209.1 L 899.6 239.8 L 917.8 274.3 L 936.7 308.7 L 952.4 343.9 L 961.7 382.0 L 969.8 420.7 L 973.8 459.0 L 975.8 497.0" stroke="green" stroke-width="2" fill="none" /><path d="M 963.8 501.0 L 966.2 539.6 L 963.9 578.9 L 952.3 616.4 L 940.7 651.7 L 928.1 688.5 L 911.0 722.6 L 890.1 756.1 L 870.3 788.9 L 843.7 816.8 L 816.4 844.8 L 788.8 869.7 L 757.0 892.0 L 724.3 911.4 L 689.0 928.4 L 651.9 940.2 L 616.2 954.6 L 577.4 963.0 L 538.7 966.4 L 499.5 968.1 L 460.3 966.4 L 421.2 961.8 L 384.1 954.1 L 346.5 941.3 L 309.9 925.8 L 274.8 909.2 L 240.5 890.6 L 208.2 867.5 L 180.4 840.7 L 152.0 812.8 L 127.9 782.3 L 106.2 750.0 L 84.9 716.5 L 69.3 680.8 L 55.6 644.6 L 45.5 606.2 L 37.9 567.8 L 30.2 529.9 L 33.0 491.0 L 34.3 452.0 L 42.1 413.6 L 48.6 375.5 L 60.2 339.0 L 75.7 303.3 L 93.0 268.5 L 113.8 235.6 L 136.2 204.3 L 160.6 177.1 L 188.3 150.3 L 218.0 125.4 L 250.0 103.4 L 282.9 84.2 L 318.9 67.7 L 354.5 55.6 L 391.5 44.4 L 430.0 38.7 L 469.4 33.8 L 508.1 30.9 L 547.5 34.2 L 584.0 38.1 L 620.8 46.3 L 658.2 56.6 L 693.0 72.3 L 727.7 90.6 L 760.3 110.7 L 792.0 133.4 L 819.8 159.0 L 846.3 185.9 L 870.4 216.2 L 893.9 247.3 L 914.2 281.6 L 931.6 315.7 L 943.9 351.8 L 954.8 390.1 L 961.7 428.4 L 967.9 467.3 L 963.8 501.0" stroke="purple" stroke-width="2" fill="none" /><path d="M 956.2 501.0 L 958.1 540.2 L 954.8 579.5 L 943.5 617.1 L 932.9 654.4 L 917.7 690.0 L 900.2 724.3 L 880.1 757.6 L 860.2 791.0 L 831.1 817.9 L 802.8 845.5 L 773.9 870.5 L 741.2 892.4 L 706.5 911.1 L 670.9 926.4 L 636.7 938.5 L 600.0 948.1 L 562.3 956.8 L 523.5 961.1 L 483.9 959.9 L 444.8 956.5 L 409.6 951.5 L 372.4 942.8 L 335.9 928.3 L 299.4 914.1 L 265.3 895.0 L 233.4 872.9 L 201.1 850.4 L 173.7 821.9 L 147.7 793.7 L 122.6 763.6 L 101.1 730.5 L 82.5 696.3 L 68.4 661.0 L 57.8 623.2 L 48.2 584.7 L 42.1 546.5 L 40.9 508.5 L 40.5 469.0 L 45.3 429.9 L 53.3 391.6 L 62.2 353.3 L 77.0 317.8 L 93.2 281.9 L 115.6 250.0 L 137.0 217.4 L 161.9 189.6 L 189.0 161.8 L 217.2 135.0 L 250.2 114.6 L 282.6 92.7 L 317.3 77.4 L 354.5 64.3 L 391.8 54.0 L 428.9 46.5 L 467.5 41.7 L 506.9 40.2 L 546.3 42.9 L 583.2 46.5 L 620.6 55.8 L 657.5 66.3 L 693.4 80.5 L 726.3 99.5 L 759.4 118.7 L 790.6 142.5 L 819.0 168.7 L 844.3 196.3 L 868.2 227.6 L 892.8 257.7 L 910.6 293.1 L 927.6 327.6 L 939.7 364.2 L 947.6 401.7 L 955.7 439.1 L 960.6 478.5" stroke="orange" stroke-width="2" fill="none" /><text x="10" y="25" font-family="Arial" font-size="16" fill="black">Distance: 8px, Segment: 4px, Error: 1.5 (Simplified)</text><text x="10" y="45" font-family="Arial" font-size="16" fill="black">Curves: 6 (Simplified)</text></svg>