<?xml version='1.0' encoding='utf-8'?>
<svg width="1200" height="1200" xmlns="http://www.w3.org/2000/svg" version="1.1"><rect width="1200" height="1200" fill="white" /><path d="M 1000.0 500.0 L 999.1 530.0 L 996.4 559.9 L 991.9 589.5 L 985.7 618.9 L 977.7 647.8 L 967.9 676.2 L 956.5 703.9 L 943.5 730.9 L 928.8 757.1 L 912.6 782.4 L 895.0 806.6 L 875.9 829.7 L 855.4 851.7 L 833.7 872.4 L 810.7 891.7 L 786.7 909.6 L 761.6 926.1 L 735.6 941.0 L 708.7 954.4 L 681.1 966.1 L 652.8 976.1 L 624.0 984.4 L 594.7 991.0 L 565.1 995.7 L 535.2 998.8 L 505.3 1000.0 L 475.3 999.4 L 445.3 997.0 L 415.6 992.8 L 386.2 986.9 L 357.2 979.2 L 328.8 969.8 L 300.9 958.6 L 273.7 945.9 L 247.4 931.5 L 222.0 915.6 L 197.6 898.2 L 174.2 879.3 L 152.1 859.1 L 131.2 837.6 L 111.6 814.8 L 93.4 791.0 L 76.7 766.1 L 61.5 740.2 L 47.9 713.5 L 35.9 686.0 L 25.5 657.8 L 16.9 629.0 L 10.1 599.8 L 5.0 570.3 L 1.6 540.5 L 0.1 510.5 L 0.4 480.5 L 2.4 450.6 L 6.3 420.8 L 11.9 391.4 L 19.3 362.3 L 28.5 333.7 L 39.3 305.7 L 51.8 278.4 L 65.9 252.0 L 81.5 226.4 L 98.7 201.8 L 117.3 178.2 L 137.3 155.8 L 158.6 134.7 L 181.1 114.9 L 204.8 96.5 L 229.5 79.5 L 255.2 64.0 L 281.8 50.1 L 309.2 37.8 L 337.2 27.2 L 365.9 18.3 L 395.0 11.1 L 424.5 5.7 L 454.3 2.1 L 484.2 0.2 L 514.3 0.2 L 544.2 2.0 L 574.0 5.5 L 603.5 10.8 L 632.7 17.9 L 661.3 26.7 L 689.4 37.3 L 716.8 49.5 L 743.5 63.3 L 769.2 78.7 L 794.0 95.6 L 817.7 113.9 L 840.3 133.7 L 861.7 154.8 L 881.7 177.1 L 900.4 200.6 L 917.7 225.1 L 933.4 250.6 L 947.6 277.1 L 960.1 304.3 L 971.0 332.3 L 980.2 360.8 L 987.7 389.9 L 993.5 419.3 L 997.4 449.1 L 999.6 479.0" stroke="black" stroke-width="2" fill="none" /><path d="M 994.2 500.1 L 993.3 530.1 L 989.3 559.8 L 983.2 589.2 L 974.5 617.9 L 963.7 645.9 L 950.6 672.8 L 935.3 698.6 L 918.0 723.1 L 898.9 746.2 L 877.8 767.6 L 855.1 787.2 L 830.9 804.9 L 805.3 820.5 L 778.5 834.0 L 750.7 845.1 L 722.0 853.9 L 692.7 860.3 L 662.9 864.2 L 633.0 865.5 L 603.0 864.2 L 573.3 860.3 L 544.0 853.9 L 515.4 844.9 L 487.6 833.5 L 461.1 819.6 L 435.9 803.3 L 412.3 784.7 L 390.6 764.1 L 370.8 741.5 L 353.4 717.1 L 338.4 691.1 L 326.0 663.8 L 316.4 635.4 L 309.7 606.2 L 306.1 576.4 L 305.6 546.4 L 308.3 516.5 L 314.3 487.2 L 323.6 458.6 L 336.0 431.3 L 351.5 405.7 L 369.8 382.0 L 391.0 360.7 L 414.6 342.2 L 440.3 326.8 L 467.7 314.7 L 496.5 306.3 L 526.2 301.7 L 556.1 301.2 L 585.9 304.6 L 615.0 311.9 L 642.8 323.1 L 669.6 336.6 L 696.4 350.1 L 723.2 363.6 L 750.0 377.1 L 776.8 390.6 L 803.6 404.1 L 830.4 417.6 L 857.1 431.1 L 883.9 444.6 L 910.7 458.1 L 937.5 471.6 L 964.3 485.1 L 991.1 498.6" stroke="blue" stroke-width="2" fill="none" /><path d="M 989.0 502.1 L 987.4 532.1 L 981.9 561.5 L 973.2 590.2 L 961.3 617.8 L 946.5 643.9 L 929.0 668.2 L 908.9 690.5 L 886.4 710.3 L 861.9 727.6 L 835.5 741.9 L 807.7 752.9 L 778.7 760.7 L 749.0 765.0 L 719.1 765.6 L 689.3 762.3 L 660.1 755.2 L 632.2 744.2 L 606.2 729.3 L 582.6 710.9 L 562.1 689.0 L 545.4 664.1 L 533.1 636.8 L 526.0 607.6 L 524.9 577.7 L 530.2 548.2 L 542.3 520.8 L 561.2 497.6 L 585.7 480.4 L 613.6 469.4 L 643.0 464.0 L 673.0 462.8 L 702.9 464.6 L 732.7 468.4 L 762.4 472.3 L 792.2 476.2 L 821.9 480.1 L 851.7 484.1 L 881.4 488.0 L 911.2 491.9 L 940.9 495.8 L 970.7 499.7" stroke="red" stroke-width="2" fill="none" /><path d="M 985.3 504.6 L 981.4 534.3 L 973.6 563.3 L 961.4 590.7 L 945.3 615.9 L 925.6 638.6 L 902.8 658.0 L 877.1 673.5 L 849.3 684.7 L 820.0 691.0 L 790.1 691.8 L 760.6 686.6 L 732.9 675.3 L 708.7 657.6 L 690.2 634.0 L 680.4 605.8 L 682.7 576.1 L 699.1 551.2 L 724.3 535.1 L 752.8 525.8 L 782.3 520.8 L 812.2 518.0 L 842.1 515.7 L 872.0 513.4 L 901.9 511.1 L 931.8 508.8 L 961.7 506.4" stroke="green" stroke-width="2" fill="none" /><path d="M 980.3 507.8 L 974.8 537.3 L 963.6 565.1 L 947.0 590.0 L 925.6 611.0 L 900.2 626.9 L 871.8 636.4 L 842.0 637.6 L 813.4 628.8 L 791.3 608.9 L 785.5 580.1 L 803.2 556.5 L 829.9 543.0 L 858.7 534.6 L 888.0 528.2 L 917.3 521.7 L 946.6 515.3 L 975.9 508.8" stroke="purple" stroke-width="2" fill="none" /><path d="M 975.2 510.8 L 967.0 539.6 L 951.7 565.3 L 929.8 585.7 L 902.5 597.7 L 872.9 595.9 L 852.2 575.3 L 867.3 551.0 L 894.5 538.4 L 922.9 528.6 L 951.3 518.9" stroke="orange" stroke-width="2" fill="none" /><text x="10" y="25" font-family="Arial" font-size="16" fill="black">Distance: 5px, Segment: 3px, Error: 1.0 (Simplified)</text><text x="10" y="45" font-family="Arial" font-size="16" fill="black">Curves: 6 (Simplified)</text></svg>