<?xml version='1.0' encoding='utf-8'?>
<svg width="1200" height="1200" xmlns="http://www.w3.org/2000/svg" version="1.1"><rect width="1200" height="1200" fill="white" /><path d="M 1000.0 500.0 L 999.1 530.0 L 996.4 559.9 L 991.9 589.5 L 985.7 618.9 L 977.7 647.8 L 967.9 676.2 L 956.5 703.9 L 943.5 730.9 L 928.8 757.1 L 912.6 782.4 L 895.0 806.6 L 875.9 829.7 L 855.4 851.7 L 833.7 872.4 L 810.7 891.7 L 786.7 909.6 L 761.6 926.1 L 735.6 941.0 L 708.7 954.4 L 681.1 966.1 L 652.8 976.1 L 624.0 984.4 L 594.7 991.0 L 565.1 995.7 L 535.2 998.8 L 505.3 1000.0 L 475.3 999.4 L 445.3 997.0 L 415.6 992.8 L 386.2 986.9 L 357.2 979.2 L 328.8 969.8 L 300.9 958.6 L 273.7 945.9 L 247.4 931.5 L 222.0 915.6 L 197.6 898.2 L 174.2 879.3 L 152.1 859.1 L 131.2 837.6 L 111.6 814.8 L 93.4 791.0 L 76.7 766.1 L 61.5 740.2 L 47.9 713.5 L 35.9 686.0 L 25.5 657.8 L 16.9 629.0 L 10.1 599.8 L 5.0 570.3 L 1.6 540.5 L 0.1 510.5 L 0.4 480.5 L 2.4 450.6 L 6.3 420.8 L 11.9 391.4 L 19.3 362.3 L 28.5 333.7 L 39.3 305.7 L 51.8 278.4 L 65.9 252.0 L 81.5 226.4 L 98.7 201.8 L 117.3 178.2 L 137.3 155.8 L 158.6 134.7 L 181.1 114.9 L 204.8 96.5 L 229.5 79.5 L 255.2 64.0 L 281.8 50.1 L 309.2 37.8 L 337.2 27.2 L 365.9 18.3 L 395.0 11.1 L 424.5 5.7 L 454.3 2.1 L 484.2 0.2 L 514.3 0.2 L 544.2 2.0 L 574.0 5.5 L 603.5 10.8 L 632.7 17.9 L 661.3 26.7 L 689.4 37.3 L 716.8 49.5 L 743.5 63.3 L 769.2 78.7 L 794.0 95.6 L 817.7 113.9 L 840.3 133.7 L 861.7 154.8 L 881.7 177.1 L 900.4 200.6 L 917.7 225.1 L 933.4 250.6 L 947.6 277.1 L 960.1 304.3 L 971.0 332.3 L 980.2 360.8 L 987.7 389.9 L 993.5 419.3 L 997.4 449.1 L 999.6 479.0" stroke="black" stroke-width="2" fill="none" /><path d="M 996.3 500.0 L 993.4 549.8 L 985.1 599.2 L 972.2 647.4 L 954.2 694.1 L 931.8 738.7 L 904.7 780.7 L 873.3 819.6 L 838.0 855.0 L 799.3 886.7 L 757.5 914.0 L 713.0 936.9 L 666.5 955.1 L 618.2 968.2 L 568.9 976.2 L 519.0 979.0 L 469.1 976.5 L 419.7 968.8 L 371.4 955.9 L 324.8 937.9 L 280.3 915.0 L 238.6 887.6 L 200.0 855.8 L 165.1 820.0 L 134.2 780.7 L 107.8 738.3 L 86.1 693.3 L 69.4 646.2 L 58.0 597.5 L 52.0 547.9 L 51.5 497.9 L 56.6 448.2 L 67.1 399.3 L 82.9 351.9 L 104.0 306.6 L 130.0 263.9 L 160.6 224.4 L 195.5 188.6 L 234.2 157.0 L 276.2 129.9 L 321.0 107.8 L 368.1 91.0 L 416.8 79.7 L 466.4 74.1 L 516.4 74.2 L 566.0 80.1 L 614.7 91.7 L 661.6 108.9 L 706.2 131.4 L 747.9 159.0 L 786.1 191.2 L 820.2 227.7 L 849.8 268.0 L 876.5 310.3 L 903.2 352.6 L 929.9 394.8 L 956.6 437.1 L 983.3 479.4" stroke="blue" stroke-width="2" fill="none" /><path d="M 992.4 500.2 L 987.5 549.9 L 976.0 598.5 L 958.1 645.2 L 933.8 688.8 L 903.6 728.7 L 868.2 763.9 L 828.0 793.6 L 784.1 817.4 L 737.1 834.4 L 688.1 844.4 L 638.2 847.0 L 588.5 841.9 L 540.2 829.2 L 494.5 809.1 L 452.7 781.7 L 416.0 747.8 L 385.7 708.1 L 362.9 663.7 L 348.7 615.8 L 343.9 566.1 L 349.2 516.4 L 364.7 469.0 L 390.2 426.1 L 425.0 390.3 L 467.4 364.0 L 515.1 349.3 L 565.0 347.2 L 614.1 356.4 L 661.1 373.4 L 707.8 391.2 L 754.5 409.1 L 801.2 427.0 L 847.9 444.9 L 894.6 462.7 L 941.3 480.6 L 988.0 498.5" stroke="red" stroke-width="2" fill="none" /><path d="M 988.3 501.0 L 981.2 550.4 L 965.1 597.7 L 940.6 641.2 L 908.2 679.3 L 869.1 710.3 L 824.6 733.0 L 776.4 746.0 L 726.6 748.4 L 677.5 739.3 L 632.1 718.6 L 593.7 686.7 L 566.4 645.0 L 554.5 596.7 L 562.4 547.6 L 592.7 508.4 L 637.7 487.2 L 687.2 480.5 L 737.1 482.4 L 787.0 486.1 L 836.8 489.8 L 886.7 493.5 L 936.6 497.2 L 986.4 500.9" stroke="green" stroke-width="2" fill="none" /><path d="M 984.7 502.8 L 974.1 551.5 L 951.8 596.2 L 918.9 633.7 L 877.1 661.0 L 829.3 675.1 L 779.6 672.7 L 734.6 651.6 L 705.4 611.6 L 710.7 563.2 L 751.0 534.7 L 799.6 523.2 L 849.3 517.7 L 899.0 512.2 L 948.7 506.7" stroke="purple" stroke-width="2" fill="none" /><path d="M 981.4 504.7 L 966.0 552.1 L 935.7 591.6 L 893.1 617.4 L 843.7 620.6 L 804.2 591.9 L 821.1 549.3 L 867.9 531.9 L 916.5 520.3 L 965.1 508.6" stroke="orange" stroke-width="2" fill="none" /><text x="10" y="25" font-family="Arial" font-size="16" fill="black">Distance: 4px, Segment: 5px, Error: 0.3 (Simplified)</text><text x="10" y="45" font-family="Arial" font-size="16" fill="black">Curves: 6 (Simplified)</text></svg>