<?xml version='1.0' encoding='utf-8'?>
<svg width="1200" height="1200" xmlns="http://www.w3.org/2000/svg" version="1.1"><rect width="1200" height="1200" fill="white" /><path d="M 1000.0 500.0 L 999.1 530.0 L 996.4 559.9 L 991.9 589.5 L 985.7 618.9 L 977.7 647.8 L 967.9 676.2 L 956.5 703.9 L 943.5 730.9 L 928.8 757.1 L 912.6 782.4 L 895.0 806.6 L 875.9 829.7 L 855.4 851.7 L 833.7 872.4 L 810.7 891.7 L 786.7 909.6 L 761.6 926.1 L 735.6 941.0 L 708.7 954.4 L 681.1 966.1 L 652.8 976.1 L 624.0 984.4 L 594.7 991.0 L 565.1 995.7 L 535.2 998.8 L 505.3 1000.0 L 475.3 999.4 L 445.3 997.0 L 415.6 992.8 L 386.2 986.9 L 357.2 979.2 L 328.8 969.8 L 300.9 958.6 L 273.7 945.9 L 247.4 931.5 L 222.0 915.6 L 197.6 898.2 L 174.2 879.3 L 152.1 859.1 L 131.2 837.6 L 111.6 814.8 L 93.4 791.0 L 76.7 766.1 L 61.5 740.2 L 47.9 713.5 L 35.9 686.0 L 25.5 657.8 L 16.9 629.0 L 10.1 599.8 L 5.0 570.3 L 1.6 540.5 L 0.1 510.5 L 0.4 480.5 L 2.4 450.6 L 6.3 420.8 L 11.9 391.4 L 19.3 362.3 L 28.5 333.7 L 39.3 305.7 L 51.8 278.4 L 65.9 252.0 L 81.5 226.4 L 98.7 201.8 L 117.3 178.2 L 137.3 155.8 L 158.6 134.7 L 181.1 114.9 L 204.8 96.5 L 229.5 79.5 L 255.2 64.0 L 281.8 50.1 L 309.2 37.8 L 337.2 27.2 L 365.9 18.3 L 395.0 11.1 L 424.5 5.7 L 454.3 2.1 L 484.2 0.2 L 514.3 0.2 L 544.2 2.0 L 574.0 5.5 L 603.5 10.8 L 632.7 17.9 L 661.3 26.7 L 689.4 37.3 L 716.8 49.5 L 743.5 63.3 L 769.2 78.7 L 794.0 95.6 L 817.7 113.9 L 840.3 133.7 L 861.7 154.8 L 881.7 177.1 L 900.4 200.6 L 917.7 225.1 L 933.4 250.6 L 947.6 277.1 L 960.1 304.3 L 971.0 332.3 L 980.2 360.8 L 987.7 389.9 L 993.5 419.3 L 997.4 449.1 L 999.6 479.0" stroke="black" stroke-width="2" fill="none" /><path d="M 991.0 499.8 L 989.6 519.8 L 987.1 539.6 L 983.4 559.3 L 978.0 578.5 L 971.5 597.4 L 963.4 615.7 L 954.0 633.4 L 943.4 650.3 L 931.6 666.5 L 918.7 681.7 L 904.7 696.0 L 889.7 709.2 L 873.8 721.3 L 857.0 732.2 L 839.4 741.8 L 821.3 750.1 L 802.5 756.9 L 783.2 762.3 L 763.6 766.3 L 743.8 768.7 L 723.8 769.6 L 703.8 768.9 L 683.9 766.7 L 664.3 763.0 L 645.0 757.6 L 626.3 750.7 L 608.1 742.2 L 590.7 732.4 L 574.2 721.1 L 558.8 708.4 L 544.5 694.5 L 531.4 679.3 L 519.8 663.1 L 509.6 645.8 L 501.2 627.7 L 494.6 608.8 L 489.9 589.4 L 487.3 569.6 L 486.7 549.6 L 488.3 529.6 L 492.1 510.0 L 498.2 491.0 L 506.5 472.8 L 517.1 455.9 L 529.9 440.5 L 544.6 426.9 L 561.1 415.6 L 579.1 406.9 L 598.1 401.0 L 617.9 398.3 L 637.9 398.7 L 657.5 402.5 L 676.7 408.1 L 695.9 413.7 L 715.1 419.3 L 734.3 424.9 L 753.5 430.5 L 772.7 436.1 L 791.9 441.7 L 811.1 447.3 L 830.3 452.9 L 849.5 458.5 L 868.7 464.1 L 887.9 469.7 L 907.1 475.3 L 926.3 480.9 L 945.5 486.5 L 964.7 492.1 L 983.9 497.7" stroke="blue" stroke-width="2" fill="none" /><path d="M 980.7 502.6 L 979.6 522.5 L 976.5 542.3 L 970.9 561.4 L 963.5 580.0 L 954.3 597.7 L 943.4 614.5 L 930.9 630.1 L 916.8 644.3 L 901.4 657.0 L 884.8 668.2 L 867.1 677.6 L 848.7 685.2 L 829.4 690.8 L 809.8 694.3 L 789.8 695.5 L 769.9 694.4 L 750.2 690.8 L 731.1 685.0 L 712.9 676.6 L 696.0 666.0 L 680.7 653.1 L 667.6 638.0 L 657.1 621.0 L 649.8 602.4 L 646.1 582.8 L 646.9 562.8 L 652.8 543.7 L 663.7 527.1 L 678.7 513.9 L 696.5 504.7 L 715.6 498.9 L 735.3 495.5 L 755.2 494.1 L 775.2 493.9 L 795.2 494.8 L 815.2 495.6 L 835.2 496.4 L 855.2 497.3 L 875.1 498.1 L 895.1 499.0 L 915.1 499.8 L 935.1 500.6 L 955.1 501.5 L 975.1 502.3" stroke="red" stroke-width="2" fill="none" /><path d="M 970.1 508.7 L 968.4 528.6 L 963.2 547.9 L 955.5 566.3 L 945.2 583.4 L 932.7 599.0 L 917.9 612.4 L 901.5 623.8 L 883.7 633.0 L 864.8 639.4 L 845.1 642.6 L 825.1 642.4 L 805.5 638.5 L 787.2 630.4 L 771.5 618.2 L 759.9 602.0 L 754.6 582.8 L 758.3 563.2 L 770.7 547.7 L 788.0 537.7 L 806.8 531.1 L 826.3 526.6 L 846.0 523.4 L 865.9 521.0 L 885.8 518.7 L 905.6 516.3 L 925.5 514.0 L 945.3 511.6 L 965.2 509.3" stroke="green" stroke-width="2" fill="none" /><path d="M 962.9 512.5 L 959.0 532.1 L 951.0 550.4 L 939.6 566.8 L 925.9 581.4 L 909.5 592.8 L 891.3 601.0 L 871.6 604.3 L 851.8 601.7 L 834.8 591.6 L 825.8 574.2 L 832.9 556.0 L 850.0 545.7 L 868.5 538.3 L 887.8 533.0 L 907.1 527.8 L 926.4 522.5 L 945.7 517.2" stroke="purple" stroke-width="2" fill="none" /><path d="M 954.9 518.3 L 947.9 536.9 L 936.3 553.1 L 921.8 566.9 L 904.0 575.9 L 884.2 576.6 L 869.7 564.0 L 881.2 549.9 L 898.9 540.6 L 917.3 532.9 L 936.0 525.7 L 954.6 518.4" stroke="orange" stroke-width="2" fill="none" /><text x="10" y="25" font-family="Arial" font-size="16" fill="black">Distance: 10px, Segment: 2px, Error: 2.0 (Simplified)</text><text x="10" y="45" font-family="Arial" font-size="16" fill="black">Curves: 6 (Simplified)</text></svg>