<?xml version='1.0' encoding='utf-8'?>
<svg width="1200" height="1200" xmlns="http://www.w3.org/2000/svg" version="1.1"><rect width="1200" height="1200" fill="white" /><path d="M 1000.0 500.0 L 999.1 530.0 L 996.4 559.9 L 991.9 589.5 L 985.7 618.9 L 977.7 647.8 L 967.9 676.2 L 956.5 703.9 L 943.5 730.9 L 928.8 757.1 L 912.6 782.4 L 895.0 806.6 L 875.9 829.7 L 855.4 851.7 L 833.7 872.4 L 810.7 891.7 L 786.7 909.6 L 761.6 926.1 L 735.6 941.0 L 708.7 954.4 L 681.1 966.1 L 652.8 976.1 L 624.0 984.4 L 594.7 991.0 L 565.1 995.7 L 535.2 998.8 L 505.3 1000.0 L 475.3 999.4 L 445.3 997.0 L 415.6 992.8 L 386.2 986.9 L 357.2 979.2 L 328.8 969.8 L 300.9 958.6 L 273.7 945.9 L 247.4 931.5 L 222.0 915.6 L 197.6 898.2 L 174.2 879.3 L 152.1 859.1 L 131.2 837.6 L 111.6 814.8 L 93.4 791.0 L 76.7 766.1 L 61.5 740.2 L 47.9 713.5 L 35.9 686.0 L 25.5 657.8 L 16.9 629.0 L 10.1 599.8 L 5.0 570.3 L 1.6 540.5 L 0.1 510.5 L 0.4 480.5 L 2.4 450.6 L 6.3 420.8 L 11.9 391.4 L 19.3 362.3 L 28.5 333.7 L 39.3 305.7 L 51.8 278.4 L 65.9 252.0 L 81.5 226.4 L 98.7 201.8 L 117.3 178.2 L 137.3 155.8 L 158.6 134.7 L 181.1 114.9 L 204.8 96.5 L 229.5 79.5 L 255.2 64.0 L 281.8 50.1 L 309.2 37.8 L 337.2 27.2 L 365.9 18.3 L 395.0 11.1 L 424.5 5.7 L 454.3 2.1 L 484.2 0.2 L 514.3 0.2 L 544.2 2.0 L 574.0 5.5 L 603.5 10.8 L 632.7 17.9 L 661.3 26.7 L 689.4 37.3 L 716.8 49.5 L 743.5 63.3 L 769.2 78.7 L 794.0 95.6 L 817.7 113.9 L 840.3 133.7 L 861.7 154.8 L 881.7 177.1 L 900.4 200.6 L 917.7 225.1 L 933.4 250.6 L 947.6 277.1 L 960.1 304.3 L 971.0 332.3 L 980.2 360.8 L 987.7 389.9 L 993.5 419.3 L 997.4 449.1 L 999.6 479.0" stroke="black" stroke-width="2" fill="none" /><path d="M 993.7 500.4 L 989.5 538.9 L 986.1 572.7 L 979.7 609.3 L 970.3 645.6 L 959.0 677.2 L 943.6 712.8 L 927.1 742.2 L 907.5 775.2 L 889.8 803.1 L 866.7 831.8 L 840.5 853.4 L 815.1 878.9 L 787.1 899.9 L 757.4 921.1 L 725.9 934.0 L 692.6 951.0 L 661.7 965.7 L 629.5 974.5 L 594.4 985.3 L 556.7 990.1 L 520.0 989.5 L 481.7 990.4 L 443.6 989.0 L 405.4 983.3 L 370.4 975.3 L 336.9 963.0 L 303.7 949.2 L 267.7 934.5 L 237.4 915.1 L 207.5 893.8 L 177.6 872.7 L 150.3 845.4 L 126.9 819.3 L 101.8 791.6 L 83.6 761.3 L 64.1 729.6 L 46.7 695.6 L 36.3 659.2 L 23.3 627.2 L 14.7 592.7 L 12.9 558.0 L 9.8 522.6 L 8.6 485.3 L 10.7 447.5 L 14.4 410.5 L 25.5 377.7 L 34.6 339.1 L 45.1 304.3 L 61.8 275.3 L 78.1 244.4 L 99.0 215.7 L 122.7 184.2 L 146.3 157.6 L 172.3 129.1 L 202.9 109.7 L 231.6 88.5 L 261.3 71.0 L 295.3 52.0 L 331.3 41.0 L 366.2 28.7 L 398.6 20.4 L 432.1 12.1 L 470.2 7.3 L 507.4 9.2 L 542.2 10.4 L 580.1 14.2 L 617.6 22.3 L 652.9 30.7 L 685.7 44.3 L 717.4 56.1 L 750.2 74.4 L 777.4 95.4 L 807.9 117.2 L 834.2 139.8 L 859.6 167.7 L 885.8 193.8 L 906.6 227.3 L 927.5 257.3 L 942.3 288.5 L 959.9 319.8 L 969.4 350.8 L 977.9 387.1 L 987.0 425.4 L 992.8 461.9 L 993.3 499.8" stroke="blue" stroke-width="2" fill="none" /><path d="M 986.9 502.9 L 983.1 541.9 L 977.4 579.3 L 970.0 615.1 L 958.9 648.0 L 948.1 680.5 L 936.4 713.3 L 918.2 741.1 L 901.3 773.4 L 883.9 799.2 L 859.2 826.3 L 832.6 851.2 L 808.9 874.5 L 779.6 894.2 L 751.9 914.7 L 719.7 931.1 L 690.3 947.9 L 661.3 957.1 L 624.1 966.5 L 589.6 976.3 L 554.2 982.1 L 519.2 984.2 L 483.1 981.7 L 449.4 983.3 L 412.7 978.7 L 377.2 967.8 L 342.8 957.8 L 310.7 942.1 L 274.7 928.9 L 244.3 910.0 L 216.2 891.2 L 192.2 869.9 L 164.6 850.5 L 137.8 823.0 L 115.5 794.1 L 98.6 764.6 L 75.9 742.8 L 67.3 707.5 L 50.7 677.1 L 40.3 645.7 L 32.1 613.0 L 25.9 582.8 L 16.2 547.8 L 19.5 510.8 L 18.6 474.5 L 20.3 436.2 L 24.1 402.4 L 32.2 375.9 L 42.7 344.6 L 51.4 310.7 L 69.2 281.5 L 85.3 250.9 L 103.3 221.5 L 126.9 193.6 L 150.3 167.2 L 176.4 138.1 L 200.0 117.9 L 231.6 99.0 L 262.9 78.4 L 293.0 61.3 L 326.2 51.1 L 361.8 39.0 L 395.4 27.1 L 428.8 21.3 L 465.0 17.1 L 496.3 16.9 L 531.5 14.9 L 569.1 18.3 L 604.5 26.7 L 639.7 38.5 L 668.6 46.3 L 703.9 59.0 L 736.4 79.3 L 767.8 97.6 L 800.4 117.5 L 823.9 140.6 L 851.8 167.1 L 878.0 195.3 L 897.8 226.2 L 918.8 255.5 L 933.2 282.7 L 950.1 316.3 L 957.3 353.5 L 969.9 382.7 L 978.2 420.9 L 982.1 456.0 L 982.3 493.5" stroke="red" stroke-width="2" fill="none" /><path d="M 977.7 505.5 L 973.7 542.7 L 970.6 573.8 L 962.1 608.4 L 952.5 645.8 L 941.8 681.4 L 925.3 712.7 L 913.0 740.1 L 892.4 767.9 L 872.2 795.2 L 846.8 822.3 L 821.0 846.2 L 802.5 870.0 L 771.2 889.1 L 744.3 911.9 L 712.9 925.4 L 683.2 941.4 L 653.3 951.9 L 616.6 960.1 L 586.1 965.4 L 549.9 973.9 L 512.6 976.7 L 481.7 973.8 L 445.2 975.2 L 410.1 968.2 L 375.5 958.6 L 340.9 947.1 L 310.7 932.2 L 275.9 919.2 L 243.7 903.6 L 219.5 885.1 L 196.6 858.5 L 167.1 840.5 L 144.0 815.8 L 119.3 785.5 L 102.9 760.6 L 82.2 737.4 L 74.9 702.7 L 60.4 673.3 L 45.9 644.3 L 39.3 608.2 L 33.5 576.0 L 23.8 541.0 L 27.5 506.2 L 29.9 471.6 L 30.0 434.9 L 35.2 402.0 L 44.0 371.4 L 51.0 334.0 L 63.9 308.8 L 78.9 277.1 L 94.0 246.8 L 111.5 222.8 L 135.3 196.8 L 160.1 169.1 L 180.7 145.6 L 210.4 123.3 L 239.9 105.7 L 268.0 87.6 L 299.9 66.7 L 331.6 55.9 L 365.1 45.2 L 401.2 35.0 L 431.1 26.9 L 468.4 23.6 L 502.8 24.7 L 536.4 22.1 L 571.8 29.1 L 603.7 32.0 L 638.0 46.3 L 660.2 55.8 L 696.9 65.6 L 729.2 81.6 L 758.1 102.2 L 790.6 121.3 L 817.0 145.5 L 840.2 173.2 L 864.6 194.1 L 886.0 221.7 L 907.9 252.5 L 921.1 281.2 L 938.6 315.0 L 949.3 353.1 L 964.9 383.4 L 969.5 421.3 L 974.7 457.6 L 974.9 492.8" stroke="green" stroke-width="2" fill="none" /><path d="M 970.8 502.7 L 966.1 540.0 L 963.9 571.1 L 954.4 607.9 L 945.0 643.7 L 934.5 678.2 L 915.1 710.7 L 903.5 742.3 L 884.8 770.5 L 860.6 794.9 L 840.1 820.7 L 814.3 843.3 L 793.5 864.0 L 764.2 885.4 L 739.0 903.6 L 707.5 920.2 L 676.5 937.1 L 648.1 944.9 L 615.0 955.0 L 584.2 960.3 L 549.0 965.8 L 511.3 967.1 L 479.4 966.1 L 445.3 965.1 L 408.9 956.0 L 371.9 951.4 L 338.8 939.5 L 308.8 925.6 L 277.8 911.8 L 246.2 894.7 L 222.5 873.5 L 200.5 850.6 L 171.5 831.7 L 146.6 806.3 L 126.4 774.1 L 103.9 751.3 L 88.5 723.0 L 72.3 692.1 L 61.3 661.4 L 46.6 628.9 L 38.7 594.1 L 34.3 563.8 L 35.7 529.1 L 30.0 491.1 L 33.7 458.3 L 36.9 421.4 L 44.1 391.3 L 53.6 357.8 L 61.9 327.4 L 74.0 302.8 L 91.1 270.9 L 103.2 247.1 L 124.1 219.1 L 147.9 193.2 L 171.5 163.3 L 194.7 143.9 L 222.6 120.3 L 255.4 104.8 L 284.2 86.3 L 315.8 67.5 L 348.7 59.0 L 381.9 45.0 L 415.8 39.2 L 452.0 31.0 L 484.5 36.6 L 515.2 30.1 L 550.8 33.6 L 585.4 39.1 L 621.2 48.8 L 649.7 56.3 L 683.6 71.3 L 716.7 85.4 L 749.0 105.6 L 782.0 124.0 L 809.3 147.3 L 834.5 175.4 L 858.0 197.4 L 877.9 226.6 L 899.7 255.7 L 914.8 284.9 L 933.0 316.3 L 941.0 352.8 L 957.0 383.7 L 962.1 421.0 L 964.6 455.6 L 964.2 491.1" stroke="purple" stroke-width="2" fill="none" /><path d="M 960.0 504.1 L 959.8 535.3 L 954.7 573.4 L 947.1 606.6 L 937.7 643.2 L 927.3 675.1 L 910.2 704.9 L 895.6 737.6 L 877.1 769.7 L 852.3 794.9 L 830.3 817.7 L 810.6 837.3 L 787.0 862.2 L 756.9 879.9 L 728.5 901.4 L 694.9 916.5 L 668.8 933.7 L 639.6 939.1 L 606.6 947.0 L 574.4 957.2 L 542.3 961.5 L 506.6 959.0 L 469.2 956.4 L 437.7 957.2 L 404.4 950.6 L 371.2 941.6 L 338.3 933.2 L 304.5 915.1 L 272.8 898.2 L 242.6 884.5 L 225.3 861.6 L 198.5 844.3 L 171.0 822.0 L 149.1 791.9 L 122.7 765.6 L 107.6 742.4 L 90.4 711.7 L 78.2 682.4 L 67.5 655.5 L 54.1 626.2 L 46.8 594.4 L 43.7 563.8 L 43.2 527.6 L 39.6 491.9 L 42.0 458.0 L 43.6 420.3 L 54.6 391.3 L 61.8 359.5 L 73.0 324.3 L 87.5 294.9 L 102.8 265.6 L 120.1 234.2 L 147.5 208.5 L 168.3 179.8 L 188.3 154.6 L 218.2 138.7 L 243.5 122.1 L 272.4 99.6 L 304.8 85.3 L 335.3 77.1 L 363.8 64.4 L 396.1 52.7 L 434.6 45.7 L 468.7 42.1 L 499.7 40.9 L 536.9 40.8 L 570.1 45.2 L 601.5 52.7 L 637.8 59.7 L 666.3 72.5 L 701.1 88.3 L 736.1 105.9 L 766.9 125.5 L 792.2 149.0 L 818.7 173.8 L 849.3 195.0 L 870.2 226.5 L 890.6 257.9 L 908.0 286.7 L 928.0 318.6 L 934.4 353.0 L 946.4 383.6 L 953.5 415.6 L 957.2 454.4 L 957.4 492.3" stroke="orange" stroke-width="2" fill="none" /><path d="M 949.3 507.0 L 951.0 538.9 L 945.0 576.0 L 937.2 612.9 L 927.8 648.7 L 914.5 679.1 L 901.2 714.3 L 879.1 743.9 L 858.5 768.5 L 843.3 802.8 L 824.1 822.0 L 797.2 836.7 L 772.4 862.2 L 745.3 885.7 L 710.3 901.6 L 682.3 911.5 L 659.0 923.4 L 623.8 933.5 L 588.6 943.3 L 559.4 947.9 L 523.2 949.6 L 487.2 953.3 L 454.4 948.3 L 415.9 947.4 L 382.7 936.9 L 352.7 924.1 L 319.2 911.2 L 285.2 896.1 L 251.6 882.0 L 231.5 862.8 L 206.1 839.9 L 182.7 820.4 L 157.9 794.8 L 139.3 766.9 L 119.3 742.6 L 98.6 715.2 L 87.1 686.3 L 75.5 654.9 L 62.2 624.3 L 56.4 592.0 L 50.4 558.3 L 55.2 520.7 L 47.6 486.5 L 48.1 453.0 L 50.6 419.9 L 61.6 386.0 L 71.4 357.4 L 82.1 322.7 L 93.9 293.0 L 114.2 265.1 L 129.3 232.6 L 155.5 213.1 L 171.1 187.8 L 196.5 162.0 L 224.2 140.2 L 254.7 122.8 L 283.6 104.1 L 315.2 88.0 L 344.8 77.9 L 375.8 61.9 L 411.0 54.7 L 445.5 48.3 L 483.0 51.8 L 516.7 50.7 L 551.1 50.0 L 580.4 58.6 L 612.4 63.0 L 642.1 73.9 L 678.6 85.8 L 712.2 99.6 L 744.5 118.5 L 775.3 135.1 L 795.1 159.1 L 821.9 183.1 L 849.7 206.9 L 868.1 236.7 L 885.6 266.0 L 904.2 296.6 L 924.0 325.4 L 929.4 359.7 L 944.1 389.8 L 947.0 423.8 L 950.7 461.8 L 952.4 496.0" stroke="brown" stroke-width="2" fill="none" /><path d="M 942.8 508.2 L 941.1 538.6 L 938.0 576.4 L 927.3 612.0 L 919.0 643.2 L 907.4 681.0 L 891.5 713.8 L 871.2 741.3 L 849.0 767.3 L 832.5 797.4 L 810.9 813.9 L 788.5 835.1 L 763.2 860.0 L 736.1 880.5 L 705.2 894.8 L 674.2 907.4 L 650.0 919.0 L 613.6 926.0 L 583.9 937.9 L 549.8 938.7 L 514.4 944.0 L 475.2 944.7 L 438.5 942.3 L 409.4 931.2 L 377.2 924.1 L 344.3 917.5 L 314.2 898.1 L 284.1 887.4 L 253.0 872.7 L 228.8 847.5 L 200.0 831.7 L 183.8 806.3 L 160.8 779.9 L 137.0 756.3 L 121.1 730.5 L 107.5 703.1 L 92.5 672.1 L 81.4 646.8 L 67.5 614.4 L 63.3 580.5 L 61.4 543.6 L 60.2 508.0 L 61.6 473.2 L 62.7 438.2 L 68.5 406.4 L 74.6 377.0 L 84.6 343.6 L 100.3 309.1 L 120.3 279.1 L 130.0 248.6 L 154.8 221.0 L 175.5 199.0 L 195.4 172.5 L 223.0 150.2 L 249.2 136.7 L 280.3 118.3 L 308.3 100.4 L 339.8 90.6 L 373.2 75.0 L 408.2 63.9 L 446.3 56.7 L 482.5 58.3 L 512.3 57.0 L 548.1 56.2 L 581.6 63.2 L 615.9 72.5 L 646.4 85.1 L 682.2 94.6 L 714.3 109.0 L 744.6 129.3 L 776.7 145.6 L 795.7 174.5 L 824.1 194.5 L 842.2 219.7 L 862.6 247.0 L 884.0 279.9 L 902.0 309.0 L 912.3 336.6 L 924.9 367.3 L 932.8 405.0 L 938.0 440.6 L 944.1 476.5 L 942.8 508.2" stroke="pink" stroke-width="2" fill="none" /><path d="M 934.5 508.4 L 931.6 544.4 L 929.5 582.0 L 918.2 616.0 L 908.5 645.5 L 900.6 678.0 L 881.0 710.1 L 861.6 740.7 L 843.0 764.4 L 826.2 792.5 L 808.2 808.6 L 782.0 826.8 L 763.6 848.1 L 737.4 871.1 L 705.6 885.0 L 681.8 889.1 L 654.9 910.1 L 620.0 919.4 L 590.7 925.4 L 558.7 929.3 L 523.0 933.6 L 487.4 937.7 L 450.8 935.3 L 419.7 929.4 L 388.7 918.7 L 354.2 911.6 L 322.9 893.3 L 290.9 880.1 L 258.6 866.6 L 231.1 839.5 L 208.0 820.7 L 183.0 796.6 L 162.9 771.1 L 140.7 747.0 L 123.0 720.9 L 112.7 688.8 L 89.4 659.3 L 82.3 627.3 L 79.9 593.2 L 66.2 567.6 L 65.1 530.2 L 67.9 494.7 L 67.2 459.0 L 65.3 425.4 L 76.8 395.4 L 83.9 362.8 L 98.5 328.0 L 115.2 296.3 L 131.1 264.4 L 154.1 235.1 L 172.9 208.6 L 196.8 182.4 L 223.2 161.3 L 250.6 144.7 L 281.5 122.9 L 311.3 106.9 L 343.3 97.1 L 375.7 82.8 L 408.8 74.0 L 443.8 63.8 L 479.7 67.9 L 516.7 63.4 L 553.5 68.8 L 587.3 69.0 L 621.6 84.9 L 656.2 97.3 L 688.1 100.4 L 713.9 121.2 L 744.7 141.4 L 771.7 157.4 L 795.1 187.3 L 824.0 205.1 L 844.2 231.7 L 864.8 260.9 L 882.7 293.8 L 895.0 319.8 L 909.5 345.3 L 918.7 378.6 L 929.4 412.5 L 932.5 447.9 L 935.6 485.4" stroke="black" stroke-width="2" fill="none" /><path d="M 929.4 510.9 L 923.7 544.4 L 920.0 581.8 L 907.2 615.4 L 901.0 651.7 L 888.1 685.8 L 870.1 717.1 L 854.5 746.6 L 832.5 773.7 L 811.2 793.5 L 788.1 816.8 L 767.2 830.1 L 743.7 854.4 L 713.5 875.0 L 683.3 888.8 L 658.4 899.9 L 624.3 912.7 L 589.7 915.6 L 556.3 920.7 L 518.5 929.8 L 482.1 928.8 L 446.4 925.8 L 416.7 916.3 L 381.1 910.7 L 347.7 900.9 L 317.7 887.0 L 291.4 867.0 L 257.2 856.3 L 231.8 826.8 L 205.9 808.9 L 182.1 784.1 L 161.3 755.7 L 140.4 727.4 L 118.1 697.7 L 108.8 666.2 L 96.7 636.7 L 83.9 603.1 L 79.9 578.1 L 74.5 541.5 L 76.4 509.8 L 78.8 475.0 L 79.8 445.1 L 82.1 409.4 L 89.6 382.1 L 97.5 347.9 L 114.5 317.6 L 128.6 287.1 L 143.2 252.5 L 169.4 229.8 L 191.9 203.9 L 217.2 176.7 L 239.1 154.6 L 271.5 140.2 L 302.2 123.6 L 330.3 108.0 L 363.7 98.3 L 398.7 84.7 L 435.8 77.3 L 470.7 77.1 L 506.8 69.6 L 541.1 70.4 L 574.6 78.0 L 611.3 82.2 L 643.9 99.1 L 679.2 109.5 L 707.4 124.6 L 738.4 146.4 L 767.9 161.4 L 784.5 188.6 L 811.6 206.7 L 834.6 232.8 L 853.2 262.6 L 874.8 293.8 L 888.1 322.5 L 901.8 348.6 L 912.8 378.8 L 920.1 412.6 L 925.0 442.3 L 927.7 475.3 L 925.9 509.2" stroke="blue" stroke-width="2" fill="none" /><path d="M 922.4 510.4 L 912.7 543.9 L 908.6 579.4 L 899.6 614.7 L 893.1 647.0 L 884.1 676.4 L 863.3 705.3 L 847.5 733.8 L 831.7 760.5 L 815.5 782.9 L 790.5 799.9 L 765.4 822.6 L 738.6 841.9 L 715.0 863.0 L 684.0 875.4 L 661.0 887.1 L 633.3 901.9 L 600.8 911.3 L 568.1 918.3 L 536.1 920.0 L 502.2 918.9 L 466.0 917.0 L 431.5 921.3 L 400.3 910.7 L 364.9 894.2 L 333.1 878.4 L 300.8 868.7 L 270.3 853.6 L 244.0 827.5 L 215.7 805.4 L 195.1 786.0 L 169.4 762.4 L 158.3 734.0 L 130.8 711.9 L 119.3 679.1 L 108.5 647.5 L 97.6 616.9 L 88.0 589.0 L 81.1 556.3 L 85.7 526.1 L 81.4 490.3 L 81.3 455.8 L 85.9 420.3 L 97.6 383.0 L 106.5 347.1 L 122.1 317.1 L 137.7 284.2 L 156.7 253.7 L 180.2 226.6 L 203.5 201.9 L 227.6 181.9 L 251.7 155.6 L 284.1 141.2 L 316.5 128.9 L 349.1 111.5 L 382.7 96.1 L 418.4 87.1 L 455.0 83.9 L 487.4 78.4 L 523.5 76.5 L 556.7 84.1 L 592.8 89.8 L 626.6 101.0 L 660.8 113.5 L 687.6 124.0 L 717.0 140.8 L 749.2 161.6 L 769.9 184.6 L 796.7 200.8 L 820.1 219.3 L 834.4 246.8 L 854.3 275.5 L 871.8 300.6 L 881.0 325.9 L 892.3 355.8 L 906.2 384.0 L 911.9 414.2 L 918.1 449.6 L 918.7 482.0" stroke="red" stroke-width="2" fill="none" /><path d="M 916.8 510.9 L 904.0 540.0 L 906.3 576.6 L 898.1 607.3 L 886.2 639.2 L 879.3 671.2 L 856.7 699.7 L 840.6 727.0 L 825.2 749.7 L 811.5 779.5 L 784.9 791.5 L 763.2 815.8 L 736.1 834.0 L 709.5 857.2 L 683.8 866.9 L 658.7 881.0 L 630.1 893.7 L 593.5 902.7 L 559.5 904.9 L 526.9 910.8 L 498.1 911.9 L 464.2 910.1 L 434.4 911.1 L 403.0 899.0 L 369.9 884.6 L 336.9 873.4 L 305.4 862.7 L 275.7 848.5 L 250.5 821.8 L 222.8 801.0 L 205.6 777.9 L 181.2 755.1 L 165.4 730.4 L 137.6 704.6 L 124.8 671.8 L 115.3 639.6 L 100.5 608.5 L 93.6 575.5 L 89.1 537.5 L 91.6 504.7 L 88.7 469.8 L 93.4 430.7 L 105.8 396.6 L 109.6 359.4 L 122.0 331.1 L 136.0 304.5 L 156.6 273.8 L 172.3 246.6 L 193.3 225.2 L 218.9 197.5 L 244.6 171.7 L 277.1 158.9 L 309.8 140.3 L 335.1 119.4 L 372.4 110.0 L 403.9 99.2 L 441.4 93.0 L 470.9 93.9 L 508.4 88.7 L 542.8 90.9 L 578.8 91.3 L 610.8 102.8 L 643.7 115.7 L 671.5 123.2 L 700.0 139.6 L 727.0 156.5 L 754.6 174.7 L 773.5 206.5 L 798.8 220.0 L 820.8 242.3 L 842.1 269.4 L 861.2 299.1 L 871.8 322.4 L 889.1 350.2 L 892.5 377.3 L 901.9 408.3 L 907.9 438.1 L 911.7 473.3 L 916.1 510.1" stroke="green" stroke-width="2" fill="none" /><path d="M 911.6 509.8 L 897.9 537.3 L 898.1 568.3 L 888.5 602.4 L 880.8 637.4 L 871.4 668.5 L 848.0 697.6 L 834.7 726.5 L 818.6 752.7 L 802.6 773.4 L 774.0 790.5 L 753.4 812.1 L 727.9 835.0 L 703.2 855.8 L 680.0 865.9 L 650.4 878.5 L 617.9 889.0 L 583.1 895.6 L 549.8 899.8 L 516.5 905.6 L 487.4 906.1 L 452.7 898.1 L 417.2 893.3 L 389.8 887.9 L 356.4 876.1 L 327.9 862.6 L 297.0 848.7 L 264.2 829.6 L 238.0 805.2 L 213.8 785.4 L 200.1 761.7 L 175.8 734.4 L 152.1 706.5 L 139.0 676.2 L 121.0 648.1 L 110.7 614.9 L 105.9 580.5 L 98.8 546.6 L 100.8 510.7 L 95.8 476.6 L 100.7 439.6 L 107.4 401.0 L 117.4 370.5 L 128.9 336.7 L 143.4 307.5 L 159.7 274.1 L 185.2 248.1 L 210.5 221.8 L 230.0 192.3 L 258.2 173.2 L 290.0 156.6 L 321.5 140.3 L 353.0 125.4 L 385.5 111.2 L 417.8 101.3 L 453.3 100.5 L 488.8 94.9 L 526.9 95.3 L 563.8 104.2 L 599.1 104.7 L 632.5 114.5 L 657.0 131.0 L 690.3 142.0 L 719.3 157.1 L 747.3 177.7 L 766.6 202.2 L 788.3 222.5 L 815.5 241.7 L 831.5 267.4 L 850.6 298.8 L 864.3 326.0 L 878.1 351.5 L 891.1 376.0 L 891.9 404.4 L 899.9 438.2 L 905.3 470.9 L 905.5 504.3" stroke="purple" stroke-width="2" fill="none" /><path d="M 906.5 507.0 L 892.6 535.5 L 891.6 562.8 L 878.9 597.1 L 871.1 630.8 L 864.1 659.6 L 846.9 689.3 L 830.4 716.9 L 813.0 742.1 L 792.6 767.6 L 768.0 782.5 L 747.5 812.4 L 720.3 832.9 L 691.0 854.8 L 665.9 855.0 L 637.0 871.2 L 603.7 884.1 L 573.4 894.4 L 541.5 893.1 L 507.9 895.3 L 478.8 895.9 L 446.1 891.9 L 412.9 890.3 L 379.9 877.4 L 345.6 861.7 L 311.8 847.1 L 277.3 833.3 L 256.1 804.9 L 228.8 784.5 L 213.0 768.5 L 189.2 739.0 L 169.3 711.4 L 147.6 684.1 L 135.5 647.0 L 121.1 620.3 L 117.5 585.7 L 105.5 553.6 L 104.1 520.8 L 105.9 485.7 L 107.7 452.6 L 112.5 417.3 L 123.7 382.2 L 134.4 345.9 L 151.5 316.0 L 163.9 281.5 L 188.2 252.8 L 211.2 231.4 L 234.7 201.3 L 260.7 183.3 L 293.1 168.1 L 320.6 149.5 L 354.2 134.8 L 383.0 116.3 L 415.6 111.2 L 451.9 105.7 L 486.9 104.4 L 523.2 104.0 L 559.7 110.3 L 592.3 113.7 L 628.9 122.4 L 656.3 141.9 L 686.0 149.4 L 716.0 166.9 L 742.8 185.4 L 765.6 216.4 L 794.4 236.8 L 811.5 260.0 L 830.7 286.2 L 853.2 318.0 L 871.1 337.8 L 866.1 372.7 L 882.0 396.6 L 890.3 428.0 L 898.5 458.6 L 894.3 490.8" stroke="orange" stroke-width="2" fill="none" /><path d="M 896.5 509.5 L 881.2 538.0 L 880.2 570.1 L 871.3 604.4 L 867.6 636.2 L 857.2 666.3 L 833.1 690.0 L 821.6 720.8 L 805.2 742.4 L 782.9 767.9 L 755.9 784.0 L 730.5 813.1 L 703.9 835.2 L 674.3 844.0 L 652.7 858.4 L 617.8 870.6 L 585.9 877.0 L 555.4 886.0 L 525.4 888.3 L 487.9 889.5 L 458.2 887.5 L 424.8 879.9 L 389.7 869.9 L 355.5 861.2 L 324.2 847.1 L 295.6 829.0 L 277.0 807.3 L 243.0 790.9 L 222.3 764.1 L 204.8 746.3 L 186.2 719.4 L 162.6 694.5 L 148.8 663.1 L 139.3 635.9 L 124.5 604.5 L 115.9 570.1 L 112.5 540.2 L 117.3 510.8 L 112.0 472.8 L 117.8 437.9 L 128.2 402.3 L 136.4 364.5 L 154.1 333.4 L 164.5 299.0 L 185.7 268.5 L 206.6 243.9 L 233.4 218.2 L 258.2 191.0 L 293.0 179.8 L 321.6 163.4 L 350.4 144.8 L 383.2 129.5 L 413.9 118.6 L 444.7 114.1 L 481.0 113.8 L 515.0 112.8 L 551.8 116.0 L 579.4 116.2 L 613.4 130.2 L 644.0 145.9 L 677.8 151.5 L 705.1 167.6 L 728.9 185.6 L 754.0 212.7 L 779.8 235.8 L 802.1 249.3 L 815.4 274.7 L 837.3 306.9 L 852.4 336.9 L 863.2 363.0 L 873.4 385.6 L 878.0 415.1 L 884.5 444.7 L 883.2 478.4" stroke="brown" stroke-width="2" fill="none" /><path d="M 890.0 507.0 L 875.9 532.5 L 871.5 566.2 L 862.7 594.9 L 862.1 631.4 L 849.7 663.6 L 827.5 683.9 L 817.7 716.4 L 793.5 741.2 L 770.7 767.5 L 742.3 790.6 L 713.0 812.9 L 690.4 836.3 L 657.2 842.0 L 633.9 856.5 L 604.4 864.6 L 570.2 878.6 L 538.8 883.6 L 503.0 878.9 L 470.0 878.0 L 432.4 872.3 L 401.0 863.3 L 363.7 856.8 L 336.7 840.9 L 309.8 829.3 L 278.8 809.9 L 254.2 788.8 L 229.8 770.3 L 211.6 749.2 L 195.0 724.0 L 175.3 697.1 L 161.3 665.4 L 147.5 635.4 L 130.9 601.6 L 126.1 565.8 L 121.4 539.2 L 124.5 508.4 L 119.2 470.3 L 125.6 438.0 L 132.7 401.9 L 144.7 369.8 L 154.9 341.1 L 166.1 314.8 L 183.1 281.9 L 209.2 258.0 L 231.4 234.3 L 252.7 208.4 L 281.4 188.0 L 313.9 175.9 L 342.6 153.3 L 377.6 141.6 L 408.5 123.7 L 442.9 121.4 L 478.9 122.8 L 509.8 120.1 L 548.1 124.3 L 577.6 121.9 L 607.9 134.9 L 638.3 153.2 L 671.5 156.9 L 699.4 176.1 L 728.8 194.1 L 752.3 222.8 L 772.9 241.8 L 798.4 259.0 L 812.8 287.1 L 834.2 319.7 L 849.3 343.6 L 849.8 378.3 L 871.5 402.0 L 874.9 431.4 L 881.7 467.8 L 880.6 502.3" stroke="pink" stroke-width="2" fill="none" /><path d="M 881.3 505.5 L 870.8 529.2 L 863.3 565.1 L 854.2 596.2 L 856.4 627.4 L 842.9 657.3 L 822.5 679.7 L 808.4 710.6 L 786.8 739.9 L 761.4 762.5 L 735.1 788.2 L 706.0 808.9 L 682.1 828.4 L 653.3 833.8 L 628.7 850.9 L 595.4 861.7 L 565.4 873.1 L 532.7 873.7 L 494.8 871.1 L 464.4 873.3 L 432.9 865.0 L 395.4 855.1 L 358.6 846.9 L 331.8 835.7 L 303.5 815.4 L 287.4 796.2 L 253.1 776.9 L 229.4 749.5 L 205.6 722.2 L 186.4 692.9 L 169.6 667.5 L 156.5 635.2 L 140.0 600.5 L 131.6 563.8 L 133.2 534.6 L 133.8 498.3 L 127.4 462.1 L 133.5 424.0 L 146.5 389.7 L 155.6 355.9 L 173.2 326.2 L 185.1 297.2 L 204.3 270.7 L 229.2 247.0 L 252.6 218.2 L 276.9 200.8 L 309.1 186.7 L 340.1 169.7 L 374.4 155.6 L 404.9 139.9 L 439.7 130.2 L 473.1 132.7 L 506.0 127.5 L 540.6 131.2 L 572.2 127.8 L 601.8 143.5 L 633.7 158.7 L 665.3 161.8 L 685.1 180.0 L 717.3 198.4 L 740.4 222.5 L 764.8 243.8 L 786.9 257.9 L 803.7 286.3 L 826.0 317.6 L 842.8 347.1 L 842.8 379.9 L 860.4 404.3 L 865.6 440.2 L 873.0 473.7 L 872.9 506.6" stroke="black" stroke-width="2" fill="none" /><path d="M 871.9 506.6 L 861.5 531.7 L 856.4 568.0 L 844.6 598.9 L 838.8 634.5 L 832.0 666.4 L 812.1 691.8 L 790.2 719.4 L 772.5 746.0 L 739.0 766.5 L 713.7 791.5 L 688.7 814.2 L 661.2 825.4 L 636.5 837.5 L 603.4 845.0 L 572.2 858.7 L 539.3 861.9 L 504.0 862.3 L 471.0 861.4 L 436.1 855.8 L 401.0 847.1 L 367.9 841.5 L 340.6 828.6 L 313.5 810.5 L 289.4 792.7 L 262.0 771.8 L 235.3 745.1 L 209.4 719.9 L 190.8 688.1 L 175.1 656.5 L 157.7 622.0 L 145.9 587.5 L 139.2 556.2 L 141.3 524.4 L 138.3 491.6 L 139.4 456.1 L 144.7 420.0 L 153.7 384.4 L 167.9 354.2 L 179.8 328.2 L 192.4 294.1 L 217.2 271.5 L 243.0 243.8 L 266.7 219.8 L 290.6 201.7 L 316.1 191.4 L 346.5 173.1 L 376.4 159.3 L 408.4 146.7 L 440.2 139.4 L 473.8 141.6 L 508.9 138.1 L 542.9 138.8 L 572.1 134.8 L 602.0 149.1 L 631.4 169.5 L 662.2 168.1 L 682.5 188.0 L 712.5 205.4 L 738.4 232.9 L 757.7 254.2 L 786.0 267.3 L 797.8 292.8 L 820.8 324.5 L 839.1 356.3 L 845.5 383.3 L 855.7 411.4 L 859.1 449.0 L 861.6 484.3 L 871.9 506.6" stroke="blue" stroke-width="2" fill="none" /><path d="M 861.2 504.6 L 852.6 529.2 L 849.7 561.6 L 839.6 591.1 L 833.8 628.4 L 823.3 661.8 L 799.2 690.8 L 779.3 719.1 L 762.0 745.2 L 730.2 765.6 L 704.0 790.9 L 675.3 812.6 L 647.8 823.2 L 615.0 837.1 L 581.1 846.8 L 546.5 854.7 L 512.6 856.0 L 477.1 851.5 L 443.0 851.4 L 408.0 843.8 L 378.9 835.7 L 350.7 815.6 L 318.1 809.2 L 292.9 788.9 L 269.5 769.3 L 244.8 739.8 L 219.7 714.4 L 196.7 685.5 L 179.1 654.0 L 163.8 622.1 L 151.9 587.4 L 144.3 554.0 L 148.0 522.8 L 148.0 488.6 L 150.8 455.3 L 151.2 420.6 L 160.0 385.7 L 174.0 356.6 L 191.1 325.4 L 206.1 291.7 L 230.5 267.6 L 254.2 242.5 L 273.3 216.1 L 306.2 205.6 L 333.1 192.6 L 364.1 171.9 L 391.6 162.6 L 418.6 149.5 L 451.7 145.1 L 481.2 146.7 L 517.3 144.7 L 554.9 148.1 L 579.4 153.4 L 613.0 159.1 L 640.5 180.7 L 665.4 187.3 L 698.3 204.1 L 725.8 226.2 L 748.9 248.4 L 770.1 267.7 L 787.9 291.3 L 810.5 323.4 L 828.3 355.3 L 835.0 386.1 L 845.2 418.1 L 854.4 451.8 L 851.9 484.3" stroke="red" stroke-width="2" fill="none" /><path d="M 851.4 506.0 L 842.7 527.1 L 841.6 559.9 L 836.1 587.5 L 827.2 623.9 L 820.0 655.3 L 795.7 682.7 L 776.2 713.9 L 759.5 735.7 L 726.8 756.5 L 701.4 782.1 L 673.7 806.0 L 641.4 815.2 L 608.9 828.0 L 574.6 842.7 L 540.2 845.5 L 509.4 847.6 L 473.3 844.2 L 445.2 838.4 L 410.9 834.1 L 376.6 827.9 L 347.4 812.3 L 319.9 796.6 L 296.8 775.4 L 267.1 756.8 L 241.9 731.1 L 220.7 702.6 L 198.3 675.2 L 184.7 646.1 L 171.6 611.0 L 161.4 573.9 L 153.5 543.5 L 160.4 508.5 L 150.9 470.6 L 159.0 437.4 L 167.2 410.1 L 168.3 373.0 L 190.0 345.8 L 204.9 314.2 L 226.6 288.1 L 249.9 259.0 L 270.3 234.2 L 298.5 217.5 L 329.0 206.2 L 353.6 184.4 L 387.6 172.7 L 416.0 157.3 L 444.8 151.3 L 476.3 157.5 L 511.2 149.5 L 547.5 157.9 L 577.4 157.2 L 609.8 169.9 L 637.8 188.9 L 661.7 192.7 L 694.1 212.8 L 723.3 234.0 L 746.3 258.5 L 763.2 275.4 L 781.6 301.0 L 807.3 329.3 L 823.0 363.9 L 833.4 393.5 L 841.6 431.6 L 849.2 463.0 L 847.2 499.7" stroke="green" stroke-width="2" fill="none" /><path d="M 841.2 507.5 L 833.5 522.5 L 835.8 554.4 L 828.5 583.0 L 822.6 616.3 L 815.1 646.3 L 794.0 672.3 L 775.5 703.8 L 751.6 732.2 L 722.8 749.0 L 700.1 771.8 L 671.1 798.5 L 639.5 809.9 L 604.5 818.6 L 573.9 834.4 L 537.1 839.4 L 501.5 836.9 L 463.2 839.3 L 433.6 832.0 L 397.2 826.8 L 366.0 813.0 L 334.2 798.2 L 311.3 783.1 L 284.3 759.2 L 258.2 735.8 L 238.4 711.1 L 217.0 682.6 L 197.6 654.2 L 181.3 620.6 L 167.4 586.6 L 165.6 553.5 L 162.1 522.8 L 161.9 485.2 L 164.2 452.9 L 165.7 422.4 L 176.3 388.1 L 189.4 358.0 L 207.5 329.2 L 225.1 300.4 L 250.0 272.6 L 270.7 243.9 L 296.3 227.4 L 328.8 210.9 L 358.7 192.4 L 391.7 178.2 L 423.3 164.4 L 453.2 160.0 L 488.3 159.7 L 523.1 163.5 L 561.0 165.2 L 590.7 170.1 L 617.4 185.8 L 650.0 193.6 L 675.9 212.1 L 706.6 228.5 L 730.8 253.0 L 757.1 271.6 L 772.8 296.7 L 794.0 326.9 L 814.1 360.2 L 821.7 391.1 L 829.9 427.2 L 838.8 462.6 L 838.2 498.7" stroke="purple" stroke-width="2" fill="none" /><path d="M 832.8 508.0 L 824.8 519.0 L 832.4 546.8 L 825.2 579.0 L 815.3 609.4 L 808.2 639.1 L 789.4 664.6 L 771.2 695.4 L 747.7 726.0 L 717.5 744.0 L 696.5 763.4 L 669.9 792.2 L 634.7 804.7 L 601.1 815.2 L 568.4 829.7 L 531.2 832.4 L 493.2 832.9 L 459.7 834.4 L 428.6 825.7 L 395.0 817.7 L 362.5 798.5 L 329.4 790.2 L 308.5 765.7 L 278.2 744.4 L 256.6 718.2 L 238.9 697.8 L 217.6 670.0 L 201.0 638.9 L 184.2 608.2 L 177.2 572.6 L 172.5 544.1 L 174.6 508.8 L 167.9 471.6 L 175.6 439.6 L 182.3 407.3 L 189.7 375.7 L 209.0 352.1 L 221.2 317.5 L 242.0 294.7 L 265.8 266.6 L 282.1 238.4 L 316.5 225.1 L 348.1 208.7 L 383.0 191.9 L 414.2 178.5 L 443.8 174.4 L 473.6 173.1 L 509.4 165.0 L 544.5 172.4 L 572.6 173.7 L 604.1 183.9 L 638.0 198.0 L 664.9 216.8 L 693.1 232.5 L 717.4 258.1 L 738.9 276.7 L 759.2 296.9 L 784.9 323.4 L 804.8 355.6 L 811.6 388.5 L 822.6 420.9 L 829.5 457.4 L 827.8 490.1" stroke="orange" stroke-width="2" fill="none" /><path d="M 821.9 509.9 L 815.8 519.6 L 822.0 540.7 L 823.4 574.5 L 805.3 603.3 L 799.9 629.0 L 784.8 657.8 L 768.0 685.5 L 744.9 716.6 L 714.9 737.6 L 690.2 758.4 L 661.3 783.2 L 627.8 800.8 L 594.8 808.7 L 564.9 819.3 L 531.4 824.2 L 495.0 822.9 L 457.8 823.1 L 425.4 814.3 L 392.6 808.1 L 360.1 791.6 L 330.0 778.2 L 308.4 752.9 L 274.0 734.3 L 255.8 715.3 L 239.9 688.5 L 214.7 665.9 L 201.8 630.3 L 188.5 594.2 L 184.5 560.0 L 176.8 530.8 L 179.3 498.0 L 176.6 460.4 L 182.4 427.8 L 195.2 394.3 L 206.0 367.4 L 222.9 338.6 L 236.5 312.6 L 263.4 285.6 L 281.0 260.3 L 306.6 240.8 L 339.6 227.3 L 360.3 207.3 L 386.7 195.7 L 419.9 182.8 L 449.7 178.5 L 484.6 176.5 L 518.8 178.8 L 554.0 180.9 L 585.4 186.7 L 617.5 205.7 L 646.4 211.5 L 676.9 229.4 L 705.0 249.5 L 725.7 271.5 L 749.9 291.5 L 772.4 323.0 L 786.8 350.0 L 806.0 379.1 L 809.7 406.6 L 820.2 440.4 L 823.3 477.4 L 830.5 510.0" stroke="brown" stroke-width="2" fill="none" /><path d="M 813.5 508.0 L 810.3 518.5 L 817.3 541.7 L 815.8 569.9 L 798.7 599.9 L 794.0 630.8 L 773.9 657.4 L 758.5 688.5 L 735.6 716.0 L 707.0 736.9 L 678.7 757.3 L 648.5 779.7 L 615.4 798.5 L 587.4 806.1 L 554.8 816.5 L 518.6 815.1 L 482.2 812.0 L 448.4 810.0 L 416.1 804.7 L 384.2 792.8 L 348.8 777.5 L 323.1 765.1 L 302.5 737.6 L 276.7 716.2 L 260.5 703.8 L 245.0 680.6 L 218.1 657.2 L 208.9 621.6 L 193.2 586.2 L 186.5 550.8 L 189.7 513.2 L 183.1 477.0 L 191.0 447.0 L 201.1 420.0 L 200.7 385.8 L 218.3 363.7 L 232.4 328.4 L 252.9 304.2 L 274.8 273.1 L 296.8 253.3 L 329.2 237.8 L 358.0 224.3 L 384.0 209.3 L 412.2 191.6 L 444.4 183.3 L 477.2 186.8 L 512.5 183.6 L 548.5 187.3 L 579.8 193.0 L 610.7 207.9 L 641.9 212.8 L 666.7 235.9 L 696.8 253.2 L 721.0 273.6 L 742.9 296.4 L 766.6 323.2 L 782.8 354.7 L 796.9 387.8 L 804.8 414.3 L 811.9 449.0 L 812.8 485.4 L 813.5 508.0" stroke="pink" stroke-width="2" fill="none" /><path d="M 802.8 510.6 L 803.4 520.4 L 803.3 554.0 L 793.3 583.8 L 784.5 616.7 L 771.9 647.4 L 757.9 676.3 L 733.8 706.7 L 707.5 724.7 L 682.4 744.6 L 656.8 767.6 L 626.6 787.3 L 593.7 789.8 L 562.7 806.1 L 526.2 805.3 L 488.5 805.2 L 454.5 800.6 L 420.7 794.3 L 389.8 786.6 L 355.5 769.9 L 328.9 759.5 L 308.3 733.4 L 280.3 713.3 L 265.0 704.4 L 252.7 676.5 L 229.5 658.6 L 218.7 624.9 L 205.6 590.6 L 200.9 560.3 L 196.9 525.4 L 191.0 486.7 L 201.0 451.9 L 204.1 425.2 L 207.5 391.2 L 224.8 366.7 L 239.8 332.2 L 261.1 308.4 L 279.9 279.0 L 302.2 258.1 L 331.1 245.4 L 358.4 233.6 L 386.4 214.6 L 417.0 201.1 L 445.0 192.7 L 479.7 194.5 L 514.4 194.0 L 550.0 196.2 L 580.4 202.6 L 613.0 217.6 L 635.7 217.1 L 661.0 238.1 L 686.8 259.9 L 714.6 280.7 L 734.1 297.5 L 753.8 325.4 L 774.2 354.2 L 787.9 387.4 L 796.5 418.8 L 804.3 452.6 L 804.4 488.4" stroke="black" stroke-width="2" fill="none" /><path d="M 793.0 511.1 L 798.8 528.0 L 798.5 560.1 L 780.4 592.7 L 778.1 624.9 L 755.0 652.2 L 741.3 681.9 L 721.4 704.8 L 694.8 729.5 L 669.7 747.9 L 642.5 765.8 L 614.3 785.6 L 582.7 789.1 L 548.8 796.4 L 514.3 801.7 L 480.2 798.6 L 445.0 791.8 L 413.8 789.0 L 381.3 771.1 L 350.4 764.5 L 329.1 740.1 L 298.5 722.0 L 278.1 696.2 L 268.1 679.2 L 241.1 653.5 L 227.2 623.4 L 215.5 588.4 L 209.0 559.2 L 202.1 524.6 L 198.1 490.3 L 205.3 454.9 L 212.8 425.8 L 215.2 393.1 L 236.2 365.1 L 246.0 330.7 L 275.6 306.9 L 294.3 280.9 L 317.7 258.5 L 345.9 249.2 L 369.0 232.1 L 402.5 217.1 L 435.4 204.6 L 463.3 198.9 L 501.4 202.8 L 538.1 201.5 L 572.2 206.3 L 606.3 221.9 L 630.8 226.6 L 649.7 247.6 L 676.7 261.3 L 701.1 286.1 L 719.9 301.4 L 744.3 325.5 L 768.9 351.9 L 782.4 384.7 L 790.3 420.4 L 798.0 458.5 L 795.8 492.2" stroke="blue" stroke-width="2" fill="none" /><path d="M 782.7 508.5 L 788.3 519.2 L 786.5 552.9 L 772.1 586.6 L 775.9 618.8 L 752.5 646.6 L 734.9 675.9 L 715.6 700.1 L 689.8 725.0 L 657.5 741.7 L 630.6 762.4 L 606.6 772.8 L 572.8 783.8 L 535.3 792.7 L 497.8 794.7 L 460.8 789.3 L 426.6 780.8 L 394.7 767.7 L 359.4 757.8 L 333.4 734.6 L 305.6 715.3 L 285.7 692.9 L 267.7 668.7 L 240.5 646.9 L 228.5 609.4 L 215.2 574.8 L 214.3 539.4 L 214.1 509.0 L 205.8 472.8 L 213.1 440.3 L 226.7 409.0 L 235.7 379.3 L 251.8 345.9 L 273.0 316.4 L 293.7 289.3 L 317.0 264.9 L 347.2 257.3 L 371.9 238.0 L 404.3 225.9 L 438.9 212.1 L 472.2 206.5 L 506.7 211.2 L 544.8 211.5 L 575.8 215.8 L 605.8 233.1 L 631.7 231.1 L 653.0 255.2 L 681.5 276.0 L 706.4 303.7 L 730.5 321.1 L 754.9 348.8 L 771.7 379.4 L 779.4 416.9 L 786.9 453.2 L 789.6 485.1 L 782.7 508.5" stroke="red" stroke-width="2" fill="none" /><path d="M 774.9 510.5 L 780.6 518.7 L 777.7 551.1 L 766.5 583.4 L 769.8 618.0 L 747.0 641.5 L 731.5 669.5 L 707.7 697.8 L 679.2 721.0 L 650.4 735.8 L 621.1 758.6 L 586.3 768.9 L 554.9 781.1 L 515.4 781.5 L 477.6 783.0 L 446.4 777.5 L 410.9 771.1 L 381.0 749.9 L 345.4 743.4 L 324.4 714.3 L 300.6 697.2 L 281.9 673.7 L 259.2 646.1 L 239.7 617.1 L 233.0 580.4 L 219.2 551.0 L 219.8 521.9 L 212.6 486.5 L 223.3 451.7 L 232.8 422.5 L 238.7 388.8 L 255.6 362.0 L 272.7 332.3 L 290.7 302.9 L 312.1 276.6 L 339.1 266.9 L 369.4 253.1 L 398.6 237.6 L 427.2 222.8 L 462.6 215.8 L 498.9 220.7 L 534.0 217.1 L 561.7 219.7 L 598.7 228.7 L 613.0 244.6 L 630.8 253.6 L 659.5 266.0 L 686.1 292.6 L 715.5 315.6 L 738.9 337.1 L 753.6 372.1 L 768.0 402.0 L 774.5 436.3 L 787.1 471.7 L 782.0 501.4" stroke="green" stroke-width="2" fill="none" /><path d="M 769.4 510.8 L 771.4 515.9 L 768.8 548.8 L 760.6 581.1 L 758.2 614.6 L 737.0 637.5 L 721.3 670.9 L 697.3 693.6 L 668.0 716.0 L 638.8 742.0 L 606.9 757.3 L 577.5 766.7 L 542.4 776.1 L 503.7 775.5 L 470.4 777.3 L 436.0 763.8 L 402.4 754.8 L 371.3 740.3 L 344.1 723.4 L 314.2 705.5 L 293.8 679.6 L 272.2 652.3 L 254.8 630.3 L 240.3 597.6 L 230.0 572.9 L 223.7 537.2 L 226.6 502.1 L 225.8 467.6 L 228.8 436.9 L 240.3 406.6 L 257.0 377.4 L 274.1 347.2 L 296.1 321.4 L 314.6 293.1 L 341.7 274.6 L 374.6 259.0 L 403.9 243.8 L 436.7 228.1 L 469.0 222.7 L 503.7 227.1 L 537.7 225.6 L 567.8 228.5 L 597.2 243.4 L 615.2 256.1 L 640.4 269.4 L 672.7 287.7 L 696.3 313.3 L 723.2 336.4 L 741.7 359.4 L 756.4 385.0 L 760.3 417.9 L 769.2 446.6 L 779.0 480.0 L 765.6 510.9" stroke="purple" stroke-width="2" fill="none" /><path d="M 759.5 511.3 L 764.6 521.4 L 761.8 556.0 L 754.2 586.6 L 746.3 616.3 L 730.3 647.0 L 704.3 671.5 L 683.3 695.4 L 652.5 716.8 L 622.4 737.9 L 590.3 747.9 L 559.9 760.9 L 526.2 768.7 L 491.4 769.4 L 456.7 762.0 L 419.4 754.1 L 390.9 738.7 L 358.0 728.3 L 332.3 700.8 L 311.4 682.9 L 290.4 658.6 L 271.2 640.2 L 253.4 611.5 L 248.4 582.5 L 238.1 555.9 L 236.8 526.5 L 232.1 494.3 L 240.2 461.6 L 244.1 434.5 L 250.6 398.5 L 271.1 365.6 L 286.0 335.0 L 306.8 310.4 L 331.6 281.7 L 369.4 272.9 L 399.1 250.9 L 431.6 238.7 L 466.6 232.8 L 498.2 236.6 L 529.4 232.4 L 561.4 236.8 L 594.8 248.7 L 614.6 258.3 L 638.0 278.7 L 667.8 294.1 L 694.3 320.2 L 717.1 343.1 L 737.0 374.3 L 753.2 405.3 L 761.8 436.4 L 768.4 472.0 L 764.4 503.1" stroke="orange" stroke-width="2" fill="none" /><text x="10" y="25" font-family="Arial" font-size="16" fill="black">Distance: 8px, Segment: 4px, Error: 3.0 (Simplified)</text><text x="10" y="45" font-family="Arial" font-size="16" fill="black">Curves: 30 (Simplified)</text></svg>