<?xml version="1.0" encoding="UTF-8"?>
<svg width="1000" height="1000" xmlns="http://www.w3.org/2000/svg">
  <rect width="1000" height="1000" fill="white"/>
  <path d="M 950.00,500.00 L 950.00,502.00 L 949.98,504.00 L 949.96,506.00 L 949.93,508.00 L 949.89,510.00 L 949.84,512.00 L 949.78,514.00 L 949.72,516.00 L 949.64,518.00 L 949.56,520.00 L 949.46,522.00 L 949.36,524.00 L 949.25,526.00 L 949.13,528.00 L 949.00,529.99 L 948.86,531.99 L 948.71,533.98 L 948.56,535.98 L 948.39,537.97 L 948.22,539.97 L 948.04,541.96 L 947.85,543.95 L 947.65,545.94 L 947.44,547.93 L 947.22,549.92 L 947.00,551.91 L 946.76,553.90 L 946.52,555.88 L 946.26,557.87 L 946.00,559.85 L 945.73,561.84 L 945.45,563.82 L 945.16,565.80 L 944.87,567.78 L 944.56,569.75 L 944.25,571.73 L 943.92,573.70 L 943.59,575.68 L 943.25,577.65 L 942.90,579.62 L 942.54,581.59 L 942.17,583.55 L 941.80,585.52 L 941.41,587.48 L 941.02,589.45 L 940.62,591.41 L 940.21,593.36 L 939.79,595.32 L 939.36,597.28 L 938.92,599.23 L 938.48,601.18 L 938.02,603.13 L 937.56,605.07 L 937.09,607.02 L 936.61,608.96 L 936.12,610.90 L 935.62,612.84 L 935.12,614.78 L 934.60,616.71 L 934.08,618.64 L 933.55,620.57 L 933.01,622.50 L 932.46,624.42 L 931.90,626.34 L 931.33,628.26 L 930.76,630.18 L 930.18,632.09 L 929.58,634.00 L 928.98,635.91 L 928.38,637.82 L 927.76,639.72 L 927.13,641.62 L 926.50,643.52 L 925.86,645.42 L 925.21,647.31 L 924.55,649.20 L 923.88,651.09 L 923.20,652.97 L 922.52,654.85 L 921.83,656.73 L 921.12,658.60 L 920.42,660.47 L 919.70,662.34 L 918.97,664.20 L 918.24,666.07 L 917.49,667.92 L 916.74,669.78 L 915.98,671.63 L 915.22,673.48 L 914.44,675.32 L 913.66,677.16 L 912.87,679.00 L 912.07,680.84 L 911.26,682.67 L 910.44,684.49 L 909.62,686.32 L 908.78,688.14 L 907.94,689.95 L 907.10,691.76 L 906.24,693.57 L 905.37,695.38 L 904.50,697.18 L 903.62,698.97 L 902.73,700.77 L 901.83,702.56 L 900.93,704.34 L 900.02,706.12 L 899.10,707.90 L 898.17,709.67 L 897.23,711.44 L 896.29,713.20 L 895.34,714.96 L 894.38,716.72 L 893.41,718.47 L 892.43,720.22 L 891.45,721.96 L 890.46,723.70 L 889.46,725.43 L 888.45,727.16 L 887.44,728.89 L 886.42,730.61 L 885.39,732.32 L 884.35,734.04 L 883.31,735.74 L 882.26,737.44 L 881.20,739.14 L 880.13,740.83 L 879.06,742.52 L 877.97,744.21 L 876.88,745.88 L 875.79,747.56 L 874.68,749.23 L 873.57,750.89 L 872.45,752.55 L 871.32,754.20 L 870.19,755.85 L 869.05,757.49 L 867.90,759.13 L 866.74,760.77 L 865.58,762.39 L 864.41,764.02 L 863.23,765.64 L 862.05,767.25 L 860.86,768.86 L 859.66,770.46 L 858.45,772.05 L 857.24,773.64 L 856.02,775.23 L 854.79,776.81 L 853.56,778.39 L 852.31,779.96 L 851.07,781.52 L 849.81,783.08 L 848.55,784.63 L 847.28,786.18 L 846.00,787.72 L 844.72,789.25 L 843.43,790.78 L 842.13,792.31 L 840.83,793.83 L 839.52,795.34 L 838.20,796.85 L 836.88,798.35 L 835.55,799.84 L 834.21,801.33 L 832.87,802.81 L 831.52,804.29 L 830.16,805.76 L 828.80,807.23 L 827.43,808.69 L 826.06,810.14 L 824.67,811.59 L 823.29,813.03 L 821.89,814.46 L 820.49,815.89 L 819.08,817.31 L 817.67,818.73 L 816.25,820.14 L 814.82,821.54 L 813.39,822.94 L 811.95,824.33 L 810.50,825.71 L 809.05,827.09 L 807.59,828.46 L 806.13,829.82 L 804.66,831.18 L 803.18,832.53 L 801.70,833.88 L 800.22,835.22 L 798.72,836.55 L 797.22,837.87 L 795.72,839.19 L 794.21,840.50 L 792.69,841.81 L 791.17,843.11 L 789.64,844.40 L 788.10,845.68 L 786.56,846.96 L 785.02,848.23 L 783.47,849.50 L 781.91,850.75 L 780.35,852.00 L 778.78,853.25 L 777.21,854.48 L 775.63,855.71 L 774.04,856.93 L 772.45,858.15 L 770.86,859.36 L 769.26,860.56 L 767.65,861.75 L 766.04,862.94 L 764.42,864.12 L 762.80,865.29 L 761.17,866.45 L 759.54,867.61 L 757.90,868.76 L 756.26,869.91 L 754.61,871.04 L 752.96,872.17 L 751.30,873.29 L 749.64,874.40 L 747.98,875.51 L 746.30,876.61 L 744.63,877.70 L 742.94,878.79 L 741.26,879.86 L 739.57,880.93 L 737.87,881.99 L 736.17,883.05 L 734.46,884.09 L 732.75,885.13 L 731.04,886.16 L 729.32,887.19 L 727.59,888.20 L 725.87,889.21 L 724.13,890.21 L 722.40,891.20 L 720.65,892.19 L 718.91,893.17 L 717.16,894.14 L 715.40,895.10 L 713.64,896.05 L 711.88,897.00 L 710.11,897.94 L 708.34,898.87 L 706.57,899.79 L 704.79,900.70 L 703.00,901.61 L 701.21,902.51 L 699.42,903.40 L 697.63,904.28 L 695.83,905.16 L 694.02,906.02 L 692.22,906.88 L 690.40,907.73 L 688.59,908.58 L 686.77,909.41 L 684.95,910.24 L 683.12,911.05 L 681.29,911.86 L 679.46,912.67 L 677.62,913.46 L 675.78,914.25 L 673.94,915.02 L 672.09,915.79 L 670.24,916.55 L 668.39,917.31 L 666.53,918.05 L 664.67,918.79 L 662.81,919.52 L 660.94,920.24 L 659.07,920.95 L 657.19,921.65 L 655.32,922.35 L 653.44,923.03 L 651.56,923.71 L 649.67,924.38 L 647.78,925.04 L 645.89,925.69 L 644.00,926.34 L 642.10,926.98 L 640.20,927.60 L 638.30,928.22 L 636.39,928.83 L 634.48,929.44 L 632.57,930.03 L 630.66,930.61 L 628.74,931.19 L 626.82,931.76 L 624.90,932.32 L 622.98,932.87 L 621.05,933.41 L 619.12,933.95 L 617.19,934.47 L 615.26,934.99 L 613.32,935.50 L 611.39,936.00 L 609.45,936.49 L 607.51,936.97 L 605.56,937.44 L 603.61,937.91 L 601.67,938.37 L 599.72,938.81 L 597.76,939.25 L 595.81,939.68 L 593.85,940.10 L 591.90,940.52 L 589.94,940.92 L 587.97,941.32 L 586.01,941.70 L 584.05,942.08 L 582.08,942.45 L 580.11,942.81 L 578.14,943.16 L 576.17,943.51 L 574.20,943.84 L 572.22,944.17 L 570.25,944.48 L 568.27,944.79 L 566.29,945.09 L 564.31,945.38 L 562.33,945.66 L 560.35,945.94 L 558.36,946.20 L 556.38,946.45 L 554.39,946.70 L 552.41,946.94 L 550.42,947.17 L 548.43,947.39 L 546.44,947.60 L 544.45,947.80 L 542.46,947.99 L 540.47,948.18 L 538.47,948.35 L 536.48,948.52 L 534.48,948.68 L 532.49,948.83 L 530.49,948.97 L 528.50,949.10 L 526.50,949.22 L 524.50,949.33 L 522.50,949.44 L 520.50,949.53 L 518.50,949.62 L 516.50,949.70 L 514.50,949.77 L 512.50,949.83 L 510.50,949.88 L 508.50,949.92 L 506.50,949.95 L 504.50,949.98 L 502.50,949.99 L 500.50,950.00 L 498.50,950.00 L 496.50,949.99 L 494.50,949.97 L 492.50,949.94 L 490.50,949.90 L 488.50,949.85 L 486.50,949.80 L 484.50,949.73 L 482.50,949.66 L 480.50,949.58 L 478.50,949.49 L 476.50,949.39 L 474.50,949.28 L 472.50,949.16 L 470.51,949.03 L 468.51,948.90 L 466.51,948.75 L 464.52,948.60 L 462.52,948.44 L 460.53,948.27 L 458.54,948.09 L 456.55,947.90 L 454.55,947.70 L 452.56,947.49 L 450.57,947.28 L 448.59,947.05 L 446.60,946.82 L 444.61,946.58 L 442.63,946.33 L 440.64,946.07 L 438.66,945.80 L 436.68,945.52 L 434.70,945.24 L 432.72,944.94 L 430.74,944.64 L 428.76,944.33 L 426.79,944.00 L 424.82,943.67 L 422.84,943.34 L 420.87,942.99 L 418.90,942.63 L 416.94,942.27 L 414.97,941.89 L 413.01,941.51 L 411.04,941.12 L 409.08,940.72 L 407.12,940.31 L 405.17,939.89 L 403.21,939.47 L 401.26,939.03 L 399.31,938.59 L 397.36,938.14 L 395.41,937.68 L 393.47,937.21 L 391.52,936.73 L 389.58,936.24 L 387.64,935.75 L 385.71,935.24 L 383.77,934.73 L 381.84,934.21 L 379.91,933.68 L 377.98,933.14 L 376.06,932.60 L 374.14,932.04 L 372.22,931.48 L 370.30,930.90 L 368.38,930.32 L 366.47,929.73 L 364.56,929.14 L 362.66,928.53 L 360.75,927.91 L 358.85,927.29 L 356.95,926.66 L 355.06,926.02 L 353.16,925.37 L 351.27,924.71 L 349.39,924.05 L 347.50,923.37 L 345.62,922.69 L 343.74,922.00 L 341.87,921.30 L 340.00,920.59 L 338.13,919.88 L 336.26,919.15 L 334.40,918.42 L 332.54,917.68 L 330.69,916.93 L 328.83,916.18 L 326.98,915.41 L 325.14,914.64 L 323.30,913.85 L 321.46,913.07 L 319.62,912.27 L 317.79,911.46 L 315.96,910.65 L 314.14,909.82 L 312.32,908.99 L 310.50,908.16 L 308.69,907.31 L 306.88,906.45 L 305.07,905.59 L 303.27,904.72 L 301.47,903.84 L 299.68,902.95 L 297.89,902.06 L 296.11,901.16 L 294.32,900.25 L 292.55,899.33 L 290.77,898.40 L 289.00,897.47 L 287.24,896.53 L 285.48,895.58 L 283.72,894.62 L 281.97,893.65 L 280.22,892.68 L 278.47,891.70 L 276.74,890.71 L 275.00,889.71 L 273.27,888.71 L 271.54,887.70 L 269.82,886.68 L 268.10,885.65 L 266.39,884.61 L 264.68,883.57 L 262.98,882.52 L 261.28,881.46 L 259.59,880.40 L 257.90,879.32 L 256.21,878.24 L 254.53,877.16 L 252.86,876.06 L 251.19,874.96 L 249.53,873.85 L 247.87,872.73 L 246.21,871.61 L 244.56,870.47 L 242.92,869.33 L 241.28,868.19 L 239.64,867.03 L 238.01,865.87 L 236.39,864.70 L 234.77,863.53 L 233.15,862.34 L 231.55,861.15 L 229.94,859.96 L 228.34,858.75 L 226.75,857.54 L 225.17,856.32 L 223.58,855.10 L 222.01,853.86 L 220.44,852.62 L 218.87,851.38 L 217.31,850.12 L 215.76,848.86 L 214.21,847.60 L 212.67,846.32 L 211.13,845.04 L 209.60,843.75 L 208.07,842.46 L 206.55,841.16 L 205.04,839.85 L 203.53,838.53 L 202.03,837.21 L 200.53,835.88 L 199.04,834.55 L 197.56,833.21 L 196.08,831.86 L 194.60,830.50 L 193.14,829.14 L 191.68,827.78 L 190.22,826.40 L 188.77,825.02 L 187.33,823.63 L 185.90,822.24 L 184.47,820.84 L 183.04,819.43 L 181.63,818.02 L 180.21,816.60 L 178.81,815.18 L 177.41,813.75 L 176.02,812.31 L 174.63,810.86 L 173.25,809.41 L 171.88,807.96 L 170.52,806.50 L 169.16,805.03 L 167.80,803.55 L 166.46,802.07 L 165.12,800.59 L 163.78,799.10 L 162.46,797.60 L 161.14,796.09 L 159.82,794.58 L 158.52,793.07 L 157.22,791.55 L 155.92,790.02 L 154.64,788.49 L 153.36,786.95 L 152.09,785.40 L 150.82,783.85 L 149.56,782.30 L 148.31,780.74 L 147.06,779.17 L 145.83,777.60 L 144.60,776.02 L 143.37,774.44 L 142.16,772.85 L 140.95,771.26 L 139.74,769.66 L 138.55,768.05 L 137.36,766.44 L 136.18,764.83 L 135.00,763.21 L 133.84,761.58 L 132.68,759.95 L 131.53,758.31 L 130.38,756.67 L 129.24,755.03 L 128.11,753.38 L 126.99,751.72 L 125.87,750.06 L 124.77,748.39 L 123.66,746.72 L 122.57,745.05 L 121.49,743.36 L 120.41,741.68 L 119.34,739.99 L 118.27,738.29 L 117.22,736.59 L 116.17,734.89 L 115.13,733.18 L 114.09,731.47 L 113.07,729.75 L 112.05,728.03 L 111.04,726.30 L 110.04,724.57 L 109.04,722.83 L 108.06,721.09 L 107.08,719.34 L 106.11,717.60 L 105.14,715.84 L 104.19,714.08 L 103.24,712.32 L 102.30,710.56 L 101.37,708.78 L 100.44,707.01 L 99.53,705.23 L 98.62,703.45 L 97.72,701.66 L 96.82,699.87 L 95.94,698.08 L 95.06,696.28 L 94.19,694.47 L 93.33,692.67 L 92.48,690.86 L 91.63,689.04 L 90.80,687.23 L 89.97,685.40 L 89.15,683.58 L 88.34,681.75 L 87.53,679.92 L 86.74,678.08 L 85.95,676.24 L 85.17,674.40 L 84.40,672.55 L 83.63,670.70 L 82.88,668.85 L 82.13,666.99 L 81.39,665.13 L 80.66,663.27 L 79.94,661.41 L 79.23,659.54 L 78.52,657.66 L 77.83,655.79 L 77.14,653.91 L 76.46,652.03 L 75.79,650.14 L 75.12,648.25 L 74.47,646.36 L 73.82,644.47 L 73.18,642.57 L 72.55,640.67 L 71.93,638.77 L 71.32,636.87 L 70.71,634.96 L 70.12,633.05 L 69.53,631.14 L 68.95,629.22 L 68.38,627.30 L 67.82,625.38 L 67.27,623.46 L 66.72,621.53 L 66.19,619.61 L 65.66,617.68 L 65.14,615.74 L 64.63,613.81 L 64.13,611.87 L 63.63,609.93 L 63.15,607.99 L 62.67,606.05 L 62.21,604.10 L 61.75,602.15 L 61.30,600.20 L 60.86,598.25 L 60.42,596.30 L 60.00,594.34 L 59.59,592.39 L 59.18,590.43 L 58.78,588.47 L 58.39,586.50 L 58.01,584.54 L 57.64,582.57 L 57.28,580.60 L 56.92,578.63 L 56.58,576.66 L 56.24,574.69 L 55.91,572.72 L 55.60,570.74 L 55.28,568.76 L 54.98,566.79 L 54.69,564.81 L 54.41,562.83 L 54.13,560.84 L 53.87,558.86 L 53.61,556.88 L 53.36,554.89 L 53.12,552.90 L 52.89,550.92 L 52.67,548.93 L 52.45,546.94 L 52.25,544.95 L 52.05,542.96 L 51.87,540.96 L 51.69,538.97 L 51.52,536.98 L 51.36,534.98 L 51.21,532.99 L 51.07,530.99 L 50.94,528.99 L 50.81,527.00 L 50.69,525.00 L 50.59,523.00 L 50.49,521.00 L 50.40,519.00 L 50.32,517.00 L 50.25,515.00 L 50.19,513.00 L 50.13,511.00 L 50.09,509.00 L 50.05,507.00 L 50.03,505.00 L 50.01,503.00 L 50.00,501.00 L 50.00,499.00 L 50.01,497.00 L 50.03,495.00 L 50.05,493.00 L 50.09,491.00 L 50.13,489.00 L 50.19,487.00 L 50.25,485.00 L 50.32,483.00 L 50.40,481.00 L 50.49,479.00 L 50.59,477.00 L 50.69,475.00 L 50.81,473.00 L 50.94,471.01 L 51.07,469.01 L 51.21,467.01 L 51.36,465.02 L 51.52,463.02 L 51.69,461.03 L 51.87,459.04 L 52.05,457.04 L 52.25,455.05 L 52.45,453.06 L 52.67,451.07 L 52.89,449.08 L 53.12,447.10 L 53.36,445.11 L 53.61,443.12 L 53.87,441.14 L 54.13,439.16 L 54.41,437.17 L 54.69,435.19 L 54.98,433.21 L 55.28,431.24 L 55.60,429.26 L 55.91,427.28 L 56.24,425.31 L 56.58,423.34 L 56.92,421.37 L 57.28,419.40 L 57.64,417.43 L 58.01,415.46 L 58.39,413.50 L 58.78,411.53 L 59.18,409.57 L 59.59,407.61 L 60.00,405.66 L 60.42,403.70 L 60.86,401.75 L 61.30,399.80 L 61.75,397.85 L 62.21,395.90 L 62.67,393.95 L 63.15,392.01 L 63.63,390.07 L 64.13,388.13 L 64.63,386.19 L 65.14,384.26 L 65.66,382.32 L 66.19,380.39 L 66.72,378.47 L 67.27,376.54 L 67.82,374.62 L 68.38,372.70 L 68.95,370.78 L 69.53,368.86 L 70.12,366.95 L 70.71,365.04 L 71.32,363.13 L 71.93,361.23 L 72.55,359.33 L 73.18,357.43 L 73.82,355.53 L 74.47,353.64 L 75.12,351.75 L 75.79,349.86 L 76.46,347.97 L 77.14,346.09 L 77.83,344.21 L 78.52,342.34 L 79.23,340.46 L 79.94,338.59 L 80.66,336.73 L 81.39,334.87 L 82.13,333.01 L 82.88,331.15 L 83.63,329.30 L 84.40,327.45 L 85.17,325.60 L 85.95,323.76 L 86.74,321.92 L 87.53,320.08 L 88.34,318.25 L 89.15,316.42 L 89.97,314.60 L 90.80,312.77 L 91.63,310.96 L 92.48,309.14 L 93.33,307.33 L 94.19,305.53 L 95.06,303.72 L 95.94,301.92 L 96.82,300.13 L 97.72,298.34 L 98.62,296.55 L 99.53,294.77 L 100.44,292.99 L 101.37,291.22 L 102.30,289.44 L 103.24,287.68 L 104.19,285.92 L 105.14,284.16 L 106.11,282.40 L 107.08,280.66 L 108.06,278.91 L 109.04,277.17 L 110.04,275.43 L 111.04,273.70 L 112.05,271.97 L 113.07,270.25 L 114.09,268.53 L 115.13,266.82 L 116.17,265.11 L 117.22,263.41 L 118.27,261.71 L 119.34,260.01 L 120.41,258.32 L 121.49,256.64 L 122.57,254.95 L 123.66,253.28 L 124.77,251.61 L 125.87,249.94 L 126.99,248.28 L 128.11,246.62 L 129.24,244.97 L 130.38,243.33 L 131.53,241.69 L 132.68,240.05 L 133.84,238.42 L 135.00,236.79 L 136.18,235.17 L 137.36,233.56 L 138.55,231.95 L 139.74,230.34 L 140.95,228.74 L 142.16,227.15 L 143.37,225.56 L 144.60,223.98 L 145.83,222.40 L 147.06,220.83 L 148.31,219.26 L 149.56,217.70 L 150.82,216.15 L 152.09,214.60 L 153.36,213.05 L 154.64,211.51 L 155.92,209.98 L 157.22,208.45 L 158.52,206.93 L 159.82,205.42 L 161.14,203.91 L 162.46,202.40 L 163.78,200.90 L 165.12,199.41 L 166.46,197.93 L 167.80,196.45 L 169.16,194.97 L 170.52,193.50 L 171.88,192.04 L 173.25,190.59 L 174.63,189.14 L 176.02,187.69 L 177.41,186.25 L 178.81,184.82 L 180.21,183.40 L 181.63,181.98 L 183.04,180.57 L 184.47,179.16 L 185.90,177.76 L 187.33,176.37 L 188.77,174.98 L 190.22,173.60 L 191.68,172.22 L 193.14,170.86 L 194.60,169.50 L 196.08,168.14 L 197.56,166.79 L 199.04,165.45 L 200.53,164.12 L 202.03,162.79 L 203.53,161.47 L 205.04,160.15 L 206.55,158.84 L 208.07,157.54 L 209.60,156.25 L 211.13,154.96 L 212.67,153.68 L 214.21,152.40 L 215.76,151.14 L 217.31,149.88 L 218.87,148.62 L 220.44,147.38 L 222.01,146.14 L 223.58,144.90 L 225.17,143.68 L 226.75,142.46 L 228.34,141.25 L 229.94,140.04 L 231.55,138.85 L 233.15,137.66 L 234.77,136.47 L 236.39,135.30 L 238.01,134.13 L 239.64,132.97 L 241.28,131.81 L 242.92,130.67 L 244.56,129.53 L 246.21,128.39 L 247.87,127.27 L 249.53,126.15 L 251.19,125.04 L 252.86,123.94 L 254.53,122.84 L 256.21,121.76 L 257.90,120.68 L 259.59,119.60 L 261.28,118.54 L 262.98,117.48 L 264.68,116.43 L 266.39,115.39 L 268.10,114.35 L 269.82,113.32 L 271.54,112.30 L 273.27,111.29 L 275.00,110.29 L 276.74,109.29 L 278.47,108.30 L 280.22,107.32 L 281.97,106.35 L 283.72,105.38 L 285.48,104.42 L 287.24,103.47 L 289.00,102.53 L 290.77,101.60 L 292.55,100.67 L 294.32,99.75 L 296.11,98.84 L 297.89,97.94 L 299.68,97.05 L 301.47,96.16 L 303.27,95.28 L 305.07,94.41 L 306.88,93.55 L 308.69,92.69 L 310.50,91.84 L 312.32,91.01 L 314.14,90.18 L 315.96,89.35 L 317.79,88.54 L 319.62,87.73 L 321.46,86.93 L 323.30,86.15 L 325.14,85.36 L 326.98,84.59 L 328.83,83.82 L 330.69,83.07 L 332.54,82.32 L 334.40,81.58 L 336.26,80.85 L 338.13,80.12 L 340.00,79.41 L 341.87,78.70 L 343.74,78.00 L 345.62,77.31 L 347.50,76.63 L 349.39,75.95 L 351.27,75.29 L 353.16,74.63 L 355.06,73.98 L 356.95,73.34 L 358.85,72.71 L 360.75,72.09 L 362.66,71.47 L 364.56,70.86 L 366.47,70.27 L 368.38,69.68 L 370.30,69.10 L 372.22,68.52 L 374.14,67.96 L 376.06,67.40 L 377.98,66.86 L 379.91,66.32 L 381.84,65.79 L 383.77,65.27 L 385.71,64.76 L 387.64,64.25 L 389.58,63.76 L 391.52,63.27 L 393.47,62.79 L 395.41,62.32 L 397.36,61.86 L 399.31,61.41 L 401.26,60.97 L 403.21,60.53 L 405.17,60.11 L 407.12,59.69 L 409.08,59.28 L 411.04,58.88 L 413.01,58.49 L 414.97,58.11 L 416.94,57.73 L 418.90,57.37 L 420.87,57.01 L 422.84,56.66 L 424.82,56.33 L 426.79,56.00 L 428.76,55.67 L 430.74,55.36 L 432.72,55.06 L 434.70,54.76 L 436.68,54.48 L 438.66,54.20 L 440.64,53.93 L 442.63,53.67 L 444.61,53.42 L 446.60,53.18 L 448.59,52.95 L 450.57,52.72 L 452.56,52.51 L 454.55,52.30 L 456.55,52.10 L 458.54,51.91 L 460.53,51.73 L 462.52,51.56 L 464.52,51.40 L 466.51,51.25 L 468.51,51.10 L 470.51,50.97 L 472.50,50.84 L 474.50,50.72 L 476.50,50.61 L 478.50,50.51 L 480.50,50.42 L 482.50,50.34 L 484.50,50.27 L 486.50,50.20 L 488.50,50.15 L 490.50,50.10 L 492.50,50.06 L 494.50,50.03 L 496.50,50.01 L 498.50,50.00 L 500.50,50.00 L 502.50,50.01 L 504.50,50.02 L 506.50,50.05 L 508.50,50.08 L 510.50,50.12 L 512.50,50.17 L 514.50,50.23 L 516.50,50.30 L 518.50,50.38 L 520.50,50.47 L 522.50,50.56 L 524.50,50.67 L 526.50,50.78 L 528.50,50.90 L 530.49,51.03 L 532.49,51.17 L 534.48,51.32 L 536.48,51.48 L 538.47,51.65 L 540.47,51.82 L 542.46,52.01 L 544.45,52.20 L 546.44,52.40 L 548.43,52.61 L 550.42,52.83 L 552.41,53.06 L 554.39,53.30 L 556.38,53.55 L 558.36,53.80 L 560.35,54.06 L 562.33,54.34 L 564.31,54.62 L 566.29,54.91 L 568.27,55.21 L 570.25,55.52 L 572.22,55.83 L 574.20,56.16 L 576.17,56.49 L 578.14,56.84 L 580.11,57.19 L 582.08,57.55 L 584.05,57.92 L 586.01,58.30 L 587.97,58.68 L 589.94,59.08 L 591.90,59.48 L 593.85,59.90 L 595.81,60.32 L 597.76,60.75 L 599.72,61.19 L 601.67,61.63 L 603.61,62.09 L 605.56,62.56 L 607.51,63.03 L 609.45,63.51 L 611.39,64.00 L 613.32,64.50 L 615.26,65.01 L 617.19,65.53 L 619.12,66.05 L 621.05,66.59 L 622.98,67.13 L 624.90,67.68 L 626.82,68.24 L 628.74,68.81 L 630.66,69.39 L 632.57,69.97 L 634.48,70.56 L 636.39,71.17 L 638.30,71.78 L 640.20,72.40 L 642.10,73.02 L 644.00,73.66 L 645.89,74.31 L 647.78,74.96 L 649.67,75.62 L 651.56,76.29 L 653.44,76.97 L 655.32,77.65 L 657.19,78.35 L 659.07,79.05 L 660.94,79.76 L 662.81,80.48 L 664.67,81.21 L 666.53,81.95 L 668.39,82.69 L 670.24,83.45 L 672.09,84.21 L 673.94,84.98 L 675.78,85.75 L 677.62,86.54 L 679.46,87.33 L 681.29,88.14 L 683.12,88.95 L 684.95,89.76 L 686.77,90.59 L 688.59,91.42 L 690.40,92.27 L 692.22,93.12 L 694.02,93.98 L 695.83,94.84 L 697.63,95.72 L 699.42,96.60 L 701.21,97.49 L 703.00,98.39 L 704.79,99.30 L 706.57,100.21 L 708.34,101.13 L 710.11,102.06 L 711.88,103.00 L 713.64,103.95 L 715.40,104.90 L 717.16,105.86 L 718.91,106.83 L 720.65,107.81 L 722.40,108.80 L 724.13,109.79 L 725.87,110.79 L 727.59,111.80 L 729.32,112.81 L 731.04,113.84 L 732.75,114.87 L 734.46,115.91 L 736.17,116.95 L 737.87,118.01 L 739.57,119.07 L 741.26,120.14 L 742.94,121.21 L 744.63,122.30 L 746.30,123.39 L 747.98,124.49 L 749.64,125.60 L 751.30,126.71 L 752.96,127.83 L 754.61,128.96 L 756.26,130.09 L 757.90,131.24 L 759.54,132.39 L 761.17,133.55 L 762.80,134.71 L 764.42,135.88 L 766.04,137.06 L 767.65,138.25 L 769.26,139.44 L 770.86,140.64 L 772.45,141.85 L 774.04,143.07 L 775.63,144.29 L 777.21,145.52 L 778.78,146.75 L 780.35,148.00 L 781.91,149.25 L 783.47,150.50 L 785.02,151.77 L 786.56,153.04 L 788.10,154.32 L 789.64,155.60 L 791.17,156.89 L 792.69,158.19 L 794.21,159.50 L 795.72,160.81 L 797.22,162.13 L 798.72,163.45 L 800.22,164.78 L 801.70,166.12 L 803.18,167.47 L 804.66,168.82 L 806.13,170.18 L 807.59,171.54 L 809.05,172.91 L 810.50,174.29 L 811.95,175.67 L 813.39,177.06 L 814.82,178.46 L 816.25,179.86 L 817.67,181.27 L 819.08,182.69 L 820.49,184.11 L 821.89,185.54 L 823.29,186.97 L 824.67,188.41 L 826.06,189.86 L 827.43,191.31 L 828.80,192.77 L 830.16,194.24 L 831.52,195.71 L 832.87,197.19 L 834.21,198.67 L 835.55,200.16 L 836.88,201.65 L 838.20,203.15 L 839.52,204.66 L 840.83,206.17 L 842.13,207.69 L 843.43,209.22 L 844.72,210.75 L 846.00,212.28 L 847.28,213.82 L 848.55,215.37 L 849.81,216.92 L 851.07,218.48 L 852.31,220.04 L 853.56,221.61 L 854.79,223.19 L 856.02,224.77 L 857.24,226.36 L 858.45,227.95 L 859.66,229.54 L 860.86,231.14 L 862.05,232.75 L 863.23,234.36 L 864.41,235.98 L 865.58,237.61 L 866.74,239.23 L 867.90,240.87 L 869.05,242.51 L 870.19,244.15 L 871.32,245.80 L 872.45,247.45 L 873.57,249.11 L 874.68,250.77 L 875.79,252.44 L 876.88,254.12 L 877.97,255.79 L 879.06,257.48 L 880.13,259.17 L 881.20,260.86 L 882.26,262.56 L 883.31,264.26 L 884.35,265.96 L 885.39,267.68 L 886.42,269.39 L 887.44,271.11 L 888.45,272.84 L 889.46,274.57 L 890.46,276.30 L 891.45,278.04 L 892.43,279.78 L 893.41,281.53 L 894.38,283.28 L 895.34,285.04 L 896.29,286.80 L 897.23,288.56 L 898.17,290.33 L 899.10,292.10 L 900.02,293.88 L 900.93,295.66 L 901.83,297.44 L 902.73,299.23 L 903.62,301.03 L 904.50,302.82 L 905.37,304.62 L 906.24,306.43 L 907.10,308.24 L 907.94,310.05 L 908.78,311.86 L 909.62,313.68 L 910.44,315.51 L 911.26,317.33 L 912.07,319.16 L 912.87,321.00 L 913.66,322.84 L 914.44,324.68 L 915.22,326.52 L 915.98,328.37 L 916.74,330.22 L 917.49,332.08 L 918.24,333.93 L 918.97,335.80 L 919.70,337.66 L 920.42,339.53 L 921.12,341.40 L 921.83,343.27 L 922.52,345.15 L 923.20,347.03 L 923.88,348.91 L 924.55,350.80 L 925.21,352.69 L 925.86,354.58 L 926.50,356.48 L 927.13,358.38 L 927.76,360.28 L 928.38,362.18 L 928.98,364.09 L 929.58,366.00 L 930.18,367.91 L 930.76,369.82 L 931.33,371.74 L 931.90,373.66 L 932.46,375.58 L 933.01,377.50 L 933.55,379.43 L 934.08,381.36 L 934.60,383.29 L 935.12,385.22 L 935.62,387.16 L 936.12,389.10 L 936.61,391.04 L 937.09,392.98 L 937.56,394.93 L 938.02,396.87 L 938.48,398.82 L 938.92,400.77 L 939.36,402.72 L 939.79,404.68 L 940.21,406.64 L 940.62,408.59 L 941.02,410.55 L 941.41,412.52 L 941.80,414.48 L 942.17,416.45 L 942.54,418.41 L 942.90,420.38 L 943.25,422.35 L 943.59,424.32 L 943.92,426.30 L 944.25,428.27 L 944.56,430.25 L 944.87,432.22 L 945.16,434.20 L 945.45,436.18 L 945.73,438.16 L 946.00,440.15 L 946.26,442.13 L 946.52,444.12 L 946.76,446.10 L 947.00,448.09 L 947.22,450.08 L 947.44,452.07 L 947.65,454.06 L 947.85,456.05 L 948.04,458.04 L 948.22,460.03 L 948.39,462.03 L 948.56,464.02 L 948.71,466.02 L 948.86,468.01 L 949.00,470.01 L 949.13,472.00 L 949.25,474.00 L 949.36,476.00 L 949.46,478.00 L 949.56,480.00 L 949.64,482.00 L 949.72,484.00 L 949.78,486.00 L 949.84,488.00 L 949.89,490.00 L 949.93,492.00 L 949.96,494.00 L 949.98,496.00 L 950.00,498.00 Z" fill="none" stroke="black" stroke-width="3"/>
<path d="M 935.42,498.58 L 934.11,512.71 L 934.74,529.52 L 934.10,541.25 L 930.90,556.45 L 928.28,571.26 L 924.90,585.56 L 923.87,599.83 L 918.77,614.95 L 916.77,626.21 L 911.95,642.99 L 905.92,654.09 L 902.00,668.99 L 893.94,680.65 L 889.48,696.11 L 883.08,708.49 L 874.63,722.68 L 867.09,732.96 L 859.93,746.08 L 852.21,757.01 L 842.38,767.74 L 832.41,778.98 L 821.81,790.49 L 812.65,800.53 L 803.35,811.77 L 792.69,820.58 L 780.76,832.98 L 771.45,840.60 L 757.74,850.38 L 746.71,857.21 L 736.31,866.58 L 723.51,873.84 L 710.95,881.83 L 695.42,886.82 L 683.50,893.44 L 669.06,901.77 L 658.51,904.98 L 643.32,910.56 L 631.24,915.00 L 614.45,918.72 L 602.23,922.15 L 587.19,927.42 L 573.33,927.88 L 559.83,931.10 L 543.67,931.32 L 528.30,934.38 L 516.83,934.47 L 499.17,934.64 L 488.43,934.89 L 472.90,935.15 L 456.53,933.63 L 443.17,931.31 L 428.53,929.63 L 412.84,926.22 L 400.64,924.89 L 386.91,919.03 L 372.77,915.01 L 359.30,912.30 L 344.72,906.99 L 331.29,899.77 L 319.36,895.48 L 305.46,888.75 L 291.13,881.86 L 277.72,876.06 L 267.11,867.68 L 254.09,857.89 L 243.18,851.61 L 230.03,842.03 L 217.99,833.08 L 209.87,822.28 L 197.68,813.00 L 187.46,804.40 L 177.34,791.14 L 168.76,782.52 L 157.93,769.30 L 152.08,759.57 L 141.42,746.58 L 132.97,734.43 L 125.48,722.36 L 118.43,709.50 L 110.71,697.06 L 105.25,685.71 L 100.83,669.08 L 93.86,658.34 L 88.43,642.21 L 86.33,630.67 L 80.56,616.47 L 78.17,601.58 L 72.66,587.21 L 71.13,574.01 L 69.68,559.34 L 68.83,544.17 L 65.74,529.48 L 66.40,515.68 L 64.07,500.81 L 65.01,484.83 L 65.15,473.24 L 67.00,457.63 L 68.89,441.75 L 72.53,428.81 L 74.90,415.76 L 77.85,398.37 L 80.09,385.39 L 84.15,370.06 L 88.29,359.97 L 93.24,344.83 L 98.86,331.18 L 106.62,318.74 L 111.29,305.72 L 117.27,290.74 L 126.39,279.81 L 133.19,267.12 L 139.18,255.32 L 149.46,243.50 L 156.60,233.04 L 166.13,218.70 L 176.56,209.96 L 186.02,196.96 L 197.54,187.74 L 207.92,178.26 L 217.56,169.21 L 229.82,160.43 L 239.61,151.53 L 252.29,141.56 L 264.86,133.76 L 276.94,126.97 L 289.65,118.41 L 304.40,113.70 L 315.54,104.59 L 328.48,101.24 L 344.67,95.26 L 355.84,88.42 L 371.92,85.20 L 384.25,82.24 L 399.36,75.44 L 413.07,73.37 L 427.81,72.43 L 439.61,67.91 L 454.89,67.38 L 468.88,66.38 L 485.66,64.37 L 498.95,64.29 L 513.99,66.44 L 528.58,64.65 L 542.74,66.46 L 554.93,69.49 L 572.14,70.24 L 585.77,73.55 L 599.94,75.22 L 612.01,81.16 L 629.36,84.44 L 642.03,88.74 L 654.52,92.65 L 667.57,100.01 L 683.19,106.13 L 695.70,110.04 L 707.47,116.88 L 722.51,126.87 L 732.93,133.16 L 745.09,142.62 L 758.26,150.59 L 770.42,159.67 L 778.56,167.79 L 791.14,178.54 L 802.46,187.58 L 813.44,196.71 L 822.64,206.10 L 833.10,219.98 L 839.74,230.33 L 849.86,241.08 L 858.74,251.86 L 864.99,264.64 L 873.02,278.17 L 882.63,289.84 L 887.99,302.17 L 895.79,316.49 L 901.19,327.59 L 907.12,342.11 L 911.78,355.07 L 914.09,370.27 L 919.78,382.89 L 923.29,398.46 L 925.59,411.87 L 928.07,427.47 L 929.38,441.50 L 932.84,456.25 L 934.63,469.59 L 934.32,483.24 Z" fill="none" stroke="red" stroke-width="2"/>
<path d="M 920.91,498.12 L 918.56,513.31 L 920.44,527.91 L 918.59,539.55 L 915.74,553.89 L 912.37,568.56 L 911.52,583.13 L 910.48,596.73 L 903.71,611.13 L 900.91,621.22 L 897.57,638.31 L 892.36,648.66 L 888.00,662.32 L 880.22,675.61 L 876.97,688.38 L 868.66,701.36 L 862.14,714.52 L 855.38,725.68 L 848.07,736.79 L 839.19,746.74 L 829.80,758.43 L 821.97,768.06 L 810.42,780.82 L 800.92,790.73 L 792.87,800.25 L 783.04,808.02 L 771.85,822.32 L 760.92,828.64 L 747.88,839.67 L 738.24,843.52 L 727.44,855.02 L 715.68,861.87 L 704.20,870.16 L 688.95,874.78 L 678.34,880.19 L 663.90,887.96 L 654.03,891.15 L 627.91,901.43 L 610.42,903.53 L 597.94,907.98 L 584.99,912.78 L 571.18,912.42 L 556.50,915.60 L 541.47,915.85 L 527.45,918.33 L 515.45,920.07 L 499.82,918.34 L 488.56,920.02 L 473.58,919.30 L 457.79,919.92 L 445.38,917.03 L 432.06,915.63 L 415.49,910.04 L 403.61,911.05 L 391.88,905.91 L 376.93,901.42 L 364.28,898.42 L 349.23,892.13 L 336.93,884.54 L 325.10,882.37 L 311.89,874.33 L 298.23,867.59 L 285.72,861.73 L 274.81,855.20 L 261.17,845.96 L 250.94,839.38 L 237.98,829.89 L 226.81,821.11 L 220.69,810.77 L 208.86,803.20 L 197.46,792.69 L 187.04,781.21 L 181.67,772.34 L 170.17,760.87 L 154.23,738.84 L 146.96,725.45 L 136.94,713.66 L 130.45,702.79 L 124.28,689.44 L 119.42,680.13 L 113.65,663.55 L 108.58,651.73 L 103.56,638.71 L 99.46,624.73 L 94.45,612.99 L 94.13,597.76 L 88.01,582.93 L 86.48,571.84 L 83.35,558.11 L 84.80,542.94 L 79.57,529.91 L 82.23,514.68 L 78.86,500.40 L 80.02,484.88 L 81.17,475.13 L 80.75,460.48 L 84.16,444.75 L 87.95,431.08 L 90.31,420.08 L 91.74,402.80 L 94.68,389.29 L 98.28,375.23 L 101.80,365.86 L 108.25,348.93 L 113.83,336.23 L 120.14,325.35 L 124.35,311.01 L 131.48,296.98 L 138.45,288.32 L 145.37,276.30 L 162.16,251.68 L 166.98,243.59 L 176.36,229.03 L 187.70,220.75 L 197.39,207.82 L 207.95,199.39 L 216.78,188.53 L 227.88,180.03 L 239.41,172.09 L 248.68,163.32 L 261.56,153.39 L 273.57,145.70 L 283.90,138.70 L 295.97,130.41 L 311.28,127.87 L 320.94,117.33 L 334.36,115.69 L 351.47,109.33 L 360.15,101.38 L 375.43,98.72 L 387.29,95.23 L 402.92,89.35 L 417.48,88.23 L 430.90,86.10 L 442.79,82.73 L 457.57,82.52 L 469.86,81.16 L 485.21,78.02 L 500.31,79.23 L 514.47,81.14 L 526.32,80.01 L 539.93,80.33 L 553.22,83.78 L 571.14,83.89 L 583.60,88.57 L 597.38,89.00 L 608.21,95.50 L 636.96,104.00 L 650.67,106.10 L 662.13,114.17 L 677.59,121.07 L 688.10,122.58 L 700.81,129.04 L 713.85,138.48 L 723.40,145.68 L 736.89,154.36 L 748.54,163.27 L 761.70,171.28 L 769.48,180.56 L 781.94,190.04 L 792.51,199.65 L 802.44,207.27 L 811.99,217.43 L 822.60,228.35 L 826.99,239.08 L 838.55,250.21 L 845.77,259.27 L 852.95,273.37 L 861.46,285.84 L 869.47,295.81 L 873.25,308.78 L 881.65,322.05 L 886.18,334.90 L 894.14,347.76 L 898.99,361.55 L 900.29,374.06 L 903.95,387.69 L 908.62,402.42 L 912.15,413.96 L 913.54,430.38 L 914.49,442.30 L 917.46,457.26 L 920.17,471.71 Z" fill="none" stroke="blue" stroke-width="2"/>
<path d="M 905.40,498.76 L 902.93,514.17 L 906.41,527.06 L 903.52,537.59 L 900.33,553.37 L 897.28,566.15 L 898.28,580.63 L 896.01,593.03 L 888.31,606.73 L 887.32,617.26 L 884.18,632.50 L 878.48,644.63 L 873.97,657.12 L 865.47,670.73 L 863.88,680.89 L 854.47,694.32 L 849.39,705.65 L 844.20,718.88 L 835.55,727.21 L 828.06,737.91 L 818.65,749.20 L 809.77,759.46 L 800.74,769.99 L 790.29,779.96 L 783.66,789.53 L 774.03,798.06 L 761.51,811.72 L 751.34,818.19 L 739.06,828.51 L 729.04,830.59 L 708.26,850.48 L 696.92,855.97 L 682.31,860.92 L 672.13,866.74 L 657.93,873.60 L 647.61,877.79 L 623.58,886.33 L 607.29,887.69 L 595.17,894.01 L 582.90,897.75 L 569.12,898.60 L 555.93,900.72 L 538.60,900.93 L 526.74,904.47 L 516.02,904.90 L 499.91,903.21 L 489.63,904.76 L 474.99,903.29 L 459.20,906.40 L 446.85,902.73 L 434.93,901.88 L 419.58,896.43 L 406.68,895.90 L 396.40,892.19 L 382.44,885.68 L 367.82,884.61 L 355.88,879.63 L 343.53,870.53 L 330.14,869.13 L 306.57,854.27 L 293.95,850.03 L 281.49,843.42 L 269.07,833.24 L 258.75,827.38 L 247.50,819.02 L 235.54,808.42 L 231.83,799.98 L 218.47,793.62 L 207.17,782.14 L 197.46,770.45 L 191.60,763.50 L 183.14,752.10 L 165.55,730.14 L 159.14,717.64 L 150.29,705.82 L 142.85,696.61 L 136.78,682.34 L 132.93,672.92 L 127.67,657.93 L 124.04,645.70 L 119.16,634.23 L 113.10,620.47 L 109.46,609.70 L 107.36,594.57 L 102.70,581.19 L 100.62,570.17 L 98.52,555.59 L 100.13,541.76 L 95.06,529.51 L 94.33,501.40 L 95.39,486.63 L 96.59,475.45 L 95.51,462.12 L 99.73,445.49 L 102.13,434.29 L 104.06,421.84 L 106.45,407.69 L 109.24,394.48 L 113.59,378.95 L 116.98,370.59 L 123.16,355.07 L 127.16,340.93 L 135.15,330.54 L 139.15,318.83 L 145.29,305.66 L 152.80,296.81 L 157.66,285.17 L 172.79,260.68 L 178.73,253.26 L 188.38,238.91 L 199.85,232.06 L 207.01,217.44 L 216.97,211.30 L 227.06,200.87 L 236.76,190.15 L 249.71,185.06 L 257.06,175.07 L 268.98,167.09 L 291.01,151.55 L 302.01,144.70 L 316.98,141.11 L 327.81,131.65 L 341.64,129.22 L 357.53,122.32 L 364.86,114.33 L 379.85,112.77 L 392.67,108.28 L 405.99,103.78 L 421.79,104.00 L 432.17,101.45 L 444.96,99.03 L 458.66,97.14 L 470.01,94.99 L 486.78,92.87 L 500.79,94.65 L 514.25,94.69 L 526.25,94.21 L 537.39,95.46 L 550.03,99.45 L 567.73,97.82 L 581.73,102.76 L 592.87,104.79 L 602.84,111.07 L 631.00,117.07 L 644.56,119.13 L 656.81,126.58 L 669.77,135.52 L 680.62,135.48 L 705.24,150.05 L 716.13,158.45 L 729.15,166.66 L 740.47,175.38 L 751.18,183.03 L 761.15,190.65 L 772.70,202.23 L 782.11,210.28 L 793.05,216.39 L 800.81,227.21 L 811.68,237.99 L 816.49,247.15 L 825.22,259.44 L 832.15,267.16 L 840.73,281.62 L 848.03,294.97 L 856.43,302.92 L 860.21,314.42 L 868.66,329.45 L 872.84,341.60 L 880.81,352.31 L 884.67,365.65 L 885.50,378.42 L 889.25,390.49 L 893.81,406.40 L 897.09,415.98 L 900.01,431.57 L 900.63,443.15 L 901.33,459.50 Z" fill="none" stroke="green" stroke-width="2"/>
<path d="M 891.34,498.98 L 888.20,513.83 L 890.93,524.94 L 888.15,536.70 L 886.21,552.49 L 883.15,565.09 L 883.88,577.22 L 881.64,588.74 L 874.31,601.93 L 871.79,613.95 L 869.60,628.40 L 864.69,640.20 L 861.18,652.74 L 852.83,664.73 L 850.88,672.79 L 842.60,688.10 L 835.76,697.09 L 832.15,710.26 L 822.65,717.32 L 817.02,729.31 L 806.53,738.89 L 798.66,748.42 L 790.31,759.12 L 779.25,769.07 L 772.77,779.49 L 764.71,787.23 L 750.62,798.89 L 741.01,806.78 L 730.76,815.70 L 701.09,837.55 L 689.49,842.16 L 676.31,846.37 L 665.54,852.51 L 652.62,859.75 L 642.65,862.45 L 618.69,872.35 L 601.81,872.64 L 590.79,878.35 L 579.11,882.55 L 565.08,884.56 L 552.88,885.51 L 537.77,886.00 L 526.75,890.42 L 514.14,890.99 L 498.54,886.76 L 491.28,890.85 L 476.15,888.54 L 461.33,891.23 L 447.66,886.42 L 436.81,887.98 L 422.92,882.73 L 411.38,880.06 L 401.26,876.92 L 387.09,871.41 L 372.39,869.86 L 360.73,865.10 L 348.38,856.75 L 312.60,841.13 L 302.78,836.66 L 290.22,831.72 L 278.56,820.12 L 266.59,814.40 L 257.12,808.04 L 245.78,796.07 L 242.65,788.78 L 229.62,783.58 L 217.82,773.01 L 208.84,760.86 L 203.38,754.85 L 195.26,741.71 L 176.61,721.47 L 171.19,708.90 L 161.88,698.24 L 155.43,689.24 L 148.85,676.61 L 145.23,667.63 L 142.55,652.42 L 138.05,640.17 L 133.47,630.12 L 128.61,615.87 L 124.83,606.10 L 121.41,590.99 L 116.35,576.87 L 114.21,568.78 L 112.91,554.18 L 115.06,539.23 L 108.58,501.16 L 110.20,487.20 L 110.53,475.98 L 109.79,463.25 L 114.10,447.82 L 117.80,437.18 L 117.47,423.54 L 121.59,410.47 L 124.39,398.86 L 129.12,384.56 L 130.69,375.64 L 136.09,360.01 L 142.36,347.42 L 148.43,337.15 L 153.86,324.99 L 158.08,313.75 L 166.68,304.90 L 171.35,293.87 L 185.46,269.61 L 191.06,262.16 L 199.46,248.13 L 210.08,241.20 L 219.14,227.81 L 226.65,220.93 L 235.90,212.99 L 245.27,202.39 L 260.05,197.96 L 264.65,186.59 L 299.52,163.31 L 308.94,156.79 L 324.78,155.29 L 335.09,144.23 L 347.34,142.75 L 363.35,135.56 L 369.65,127.84 L 385.04,126.94 L 396.74,122.18 L 410.38,118.28 L 425.70,118.32 L 436.03,117.69 L 446.89,113.23 L 459.84,112.15 L 472.52,110.90 L 488.18,106.78 L 500.01,110.08 L 514.84,109.85 L 524.09,110.21 L 537.06,109.75 L 548.96,113.66 L 566.46,111.56 L 578.52,118.79 L 588.61,119.25 L 598.56,124.15 L 624.80,131.27 L 638.45,134.64 L 650.63,138.99 L 664.73,150.14 L 698.11,163.86 L 707.02,170.48 L 721.64,179.62 L 730.46,188.05 L 741.72,193.30 L 750.21,201.39 L 763.57,213.45 L 772.33,221.11 L 781.11,226.19 L 789.11,235.93 L 799.96,248.52 L 804.65,255.35 L 814.38,268.65 L 818.42,275.82 L 827.33,288.65 L 834.90,302.93 L 842.53,309.94 L 847.37,320.05 L 856.47,334.45 L 859.12,347.49 L 868.29,357.90 L 870.18,370.51 L 871.60,384.38 L 874.07,393.11 L 880.08,409.40 L 883.11,419.48 L 886.04,434.81 L 885.28,443.90 Z" fill="none" stroke="purple" stroke-width="2"/>
<path d="M 876.47,499.97 L 872.24,514.14 L 875.86,524.57 L 873.61,536.22 L 870.04,551.31 L 868.23,561.96 L 867.80,573.36 L 865.65,586.65 L 859.89,599.46 L 857.58,608.82 L 856.19,622.55 L 850.26,635.66 L 848.46,646.39 L 838.11,657.99 L 838.59,666.90 L 830.64,680.55 L 824.25,689.49 L 819.47,703.51 L 810.27,709.84 L 805.55,719.26 L 795.01,730.64 L 787.27,738.30 L 777.86,749.61 L 767.87,758.97 L 762.08,769.32 L 754.10,774.82 L 742.09,786.96 L 733.24,794.31 L 694.85,826.00 L 680.94,829.46 L 669.10,833.91 L 659.70,840.29 L 645.69,846.26 L 638.00,847.10 L 612.84,858.89 L 597.46,857.82 L 587.49,864.07 L 576.61,869.21 L 562.19,870.56 L 551.06,870.73 L 536.00,871.52 L 524.98,874.30 L 514.31,876.00 L 498.26,871.95 L 490.90,875.14 L 476.91,875.06 L 462.16,877.55 L 449.64,870.43 L 440.28,873.03 L 427.08,867.86 L 413.55,866.00 L 406.10,861.87 L 390.99,855.75 L 377.41,856.85 L 367.13,851.72 L 321.11,828.40 L 311.24,823.74 L 297.11,818.15 L 286.02,808.66 L 274.12,802.52 L 266.02,797.18 L 255.71,785.03 L 251.39,777.01 L 241.47,773.38 L 228.68,763.39 L 220.98,749.58 L 216.18,745.51 L 206.87,732.93 L 188.52,714.13 L 184.69,701.28 L 173.87,692.05 L 168.38,683.25 L 160.92,668.75 L 157.75,660.22 L 155.82,647.17 L 151.58,636.08 L 148.79,626.14 L 142.19,611.81 L 139.42,600.90 L 135.40,587.59 L 131.07,572.94 L 130.30,565.11 L 128.25,552.77 L 123.89,502.15 L 125.38,488.67 L 124.09,475.54 L 125.15,464.89 L 129.42,450.63 L 132.35,440.04 L 132.18,426.86 L 135.55,415.30 L 138.83,403.68 L 144.00,388.41 L 143.63,379.11 L 149.90,365.35 L 155.26,353.63 L 161.48,344.11 L 167.95,332.84 L 172.68,319.82 L 179.24,312.67 L 183.51,301.74 L 196.86,277.72 L 201.74,270.69 L 210.61,258.12 L 220.51,252.28 L 228.89,237.73 L 237.38,231.08 L 246.84,224.02 L 255.07,213.79 L 268.80,208.27 L 308.53,176.22 L 317.64,169.04 L 331.14,167.31 L 341.38,158.99 L 353.70,156.46 L 368.73,150.65 L 374.40,143.14 L 390.14,142.07 L 400.29,136.35 L 414.02,131.97 L 428.72,131.76 L 438.52,133.28 L 448.27,129.56 L 461.93,125.92 L 475.00,125.55 L 489.51,121.29 L 501.33,125.84 L 513.37,124.86 L 523.17,123.82 L 534.56,124.18 L 547.00,128.41 L 564.25,126.39 L 574.98,133.82 L 584.20,135.33 L 595.47,138.06 L 619.51,146.46 L 633.24,149.29 L 644.25,153.79 L 690.10,177.31 L 700.49,183.44 L 714.00,192.63 L 722.12,198.70 L 732.36,206.49 L 741.43,213.71 L 753.65,225.15 L 762.10,230.85 L 770.76,237.01 L 779.06,244.99 L 789.01,256.76 L 794.30,263.58 L 800.86,276.99 L 805.11,285.03 L 814.46,297.61 L 823.23,311.66 L 830.12,315.90 L 832.97,326.07 L 842.34,341.26 L 845.39,352.80 L 853.32,364.54 L 855.55,375.03 L 858.10,389.50 L 860.08,397.81 L 865.82,411.96 L 867.67,422.74 L 870.43,438.73 Z" fill="none" stroke="orange" stroke-width="2"/>
<path d="M 860.87,499.34 L 856.37,514.20 L 860.34,523.15 L 859.98,535.67 L 854.50,548.12 L 853.97,559.12 L 854.53,571.39 L 852.42,584.11 L 844.80,594.84 L 843.86,604.00 L 841.83,616.95 L 836.21,629.36 L 834.74,641.89 L 825.11,650.56 L 825.48,660.54 L 816.69,673.88 L 811.39,682.34 L 805.47,695.20 L 798.49,700.25 L 794.17,709.03 L 783.33,722.69 L 775.44,730.03 L 767.83,739.53 L 756.18,749.94 L 751.07,759.01 L 745.13,762.58 L 732.63,775.60 L 687.82,814.44 L 674.96,815.34 L 663.46,819.56 L 654.59,828.20 L 639.56,832.42 L 633.76,834.55 L 609.61,845.71 L 592.04,843.55 L 582.80,850.94 L 572.91,855.99 L 559.84,855.75 L 550.33,856.93 L 534.46,855.67 L 522.82,858.32 L 513.61,860.28 L 497.39,857.66 L 492.14,860.34 L 478.60,859.11 L 464.72,863.82 L 452.65,855.61 L 441.41,858.73 L 429.05,852.06 L 416.47,850.65 L 409.15,846.55 L 396.15,842.77 L 381.69,843.34 L 326.82,815.69 L 319.38,809.47 L 304.03,804.92 L 294.28,796.34 L 284.28,791.12 L 274.74,784.25 L 266.72,773.03 L 261.76,765.01 L 250.68,761.45 L 240.20,753.26 L 231.92,739.73 L 227.44,735.81 L 219.11,722.76 L 200.13,706.41 L 198.46,691.96 L 186.64,685.06 L 180.24,676.20 L 173.04,662.22 L 171.36,654.08 L 168.56,640.77 L 165.61,629.48 L 162.03,621.33 L 155.28,607.37 L 154.79,596.73 L 150.03,583.96 L 144.46,569.93 L 145.99,563.19 L 138.58,503.02 L 141.11,489.37 L 137.69,476.06 L 138.77,467.79 L 145.59,451.33 L 148.45,441.06 L 146.61,430.60 L 150.96,420.14 L 153.75,407.32 L 159.79,392.55 L 158.94,385.16 L 163.53,371.29 L 169.55,359.62 L 175.56,349.94 L 180.38,339.71 L 185.90,327.74 L 191.35,318.75 L 194.78,309.10 L 209.47,286.73 L 213.72,280.81 L 221.36,267.28 L 231.06,263.55 L 240.34,247.01 L 248.78,241.58 L 257.78,236.23 L 263.36,224.31 L 314.97,187.73 L 325.16,182.79 L 336.57,181.41 L 347.41,171.79 L 358.72,171.35 L 372.67,164.71 L 378.75,158.24 L 395.23,155.86 L 404.55,151.33 L 416.89,145.98 L 430.50,146.97 L 440.16,147.48 L 449.02,145.76 L 464.58,142.08 L 476.37,140.29 L 489.91,137.70 L 502.60,141.35 L 513.69,139.31 L 521.99,137.74 L 532.81,139.88 L 545.04,144.34 L 561.11,141.79 L 572.89,149.76 L 581.01,151.35 L 591.82,151.47 L 613.93,159.78 L 628.35,164.58 L 683.53,189.01 L 693.14,195.18 L 704.74,205.46 L 713.53,211.90 L 722.12,219.04 L 732.44,225.36 L 743.42,237.29 L 751.14,242.98 L 758.55,248.78 L 769.38,253.97 L 779.04,266.36 L 781.84,273.29 L 787.93,287.17 L 793.01,294.51 L 801.49,305.84 L 809.85,318.51 L 817.06,323.21 L 818.48,334.47 L 828.65,348.60 L 832.83,358.30 L 839.06,370.10 L 840.57,378.95 L 843.05,395.24 L 845.89,401.67 L 850.20,414.97 L 852.63,426.83 Z" fill="none" stroke="brown" stroke-width="2"/>
<path d="M 845.86,499.85 L 841.94,512.89 L 846.33,523.61 L 845.48,534.18 L 838.64,547.01 L 838.18,557.33 L 839.79,569.70 L 837.95,581.07 L 829.01,589.48 L 830.54,601.01 L 828.14,612.90 L 821.94,625.02 L 820.12,636.68 L 810.02,644.29 L 811.64,654.27 L 804.04,667.02 L 798.38,674.74 L 791.34,687.29 L 784.56,691.99 L 781.26,701.79 L 770.08,714.38 L 764.44,721.35 L 757.87,728.36 L 744.22,738.42 L 739.70,748.33 L 735.83,750.93 L 722.64,763.77 L 679.83,801.77 L 669.14,801.40 L 657.17,807.25 L 648.64,815.71 L 628.96,819.40 L 604.71,831.57 L 586.82,827.59 L 578.36,836.34 L 569.70,842.15 L 557.54,842.03 L 547.01,842.16 L 531.63,839.88 L 522.96,844.51 L 512.97,843.93 L 496.22,843.94 L 493.66,845.54 L 478.09,845.42 L 465.61,850.27 L 454.88,841.50 L 444.47,843.62 L 430.74,836.35 L 419.17,837.06 L 412.62,833.23 L 400.00,829.18 L 385.50,830.62 L 334.71,802.54 L 328.37,795.18 L 311.96,793.32 L 302.36,784.83 L 294.58,778.76 L 284.88,771.09 L 275.79,763.11 L 271.76,753.43 L 262.36,750.39 L 251.48,743.28 L 237.55,726.36 L 231.76,714.09 L 211.24,696.87 L 211.75,684.31 L 200.28,676.89 L 192.21,667.49 L 185.91,655.14 L 184.26,646.63 L 181.44,634.76 L 179.77,623.80 L 174.73,615.84 L 168.38,603.22 L 168.71,592.35 L 164.00,580.14 L 157.93,568.25 L 161.98,562.00 L 153.80,501.92 L 155.75,488.74 L 152.06,477.05 L 152.40,468.94 L 160.21,453.34 L 161.97,442.81 L 160.57,433.89 L 165.86,422.59 L 167.06,410.63 L 175.43,396.58 L 173.51,390.88 L 177.02,376.17 L 184.30,366.58 L 190.59,355.16 L 193.24,347.79 L 203.38,325.80 L 208.89,318.48 L 220.93,296.21 L 225.59,290.17 L 232.09,276.54 L 243.26,273.15 L 249.92,257.68 L 259.51,252.48 L 268.46,247.44 L 274.48,235.58 L 323.23,200.46 L 331.77,196.51 L 344.36,195.65 L 353.45,185.40 L 365.04,184.36 L 378.46,179.38 L 384.62,171.10 L 401.06,170.15 L 408.20,165.82 L 421.57,161.16 L 433.52,162.56 L 442.24,163.45 L 451.26,161.03 L 464.81,157.82 L 477.82,154.83 L 490.77,151.33 L 503.94,156.89 L 512.82,155.06 L 522.48,152.50 L 529.98,154.10 L 543.18,159.28 L 570.07,164.67 L 577.45,165.64 L 588.82,166.24 L 609.17,173.54 L 621.57,177.40 L 675.66,203.32 L 683.96,209.18 L 695.11,217.22 L 704.47,223.07 L 712.77,230.74 L 722.57,237.41 L 732.69,247.70 L 741.59,252.56 L 748.84,259.68 L 758.84,263.08 L 769.00,275.23 L 769.18,281.68 L 776.05,297.47 L 779.93,302.84 L 787.94,314.39 L 796.71,324.69 L 804.31,329.62 L 805.45,341.07 L 815.64,354.00 L 819.79,365.12 L 823.74,374.29 L 827.55,383.05 L 828.19,399.51 L 830.75,406.87 L 835.71,418.94 Z" fill="none" stroke="pink" stroke-width="2"/>
<path d="M 831.16,500.22 L 827.21,511.90 L 832.40,522.97 L 831.49,533.35 L 823.17,545.32 L 822.14,553.75 L 823.94,566.13 L 822.41,578.18 L 814.56,585.32 L 815.10,596.30 L 813.00,608.45 L 808.53,620.05 L 807.81,630.97 L 796.38,636.91 L 797.63,647.49 L 789.54,659.40 L 783.96,666.09 L 779.65,680.59 L 772.13,683.61 L 769.61,692.81 L 759.34,705.03 L 751.67,710.33 L 747.41,717.81 L 732.80,728.07 L 728.27,737.43 L 726.27,740.81 L 713.10,751.16 L 670.98,789.71 L 662.76,787.93 L 651.30,792.53 L 623.99,805.64 L 601.65,816.08 L 583.96,813.85 L 574.34,823.23 L 566.55,827.00 L 556.00,827.06 L 546.45,828.13 L 529.45,825.87 L 522.22,829.10 L 513.03,829.34 L 495.38,827.86 L 493.05,829.66 L 477.72,830.01 L 466.42,835.46 L 456.32,827.24 L 446.23,828.11 L 434.85,823.11 L 423.21,821.26 L 417.82,819.58 L 405.62,816.31 L 391.52,815.33 L 343.01,788.64 L 336.55,783.21 L 320.85,781.23 L 310.90,772.75 L 302.80,766.43 L 294.07,759.75 L 286.67,750.48 L 281.86,741.63 L 274.01,739.13 L 250.27,716.06 L 242.00,705.57 L 224.34,689.13 L 224.28,676.75 L 212.79,667.98 L 205.50,659.49 L 199.16,647.65 L 197.18,641.31 L 194.78,629.17 L 193.97,618.37 L 188.40,611.38 L 181.36,597.59 L 184.02,588.23 L 177.47,577.76 L 172.47,563.84 L 178.11,558.43 L 169.36,500.76 L 171.19,488.24 L 168.33,477.38 L 167.80,469.55 L 174.69,456.62 L 175.75,445.03 L 174.70,437.38 L 179.67,426.47 L 182.15,413.05 L 189.65,400.06 L 186.91,396.20 L 189.54,382.15 L 199.06,373.90 L 203.93,360.44 L 215.01,333.07 L 222.29,325.24 L 232.47,306.21 L 236.40,300.12 L 244.35,285.06 L 255.97,282.02 L 260.77,266.65 L 270.39,263.07 L 279.25,258.89 L 283.16,246.74 L 331.40,214.46 L 337.79,208.44 L 351.93,209.28 L 359.42,200.39 L 370.37,197.08 L 383.10,192.16 L 389.74,185.56 L 405.69,185.36 L 412.74,181.33 L 425.42,175.18 L 436.47,177.31 L 445.52,177.62 L 452.06,177.07 L 467.70,172.72 L 477.62,169.80 L 491.44,166.41 L 505.20,173.35 L 513.56,168.94 L 522.59,167.68 L 528.28,169.59 L 567.80,180.72 L 574.88,178.80 L 583.67,180.02 L 603.04,186.45 L 617.15,191.46 L 668.41,216.24 L 675.70,222.47 L 685.35,229.68 L 695.92,234.48 L 702.91,242.55 L 711.99,249.78 L 722.64,258.41 L 731.53,264.31 L 738.61,268.82 L 748.38,273.91 L 758.54,283.53 L 756.30,290.95 L 763.83,306.69 L 767.11,312.22 L 776.07,321.40 L 784.43,332.94 L 790.22,338.32 L 792.22,348.86 L 802.70,359.32 L 804.86,371.81 L 809.08,380.90 L 814.25,386.71 L 814.77,403.24 L 815.01,411.60 Z" fill="none" stroke="cyan" stroke-width="2"/>
<path d="M 816.39,498.97 L 812.08,510.96 L 817.43,522.16 L 816.16,531.14 L 807.12,543.48 L 808.01,550.50 L 809.26,561.79 L 808.91,573.91 L 799.99,581.07 L 799.70,593.24 L 799.89,603.73 L 795.78,615.35 L 793.76,624.59 L 782.50,631.30 L 783.49,639.59 L 776.01,652.19 L 772.20,657.57 L 767.95,673.91 L 761.04,673.94 L 757.29,683.45 L 748.59,695.23 L 740.31,699.25 L 735.24,708.10 L 721.48,717.96 L 715.88,730.17 L 703.36,740.55 L 662.44,778.00 L 656.15,774.11 L 642.92,778.94 L 617.55,791.28 L 598.08,802.93 L 581.43,797.86 L 571.46,809.66 L 564.24,811.11 L 553.56,811.49 L 544.33,811.95 L 529.60,811.57 L 520.00,815.39 L 513.64,814.41 L 496.20,812.47 L 494.80,813.42 L 477.53,813.94 L 468.89,819.26 L 458.52,812.18 L 450.06,812.52 L 437.11,807.86 L 427.62,807.27 L 422.28,804.51 L 395.73,799.87 L 349.31,776.31 L 344.32,769.19 L 327.92,768.49 L 319.18,760.54 L 313.13,753.51 L 302.84,747.30 L 295.28,738.05 L 292.49,731.49 L 284.92,726.87 L 262.64,705.75 L 252.53,695.49 L 236.30,680.71 L 237.46,667.96 L 227.22,659.03 L 218.41,652.23 L 213.38,640.32 L 210.67,635.91 L 207.52,621.89 L 208.96,614.44 L 201.43,607.33 L 195.33,593.62 L 198.91,584.47 L 191.33,575.21 L 191.44,554.48 L 185.57,500.59 L 185.07,490.02 L 184.28,477.93 L 181.37,470.83 L 188.55,458.85 L 191.50,447.25 L 188.01,440.79 L 193.30,429.00 L 195.67,416.37 L 205.07,403.29 L 201.49,400.18 L 202.94,387.23 L 213.03,378.41 L 216.83,365.77 L 227.04,341.82 L 235.06,333.64 L 245.51,315.91 L 249.81,310.04 L 255.40,294.86 L 267.10,293.27 L 271.50,276.80 L 279.86,273.31 L 288.52,271.15 L 339.85,226.06 L 346.55,221.64 L 359.54,224.15 L 367.21,212.77 L 376.74,210.17 L 389.37,207.44 L 393.37,201.20 L 409.15,200.77 L 417.59,195.37 L 429.79,190.84 L 438.40,192.30 L 448.94,193.01 L 455.51,190.49 L 469.78,188.99 L 478.83,184.95 L 490.90,182.86 L 506.11,188.32 L 512.39,183.90 L 520.36,181.84 L 526.17,184.62 L 563.20,196.65 L 570.59,192.30 L 580.54,195.79 L 599.41,200.18 L 659.34,229.41 L 668.95,235.98 L 677.93,243.15 L 688.41,246.19 L 694.97,254.03 L 701.12,260.65 L 711.41,268.43 L 722.38,275.90 L 729.24,279.72 L 736.33,285.44 L 747.64,294.47 L 745.56,299.62 L 752.01,314.60 L 754.28,321.44 L 762.37,330.26 L 772.86,341.91 L 776.81,347.13 L 780.31,354.38 L 789.42,366.94 L 792.45,376.82 L 795.29,387.63 L 799.07,392.56 L 799.66,409.13 Z" fill="none" stroke="magenta" stroke-width="2"/>
<path d="M 800.39,500.22 L 795.85,511.10 L 802.89,522.32 L 801.07,529.01 L 791.51,540.13 L 792.47,546.94 L 793.05,558.55 L 795.01,571.86 L 786.65,577.18 L 785.00,588.96 L 784.51,598.80 L 782.88,610.39 L 780.50,617.75 L 767.60,626.05 L 769.40,632.45 L 764.21,643.70 L 758.21,649.71 L 756.05,665.92 L 749.74,664.43 L 745.34,675.11 L 736.73,684.58 L 730.07,688.69 L 725.16,697.16 L 709.57,706.57 L 704.67,719.83 L 694.33,729.80 L 654.15,764.40 L 647.92,759.73 L 612.14,778.39 L 592.41,788.25 L 577.25,782.78 L 568.56,795.35 L 560.30,795.00 L 550.03,796.08 L 540.96,798.13 L 527.61,796.33 L 519.02,800.91 L 511.77,799.56 L 495.44,798.63 L 494.67,798.26 L 477.89,798.88 L 469.53,803.64 L 459.19,798.07 L 452.94,796.47 L 439.65,793.29 L 432.48,792.95 L 426.17,791.01 L 401.63,785.47 L 356.62,764.25 L 351.78,757.36 L 335.97,754.61 L 328.97,748.88 L 322.06,742.66 L 313.11,736.13 L 305.44,725.56 L 303.30,719.36 L 275.45,697.37 L 265.25,685.10 L 248.46,673.73 L 249.92,661.40 L 240.58,652.51 L 230.90,646.36 L 228.11,632.46 L 223.93,629.26 L 220.86,615.49 L 222.81,610.11 L 216.41,602.66 L 209.75,589.01 L 213.11,579.41 L 206.18,572.48 L 207.54,553.18 L 200.76,499.41 L 199.42,490.65 L 198.77,478.75 L 195.95,472.20 L 203.75,459.47 L 205.61,448.75 L 203.07,444.21 L 206.52,433.59 L 209.62,419.60 L 220.05,409.26 L 216.90,403.53 L 217.91,392.00 L 229.71,372.20 L 240.59,348.17 L 248.85,340.55 L 259.07,324.56 L 262.72,318.44 L 266.62,304.96 L 277.36,302.38 L 283.19,288.03 L 291.07,285.19 L 299.65,282.23 L 346.38,238.45 L 353.80,233.69 L 367.38,238.66 L 372.08,225.47 L 383.59,224.99 L 393.92,221.34 L 399.65,215.95 L 412.82,216.09 L 421.52,210.25 L 431.98,204.06 L 440.96,207.29 L 450.43,208.91 L 457.90,204.89 L 470.22,205.10 L 480.59,200.48 L 490.69,197.52 L 504.81,203.54 L 513.20,199.96 L 525.38,200.10 L 559.46,211.07 L 565.82,207.77 L 577.52,208.82 L 595.94,214.86 L 652.06,240.87 L 660.15,249.54 L 668.83,256.90 L 679.92,258.02 L 685.31,265.35 L 690.75,272.06 L 701.85,280.50 L 711.53,285.38 L 718.48,290.63 L 726.28,295.17 L 736.56,304.41 L 733.35,307.96 L 738.65,324.99 L 742.45,331.18 L 749.08,339.07 L 761.08,348.86 L 762.65,355.22 L 768.22,362.24 L 776.71,373.54 L 779.13,383.22 L 781.95,393.47 L 786.46,396.95 Z" fill="none" stroke="darkred" stroke-width="2"/>
<path d="M 785.15,499.93 L 779.47,511.22 L 788.14,520.34 L 786.81,526.79 L 776.75,538.99 L 778.87,545.13 L 778.35,556.69 L 781.45,569.49 L 771.20,572.12 L 769.55,583.81 L 771.25,594.71 L 767.94,605.52 L 766.16,610.76 L 753.58,620.43 L 755.34,626.73 L 750.51,635.85 L 744.60,643.28 L 743.35,658.89 L 737.44,657.55 L 731.83,667.59 L 724.88,676.48 L 718.10,678.60 L 697.54,697.12 L 693.35,707.97 L 684.35,718.56 L 647.81,751.32 L 639.94,747.35 L 607.37,764.44 L 588.23,772.99 L 573.71,766.82 L 564.50,781.52 L 556.31,781.09 L 547.51,782.08 L 537.70,783.62 L 526.63,781.10 L 519.49,785.59 L 509.81,783.67 L 495.31,782.18 L 494.42,784.26 L 478.10,784.45 L 471.43,787.96 L 461.84,782.74 L 454.21,781.31 L 442.97,777.60 L 430.86,775.87 L 405.92,771.98 L 364.10,750.60 L 360.47,745.88 L 343.66,743.23 L 337.08,735.61 L 332.32,731.85 L 322.17,723.58 L 315.96,713.13 L 314.06,708.50 L 285.76,687.11 L 277.51,674.47 L 261.96,664.52 L 262.66,651.96 L 255.03,645.44 L 244.57,637.81 L 242.19,625.70 L 237.18,623.10 L 234.67,608.77 L 237.36,605.02 L 229.94,598.10 L 224.59,583.98 L 221.07,567.85 L 223.30,549.37 L 216.41,498.35 L 213.25,489.98 L 212.83,478.96 L 210.17,473.69 L 217.71,462.17 L 219.76,449.99 L 217.79,446.15 L 222.44,436.44 L 222.57,424.16 L 235.52,414.94 L 231.59,407.36 L 230.67,397.44 L 243.92,377.45 L 252.79,354.97 L 262.96,348.01 L 271.07,332.22 L 273.64,326.20 L 277.49,315.51 L 288.00,313.07 L 292.68,299.31 L 308.42,294.34 L 354.46,250.40 L 360.58,246.66 L 374.53,253.17 L 377.19,240.02 L 388.49,238.51 L 400.64,234.67 L 404.31,231.14 L 418.13,230.88 L 426.34,223.57 L 435.94,217.35 L 445.26,220.98 L 452.71,223.97 L 460.94,220.27 L 470.79,219.67 L 481.15,214.04 L 491.72,213.53 L 506.01,217.43 L 513.83,213.79 L 523.87,213.68 L 555.75,225.21 L 563.16,222.94 L 591.99,229.32 L 644.70,255.26 L 652.61,261.72 L 660.38,269.85 L 669.80,270.57 L 675.29,276.69 L 681.69,283.25 L 692.75,291.75 L 702.51,294.76 L 708.12,300.01 L 716.24,306.33 L 726.14,312.73 L 721.78,316.75 L 727.99,332.56 L 729.34,340.22 L 736.23,346.46 L 748.00,357.33 L 749.38,363.58 L 754.74,368.00 L 763.09,380.29 L 764.12,388.80 L 768.11,397.33 Z" fill="none" stroke="darkblue" stroke-width="2"/>
<path d="M 768.92,500.31 L 764.84,510.10 L 773.20,518.47 L 772.39,526.81 L 761.47,535.62 L 763.22,542.66 L 763.82,554.12 L 766.79,566.42 L 757.33,567.16 L 755.99,578.58 L 756.59,590.81 L 755.36,599.45 L 752.35,605.65 L 738.64,613.03 L 740.80,620.76 L 737.96,627.57 L 731.96,634.80 L 732.06,650.41 L 724.78,650.14 L 720.29,657.66 L 712.80,668.54 L 707.47,669.39 L 687.71,686.41 L 683.58,698.38 L 673.56,707.12 L 640.28,737.05 L 603.02,751.57 L 583.55,758.75 L 570.97,751.40 L 561.38,767.59 L 552.25,766.05 L 545.32,768.44 L 535.74,768.40 L 526.66,767.42 L 519.26,769.94 L 510.69,770.09 L 495.43,766.08 L 494.47,769.86 L 480.01,768.89 L 473.54,774.12 L 464.50,769.19 L 457.04,765.61 L 446.39,762.29 L 434.07,761.84 L 412.30,758.27 L 372.66,737.45 L 368.49,732.32 L 350.65,730.20 L 345.59,723.51 L 341.65,719.47 L 332.29,712.90 L 323.44,698.38 L 298.02,677.35 L 287.93,664.20 L 274.85,655.14 L 276.07,642.91 L 267.32,637.09 L 258.82,631.31 L 255.09,619.94 L 249.38,617.73 L 247.38,604.24 L 252.03,600.60 L 244.79,593.22 L 238.17,580.52 L 236.56,563.74 L 238.57,548.08 L 231.08,499.87 L 229.66,490.01 L 227.94,478.66 L 224.36,475.47 L 233.41,465.33 L 235.51,453.92 L 233.13,449.47 L 237.81,439.99 L 237.34,429.00 L 251.18,418.97 L 244.78,412.86 L 256.49,383.00 L 265.74,362.24 L 275.34,356.32 L 282.03,341.37 L 284.77,334.86 L 289.63,324.08 L 298.18,322.49 L 302.08,311.06 L 318.97,305.83 L 361.97,263.59 L 367.37,260.66 L 380.76,265.71 L 382.63,252.29 L 394.37,252.06 L 406.00,247.50 L 408.49,244.42 L 421.98,244.81 L 429.35,238.82 L 439.34,233.47 L 449.12,237.14 L 453.77,239.26 L 462.85,236.34 L 472.69,234.95 L 483.52,229.55 L 491.63,229.77 L 514.45,228.43 L 522.77,227.98 L 554.03,240.88 L 559.48,238.48 L 587.03,242.17 L 638.30,267.28 L 644.60,275.72 L 650.84,283.55 L 661.03,281.18 L 664.77,289.03 L 672.91,295.87 L 682.38,301.61 L 692.12,306.09 L 698.77,311.27 L 705.54,317.70 L 715.37,321.30 L 710.13,325.85 L 714.70,340.15 L 717.95,349.02 L 723.91,353.87 L 734.31,364.53 L 736.65,370.63 L 740.00,375.48 L 749.57,386.98 L 750.67,395.45 Z" fill="none" stroke="darkgreen" stroke-width="2"/>
<path d="M 754.18,500.98 L 748.56,510.90 L 757.04,518.40 L 756.86,524.18 L 747.40,533.49 L 748.09,540.82 L 749.04,551.28 L 751.13,562.55 L 743.69,563.59 L 743.01,573.18 L 742.96,587.11 L 742.24,594.76 L 738.11,601.27 L 725.22,606.84 L 726.24,612.61 L 725.00,620.64 L 720.31,626.73 L 720.19,643.50 L 711.81,641.59 L 708.50,649.01 L 699.99,658.42 L 678.04,674.95 L 672.41,688.29 L 664.96,696.69 L 633.92,725.63 L 597.22,737.84 L 578.32,743.17 L 565.70,737.63 L 558.00,752.46 L 548.26,751.79 L 541.64,754.00 L 534.98,752.98 L 525.05,752.84 L 517.64,755.23 L 510.32,754.69 L 495.18,750.87 L 493.33,754.11 L 480.33,754.65 L 474.83,760.21 L 465.41,755.02 L 460.62,750.70 L 437.36,746.73 L 417.34,743.11 L 380.13,725.29 L 377.02,718.22 L 358.99,716.94 L 355.34,709.94 L 349.22,705.91 L 341.66,699.76 L 333.72,686.95 L 309.62,668.74 L 300.00,655.22 L 288.75,646.62 L 289.59,634.51 L 279.46,630.37 L 272.73,623.59 L 268.49,613.46 L 262.69,611.44 L 261.77,599.65 L 266.88,595.39 L 257.91,588.21 L 251.00,559.34 L 254.69,545.94 L 247.48,500.67 L 244.60,490.23 L 242.04,479.87 L 237.98,476.49 L 246.90,466.47 L 251.49,456.16 L 247.76,452.20 L 251.06,444.85 L 251.27,433.60 L 265.48,424.67 L 259.96,417.06 L 270.12,388.57 L 279.10,369.49 L 288.41,365.45 L 294.18,349.87 L 297.86,344.08 L 300.67,334.84 L 309.38,332.38 L 329.48,316.83 L 368.44,275.55 L 373.36,274.22 L 386.69,278.15 L 388.64,266.50 L 399.10,265.05 L 412.17,262.22 L 413.49,258.48 L 425.51,258.14 L 434.28,251.87 L 441.32,248.31 L 450.97,252.25 L 455.02,254.25 L 463.63,250.46 L 473.29,251.24 L 484.76,244.71 L 490.68,245.42 L 514.18,242.76 L 520.31,242.78 L 552.49,256.68 L 581.30,257.39 L 631.00,281.09 L 637.50,287.41 L 642.81,295.20 L 652.87,292.84 L 655.46,301.18 L 662.47,307.03 L 671.11,311.82 L 682.70,316.81 L 687.71,320.61 L 693.17,327.64 L 704.22,329.56 L 699.49,335.50 L 701.58,349.12 L 704.56,357.95 L 712.38,363.34 L 722.20,372.56 L 723.59,377.52 L 725.36,382.56 L 735.13,394.16 Z" fill="none" stroke="darkorange" stroke-width="2"/>
<path d="M 740.04,500.68 L 733.84,511.08 L 742.86,518.03 L 740.71,521.79 L 732.45,530.79 L 734.35,537.84 L 735.45,548.09 L 735.61,559.65 L 730.02,560.14 L 727.47,567.47 L 729.27,582.71 L 727.69,588.97 L 723.24,595.94 L 710.89,601.56 L 712.54,605.60 L 711.07,614.17 L 708.03,619.06 L 708.43,635.33 L 698.91,633.48 L 695.52,639.77 L 666.83,665.09 L 662.95,678.33 L 655.76,685.98 L 626.08,713.35 L 590.51,723.10 L 573.42,728.41 L 561.85,723.77 L 555.27,736.82 L 546.84,735.57 L 538.00,738.13 L 534.22,737.93 L 522.28,737.07 L 515.36,738.88 L 509.40,741.16 L 495.84,735.93 L 494.39,739.41 L 482.86,740.66 L 476.73,745.10 L 466.57,740.63 L 442.02,731.56 L 420.83,729.23 L 387.30,711.28 L 383.47,703.80 L 366.46,702.92 L 362.90,699.13 L 358.99,693.42 L 350.73,688.32 L 343.82,676.52 L 319.62,657.64 L 311.27,647.10 L 302.38,637.70 L 303.68,625.86 L 292.75,621.92 L 287.25,616.75 L 281.30,606.68 L 275.13,603.89 L 275.03,595.31 L 281.72,591.19 L 266.75,556.91 L 269.68,543.88 L 263.88,500.94 L 260.40,491.69 L 258.37,481.03 L 252.79,478.19 L 260.34,467.39 L 264.95,459.27 L 263.96,455.63 L 264.87,447.64 L 267.10,437.61 L 278.26,430.36 L 273.35,420.83 L 284.10,396.16 L 290.70,378.48 L 300.95,373.13 L 307.43,358.07 L 311.04,353.85 L 313.41,344.46 L 338.76,328.55 L 377.11,287.63 L 379.78,286.56 L 393.85,290.49 L 393.89,281.31 L 405.53,279.33 L 417.69,277.09 L 418.67,271.23 L 429.87,272.84 L 438.09,267.82 L 445.92,264.03 L 453.86,268.42 L 458.98,268.34 L 464.98,265.54 L 473.57,267.05 L 485.61,259.81 L 491.26,260.09 L 513.95,256.76 L 520.60,258.33 L 576.48,272.20 L 621.90,293.14 L 629.67,299.53 L 634.65,306.83 L 644.19,304.17 L 646.21,313.39 L 652.48,318.56 L 660.22,323.58 L 671.80,328.57 L 676.27,330.09 L 680.94,337.93 L 691.96,338.05 L 687.29,344.33 L 689.43,357.84 L 691.24,367.98 L 698.78,372.47 L 708.27,380.12 L 711.98,385.87 L 712.16,390.26 Z" fill="none" stroke="navy" stroke-width="2"/>
<path d="M 725.90,500.18 L 719.04,510.71 L 727.59,517.62 L 724.44,521.51 L 717.49,529.34 L 719.37,535.09 L 720.31,545.39 L 722.34,555.36 L 714.04,555.33 L 714.16,564.72 L 714.22,577.96 L 714.12,582.64 L 710.25,589.69 L 697.84,595.12 L 699.77,600.20 L 697.47,606.49 L 695.35,610.64 L 694.80,628.16 L 685.91,625.60 L 656.33,655.65 L 651.49,666.30 L 645.26,673.97 L 617.78,699.76 L 585.28,708.53 L 568.64,715.23 L 557.43,709.58 L 553.25,721.96 L 542.96,719.43 L 536.32,723.81 L 533.40,723.68 L 519.63,721.14 L 513.22,722.60 L 509.96,726.31 L 494.71,720.63 L 495.56,723.16 L 483.24,724.67 L 478.65,731.33 L 445.14,716.27 L 425.14,715.45 L 393.32,699.10 L 389.58,691.32 L 375.86,689.91 L 371.41,688.26 L 368.03,680.68 L 359.97,678.04 L 354.43,664.39 L 331.29,648.25 L 323.58,638.16 L 314.83,629.65 L 315.81,617.42 L 305.86,615.34 L 300.29,609.24 L 294.11,599.63 L 287.30,598.66 L 289.94,589.11 L 281.26,552.02 L 285.70,542.55 L 278.81,499.54 L 275.17,491.72 L 272.51,480.85 L 267.34,479.37 L 275.36,469.23 L 278.70,462.67 L 278.35,458.16 L 278.77,450.79 L 280.78,442.41 L 293.76,435.89 L 288.02,425.25 L 298.29,403.69 L 303.36,387.16 L 312.59,380.65 L 319.86,367.40 L 322.16,363.47 L 348.04,338.09 L 383.23,300.74 L 386.16,298.46 L 399.90,304.53 L 401.09,294.02 L 410.36,293.11 L 422.39,290.60 L 424.57,286.86 L 434.16,288.05 L 441.44,283.35 L 450.61,277.32 L 457.61,281.84 L 461.50,282.19 L 468.22,281.32 L 476.26,280.82 L 487.33,274.03 L 492.64,274.91 L 513.83,270.34 L 571.65,287.25 L 614.43,307.55 L 621.52,312.72 L 625.58,318.66 L 635.76,314.93 L 638.35,325.32 L 642.17,330.52 L 649.32,335.92 L 662.35,338.39 L 664.39,340.97 L 669.31,347.03 L 679.89,346.67 L 676.70,352.53 L 676.14,367.79 L 678.90,376.89 L 685.83,379.44 L 694.31,386.49 L 699.19,394.39 Z" fill="none" stroke="maroon" stroke-width="2"/>
<path d="M 712.39,500.70 L 702.73,510.58 L 713.22,517.50 L 708.37,519.43 L 704.05,528.36 L 705.30,533.79 L 705.41,541.60 L 708.32,551.46 L 698.38,552.92 L 699.71,560.34 L 699.46,573.55 L 699.15,576.43 L 695.94,584.62 L 683.59,589.74 L 687.54,593.76 L 682.91,598.46 L 681.62,602.65 L 681.80,618.52 L 646.04,644.77 L 640.38,653.83 L 636.65,663.34 L 609.32,687.53 L 580.04,694.77 L 563.72,701.02 L 553.44,695.27 L 550.07,706.84 L 540.49,703.54 L 533.98,707.70 L 532.19,707.74 L 519.43,705.30 L 512.30,706.42 L 509.53,712.34 L 495.57,705.71 L 496.49,707.43 L 483.99,710.03 L 447.61,703.03 L 429.26,701.28 L 401.66,684.67 L 398.07,677.06 L 384.33,678.73 L 379.71,675.54 L 377.59,669.60 L 368.63,664.94 L 363.18,652.66 L 343.98,639.84 L 334.27,629.70 L 327.29,620.23 L 328.62,608.73 L 319.21,606.85 L 314.27,601.93 L 306.50,593.65 L 300.55,592.36 L 296.38,549.85 L 299.45,538.84 L 293.51,499.25 L 289.13,493.93 L 287.27,481.83 L 281.72,482.33 L 289.68,471.03 L 294.25,465.11 L 293.74,461.42 L 293.57,453.34 L 296.04,447.64 L 307.30,441.88 L 301.96,430.06 L 312.45,411.72 L 316.60,394.79 L 326.66,388.22 L 331.27,375.56 L 359.31,347.66 L 391.73,314.28 L 392.81,311.71 L 406.86,319.18 L 406.50,306.18 L 415.85,305.81 L 427.17,304.93 L 428.74,301.95 L 437.36,302.08 L 446.59,298.54 L 454.52,292.84 L 459.48,297.55 L 464.68,297.19 L 471.60,296.45 L 477.28,296.43 L 488.41,287.74 L 491.81,290.71 L 566.47,302.44 L 606.60,321.60 L 614.56,324.54 L 617.60,331.36 L 625.51,327.93 L 628.78,336.57 L 631.25,342.22 L 638.26,347.11 L 650.97,347.72 L 654.39,351.18 L 658.11,357.47 L 668.58,355.66 L 664.64,361.93 L 663.12,375.66 L 666.84,384.17 L 673.03,386.49 L 681.44,395.01 Z" fill="none" stroke="olive" stroke-width="2"/>
<path d="M 696.28,499.75 L 687.92,509.96 L 698.72,515.54 L 693.76,518.94 L 688.41,525.20 L 691.30,531.01 L 691.94,537.57 L 694.23,547.80 L 683.39,548.69 L 685.58,554.74 L 684.74,569.98 L 685.43,572.68 L 681.93,577.77 L 668.68,584.25 L 673.15,586.82 L 670.40,592.54 L 667.32,594.07 L 636.65,635.58 L 631.29,643.78 L 625.49,652.48 L 600.54,674.46 L 572.86,680.04 L 559.27,685.84 L 549.53,680.08 L 546.48,692.96 L 536.48,689.43 L 530.11,693.15 L 530.39,691.54 L 517.04,689.72 L 512.30,691.80 L 507.54,697.82 L 494.45,690.38 L 496.09,693.49 L 451.91,689.62 L 432.87,688.26 L 409.26,670.67 L 405.30,665.55 L 391.39,665.65 L 389.39,663.33 L 385.54,657.52 L 377.96,654.58 L 371.87,640.83 L 355.35,629.45 L 345.87,619.56 L 339.24,611.36 L 341.76,600.06 L 333.64,599.37 L 328.44,595.24 L 321.21,588.45 L 311.94,545.06 L 314.38,535.52 L 307.46,500.69 L 304.59,493.31 L 301.85,484.67 L 296.99,484.09 L 303.69,472.48 L 307.97,469.21 L 309.67,463.84 L 308.28,455.94 L 309.44,451.67 L 322.51,447.47 L 315.48,435.83 L 326.02,417.16 L 331.02,403.81 L 338.12,397.77 L 370.66,358.20 L 399.40,328.62 L 399.03,324.23 L 414.81,333.23 L 413.77,320.85 L 421.51,319.33 L 432.21,320.29 L 434.97,317.37 L 441.18,317.23 L 449.23,312.10 L 458.51,307.83 L 461.72,312.46 L 466.44,311.16 L 474.24,310.89 L 479.51,311.26 L 489.25,303.03 L 562.41,316.31 L 600.07,334.51 L 605.37,336.25 L 607.72,344.54 L 615.32,339.43 L 619.34,349.17 L 623.24,354.61 L 627.01,359.62 L 641.98,359.58 L 643.67,361.17 L 646.95,366.87 L 657.00,364.16 L 653.96,371.33 L 650.74,385.23 L 655.35,393.15 L 660.66,395.99 Z" fill="none" stroke="teal" stroke-width="2"/>
<path d="M 682.15,500.06 L 672.78,510.38 L 682.37,516.08 L 678.87,517.39 L 674.21,523.61 L 676.51,529.22 L 675.83,534.27 L 679.31,543.83 L 669.82,544.94 L 670.91,551.04 L 669.31,564.91 L 670.32,568.38 L 667.92,572.71 L 654.01,578.56 L 660.97,580.85 L 656.04,585.29 L 625.76,624.15 L 621.36,633.42 L 614.98,640.83 L 592.24,662.08 L 568.42,667.05 L 555.34,670.43 L 544.37,665.47 L 542.54,678.45 L 533.30,675.57 L 527.85,679.67 L 527.68,676.37 L 516.53,676.02 L 511.56,677.31 L 505.96,683.93 L 493.98,676.02 L 455.45,674.53 L 438.83,674.01 L 416.82,656.35 L 411.78,651.72 L 400.12,652.46 L 397.82,652.07 L 394.63,644.01 L 388.54,642.13 L 382.37,629.79 L 366.39,618.34 L 358.15,609.77 L 351.83,603.36 L 354.73,593.21 L 345.28,590.82 L 342.12,586.77 L 327.65,542.30 L 330.17,532.33 L 323.72,499.51 L 319.32,493.08 L 317.30,486.38 L 312.50,485.76 L 319.38,473.81 L 322.61,472.04 L 325.66,465.63 L 322.25,459.11 L 323.57,454.26 L 336.61,452.08 L 328.96,439.85 L 340.07,423.10 L 344.05,411.46 L 381.26,369.70 L 405.76,342.28 L 406.83,338.74 L 421.52,347.18 L 421.52,335.85 L 426.81,333.43 L 436.92,334.42 L 441.45,331.08 L 444.64,331.71 L 453.19,326.98 L 461.65,321.54 L 465.04,327.78 L 470.51,324.44 L 474.85,326.12 L 480.01,327.22 L 558.59,332.04 L 592.18,346.93 L 597.57,349.36 L 597.85,356.07 L 606.05,352.58 L 609.60,361.06 L 613.15,364.69 L 617.65,370.39 L 632.12,370.61 L 631.60,370.76 L 635.45,376.60 L 646.30,375.37 L 643.47,381.54 L 638.88,394.86 L 644.29,401.94 Z" fill="none" stroke="indigo" stroke-width="2"/>
<path d="M 666.65,501.18 L 657.54,510.49 L 668.42,514.43 L 664.59,515.65 L 659.42,520.99 L 662.23,527.93 L 662.23,531.22 L 666.09,539.85 L 653.85,542.80 L 656.84,548.01 L 655.44,559.42 L 656.61,564.10 L 641.30,572.56 L 646.92,572.91 L 642.52,578.27 L 614.19,613.57 L 612.52,621.57 L 604.81,628.13 L 585.61,649.91 L 563.94,653.01 L 549.27,656.11 L 540.49,650.06 L 540.34,664.55 L 530.59,661.66 L 524.31,662.66 L 516.14,662.39 L 511.17,661.23 L 506.21,668.82 L 495.22,661.10 L 457.81,661.33 L 444.51,660.20 L 422.80,643.11 L 418.14,638.92 L 408.99,639.47 L 406.59,639.18 L 404.85,631.50 L 391.71,618.18 L 377.24,608.41 L 369.02,599.75 L 363.61,593.54 L 367.88,585.39 L 357.48,583.01 L 354.85,578.71 L 342.89,538.35 L 344.19,528.53 L 339.06,499.35 L 334.13,492.82 L 332.15,488.28 L 333.00,474.88 L 337.16,473.67 L 340.62,469.07 L 337.82,463.31 L 338.37,457.70 L 351.88,457.19 L 343.54,445.15 L 354.91,430.57 L 356.89,417.94 L 392.21,382.14 L 413.29,355.06 L 414.82,352.39 L 427.84,348.60 L 431.97,348.26 L 442.58,349.69 L 446.02,345.86 L 449.81,346.83 L 458.25,341.32 L 463.40,336.13 L 467.60,342.36 L 472.03,340.03 L 477.34,339.85 L 480.58,343.06 L 554.69,345.74 L 590.04,362.94 L 589.70,368.30 L 597.21,365.25 L 600.64,374.40 L 603.36,375.87 L 608.69,381.93 L 622.42,381.08 L 621.93,381.57 L 623.74,387.37 L 633.77,386.57 L 632.28,391.24 L 627.36,404.02 Z" fill="none" stroke="crimson" stroke-width="2"/>
</svg>