<?xml version="1.0" encoding="UTF-8"?>
<svg width="1000" height="1000" xmlns="http://www.w3.org/2000/svg">
  <rect width="1000" height="1000" fill="white"/>
  <path d="M 950.00,500.00 L 950.00,502.00 L 949.98,504.00 L 949.96,506.00 L 949.93,508.00 L 949.89,510.00 L 949.84,512.00 L 949.78,514.00 L 949.72,516.00 L 949.64,518.00 L 949.56,520.00 L 949.46,522.00 L 949.36,524.00 L 949.25,526.00 L 949.13,528.00 L 949.00,529.99 L 948.86,531.99 L 948.71,533.98 L 948.56,535.98 L 948.39,537.97 L 948.22,539.97 L 948.04,541.96 L 947.85,543.95 L 947.65,545.94 L 947.44,547.93 L 947.22,549.92 L 947.00,551.91 L 946.76,553.90 L 946.52,555.88 L 946.26,557.87 L 946.00,559.85 L 945.73,561.84 L 945.45,563.82 L 945.16,565.80 L 944.87,567.78 L 944.56,569.75 L 944.25,571.73 L 943.92,573.70 L 943.59,575.68 L 943.25,577.65 L 942.90,579.62 L 942.54,581.59 L 942.17,583.55 L 941.80,585.52 L 941.41,587.48 L 941.02,589.45 L 940.62,591.41 L 940.21,593.36 L 939.79,595.32 L 939.36,597.28 L 938.92,599.23 L 938.48,601.18 L 938.02,603.13 L 937.56,605.07 L 937.09,607.02 L 936.61,608.96 L 936.12,610.90 L 935.62,612.84 L 935.12,614.78 L 934.60,616.71 L 934.08,618.64 L 933.55,620.57 L 933.01,622.50 L 932.46,624.42 L 931.90,626.34 L 931.33,628.26 L 930.76,630.18 L 930.18,632.09 L 929.58,634.00 L 928.98,635.91 L 928.38,637.82 L 927.76,639.72 L 927.13,641.62 L 926.50,643.52 L 925.86,645.42 L 925.21,647.31 L 924.55,649.20 L 923.88,651.09 L 923.20,652.97 L 922.52,654.85 L 921.83,656.73 L 921.12,658.60 L 920.42,660.47 L 919.70,662.34 L 918.97,664.20 L 918.24,666.07 L 917.49,667.92 L 916.74,669.78 L 915.98,671.63 L 915.22,673.48 L 914.44,675.32 L 913.66,677.16 L 912.87,679.00 L 912.07,680.84 L 911.26,682.67 L 910.44,684.49 L 909.62,686.32 L 908.78,688.14 L 907.94,689.95 L 907.10,691.76 L 906.24,693.57 L 905.37,695.38 L 904.50,697.18 L 903.62,698.97 L 902.73,700.77 L 901.83,702.56 L 900.93,704.34 L 900.02,706.12 L 899.10,707.90 L 898.17,709.67 L 897.23,711.44 L 896.29,713.20 L 895.34,714.96 L 894.38,716.72 L 893.41,718.47 L 892.43,720.22 L 891.45,721.96 L 890.46,723.70 L 889.46,725.43 L 888.45,727.16 L 887.44,728.89 L 886.42,730.61 L 885.39,732.32 L 884.35,734.04 L 883.31,735.74 L 882.26,737.44 L 881.20,739.14 L 880.13,740.83 L 879.06,742.52 L 877.97,744.21 L 876.88,745.88 L 875.79,747.56 L 874.68,749.23 L 873.57,750.89 L 872.45,752.55 L 871.32,754.20 L 870.19,755.85 L 869.05,757.49 L 867.90,759.13 L 866.74,760.77 L 865.58,762.39 L 864.41,764.02 L 863.23,765.64 L 862.05,767.25 L 860.86,768.86 L 859.66,770.46 L 858.45,772.05 L 857.24,773.64 L 856.02,775.23 L 854.79,776.81 L 853.56,778.39 L 852.31,779.96 L 851.07,781.52 L 849.81,783.08 L 848.55,784.63 L 847.28,786.18 L 846.00,787.72 L 844.72,789.25 L 843.43,790.78 L 842.13,792.31 L 840.83,793.83 L 839.52,795.34 L 838.20,796.85 L 836.88,798.35 L 835.55,799.84 L 834.21,801.33 L 832.87,802.81 L 831.52,804.29 L 830.16,805.76 L 828.80,807.23 L 827.43,808.69 L 826.06,810.14 L 824.67,811.59 L 823.29,813.03 L 821.89,814.46 L 820.49,815.89 L 819.08,817.31 L 817.67,818.73 L 816.25,820.14 L 814.82,821.54 L 813.39,822.94 L 811.95,824.33 L 810.50,825.71 L 809.05,827.09 L 807.59,828.46 L 806.13,829.82 L 804.66,831.18 L 803.18,832.53 L 801.70,833.88 L 800.22,835.22 L 798.72,836.55 L 797.22,837.87 L 795.72,839.19 L 794.21,840.50 L 792.69,841.81 L 791.17,843.11 L 789.64,844.40 L 788.10,845.68 L 786.56,846.96 L 785.02,848.23 L 783.47,849.50 L 781.91,850.75 L 780.35,852.00 L 778.78,853.25 L 777.21,854.48 L 775.63,855.71 L 774.04,856.93 L 772.45,858.15 L 770.86,859.36 L 769.26,860.56 L 767.65,861.75 L 766.04,862.94 L 764.42,864.12 L 762.80,865.29 L 761.17,866.45 L 759.54,867.61 L 757.90,868.76 L 756.26,869.91 L 754.61,871.04 L 752.96,872.17 L 751.30,873.29 L 749.64,874.40 L 747.98,875.51 L 746.30,876.61 L 744.63,877.70 L 742.94,878.79 L 741.26,879.86 L 739.57,880.93 L 737.87,881.99 L 736.17,883.05 L 734.46,884.09 L 732.75,885.13 L 731.04,886.16 L 729.32,887.19 L 727.59,888.20 L 725.87,889.21 L 724.13,890.21 L 722.40,891.20 L 720.65,892.19 L 718.91,893.17 L 717.16,894.14 L 715.40,895.10 L 713.64,896.05 L 711.88,897.00 L 710.11,897.94 L 708.34,898.87 L 706.57,899.79 L 704.79,900.70 L 703.00,901.61 L 701.21,902.51 L 699.42,903.40 L 697.63,904.28 L 695.83,905.16 L 694.02,906.02 L 692.22,906.88 L 690.40,907.73 L 688.59,908.58 L 686.77,909.41 L 684.95,910.24 L 683.12,911.05 L 681.29,911.86 L 679.46,912.67 L 677.62,913.46 L 675.78,914.25 L 673.94,915.02 L 672.09,915.79 L 670.24,916.55 L 668.39,917.31 L 666.53,918.05 L 664.67,918.79 L 662.81,919.52 L 660.94,920.24 L 659.07,920.95 L 657.19,921.65 L 655.32,922.35 L 653.44,923.03 L 651.56,923.71 L 649.67,924.38 L 647.78,925.04 L 645.89,925.69 L 644.00,926.34 L 642.10,926.98 L 640.20,927.60 L 638.30,928.22 L 636.39,928.83 L 634.48,929.44 L 632.57,930.03 L 630.66,930.61 L 628.74,931.19 L 626.82,931.76 L 624.90,932.32 L 622.98,932.87 L 621.05,933.41 L 619.12,933.95 L 617.19,934.47 L 615.26,934.99 L 613.32,935.50 L 611.39,936.00 L 609.45,936.49 L 607.51,936.97 L 605.56,937.44 L 603.61,937.91 L 601.67,938.37 L 599.72,938.81 L 597.76,939.25 L 595.81,939.68 L 593.85,940.10 L 591.90,940.52 L 589.94,940.92 L 587.97,941.32 L 586.01,941.70 L 584.05,942.08 L 582.08,942.45 L 580.11,942.81 L 578.14,943.16 L 576.17,943.51 L 574.20,943.84 L 572.22,944.17 L 570.25,944.48 L 568.27,944.79 L 566.29,945.09 L 564.31,945.38 L 562.33,945.66 L 560.35,945.94 L 558.36,946.20 L 556.38,946.45 L 554.39,946.70 L 552.41,946.94 L 550.42,947.17 L 548.43,947.39 L 546.44,947.60 L 544.45,947.80 L 542.46,947.99 L 540.47,948.18 L 538.47,948.35 L 536.48,948.52 L 534.48,948.68 L 532.49,948.83 L 530.49,948.97 L 528.50,949.10 L 526.50,949.22 L 524.50,949.33 L 522.50,949.44 L 520.50,949.53 L 518.50,949.62 L 516.50,949.70 L 514.50,949.77 L 512.50,949.83 L 510.50,949.88 L 508.50,949.92 L 506.50,949.95 L 504.50,949.98 L 502.50,949.99 L 500.50,950.00 L 498.50,950.00 L 496.50,949.99 L 494.50,949.97 L 492.50,949.94 L 490.50,949.90 L 488.50,949.85 L 486.50,949.80 L 484.50,949.73 L 482.50,949.66 L 480.50,949.58 L 478.50,949.49 L 476.50,949.39 L 474.50,949.28 L 472.50,949.16 L 470.51,949.03 L 468.51,948.90 L 466.51,948.75 L 464.52,948.60 L 462.52,948.44 L 460.53,948.27 L 458.54,948.09 L 456.55,947.90 L 454.55,947.70 L 452.56,947.49 L 450.57,947.28 L 448.59,947.05 L 446.60,946.82 L 444.61,946.58 L 442.63,946.33 L 440.64,946.07 L 438.66,945.80 L 436.68,945.52 L 434.70,945.24 L 432.72,944.94 L 430.74,944.64 L 428.76,944.33 L 426.79,944.00 L 424.82,943.67 L 422.84,943.34 L 420.87,942.99 L 418.90,942.63 L 416.94,942.27 L 414.97,941.89 L 413.01,941.51 L 411.04,941.12 L 409.08,940.72 L 407.12,940.31 L 405.17,939.89 L 403.21,939.47 L 401.26,939.03 L 399.31,938.59 L 397.36,938.14 L 395.41,937.68 L 393.47,937.21 L 391.52,936.73 L 389.58,936.24 L 387.64,935.75 L 385.71,935.24 L 383.77,934.73 L 381.84,934.21 L 379.91,933.68 L 377.98,933.14 L 376.06,932.60 L 374.14,932.04 L 372.22,931.48 L 370.30,930.90 L 368.38,930.32 L 366.47,929.73 L 364.56,929.14 L 362.66,928.53 L 360.75,927.91 L 358.85,927.29 L 356.95,926.66 L 355.06,926.02 L 353.16,925.37 L 351.27,924.71 L 349.39,924.05 L 347.50,923.37 L 345.62,922.69 L 343.74,922.00 L 341.87,921.30 L 340.00,920.59 L 338.13,919.88 L 336.26,919.15 L 334.40,918.42 L 332.54,917.68 L 330.69,916.93 L 328.83,916.18 L 326.98,915.41 L 325.14,914.64 L 323.30,913.85 L 321.46,913.07 L 319.62,912.27 L 317.79,911.46 L 315.96,910.65 L 314.14,909.82 L 312.32,908.99 L 310.50,908.16 L 308.69,907.31 L 306.88,906.45 L 305.07,905.59 L 303.27,904.72 L 301.47,903.84 L 299.68,902.95 L 297.89,902.06 L 296.11,901.16 L 294.32,900.25 L 292.55,899.33 L 290.77,898.40 L 289.00,897.47 L 287.24,896.53 L 285.48,895.58 L 283.72,894.62 L 281.97,893.65 L 280.22,892.68 L 278.47,891.70 L 276.74,890.71 L 275.00,889.71 L 273.27,888.71 L 271.54,887.70 L 269.82,886.68 L 268.10,885.65 L 266.39,884.61 L 264.68,883.57 L 262.98,882.52 L 261.28,881.46 L 259.59,880.40 L 257.90,879.32 L 256.21,878.24 L 254.53,877.16 L 252.86,876.06 L 251.19,874.96 L 249.53,873.85 L 247.87,872.73 L 246.21,871.61 L 244.56,870.47 L 242.92,869.33 L 241.28,868.19 L 239.64,867.03 L 238.01,865.87 L 236.39,864.70 L 234.77,863.53 L 233.15,862.34 L 231.55,861.15 L 229.94,859.96 L 228.34,858.75 L 226.75,857.54 L 225.17,856.32 L 223.58,855.10 L 222.01,853.86 L 220.44,852.62 L 218.87,851.38 L 217.31,850.12 L 215.76,848.86 L 214.21,847.60 L 212.67,846.32 L 211.13,845.04 L 209.60,843.75 L 208.07,842.46 L 206.55,841.16 L 205.04,839.85 L 203.53,838.53 L 202.03,837.21 L 200.53,835.88 L 199.04,834.55 L 197.56,833.21 L 196.08,831.86 L 194.60,830.50 L 193.14,829.14 L 191.68,827.78 L 190.22,826.40 L 188.77,825.02 L 187.33,823.63 L 185.90,822.24 L 184.47,820.84 L 183.04,819.43 L 181.63,818.02 L 180.21,816.60 L 178.81,815.18 L 177.41,813.75 L 176.02,812.31 L 174.63,810.86 L 173.25,809.41 L 171.88,807.96 L 170.52,806.50 L 169.16,805.03 L 167.80,803.55 L 166.46,802.07 L 165.12,800.59 L 163.78,799.10 L 162.46,797.60 L 161.14,796.09 L 159.82,794.58 L 158.52,793.07 L 157.22,791.55 L 155.92,790.02 L 154.64,788.49 L 153.36,786.95 L 152.09,785.40 L 150.82,783.85 L 149.56,782.30 L 148.31,780.74 L 147.06,779.17 L 145.83,777.60 L 144.60,776.02 L 143.37,774.44 L 142.16,772.85 L 140.95,771.26 L 139.74,769.66 L 138.55,768.05 L 137.36,766.44 L 136.18,764.83 L 135.00,763.21 L 133.84,761.58 L 132.68,759.95 L 131.53,758.31 L 130.38,756.67 L 129.24,755.03 L 128.11,753.38 L 126.99,751.72 L 125.87,750.06 L 124.77,748.39 L 123.66,746.72 L 122.57,745.05 L 121.49,743.36 L 120.41,741.68 L 119.34,739.99 L 118.27,738.29 L 117.22,736.59 L 116.17,734.89 L 115.13,733.18 L 114.09,731.47 L 113.07,729.75 L 112.05,728.03 L 111.04,726.30 L 110.04,724.57 L 109.04,722.83 L 108.06,721.09 L 107.08,719.34 L 106.11,717.60 L 105.14,715.84 L 104.19,714.08 L 103.24,712.32 L 102.30,710.56 L 101.37,708.78 L 100.44,707.01 L 99.53,705.23 L 98.62,703.45 L 97.72,701.66 L 96.82,699.87 L 95.94,698.08 L 95.06,696.28 L 94.19,694.47 L 93.33,692.67 L 92.48,690.86 L 91.63,689.04 L 90.80,687.23 L 89.97,685.40 L 89.15,683.58 L 88.34,681.75 L 87.53,679.92 L 86.74,678.08 L 85.95,676.24 L 85.17,674.40 L 84.40,672.55 L 83.63,670.70 L 82.88,668.85 L 82.13,666.99 L 81.39,665.13 L 80.66,663.27 L 79.94,661.41 L 79.23,659.54 L 78.52,657.66 L 77.83,655.79 L 77.14,653.91 L 76.46,652.03 L 75.79,650.14 L 75.12,648.25 L 74.47,646.36 L 73.82,644.47 L 73.18,642.57 L 72.55,640.67 L 71.93,638.77 L 71.32,636.87 L 70.71,634.96 L 70.12,633.05 L 69.53,631.14 L 68.95,629.22 L 68.38,627.30 L 67.82,625.38 L 67.27,623.46 L 66.72,621.53 L 66.19,619.61 L 65.66,617.68 L 65.14,615.74 L 64.63,613.81 L 64.13,611.87 L 63.63,609.93 L 63.15,607.99 L 62.67,606.05 L 62.21,604.10 L 61.75,602.15 L 61.30,600.20 L 60.86,598.25 L 60.42,596.30 L 60.00,594.34 L 59.59,592.39 L 59.18,590.43 L 58.78,588.47 L 58.39,586.50 L 58.01,584.54 L 57.64,582.57 L 57.28,580.60 L 56.92,578.63 L 56.58,576.66 L 56.24,574.69 L 55.91,572.72 L 55.60,570.74 L 55.28,568.76 L 54.98,566.79 L 54.69,564.81 L 54.41,562.83 L 54.13,560.84 L 53.87,558.86 L 53.61,556.88 L 53.36,554.89 L 53.12,552.90 L 52.89,550.92 L 52.67,548.93 L 52.45,546.94 L 52.25,544.95 L 52.05,542.96 L 51.87,540.96 L 51.69,538.97 L 51.52,536.98 L 51.36,534.98 L 51.21,532.99 L 51.07,530.99 L 50.94,528.99 L 50.81,527.00 L 50.69,525.00 L 50.59,523.00 L 50.49,521.00 L 50.40,519.00 L 50.32,517.00 L 50.25,515.00 L 50.19,513.00 L 50.13,511.00 L 50.09,509.00 L 50.05,507.00 L 50.03,505.00 L 50.01,503.00 L 50.00,501.00 L 50.00,499.00 L 50.01,497.00 L 50.03,495.00 L 50.05,493.00 L 50.09,491.00 L 50.13,489.00 L 50.19,487.00 L 50.25,485.00 L 50.32,483.00 L 50.40,481.00 L 50.49,479.00 L 50.59,477.00 L 50.69,475.00 L 50.81,473.00 L 50.94,471.01 L 51.07,469.01 L 51.21,467.01 L 51.36,465.02 L 51.52,463.02 L 51.69,461.03 L 51.87,459.04 L 52.05,457.04 L 52.25,455.05 L 52.45,453.06 L 52.67,451.07 L 52.89,449.08 L 53.12,447.10 L 53.36,445.11 L 53.61,443.12 L 53.87,441.14 L 54.13,439.16 L 54.41,437.17 L 54.69,435.19 L 54.98,433.21 L 55.28,431.24 L 55.60,429.26 L 55.91,427.28 L 56.24,425.31 L 56.58,423.34 L 56.92,421.37 L 57.28,419.40 L 57.64,417.43 L 58.01,415.46 L 58.39,413.50 L 58.78,411.53 L 59.18,409.57 L 59.59,407.61 L 60.00,405.66 L 60.42,403.70 L 60.86,401.75 L 61.30,399.80 L 61.75,397.85 L 62.21,395.90 L 62.67,393.95 L 63.15,392.01 L 63.63,390.07 L 64.13,388.13 L 64.63,386.19 L 65.14,384.26 L 65.66,382.32 L 66.19,380.39 L 66.72,378.47 L 67.27,376.54 L 67.82,374.62 L 68.38,372.70 L 68.95,370.78 L 69.53,368.86 L 70.12,366.95 L 70.71,365.04 L 71.32,363.13 L 71.93,361.23 L 72.55,359.33 L 73.18,357.43 L 73.82,355.53 L 74.47,353.64 L 75.12,351.75 L 75.79,349.86 L 76.46,347.97 L 77.14,346.09 L 77.83,344.21 L 78.52,342.34 L 79.23,340.46 L 79.94,338.59 L 80.66,336.73 L 81.39,334.87 L 82.13,333.01 L 82.88,331.15 L 83.63,329.30 L 84.40,327.45 L 85.17,325.60 L 85.95,323.76 L 86.74,321.92 L 87.53,320.08 L 88.34,318.25 L 89.15,316.42 L 89.97,314.60 L 90.80,312.77 L 91.63,310.96 L 92.48,309.14 L 93.33,307.33 L 94.19,305.53 L 95.06,303.72 L 95.94,301.92 L 96.82,300.13 L 97.72,298.34 L 98.62,296.55 L 99.53,294.77 L 100.44,292.99 L 101.37,291.22 L 102.30,289.44 L 103.24,287.68 L 104.19,285.92 L 105.14,284.16 L 106.11,282.40 L 107.08,280.66 L 108.06,278.91 L 109.04,277.17 L 110.04,275.43 L 111.04,273.70 L 112.05,271.97 L 113.07,270.25 L 114.09,268.53 L 115.13,266.82 L 116.17,265.11 L 117.22,263.41 L 118.27,261.71 L 119.34,260.01 L 120.41,258.32 L 121.49,256.64 L 122.57,254.95 L 123.66,253.28 L 124.77,251.61 L 125.87,249.94 L 126.99,248.28 L 128.11,246.62 L 129.24,244.97 L 130.38,243.33 L 131.53,241.69 L 132.68,240.05 L 133.84,238.42 L 135.00,236.79 L 136.18,235.17 L 137.36,233.56 L 138.55,231.95 L 139.74,230.34 L 140.95,228.74 L 142.16,227.15 L 143.37,225.56 L 144.60,223.98 L 145.83,222.40 L 147.06,220.83 L 148.31,219.26 L 149.56,217.70 L 150.82,216.15 L 152.09,214.60 L 153.36,213.05 L 154.64,211.51 L 155.92,209.98 L 157.22,208.45 L 158.52,206.93 L 159.82,205.42 L 161.14,203.91 L 162.46,202.40 L 163.78,200.90 L 165.12,199.41 L 166.46,197.93 L 167.80,196.45 L 169.16,194.97 L 170.52,193.50 L 171.88,192.04 L 173.25,190.59 L 174.63,189.14 L 176.02,187.69 L 177.41,186.25 L 178.81,184.82 L 180.21,183.40 L 181.63,181.98 L 183.04,180.57 L 184.47,179.16 L 185.90,177.76 L 187.33,176.37 L 188.77,174.98 L 190.22,173.60 L 191.68,172.22 L 193.14,170.86 L 194.60,169.50 L 196.08,168.14 L 197.56,166.79 L 199.04,165.45 L 200.53,164.12 L 202.03,162.79 L 203.53,161.47 L 205.04,160.15 L 206.55,158.84 L 208.07,157.54 L 209.60,156.25 L 211.13,154.96 L 212.67,153.68 L 214.21,152.40 L 215.76,151.14 L 217.31,149.88 L 218.87,148.62 L 220.44,147.38 L 222.01,146.14 L 223.58,144.90 L 225.17,143.68 L 226.75,142.46 L 228.34,141.25 L 229.94,140.04 L 231.55,138.85 L 233.15,137.66 L 234.77,136.47 L 236.39,135.30 L 238.01,134.13 L 239.64,132.97 L 241.28,131.81 L 242.92,130.67 L 244.56,129.53 L 246.21,128.39 L 247.87,127.27 L 249.53,126.15 L 251.19,125.04 L 252.86,123.94 L 254.53,122.84 L 256.21,121.76 L 257.90,120.68 L 259.59,119.60 L 261.28,118.54 L 262.98,117.48 L 264.68,116.43 L 266.39,115.39 L 268.10,114.35 L 269.82,113.32 L 271.54,112.30 L 273.27,111.29 L 275.00,110.29 L 276.74,109.29 L 278.47,108.30 L 280.22,107.32 L 281.97,106.35 L 283.72,105.38 L 285.48,104.42 L 287.24,103.47 L 289.00,102.53 L 290.77,101.60 L 292.55,100.67 L 294.32,99.75 L 296.11,98.84 L 297.89,97.94 L 299.68,97.05 L 301.47,96.16 L 303.27,95.28 L 305.07,94.41 L 306.88,93.55 L 308.69,92.69 L 310.50,91.84 L 312.32,91.01 L 314.14,90.18 L 315.96,89.35 L 317.79,88.54 L 319.62,87.73 L 321.46,86.93 L 323.30,86.15 L 325.14,85.36 L 326.98,84.59 L 328.83,83.82 L 330.69,83.07 L 332.54,82.32 L 334.40,81.58 L 336.26,80.85 L 338.13,80.12 L 340.00,79.41 L 341.87,78.70 L 343.74,78.00 L 345.62,77.31 L 347.50,76.63 L 349.39,75.95 L 351.27,75.29 L 353.16,74.63 L 355.06,73.98 L 356.95,73.34 L 358.85,72.71 L 360.75,72.09 L 362.66,71.47 L 364.56,70.86 L 366.47,70.27 L 368.38,69.68 L 370.30,69.10 L 372.22,68.52 L 374.14,67.96 L 376.06,67.40 L 377.98,66.86 L 379.91,66.32 L 381.84,65.79 L 383.77,65.27 L 385.71,64.76 L 387.64,64.25 L 389.58,63.76 L 391.52,63.27 L 393.47,62.79 L 395.41,62.32 L 397.36,61.86 L 399.31,61.41 L 401.26,60.97 L 403.21,60.53 L 405.17,60.11 L 407.12,59.69 L 409.08,59.28 L 411.04,58.88 L 413.01,58.49 L 414.97,58.11 L 416.94,57.73 L 418.90,57.37 L 420.87,57.01 L 422.84,56.66 L 424.82,56.33 L 426.79,56.00 L 428.76,55.67 L 430.74,55.36 L 432.72,55.06 L 434.70,54.76 L 436.68,54.48 L 438.66,54.20 L 440.64,53.93 L 442.63,53.67 L 444.61,53.42 L 446.60,53.18 L 448.59,52.95 L 450.57,52.72 L 452.56,52.51 L 454.55,52.30 L 456.55,52.10 L 458.54,51.91 L 460.53,51.73 L 462.52,51.56 L 464.52,51.40 L 466.51,51.25 L 468.51,51.10 L 470.51,50.97 L 472.50,50.84 L 474.50,50.72 L 476.50,50.61 L 478.50,50.51 L 480.50,50.42 L 482.50,50.34 L 484.50,50.27 L 486.50,50.20 L 488.50,50.15 L 490.50,50.10 L 492.50,50.06 L 494.50,50.03 L 496.50,50.01 L 498.50,50.00 L 500.50,50.00 L 502.50,50.01 L 504.50,50.02 L 506.50,50.05 L 508.50,50.08 L 510.50,50.12 L 512.50,50.17 L 514.50,50.23 L 516.50,50.30 L 518.50,50.38 L 520.50,50.47 L 522.50,50.56 L 524.50,50.67 L 526.50,50.78 L 528.50,50.90 L 530.49,51.03 L 532.49,51.17 L 534.48,51.32 L 536.48,51.48 L 538.47,51.65 L 540.47,51.82 L 542.46,52.01 L 544.45,52.20 L 546.44,52.40 L 548.43,52.61 L 550.42,52.83 L 552.41,53.06 L 554.39,53.30 L 556.38,53.55 L 558.36,53.80 L 560.35,54.06 L 562.33,54.34 L 564.31,54.62 L 566.29,54.91 L 568.27,55.21 L 570.25,55.52 L 572.22,55.83 L 574.20,56.16 L 576.17,56.49 L 578.14,56.84 L 580.11,57.19 L 582.08,57.55 L 584.05,57.92 L 586.01,58.30 L 587.97,58.68 L 589.94,59.08 L 591.90,59.48 L 593.85,59.90 L 595.81,60.32 L 597.76,60.75 L 599.72,61.19 L 601.67,61.63 L 603.61,62.09 L 605.56,62.56 L 607.51,63.03 L 609.45,63.51 L 611.39,64.00 L 613.32,64.50 L 615.26,65.01 L 617.19,65.53 L 619.12,66.05 L 621.05,66.59 L 622.98,67.13 L 624.90,67.68 L 626.82,68.24 L 628.74,68.81 L 630.66,69.39 L 632.57,69.97 L 634.48,70.56 L 636.39,71.17 L 638.30,71.78 L 640.20,72.40 L 642.10,73.02 L 644.00,73.66 L 645.89,74.31 L 647.78,74.96 L 649.67,75.62 L 651.56,76.29 L 653.44,76.97 L 655.32,77.65 L 657.19,78.35 L 659.07,79.05 L 660.94,79.76 L 662.81,80.48 L 664.67,81.21 L 666.53,81.95 L 668.39,82.69 L 670.24,83.45 L 672.09,84.21 L 673.94,84.98 L 675.78,85.75 L 677.62,86.54 L 679.46,87.33 L 681.29,88.14 L 683.12,88.95 L 684.95,89.76 L 686.77,90.59 L 688.59,91.42 L 690.40,92.27 L 692.22,93.12 L 694.02,93.98 L 695.83,94.84 L 697.63,95.72 L 699.42,96.60 L 701.21,97.49 L 703.00,98.39 L 704.79,99.30 L 706.57,100.21 L 708.34,101.13 L 710.11,102.06 L 711.88,103.00 L 713.64,103.95 L 715.40,104.90 L 717.16,105.86 L 718.91,106.83 L 720.65,107.81 L 722.40,108.80 L 724.13,109.79 L 725.87,110.79 L 727.59,111.80 L 729.32,112.81 L 731.04,113.84 L 732.75,114.87 L 734.46,115.91 L 736.17,116.95 L 737.87,118.01 L 739.57,119.07 L 741.26,120.14 L 742.94,121.21 L 744.63,122.30 L 746.30,123.39 L 747.98,124.49 L 749.64,125.60 L 751.30,126.71 L 752.96,127.83 L 754.61,128.96 L 756.26,130.09 L 757.90,131.24 L 759.54,132.39 L 761.17,133.55 L 762.80,134.71 L 764.42,135.88 L 766.04,137.06 L 767.65,138.25 L 769.26,139.44 L 770.86,140.64 L 772.45,141.85 L 774.04,143.07 L 775.63,144.29 L 777.21,145.52 L 778.78,146.75 L 780.35,148.00 L 781.91,149.25 L 783.47,150.50 L 785.02,151.77 L 786.56,153.04 L 788.10,154.32 L 789.64,155.60 L 791.17,156.89 L 792.69,158.19 L 794.21,159.50 L 795.72,160.81 L 797.22,162.13 L 798.72,163.45 L 800.22,164.78 L 801.70,166.12 L 803.18,167.47 L 804.66,168.82 L 806.13,170.18 L 807.59,171.54 L 809.05,172.91 L 810.50,174.29 L 811.95,175.67 L 813.39,177.06 L 814.82,178.46 L 816.25,179.86 L 817.67,181.27 L 819.08,182.69 L 820.49,184.11 L 821.89,185.54 L 823.29,186.97 L 824.67,188.41 L 826.06,189.86 L 827.43,191.31 L 828.80,192.77 L 830.16,194.24 L 831.52,195.71 L 832.87,197.19 L 834.21,198.67 L 835.55,200.16 L 836.88,201.65 L 838.20,203.15 L 839.52,204.66 L 840.83,206.17 L 842.13,207.69 L 843.43,209.22 L 844.72,210.75 L 846.00,212.28 L 847.28,213.82 L 848.55,215.37 L 849.81,216.92 L 851.07,218.48 L 852.31,220.04 L 853.56,221.61 L 854.79,223.19 L 856.02,224.77 L 857.24,226.36 L 858.45,227.95 L 859.66,229.54 L 860.86,231.14 L 862.05,232.75 L 863.23,234.36 L 864.41,235.98 L 865.58,237.61 L 866.74,239.23 L 867.90,240.87 L 869.05,242.51 L 870.19,244.15 L 871.32,245.80 L 872.45,247.45 L 873.57,249.11 L 874.68,250.77 L 875.79,252.44 L 876.88,254.12 L 877.97,255.79 L 879.06,257.48 L 880.13,259.17 L 881.20,260.86 L 882.26,262.56 L 883.31,264.26 L 884.35,265.96 L 885.39,267.68 L 886.42,269.39 L 887.44,271.11 L 888.45,272.84 L 889.46,274.57 L 890.46,276.30 L 891.45,278.04 L 892.43,279.78 L 893.41,281.53 L 894.38,283.28 L 895.34,285.04 L 896.29,286.80 L 897.23,288.56 L 898.17,290.33 L 899.10,292.10 L 900.02,293.88 L 900.93,295.66 L 901.83,297.44 L 902.73,299.23 L 903.62,301.03 L 904.50,302.82 L 905.37,304.62 L 906.24,306.43 L 907.10,308.24 L 907.94,310.05 L 908.78,311.86 L 909.62,313.68 L 910.44,315.51 L 911.26,317.33 L 912.07,319.16 L 912.87,321.00 L 913.66,322.84 L 914.44,324.68 L 915.22,326.52 L 915.98,328.37 L 916.74,330.22 L 917.49,332.08 L 918.24,333.93 L 918.97,335.80 L 919.70,337.66 L 920.42,339.53 L 921.12,341.40 L 921.83,343.27 L 922.52,345.15 L 923.20,347.03 L 923.88,348.91 L 924.55,350.80 L 925.21,352.69 L 925.86,354.58 L 926.50,356.48 L 927.13,358.38 L 927.76,360.28 L 928.38,362.18 L 928.98,364.09 L 929.58,366.00 L 930.18,367.91 L 930.76,369.82 L 931.33,371.74 L 931.90,373.66 L 932.46,375.58 L 933.01,377.50 L 933.55,379.43 L 934.08,381.36 L 934.60,383.29 L 935.12,385.22 L 935.62,387.16 L 936.12,389.10 L 936.61,391.04 L 937.09,392.98 L 937.56,394.93 L 938.02,396.87 L 938.48,398.82 L 938.92,400.77 L 939.36,402.72 L 939.79,404.68 L 940.21,406.64 L 940.62,408.59 L 941.02,410.55 L 941.41,412.52 L 941.80,414.48 L 942.17,416.45 L 942.54,418.41 L 942.90,420.38 L 943.25,422.35 L 943.59,424.32 L 943.92,426.30 L 944.25,428.27 L 944.56,430.25 L 944.87,432.22 L 945.16,434.20 L 945.45,436.18 L 945.73,438.16 L 946.00,440.15 L 946.26,442.13 L 946.52,444.12 L 946.76,446.10 L 947.00,448.09 L 947.22,450.08 L 947.44,452.07 L 947.65,454.06 L 947.85,456.05 L 948.04,458.04 L 948.22,460.03 L 948.39,462.03 L 948.56,464.02 L 948.71,466.02 L 948.86,468.01 L 949.00,470.01 L 949.13,472.00 L 949.25,474.00 L 949.36,476.00 L 949.46,478.00 L 949.56,480.00 L 949.64,482.00 L 949.72,484.00 L 949.78,486.00 L 949.84,488.00 L 949.89,490.00 L 949.93,492.00 L 949.96,494.00 L 949.98,496.00 L 950.00,498.00 Z" fill="none" stroke="black" stroke-width="3"/>
<path d="M 940.67,497.72 L 938.71,512.37 L 940.16,530.17 L 939.78,540.99 L 935.72,556.27 L 932.71,572.09 L 928.95,586.01 L 929.01,601.05 L 923.09,616.43 L 922.10,626.79 L 917.22,644.99 L 910.31,655.25 L 907.43,670.64 L 897.75,682.02 L 894.57,698.55 L 888.03,711.29 L 879.00,726.07 L 871.10,735.73 L 864.65,749.12 L 856.90,760.10 L 846.68,770.02 L 835.75,781.82 L 824.77,793.35 L 815.54,803.60 L 807.07,815.11 L 795.82,823.75 L 783.58,837.58 L 774.83,844.70 L 760.12,854.81 L 748.95,861.11 L 739.89,871.04 L 726.18,878.47 L 713.98,886.70 L 697.19,890.44 L 685.29,897.56 L 670.49,907.17 L 660.99,909.30 L 645.24,915.10 L 633.48,919.69 L 615.35,923.09 L 603.51,926.58 L 588.34,933.03 L 573.99,932.30 L 561.40,936.07 L 543.45,935.48 L 527.94,939.60 L 517.54,939.33 L 498.39,939.43 L 489.18,939.94 L 473.42,940.79 L 455.17,939.00 L 442.83,936.33 L 427.30,934.81 L 411.16,931.00 L 399.42,930.58 L 386.27,923.43 L 371.31,919.22 L 358.41,917.70 L 342.58,911.91 L 329.55,903.76 L 317.75,900.09 L 303.72,893.27 L 287.85,885.94 L 274.31,881.14 L 265.10,872.49 L 250.93,861.23 L 240.90,856.44 L 226.20,845.93 L 213.98,837.37 L 207.00,825.33 L 194.16,816.68 L 183.45,808.56 L 173.50,793.98 L 165.02,786.17 L 153.47,772.06 L 148.96,762.81 L 137.18,749.44 L 128.08,736.64 L 120.89,725.07 L 113.56,711.42 L 105.48,699.56 L 100.23,688.56 L 96.88,670.27 L 88.73,660.45 L 83.19,643.20 L 82.34,632.30 L 75.70,618.31 L 73.87,602.20 L 67.04,588.09 L 66.07,574.80 L 65.14,560.32 L 64.72,543.97 L 60.58,529.53 L 62.05,515.42 L 58.51,500.73 L 59.87,484.27 L 59.71,473.68 L 61.93,457.79 L 64.02,440.29 L 68.50,428.58 L 70.84,415.55 L 73.61,396.61 L 75.24,383.56 L 79.20,367.79 L 83.34,359.22 L 88.15,343.54 L 94.17,329.11 L 102.90,317.53 L 106.92,303.87 L 112.26,287.98 L 122.92,277.42 L 129.04,264.88 L 134.25,252.66 L 145.43,241.17 L 152.05,230.78 L 161.55,214.92 L 173.01,206.93 L 181.95,192.81 L 194.75,183.70 L 204.73,174.77 L 214.17,165.55 L 226.76,157.30 L 236.09,147.91 L 248.98,137.26 L 262.46,129.20 L 274.05,123.13 L 286.47,113.95 L 303.03,110.14 L 312.66,99.54 L 326.10,97.42 L 343.55,91.27 L 353.95,83.08 L 371.04,80.79 L 383.12,78.30 L 398.48,69.69 L 412.63,68.11 L 427.27,68.29 L 438.27,62.26 L 453.68,62.50 L 468.12,61.58 L 485.88,58.84 L 499.18,58.87 L 514.13,62.17 L 529.52,58.93 L 543.10,61.08 L 554.68,65.02 L 573.21,64.88 L 587.18,68.74 L 600.97,69.47 L 612.55,77.02 L 631.56,79.75 L 644.25,84.16 L 655.67,87.31 L 669.15,96.11 L 685.82,102.24 L 698.66,105.04 L 709.41,111.78 L 725.57,123.26 L 735.45,129.16 L 747.30,139.27 L 761.88,147.41 L 774.08,156.44 L 780.92,164.39 L 794.19,175.61 L 806.47,184.63 L 817.59,192.81 L 826.85,202.03 L 837.58,217.40 L 843.15,227.79 L 853.81,237.76 L 863.38,248.53 L 868.35,261.39 L 877.01,276.27 L 887.85,287.04 L 892.70,299.72 L 901.19,314.44 L 906.57,324.93 L 912.63,339.73 L 917.33,352.99 L 918.16,368.66 L 925.01,381.21 L 928.35,397.32 L 930.28,410.99 L 932.56,427.01 L 933.43,441.58 L 937.89,456.13 L 940.05,469.54 L 939.07,482.29 Z" fill="none" stroke="red" stroke-width="2"/>
<path d="M 931.46,496.96 L 927.82,513.75 L 931.23,528.53 L 928.91,539.63 L 925.33,554.00 L 921.05,570.07 L 921.26,584.90 L 921.21,599.31 L 912.49,614.01 L 910.13,622.89 L 907.44,642.09 L 901.70,651.54 L 897.93,665.40 L 888.52,679.78 L 887.06,692.47 L 877.25,706.58 L 871.05,720.16 L 864.19,731.58 L 857.23,742.16 L 847.37,751.93 L 837.57,763.76 L 829.77,773.34 L 816.94,787.27 L 806.87,797.61 L 800.07,806.72 L 789.83,813.99 L 778.35,831.22 L 766.71,836.53 L 752.66,848.94 L 743.36,850.71 L 733.26,864.31 L 720.84,871.33 L 709.94,880.29 L 693.14,883.67 L 682.94,889.03 L 667.68,897.97 L 658.92,900.23 L 643.85,906.83 L 630.33,909.01 L 611.51,914.10 L 602.43,916.97 L 586.95,922.15 L 570.28,921.42 L 558.91,925.30 L 542.65,923.79 L 526.02,930.55 L 518.13,927.25 L 497.99,929.64 L 489.02,928.54 L 473.64,932.75 L 456.59,929.99 L 445.85,927.69 L 428.37,922.58 L 412.47,922.43 L 403.39,923.02 L 388.48,914.96 L 374.47,910.15 L 360.28,906.88 L 345.85,900.31 L 332.65,895.40 L 321.44,889.39 L 308.03,882.54 L 293.25,874.91 L 278.90,872.84 L 268.16,864.71 L 254.86,852.81 L 244.62,847.77 L 231.02,837.26 L 221.70,829.16 L 214.91,819.49 L 199.92,807.48 L 188.31,801.77 L 183.33,786.57 L 173.35,781.03 L 162.07,767.11 L 159.12,755.38 L 143.12,742.11 L 134.72,732.08 L 129.80,718.61 L 123.29,707.90 L 112.81,695.56 L 110.47,682.45 L 107.62,668.61 L 96.16,654.54 L 91.75,640.80 L 94.08,628.79 L 86.36,613.59 L 84.51,600.48 L 74.93,587.40 L 77.60,573.59 L 73.23,561.27 L 76.03,542.23 L 70.21,528.24 L 68.54,499.95 L 71.54,486.17 L 67.80,476.49 L 72.53,460.32 L 74.92,441.34 L 79.49,432.45 L 79.55,418.96 L 83.51,398.89 L 84.58,387.32 L 87.63,372.47 L 94.40,360.44 L 99.33,345.87 L 103.22,333.52 L 111.41,319.45 L 117.56,306.81 L 119.65,294.21 L 130.77,284.33 L 138.46,269.16 L 140.18,260.41 L 151.52,248.12 L 159.91,238.14 L 170.12,222.06 L 180.42,215.01 L 187.19,198.42 L 202.61,189.97 L 211.84,182.05 L 220.82,172.80 L 234.17,164.30 L 243.06,154.81 L 253.48,143.66 L 266.38,135.80 L 279.37,132.96 L 289.80,121.34 L 307.46,120.14 L 319.19,108.71 L 329.02,104.68 L 345.66,99.30 L 355.72,90.19 L 374.15,89.27 L 388.06,88.19 L 401.72,77.63 L 416.38,77.87 L 430.72,78.51 L 439.52,71.88 L 453.22,70.30 L 470.96,71.45 L 487.75,68.36 L 497.15,69.49 L 511.66,70.49 L 529.16,67.96 L 544.49,69.20 L 554.71,75.45 L 572.94,73.42 L 585.31,78.30 L 598.41,80.93 L 612.33,85.75 L 629.16,89.82 L 642.13,95.76 L 650.74,95.28 L 666.06,103.69 L 680.02,109.26 L 691.78,113.74 L 705.12,119.58 L 719.14,132.84 L 731.06,137.38 L 742.54,149.55 L 757.30,156.04 L 768.61,166.33 L 774.14,172.27 L 788.18,184.98 L 801.07,189.74 L 808.80,198.84 L 820.66,209.10 L 828.90,222.02 L 836.22,234.96 L 847.90,243.71 L 855.13,252.20 L 857.74,266.51 L 867.56,280.17 L 877.13,294.07 L 885.40,304.62 L 894.28,321.04 L 898.22,327.78 L 901.10,344.58 L 907.76,357.04 L 910.62,370.13 L 915.79,384.55 L 918.58,397.68 L 919.75,412.22 L 923.51,430.39 L 922.71,443.85 L 926.92,459.27 L 931.58,470.47 Z" fill="none" stroke="blue" stroke-width="2"/>
<path d="M 921.24,496.14 L 916.97,515.69 L 920.80,527.94 L 921.29,539.46 L 915.61,552.33 L 909.69,567.76 L 912.68,583.52 L 912.72,595.59 L 903.09,613.40 L 900.25,620.97 L 896.18,641.07 L 892.86,646.76 L 887.05,661.81 L 879.70,673.63 L 880.47,690.00 L 868.29,699.94 L 864.05,715.05 L 856.79,726.25 L 847.86,738.15 L 841.58,744.83 L 829.93,757.04 L 824.10,766.99 L 811.35,782.30 L 798.62,792.03 L 792.67,801.66 L 783.08,808.18 L 770.88,822.59 L 760.91,831.08 L 746.74,839.16 L 737.85,841.75 L 728.12,856.10 L 715.51,861.88 L 703.62,872.49 L 688.99,873.46 L 680.01,877.79 L 664.97,889.73 L 656.73,890.39 L 641.30,898.94 L 629.61,899.46 L 606.69,904.45 L 600.48,909.03 L 586.73,912.07 L 568.76,911.35 L 558.60,914.97 L 542.39,912.18 L 525.27,922.82 L 516.94,918.18 L 498.76,921.32 L 490.97,920.27 L 473.68,921.89 L 458.64,921.29 L 448.89,915.54 L 427.97,913.35 L 416.52,915.02 L 406.80,912.95 L 389.15,905.94 L 379.19,900.32 L 364.46,899.36 L 347.26,892.40 L 335.56,885.59 L 323.91,880.45 L 312.83,875.00 L 296.50,864.13 L 285.78,864.82 L 272.28,858.26 L 258.85,844.41 L 249.36,838.54 L 234.90,830.91 L 230.09,822.37 L 219.92,811.75 L 206.16,800.75 L 196.16,794.45 L 189.55,781.52 L 179.48,773.95 L 169.83,759.65 L 167.47,749.74 L 153.76,735.51 L 145.46,727.48 L 137.32,713.84 L 132.94,704.24 L 119.57,691.56 L 119.51,680.15 L 115.78,666.09 L 106.01,650.26 L 101.86,638.12 L 104.46,626.82 L 96.77,612.57 L 94.84,600.07 L 85.43,584.47 L 87.17,572.25 L 84.24,557.88 L 85.00,542.43 L 76.99,498.19 L 81.73,488.76 L 77.94,479.02 L 84.08,460.08 L 86.39,442.62 L 90.83,435.22 L 88.59,419.00 L 95.45,399.52 L 96.47,391.66 L 98.26,377.73 L 106.10,365.15 L 108.02,350.85 L 110.11,337.56 L 120.26,324.49 L 127.31,311.72 L 130.00,301.08 L 137.52,288.09 L 144.61,276.39 L 148.80,267.95 L 158.29,251.88 L 169.39,246.20 L 176.82,228.06 L 186.15,223.81 L 193.45,205.32 L 207.60,199.04 L 216.81,189.23 L 228.13,181.57 L 242.52,171.75 L 250.20,161.17 L 258.76,149.96 L 271.73,143.77 L 286.69,139.29 L 294.04,129.81 L 314.15,130.77 L 321.46,118.68 L 333.21,116.15 L 348.58,108.15 L 357.55,97.81 L 378.75,98.61 L 391.47,98.52 L 404.45,85.07 L 419.70,86.45 L 430.55,88.69 L 438.85,83.05 L 452.90,78.87 L 473.41,80.60 L 486.35,80.28 L 494.83,81.21 L 509.69,78.71 L 527.29,76.38 L 544.24,76.87 L 551.10,86.76 L 570.00,82.44 L 581.76,85.96 L 597.28,90.79 L 610.90,95.29 L 627.49,99.42 L 636.94,105.21 L 649.39,102.46 L 663.56,114.68 L 675.94,118.14 L 689.56,120.59 L 700.27,127.91 L 714.91,141.38 L 727.66,143.77 L 734.84,158.29 L 749.22,162.97 L 762.98,174.36 L 766.89,182.32 L 781.58,192.13 L 794.61,195.00 L 802.61,207.51 L 813.98,217.11 L 822.33,227.10 L 828.14,239.85 L 839.08,249.42 L 846.52,255.98 L 849.02,272.76 L 858.37,283.64 L 870.38,296.78 L 878.08,307.19 L 883.23,326.32 L 890.53,332.02 L 892.19,348.49 L 897.50,358.54 L 900.38,373.94 L 907.35,389.00 L 909.93,402.31 L 910.45,413.55 L 914.02,430.63 L 913.55,443.84 L 915.08,461.87 Z" fill="none" stroke="green" stroke-width="2"/>
<path d="M 910.61,497.49 L 907.34,516.79 L 912.48,529.56 L 912.86,539.08 L 906.38,548.81 L 901.88,567.71 L 901.77,580.01 L 903.95,592.42 L 892.70,608.32 L 892.45,618.40 L 886.29,635.99 L 884.13,641.01 L 879.01,656.58 L 870.22,668.71 L 870.90,686.60 L 860.84,695.49 L 853.45,707.81 L 846.70,721.46 L 840.45,731.41 L 834.23,738.93 L 821.77,749.80 L 817.61,758.78 L 803.61,774.54 L 792.33,784.98 L 786.51,792.30 L 775.82,801.29 L 762.08,813.98 L 753.34,821.49 L 739.69,830.24 L 729.77,834.73 L 721.17,847.10 L 711.38,853.29 L 700.42,865.18 L 682.42,866.27 L 673.52,866.45 L 663.10,882.26 L 653.37,881.46 L 638.97,889.11 L 624.68,887.65 L 603.30,896.23 L 598.66,900.91 L 586.69,900.31 L 568.77,900.25 L 557.64,905.18 L 540.87,901.32 L 523.91,912.04 L 514.94,908.24 L 496.94,911.37 L 493.14,909.54 L 475.39,913.44 L 461.14,910.07 L 448.42,904.17 L 430.19,904.75 L 419.24,903.67 L 410.32,903.17 L 393.01,897.54 L 381.83,892.79 L 367.98,890.54 L 351.49,884.83 L 340.10,874.72 L 326.04,871.10 L 316.36,864.98 L 299.25,855.44 L 289.94,855.97 L 275.52,851.41 L 262.56,837.97 L 257.02,831.05 L 241.19,822.93 L 236.77,816.11 L 228.51,804.08 L 214.64,794.32 L 202.49,787.38 L 195.28,772.70 L 185.19,769.37 L 176.94,754.50 L 175.49,742.17 L 160.82,729.59 L 153.58,722.19 L 144.30,708.15 L 140.64,698.94 L 127.72,687.54 L 129.94,676.58 L 122.88,660.18 L 116.21,645.66 L 112.38,635.59 L 115.94,625.56 L 105.60,610.28 L 102.83,596.95 L 97.47,583.43 L 96.50,570.99 L 96.25,555.59 L 86.39,499.63 L 93.22,489.84 L 89.50,480.66 L 94.92,461.16 L 96.99,443.62 L 100.05,436.12 L 96.87,419.56 L 107.30,401.87 L 104.81,392.52 L 105.79,382.30 L 113.65,369.69 L 118.97,356.25 L 117.12,340.62 L 130.62,326.91 L 135.64,314.61 L 140.39,307.11 L 147.64,291.54 L 152.77,281.28 L 157.99,272.20 L 166.11,256.73 L 178.51,252.05 L 184.63,233.58 L 195.14,230.27 L 202.27,211.62 L 216.72,208.54 L 223.36,195.57 L 234.06,189.31 L 250.93,181.14 L 257.58,167.49 L 263.24,158.87 L 278.92,152.45 L 289.87,149.55 L 300.59,137.52 L 319.91,138.61 L 327.65,126.04 L 336.89,127.47 L 350.85,117.24 L 360.17,104.96 L 379.50,108.19 L 392.82,110.54 L 406.10,92.55 L 423.68,97.89 L 432.94,99.94 L 438.56,91.92 L 455.59,89.75 L 472.32,91.57 L 486.43,87.90 L 492.94,90.04 L 511.07,88.94 L 527.74,86.49 L 541.34,85.80 L 548.92,94.51 L 567.97,93.71 L 579.62,93.90 L 596.92,100.99 L 605.94,105.01 L 623.22,107.24 L 633.33,115.21 L 644.63,111.43 L 660.44,121.89 L 674.04,125.15 L 685.22,129.57 L 697.88,136.97 L 709.25,149.81 L 722.93,154.51 L 728.00,164.22 L 744.67,170.27 L 757.82,182.76 L 761.76,191.11 L 774.03,197.33 L 787.88,203.70 L 793.87,215.81 L 806.38,224.75 L 815.33,235.06 L 818.21,247.39 L 830.84,254.38 L 836.16,260.30 L 838.44,280.30 L 849.89,291.16 L 861.82,300.41 L 870.39,310.26 L 873.44,331.80 L 883.11,335.16 L 881.06,351.46 L 889.95,363.06 L 892.73,376.40 L 899.98,391.61 L 900.19,406.66 L 900.76,417.06 L 905.25,430.26 L 904.13,446.74 Z" fill="none" stroke="purple" stroke-width="2"/>
<path d="M 900.82,496.69 L 895.33,517.15 L 901.57,529.34 L 902.55,539.04 L 895.74,545.42 L 893.80,565.34 L 894.35,576.97 L 896.51,592.34 L 881.02,606.32 L 882.22,616.95 L 877.72,634.84 L 873.03,638.08 L 871.12,650.53 L 859.04,665.90 L 861.33,681.54 L 852.37,691.23 L 845.69,704.90 L 837.66,717.34 L 832.53,725.93 L 825.61,733.83 L 812.67,741.81 L 810.99,752.46 L 795.65,768.13 L 784.03,776.84 L 779.25,787.53 L 768.04,795.91 L 755.64,804.49 L 748.85,813.40 L 735.73,821.89 L 722.14,827.36 L 717.46,837.80 L 705.51,842.62 L 695.82,858.29 L 679.66,858.34 L 671.29,858.08 L 660.59,873.11 L 647.82,870.74 L 633.88,881.09 L 619.34,878.38 L 600.15,888.01 L 596.53,891.74 L 582.59,889.62 L 569.48,891.45 L 556.36,896.57 L 541.41,889.33 L 525.60,902.74 L 514.34,899.11 L 496.27,903.19 L 494.65,900.22 L 474.47,905.69 L 461.76,902.09 L 447.56,892.44 L 430.23,893.29 L 420.35,894.87 L 411.75,895.53 L 397.51,889.55 L 383.52,883.86 L 371.44,879.27 L 354.15,875.67 L 344.04,863.94 L 332.41,860.38 L 321.62,857.10 L 304.68,848.38 L 295.33,848.92 L 278.65,840.80 L 268.99,830.16 L 263.66,824.27 L 247.05,815.79 L 243.16,809.04 L 234.16,798.81 L 221.52,788.61 L 210.57,779.46 L 200.69,763.92 L 192.50,762.80 L 183.38,748.82 L 182.61,737.24 L 170.23,725.72 L 164.28,715.02 L 152.31,703.40 L 148.52,693.94 L 135.54,681.83 L 137.03,671.26 L 131.53,656.83 L 124.36,643.87 L 120.19,631.47 L 125.81,621.56 L 116.49,607.58 L 112.62,594.58 L 106.34,579.11 L 108.49,569.28 L 98.63,498.27 L 102.52,487.93 L 99.47,482.97 L 105.61,461.98 L 107.07,446.67 L 109.59,439.53 L 107.77,422.78 L 116.36,403.81 L 114.80,393.67 L 115.63,383.11 L 123.15,374.15 L 127.27,362.12 L 127.22,342.63 L 141.95,330.65 L 145.97,318.37 L 151.31,313.06 L 154.80,296.67 L 161.23,284.43 L 164.57,276.94 L 174.07,262.41 L 186.94,258.23 L 191.45,240.58 L 201.01,239.24 L 210.60,217.61 L 222.91,217.28 L 230.25,203.97 L 239.60,198.42 L 256.46,189.86 L 265.78,175.97 L 270.37,168.16 L 285.19,158.61 L 294.90,160.37 L 306.77,147.60 L 324.75,148.62 L 332.24,133.54 L 341.53,137.20 L 356.12,124.86 L 364.38,112.14 L 384.59,115.88 L 393.16,119.29 L 406.68,103.20 L 425.12,109.03 L 436.62,111.59 L 441.19,99.71 L 454.94,98.29 L 472.16,102.32 L 486.88,97.00 L 491.55,102.02 L 510.05,98.23 L 528.38,97.53 L 541.03,96.68 L 548.26,102.97 L 565.11,103.85 L 576.38,105.98 L 593.59,109.69 L 601.94,115.65 L 619.36,116.05 L 632.14,126.08 L 640.06,118.98 L 657.39,130.52 L 672.14,135.75 L 682.93,139.98 L 692.09,144.74 L 705.15,157.66 L 717.23,161.74 L 722.28,171.06 L 738.89,180.38 L 752.46,188.78 L 755.85,199.15 L 766.09,205.56 L 781.07,211.53 L 784.53,222.34 L 799.99,229.52 L 808.97,239.12 L 810.62,255.67 L 822.36,262.43 L 829.84,266.00 L 828.61,287.98 L 840.44,296.98 L 855.02,303.27 L 861.84,314.99 L 865.39,338.00 L 875.90,337.56 L 873.58,353.54 L 882.53,368.76 L 882.70,379.38 L 892.42,396.44 L 892.50,410.74 L 888.61,419.42 L 893.51,434.28 Z" fill="none" stroke="orange" stroke-width="2"/>
<path d="M 889.79,499.13 L 885.55,516.69 L 893.70,530.29 L 892.45,536.61 L 883.94,542.66 L 883.74,562.54 L 883.03,576.19 L 888.17,590.40 L 872.62,602.08 L 874.37,615.93 L 869.87,631.56 L 861.67,635.42 L 860.34,645.05 L 849.12,660.49 L 851.24,675.78 L 844.80,688.64 L 836.14,700.87 L 826.91,712.66 L 825.19,718.20 L 815.66,727.07 L 804.31,735.71 L 805.12,747.13 L 787.34,759.57 L 778.86,768.88 L 772.84,779.01 L 759.57,786.84 L 750.40,797.34 L 742.23,805.80 L 729.69,814.00 L 717.32,817.73 L 710.84,830.61 L 702.16,832.03 L 690.77,850.49 L 673.15,849.70 L 664.88,849.28 L 656.67,864.27 L 642.44,860.63 L 630.67,869.81 L 614.93,869.24 L 595.69,878.38 L 595.62,881.80 L 580.59,879.63 L 565.61,881.42 L 556.43,887.74 L 539.86,880.90 L 526.15,893.13 L 511.81,888.37 L 494.27,895.56 L 496.88,888.15 L 477.18,893.46 L 462.28,893.42 L 450.16,884.83 L 432.68,883.06 L 424.70,884.51 L 415.71,887.72 L 399.46,880.76 L 387.21,874.48 L 375.39,869.07 L 356.23,866.53 L 348.12,855.84 L 335.30,848.94 L 323.80,847.19 L 310.40,839.87 L 300.55,841.85 L 282.89,831.68 L 273.65,824.07 L 270.64,814.34 L 254.79,807.60 L 250.84,803.19 L 238.49,789.93 L 226.56,779.18 L 218.24,773.50 L 206.02,758.46 L 199.63,755.03 L 189.89,744.40 L 188.49,731.28 L 177.47,721.59 L 173.82,708.76 L 161.42,699.19 L 156.42,688.16 L 142.78,678.14 L 144.73,666.04 L 138.62,655.07 L 135.52,642.27 L 130.24,627.85 L 135.31,620.74 L 128.24,605.71 L 123.70,591.34 L 115.75,575.46 L 117.74,568.76 L 108.51,500.00 L 111.55,489.24 L 110.93,485.39 L 115.87,465.18 L 117.26,446.27 L 118.24,439.64 L 118.28,426.74 L 127.73,404.29 L 125.52,394.85 L 124.09,386.85 L 133.13,379.11 L 135.16,366.85 L 137.51,346.81 L 150.90,336.70 L 154.07,325.13 L 157.80,319.88 L 165.64,299.91 L 172.07,289.69 L 171.67,282.98 L 180.73,270.29 L 195.11,265.66 L 198.53,247.17 L 207.88,244.67 L 217.82,224.58 L 227.98,226.73 L 236.84,212.99 L 248.13,205.36 L 262.23,198.02 L 270.30,182.37 L 274.91,178.47 L 290.90,166.68 L 298.40,168.11 L 311.00,157.97 L 329.21,158.31 L 337.30,141.47 L 347.08,148.60 L 360.39,134.15 L 366.09,122.99 L 385.89,126.51 L 395.82,130.92 L 409.17,113.62 L 424.89,116.62 L 439.90,123.60 L 443.46,110.87 L 455.64,109.87 L 471.57,113.29 L 484.86,107.02 L 491.16,112.58 L 510.61,108.79 L 527.60,107.45 L 537.66,106.88 L 544.72,113.03 L 562.41,116.01 L 572.17,117.31 L 592.10,120.89 L 601.35,123.43 L 614.46,123.92 L 627.33,135.64 L 638.13,127.25 L 652.98,139.12 L 667.42,145.10 L 680.76,147.58 L 688.22,155.21 L 700.75,167.96 L 713.08,168.21 L 716.11,179.60 L 730.78,186.04 L 744.59,196.55 L 749.06,208.14 L 759.70,214.70 L 772.15,218.83 L 775.18,227.95 L 794.33,238.08 L 801.22,243.40 L 800.72,263.90 L 816.23,268.67 L 819.44,273.85 L 819.32,295.62 L 832.27,303.32 L 847.30,307.64 L 850.91,317.92 L 855.01,343.67 L 866.19,343.43 L 863.46,358.42 L 871.35,374.36 L 874.24,382.39 L 885.03,396.86 L 882.45,414.59 L 878.05,422.74 Z" fill="none" stroke="brown" stroke-width="2"/>
<path d="M 881.97,498.67 L 876.87,514.02 L 882.64,531.91 L 882.44,535.01 L 876.12,541.25 L 874.73,561.73 L 871.23,574.84 L 879.85,589.18 L 860.96,597.81 L 865.82,613.65 L 861.58,627.36 L 850.40,629.57 L 850.12,640.68 L 838.91,654.59 L 840.78,671.09 L 836.27,683.44 L 825.26,695.07 L 816.55,707.72 L 816.01,712.12 L 806.51,720.73 L 794.38,731.55 L 799.26,743.17 L 780.23,751.32 L 771.06,760.24 L 764.85,771.86 L 750.72,779.14 L 743.54,789.65 L 733.94,796.80 L 722.52,806.56 L 712.07,808.04 L 703.53,821.27 L 699.07,822.71 L 686.52,843.19 L 667.85,839.97 L 662.07,841.99 L 654.94,853.36 L 637.86,853.49 L 625.85,859.51 L 614.13,861.96 L 592.18,869.63 L 593.09,872.48 L 577.22,869.26 L 565.38,871.06 L 553.08,878.16 L 539.21,871.18 L 526.30,883.40 L 513.62,878.19 L 495.37,885.26 L 495.90,879.08 L 479.24,884.90 L 462.74,883.46 L 452.04,873.67 L 435.12,874.23 L 427.96,872.64 L 420.15,877.84 L 401.49,871.11 L 392.07,865.81 L 378.75,860.97 L 359.17,859.10 L 352.18,847.29 L 337.54,841.17 L 329.05,837.56 L 315.95,828.93 L 307.88,834.04 L 287.85,824.51 L 281.58,815.52 L 274.16,805.08 L 261.05,799.86 L 257.55,795.81 L 244.91,781.97 L 234.84,772.44 L 225.40,765.77 L 211.24,749.95 L 206.84,750.76 L 195.89,740.31 L 194.79,724.40 L 185.49,714.51 L 182.15,703.25 L 169.73,695.05 L 164.32,682.39 L 153.21,671.82 L 155.47,662.52 L 148.66,649.51 L 147.16,637.41 L 138.13,622.95 L 145.09,619.80 L 136.58,602.52 L 131.91,589.66 L 125.24,571.28 L 128.13,565.55 L 118.95,499.48 L 122.53,488.12 L 122.13,487.26 L 123.72,464.20 L 128.94,446.18 L 127.27,441.03 L 126.96,430.40 L 137.54,407.48 L 135.60,398.12 L 134.07,389.04 L 144.27,382.84 L 146.04,371.30 L 145.73,351.28 L 157.94,339.21 L 161.14,328.74 L 165.11,325.51 L 174.25,304.69 L 178.72,294.57 L 178.48,289.18 L 189.75,276.86 L 205.41,272.06 L 206.11,251.91 L 214.48,251.06 L 222.80,230.92 L 232.65,232.11 L 245.07,222.63 L 254.61,212.97 L 269.26,205.50 L 277.75,190.45 L 278.60,184.44 L 297.42,174.18 L 302.47,176.87 L 314.20,166.54 L 334.79,168.55 L 341.62,148.74 L 349.16,159.12 L 365.45,142.88 L 370.94,130.23 L 389.81,136.31 L 400.83,138.65 L 412.99,124.57 L 425.78,128.84 L 441.17,132.76 L 446.36,120.48 L 459.08,121.14 L 470.99,124.76 L 485.61,116.30 L 492.34,123.21 L 508.68,117.05 L 525.44,116.01 L 534.54,116.11 L 542.47,123.15 L 559.91,126.85 L 569.25,126.01 L 591.41,132.93 L 599.57,131.14 L 613.72,134.85 L 626.00,147.43 L 636.38,134.83 L 650.80,147.11 L 664.13,155.71 L 677.42,157.31 L 683.35,164.34 L 694.44,176.09 L 707.42,177.24 L 712.32,185.92 L 724.91,193.01 L 740.38,203.68 L 744.71,214.90 L 750.56,223.39 L 766.30,227.11 L 767.85,235.75 L 786.17,242.61 L 793.76,248.52 L 792.51,268.68 L 807.04,276.14 L 810.49,279.99 L 811.21,300.93 L 822.91,309.28 L 836.38,310.55 L 843.39,322.33 L 844.05,349.41 L 856.72,344.96 L 856.34,360.62 L 862.78,375.79 L 865.42,383.76 L 877.45,398.36 L 873.43,415.58 Z" fill="none" stroke="pink" stroke-width="2"/>
<path d="M 871.36,500.67 L 865.27,513.18 L 871.74,532.08 L 871.20,534.88 L 867.15,537.80 L 864.74,558.39 L 860.10,573.77 L 867.75,587.88 L 852.82,597.59 L 855.88,608.97 L 850.07,623.53 L 842.11,624.26 L 839.93,638.84 L 828.04,651.81 L 833.03,664.91 L 829.82,677.00 L 816.79,687.64 L 808.86,702.01 L 808.73,707.23 L 796.67,714.53 L 787.36,727.16 L 789.46,735.01 L 773.93,745.15 L 763.22,755.61 L 756.92,763.04 L 742.90,769.78 L 737.28,782.54 L 728.19,790.35 L 717.48,800.20 L 707.08,798.92 L 698.17,812.93 L 694.92,813.28 L 679.51,836.37 L 665.50,831.03 L 655.83,833.00 L 651.28,844.38 L 636.41,846.56 L 624.52,848.34 L 612.75,852.79 L 589.01,860.83 L 591.82,864.99 L 576.36,857.18 L 561.46,860.09 L 549.37,866.16 L 539.43,861.28 L 526.13,873.44 L 512.75,869.17 L 493.38,875.44 L 496.46,868.01 L 478.76,874.96 L 462.18,874.98 L 453.38,863.21 L 437.37,865.97 L 430.63,860.72 L 423.07,869.14 L 405.63,859.30 L 392.82,855.88 L 381.63,851.99 L 361.82,850.92 L 357.17,836.23 L 342.75,833.07 L 331.88,830.78 L 320.87,821.52 L 313.85,823.74 L 291.47,817.45 L 286.10,809.11 L 281.35,794.74 L 268.70,790.90 L 261.74,789.05 L 251.94,772.48 L 241.56,764.56 L 232.54,759.10 L 218.13,742.19 L 212.50,744.58 L 204.78,732.77 L 202.86,716.25 L 195.47,707.62 L 190.42,697.27 L 176.65,692.01 L 174.81,677.85 L 164.15,668.52 L 164.12,657.37 L 157.45,646.64 L 155.37,631.74 L 146.99,619.73 L 156.49,615.05 L 147.66,602.11 L 143.80,585.22 L 137.82,562.77 L 130.60,498.69 L 132.78,486.11 L 130.68,487.94 L 132.74,465.77 L 138.66,448.10 L 137.11,443.94 L 135.32,434.20 L 148.46,408.78 L 142.85,400.43 L 142.34,391.26 L 155.38,387.84 L 157.58,372.39 L 155.68,356.89 L 168.05,341.63 L 170.17,332.06 L 173.90,328.08 L 185.17,310.91 L 185.15,302.05 L 188.70,294.82 L 198.78,282.16 L 215.54,276.25 L 211.75,256.67 L 223.49,255.66 L 230.24,237.64 L 241.87,238.00 L 250.62,229.17 L 262.47,221.60 L 276.47,212.57 L 282.40,196.59 L 282.83,194.03 L 303.02,181.08 L 305.98,185.29 L 318.52,175.50 L 341.38,176.15 L 344.71,156.77 L 351.28,166.66 L 369.77,153.84 L 375.08,137.50 L 394.21,145.09 L 401.40,147.11 L 414.45,134.40 L 428.48,137.51 L 445.00,140.40 L 447.19,130.17 L 461.24,129.89 L 471.47,136.20 L 484.15,123.95 L 494.02,135.53 L 506.57,128.60 L 524.06,126.61 L 534.24,126.46 L 540.09,134.57 L 555.93,134.62 L 569.27,135.55 L 587.12,144.55 L 598.45,139.96 L 608.46,144.18 L 620.96,157.17 L 634.34,143.66 L 644.53,157.15 L 658.18,163.33 L 671.25,165.10 L 680.33,170.84 L 689.80,183.40 L 700.96,185.19 L 706.90,192.06 L 717.89,199.30 L 732.59,213.26 L 738.27,223.07 L 745.25,232.18 L 761.62,235.58 L 760.02,242.95 L 778.62,251.24 L 786.14,254.45 L 783.10,273.97 L 797.59,283.89 L 803.65,283.62 L 805.13,306.43 L 815.57,316.74 L 829.93,313.51 L 835.25,325.78 L 836.40,355.41 L 845.41,351.32 L 845.68,365.91 L 854.74,378.33 L 857.52,388.44 L 866.24,401.41 Z" fill="none" stroke="cyan" stroke-width="2"/>
<path d="M 862.83,501.63 L 857.26,510.59 L 862.74,533.40 L 861.55,534.28 L 855.70,539.16 L 856.69,556.81 L 849.38,571.77 L 856.05,584.32 L 841.81,595.10 L 843.91,608.10 L 839.19,618.49 L 833.73,622.91 L 832.30,634.27 L 816.64,648.09 L 826.04,661.85 L 822.64,674.07 L 810.35,682.00 L 802.57,696.11 L 798.47,700.77 L 786.78,707.10 L 781.61,722.43 L 783.86,729.49 L 764.86,740.80 L 756.91,750.77 L 751.24,754.63 L 736.56,760.85 L 729.85,775.85 L 720.14,783.65 L 713.68,794.31 L 700.78,793.13 L 694.97,802.29 L 690.04,806.86 L 676.95,826.26 L 661.25,824.23 L 649.77,825.16 L 645.90,837.58 L 631.05,839.14 L 619.08,839.97 L 610.27,845.15 L 586.25,850.03 L 588.07,853.24 L 572.99,845.54 L 557.27,849.70 L 549.04,858.52 L 540.08,851.32 L 524.74,863.69 L 510.38,859.08 L 495.19,866.16 L 497.34,856.39 L 477.17,866.63 L 462.10,864.15 L 456.72,851.24 L 437.37,855.50 L 433.53,851.10 L 426.92,857.38 L 408.52,850.14 L 395.52,844.03 L 386.85,840.87 L 367.27,839.93 L 359.08,825.57 L 345.45,824.93 L 337.39,822.93 L 324.54,811.70 L 317.51,812.86 L 297.24,810.68 L 290.07,800.18 L 286.90,785.68 L 275.65,783.51 L 266.61,779.02 L 257.04,764.04 L 246.50,759.02 L 238.76,751.60 L 225.63,736.41 L 218.12,738.27 L 211.09,728.39 L 210.29,710.07 L 202.58,701.78 L 197.52,690.75 L 183.13,688.08 L 184.37,671.04 L 172.33,664.21 L 175.42,653.54 L 166.90,644.32 L 166.24,627.76 L 156.62,618.27 L 165.85,613.70 L 157.15,597.30 L 155.46,583.93 L 147.68,563.00 L 142.05,499.61 L 143.35,484.69 L 141.91,486.72 L 145.01,469.00 L 150.03,447.77 L 146.62,447.86 L 144.84,438.41 L 158.74,412.95 L 151.30,405.14 L 153.88,392.14 L 164.33,390.50 L 166.10,374.86 L 164.69,362.58 L 178.42,346.59 L 179.16,336.28 L 182.31,331.12 L 194.12,317.37 L 195.69,309.48 L 197.31,298.48 L 205.81,288.26 L 222.59,282.08 L 218.78,263.12 L 231.45,260.13 L 236.26,242.97 L 249.34,246.12 L 255.10,238.46 L 268.08,228.02 L 283.71,222.54 L 290.05,202.47 L 290.06,201.30 L 307.13,189.60 L 312.08,191.93 L 325.08,182.53 L 347.96,184.91 L 352.28,169.41 L 354.86,176.54 L 371.69,161.85 L 379.79,148.15 L 398.21,156.47 L 405.52,156.85 L 414.98,143.26 L 430.34,145.60 L 448.08,152.12 L 446.23,138.61 L 463.77,141.46 L 470.93,145.97 L 486.47,134.93 L 492.99,147.08 L 506.31,139.25 L 521.51,134.33 L 532.61,136.85 L 537.34,146.28 L 554.73,143.77 L 565.68,147.25 L 585.84,155.14 L 594.69,149.03 L 603.84,154.06 L 619.77,168.28 L 631.43,153.84 L 639.45,165.89 L 651.55,173.69 L 667.90,171.60 L 677.42,180.28 L 685.07,189.58 L 694.33,195.05 L 700.32,202.56 L 712.64,206.99 L 725.64,220.25 L 730.51,230.45 L 739.30,241.07 L 754.05,240.74 L 752.92,250.71 L 772.78,257.26 L 779.23,261.44 L 774.28,278.29 L 787.38,292.08 L 796.15,291.12 L 795.52,312.76 L 808.79,320.77 L 819.53,319.68 L 828.29,331.83 L 828.66,359.82 L 836.98,356.12 L 837.41,370.26 L 847.67,380.41 L 847.58,390.87 L 854.35,405.00 Z" fill="none" stroke="magenta" stroke-width="2"/>
<path d="M 853.17,500.12 L 848.35,508.99 L 852.94,533.89 L 853.54,534.20 L 845.79,539.76 L 848.44,557.09 L 838.04,567.87 L 844.52,580.91 L 833.64,593.74 L 832.83,606.02 L 828.94,613.28 L 823.63,620.69 L 822.07,631.97 L 806.74,642.78 L 816.06,659.16 L 813.66,671.14 L 802.09,679.15 L 792.07,692.61 L 790.13,697.03 L 778.05,700.35 L 771.57,718.00 L 774.28,721.84 L 756.96,734.47 L 751.64,743.65 L 743.26,748.61 L 731.10,753.46 L 724.00,766.68 L 714.58,773.44 L 706.64,787.54 L 693.45,786.21 L 689.41,795.21 L 682.70,798.97 L 672.73,817.05 L 658.93,814.77 L 643.26,814.69 L 641.22,826.11 L 626.49,831.45 L 614.18,831.41 L 607.72,834.46 L 584.68,839.60 L 583.76,843.01 L 571.24,834.18 L 557.10,838.89 L 546.57,849.72 L 539.30,840.62 L 525.81,856.10 L 509.22,851.02 L 494.54,854.67 L 499.46,848.40 L 477.23,855.34 L 464.12,852.42 L 458.96,841.73 L 437.42,844.99 L 436.01,839.04 L 430.63,846.39 L 411.12,838.28 L 400.71,835.21 L 390.64,829.05 L 371.73,830.19 L 362.40,816.59 L 349.55,814.20 L 342.75,814.58 L 328.42,803.72 L 323.26,803.08 L 303.15,800.53 L 297.33,790.04 L 293.88,775.79 L 279.95,773.74 L 271.53,769.86 L 262.63,756.75 L 252.02,752.81 L 244.95,742.42 L 233.15,728.44 L 227.81,730.97 L 216.52,722.98 L 220.32,705.78 L 211.64,694.46 L 203.99,685.44 L 192.78,681.04 L 191.98,664.96 L 183.60,658.73 L 184.28,647.33 L 174.51,638.12 L 174.57,625.62 L 165.18,616.15 L 173.37,611.71 L 164.59,596.26 L 158.31,559.66 L 151.36,499.35 L 153.92,486.97 L 149.95,488.64 L 153.45,469.44 L 162.14,448.19 L 155.96,451.04 L 156.12,440.88 L 169.84,413.62 L 161.88,405.71 L 165.53,393.54 L 173.42,394.09 L 176.89,379.29 L 172.39,365.86 L 186.74,348.70 L 188.92,342.51 L 193.37,334.11 L 204.68,320.71 L 203.69,312.68 L 204.44,303.20 L 214.86,295.03 L 231.68,288.70 L 226.68,271.92 L 239.66,266.08 L 243.47,250.98 L 254.35,254.08 L 260.66,245.09 L 275.33,235.14 L 291.40,230.78 L 298.07,208.57 L 296.41,207.90 L 313.99,199.84 L 318.96,198.49 L 329.77,190.10 L 354.46,191.80 L 354.93,179.27 L 358.38,184.44 L 374.93,172.69 L 382.67,159.36 L 400.69,164.26 L 408.06,167.25 L 415.29,152.59 L 432.43,153.03 L 447.48,162.53 L 448.84,152.53 L 464.70,150.01 L 472.46,158.10 L 486.07,142.78 L 491.75,156.86 L 506.32,149.82 L 520.69,145.06 L 532.65,144.95 L 537.43,154.88 L 552.35,155.22 L 565.98,156.06 L 583.43,165.79 L 589.81,157.05 L 599.15,164.65 L 617.35,175.76 L 628.33,161.65 L 637.58,174.57 L 647.05,184.07 L 664.32,178.59 L 672.09,191.03 L 681.50,198.55 L 690.20,203.20 L 695.44,213.00 L 704.96,215.03 L 719.46,225.83 L 726.05,239.64 L 732.39,248.41 L 749.03,246.29 L 746.14,258.80 L 763.49,263.33 L 772.08,269.74 L 766.50,283.99 L 781.55,299.90 L 789.22,295.77 L 789.28,320.35 L 799.90,324.00 L 810.39,325.53 L 820.57,335.41 L 820.42,365.46 L 828.80,362.12 L 828.71,372.40 L 838.81,382.65 L 837.29,394.69 Z" fill="none" stroke="darkred" stroke-width="2"/>
<path d="M 845.49,500.87 L 840.56,508.78 L 843.92,532.12 L 841.74,532.57 L 835.76,539.00 L 839.37,555.12 L 829.42,567.59 L 833.74,580.34 L 825.48,591.20 L 821.01,601.34 L 820.28,608.64 L 815.44,615.63 L 811.77,627.04 L 799.28,639.54 L 806.11,655.94 L 802.60,667.93 L 791.54,675.88 L 784.83,688.92 L 782.97,691.77 L 768.62,695.94 L 765.15,710.80 L 767.24,717.67 L 748.97,730.00 L 746.67,735.86 L 736.45,739.20 L 723.10,746.71 L 718.83,760.87 L 709.90,767.61 L 701.70,780.18 L 688.98,778.21 L 684.41,788.18 L 679.63,789.51 L 666.31,809.20 L 652.82,804.33 L 639.08,805.04 L 636.80,817.25 L 621.05,822.55 L 609.64,821.18 L 605.56,823.32 L 580.48,829.07 L 579.13,835.40 L 569.59,825.21 L 555.28,829.39 L 544.46,841.19 L 537.16,829.36 L 523.46,844.06 L 508.87,840.62 L 494.76,842.71 L 498.03,837.02 L 476.95,844.69 L 463.67,843.68 L 460.19,834.17 L 440.66,837.44 L 435.41,830.00 L 432.24,838.50 L 414.11,829.16 L 405.66,826.47 L 392.84,821.52 L 377.40,820.28 L 366.49,806.34 L 355.76,806.69 L 346.55,807.05 L 333.00,792.78 L 330.14,792.93 L 308.64,794.27 L 301.40,783.99 L 299.99,765.37 L 284.07,766.72 L 279.25,763.94 L 269.01,747.47 L 259.16,746.60 L 254.44,736.81 L 241.42,724.01 L 236.58,722.80 L 224.15,715.95 L 226.37,697.68 L 221.32,689.11 L 212.81,678.80 L 200.22,675.40 L 201.40,659.89 L 190.21,655.05 L 193.50,643.76 L 184.27,635.42 L 184.30,622.97 L 172.57,614.92 L 180.93,609.84 L 167.21,555.97 L 162.64,499.10 L 163.41,488.15 L 159.82,489.16 L 161.66,469.83 L 173.44,449.97 L 168.06,450.79 L 166.82,444.61 L 180.92,417.31 L 170.89,410.60 L 175.30,396.90 L 181.10,394.86 L 186.70,383.03 L 183.76,368.77 L 196.90,355.06 L 197.06,346.68 L 202.83,339.00 L 211.56,324.63 L 213.70,316.62 L 211.18,310.25 L 224.62,302.62 L 241.56,297.33 L 234.11,278.64 L 246.03,270.76 L 248.65,259.10 L 261.29,260.41 L 265.64,253.19 L 279.80,243.41 L 299.36,237.87 L 303.44,217.40 L 301.11,216.56 L 319.48,207.74 L 323.14,206.77 L 332.11,197.69 L 357.29,202.05 L 358.64,190.06 L 360.62,194.72 L 380.21,181.89 L 385.14,167.91 L 403.66,172.32 L 411.12,178.56 L 419.27,160.60 L 434.42,161.73 L 450.76,170.39 L 448.14,160.13 L 465.63,157.72 L 473.54,167.63 L 486.79,154.73 L 492.12,167.07 L 508.42,159.68 L 521.32,154.39 L 530.30,156.21 L 537.37,163.81 L 550.57,165.14 L 563.50,165.87 L 581.69,177.14 L 588.65,167.24 L 594.61,174.28 L 613.60,183.59 L 626.86,171.74 L 635.85,184.88 L 642.67,192.42 L 658.35,187.39 L 665.06,199.10 L 674.08,205.67 L 686.69,210.91 L 689.60,221.00 L 696.89,225.41 L 712.31,234.57 L 719.55,248.73 L 727.17,254.58 L 742.20,251.82 L 739.69,265.11 L 756.75,271.58 L 764.49,275.57 L 760.65,290.33 L 772.67,307.43 L 780.96,301.42 L 781.26,325.60 L 789.52,327.43 L 799.63,331.10 L 810.28,338.45 L 810.53,370.36 L 817.74,364.68 L 820.88,377.06 L 829.27,385.81 Z" fill="none" stroke="darkblue" stroke-width="2"/>
<path d="M 834.10,499.25 L 832.16,506.27 L 831.76,531.58 L 830.15,532.28 L 823.61,538.24 L 827.36,552.41 L 818.08,567.84 L 824.48,578.36 L 813.53,589.61 L 812.23,597.36 L 808.80,605.25 L 808.39,614.02 L 800.90,624.92 L 790.66,636.80 L 798.70,649.95 L 794.58,662.02 L 784.01,670.03 L 776.22,683.91 L 773.35,685.69 L 758.61,688.70 L 758.99,704.67 L 759.04,709.74 L 739.62,723.17 L 739.93,726.81 L 730.71,732.17 L 714.47,739.28 L 710.55,753.77 L 705.22,761.72 L 697.09,772.85 L 683.37,769.38 L 676.74,779.96 L 672.96,782.52 L 662.86,799.88 L 648.66,796.60 L 636.08,796.94 L 630.81,806.36 L 617.32,811.95 L 608.02,810.72 L 604.15,813.41 L 576.50,820.39 L 578.11,826.07 L 565.55,813.09 L 554.25,820.45 L 542.17,830.63 L 534.26,820.16 L 521.49,835.80 L 508.13,829.98 L 493.73,833.58 L 499.19,826.60 L 478.87,834.62 L 464.00,833.98 L 460.08,823.30 L 441.54,828.56 L 438.35,821.88 L 434.86,829.87 L 416.28,820.42 L 406.72,815.46 L 380.41,810.14 L 370.64,798.08 L 360.93,795.97 L 353.17,795.70 L 335.92,782.35 L 337.12,783.93 L 311.93,784.51 L 305.05,773.54 L 305.39,759.67 L 290.86,759.00 L 286.63,756.70 L 277.93,741.65 L 266.78,739.11 L 260.17,730.58 L 250.41,716.39 L 241.95,716.78 L 232.08,708.46 L 232.86,689.56 L 228.33,681.07 L 219.64,675.87 L 210.18,669.62 L 209.70,655.56 L 199.23,651.70 L 200.48,637.53 L 192.42,633.05 L 195.61,618.61 L 184.23,610.53 L 190.90,605.12 L 179.13,554.68 L 171.49,498.71 L 171.52,486.49 L 168.83,491.66 L 173.07,472.95 L 185.12,453.04 L 178.31,453.24 L 178.91,446.60 L 191.88,421.11 L 182.73,413.09 L 184.62,400.40 L 188.31,396.22 L 193.96,387.24 L 195.34,373.52 L 204.59,358.56 L 208.13,351.35 L 209.23,345.43 L 218.85,327.95 L 222.91,323.64 L 217.46,317.89 L 232.58,307.82 L 251.25,302.47 L 243.88,285.99 L 255.35,277.53 L 254.35,267.22 L 270.06,266.16 L 271.03,259.32 L 286.80,249.42 L 310.02,231.81 L 307.61,225.60 L 325.18,217.58 L 328.40,213.19 L 336.78,207.07 L 361.46,213.45 L 364.59,200.98 L 364.62,206.19 L 385.62,190.24 L 386.97,177.77 L 404.23,183.38 L 413.56,188.43 L 421.48,169.85 L 437.10,170.01 L 454.41,181.25 L 449.35,170.94 L 464.17,166.30 L 474.61,176.76 L 487.60,163.57 L 492.48,175.81 L 507.92,170.22 L 519.95,164.36 L 527.92,167.12 L 535.54,175.43 L 547.92,173.47 L 559.76,176.04 L 577.83,184.89 L 584.88,175.61 L 591.40,183.28 L 608.43,195.18 L 621.49,182.50 L 630.26,194.02 L 640.76,203.13 L 653.83,197.34 L 661.55,206.87 L 669.22,214.56 L 680.72,220.19 L 681.81,230.74 L 690.89,234.12 L 705.77,241.54 L 712.25,256.50 L 722.40,260.71 L 732.87,257.12 L 734.28,274.29 L 747.80,278.56 L 757.55,280.44 L 754.18,295.86 L 765.31,313.11 L 773.91,309.03 L 772.18,329.82 L 781.55,330.82 L 789.31,337.46 L 800.62,343.68 L 801.64,375.87 L 806.47,366.96 L 810.23,379.75 Z" fill="none" stroke="darkgreen" stroke-width="2"/>
<path d="M 823.10,498.20 L 822.85,505.03 L 821.54,532.43 L 819.54,531.78 L 815.91,536.71 L 815.96,548.60 L 809.37,566.60 L 816.86,577.05 L 801.87,585.34 L 800.75,592.36 L 801.13,602.33 L 796.71,610.13 L 792.90,619.17 L 780.44,630.97 L 790.47,647.40 L 784.86,656.07 L 774.34,665.59 L 766.07,680.08 L 762.75,680.94 L 752.20,682.05 L 750.96,700.84 L 751.40,702.45 L 731.95,718.69 L 733.53,718.48 L 724.04,725.80 L 708.36,732.23 L 704.18,746.83 L 698.04,753.19 L 691.32,766.28 L 677.36,760.54 L 670.14,770.63 L 665.23,775.57 L 659.65,790.40 L 643.92,785.36 L 633.82,790.05 L 626.65,794.86 L 613.34,801.64 L 603.32,798.95 L 600.26,803.54 L 574.34,810.19 L 574.03,817.51 L 562.84,802.74 L 551.31,810.24 L 539.52,821.99 L 535.04,811.71 L 521.61,824.79 L 508.92,821.47 L 493.37,825.27 L 497.57,815.59 L 480.04,825.20 L 463.86,824.62 L 459.68,811.06 L 441.01,818.87 L 438.61,810.12 L 435.58,821.07 L 419.79,809.43 L 382.24,800.74 L 373.78,787.96 L 366.53,789.27 L 357.36,788.10 L 340.05,775.31 L 344.19,773.08 L 318.70,774.07 L 310.65,763.87 L 312.97,753.14 L 298.66,749.36 L 294.26,747.76 L 285.95,733.97 L 274.86,729.68 L 267.15,724.91 L 258.03,712.12 L 249.45,711.18 L 239.04,701.44 L 241.62,681.55 L 238.73,675.59 L 226.91,671.20 L 217.36,666.41 L 220.25,649.47 L 206.29,647.82 L 208.72,631.75 L 200.52,627.25 L 206.31,612.62 L 191.47,608.59 L 200.25,602.36 L 188.38,551.06 L 179.85,496.84 L 182.07,489.02 L 181.21,492.56 L 180.92,474.53 L 195.97,455.98 L 186.40,453.46 L 191.08,449.69 L 202.78,425.13 L 192.06,414.33 L 195.04,402.81 L 196.02,401.37 L 203.25,390.48 L 203.55,378.39 L 212.08,361.46 L 216.26,357.09 L 216.93,351.81 L 229.31,333.52 L 229.22,327.44 L 224.83,322.26 L 239.99,311.35 L 259.67,308.20 L 249.97,290.18 L 264.38,285.67 L 260.28,275.24 L 277.74,273.56 L 277.29,266.76 L 315.68,240.29 L 313.79,233.00 L 331.01,224.28 L 333.54,219.76 L 343.14,214.09 L 367.48,221.08 L 368.52,208.22 L 369.02,216.95 L 389.72,199.79 L 391.12,186.08 L 406.35,193.50 L 414.05,200.17 L 422.27,179.56 L 440.72,177.84 L 457.14,189.06 L 451.02,182.95 L 465.18,180.60 L 476.26,188.30 L 486.72,171.36 L 490.52,184.87 L 509.69,182.42 L 517.31,175.41 L 527.12,175.58 L 534.46,184.15 L 546.95,181.81 L 559.03,185.45 L 573.44,195.24 L 581.56,185.06 L 589.32,194.70 L 603.38,203.03 L 617.35,191.02 L 624.61,205.58 L 636.12,211.42 L 648.34,208.57 L 655.80,214.97 L 665.32,222.79 L 676.31,229.06 L 676.45,237.61 L 686.27,244.25 L 698.31,251.54 L 705.38,263.50 L 716.64,270.31 L 726.37,264.38 L 729.40,280.24 L 739.36,283.85 L 751.62,284.60 L 747.90,303.00 L 756.04,319.09 L 765.96,316.77 L 762.02,332.88 L 772.27,334.21 L 779.94,342.74 L 790.45,349.77 L 790.43,379.19 L 799.30,372.06 Z" fill="none" stroke="darkorange" stroke-width="2"/>
<path d="M 814.17,499.71 L 811.28,506.49 L 812.49,531.86 L 811.54,531.32 L 805.01,536.73 L 806.43,545.13 L 797.45,565.87 L 806.40,576.29 L 791.83,584.47 L 792.94,588.20 L 792.36,599.70 L 784.96,608.08 L 783.04,614.56 L 769.13,627.03 L 779.82,642.98 L 774.70,649.20 L 766.83,660.01 L 757.46,675.03 L 754.47,674.03 L 743.01,675.79 L 741.31,692.68 L 743.87,694.11 L 724.11,709.94 L 726.15,713.06 L 715.13,717.04 L 701.86,724.82 L 698.43,737.75 L 692.33,746.53 L 684.16,756.18 L 672.95,751.51 L 666.73,760.27 L 660.79,766.70 L 653.98,780.84 L 639.74,774.21 L 628.57,783.37 L 623.13,788.08 L 609.41,790.63 L 597.73,791.08 L 595.55,793.48 L 573.11,802.19 L 569.77,805.67 L 562.82,795.03 L 551.31,801.94 L 535.84,813.01 L 531.91,801.55 L 518.52,813.43 L 508.70,810.06 L 493.56,814.12 L 497.43,806.70 L 478.80,816.16 L 462.53,815.07 L 461.63,798.93 L 441.13,807.98 L 441.82,800.86 L 435.29,811.99 L 419.83,799.19 L 384.69,793.08 L 378.46,780.51 L 368.32,781.92 L 362.43,777.80 L 344.43,768.91 L 347.15,763.46 L 325.92,765.84 L 314.92,755.71 L 318.65,747.10 L 302.60,740.33 L 300.74,739.22 L 292.14,724.91 L 281.08,721.78 L 274.91,716.66 L 267.82,705.50 L 258.56,705.31 L 248.75,697.18 L 251.29,673.51 L 247.28,668.94 L 233.70,667.77 L 226.72,659.34 L 228.50,646.95 L 215.76,643.91 L 216.52,626.37 L 208.06,625.60 L 217.62,608.22 L 201.10,603.87 L 207.98,599.34 L 199.69,551.21 L 188.93,497.98 L 192.18,487.67 L 193.58,495.13 L 189.18,477.47 L 207.86,456.62 L 196.55,457.15 L 199.11,450.50 L 214.27,428.75 L 202.95,418.92 L 204.13,405.51 L 205.22,406.63 L 214.48,396.11 L 211.68,383.62 L 219.16,364.38 L 226.40,362.22 L 224.62,356.86 L 236.48,337.57 L 238.49,332.24 L 234.07,327.67 L 248.03,317.82 L 268.43,313.94 L 259.24,296.66 L 269.95,291.02 L 265.24,283.44 L 282.32,279.69 L 283.68,275.25 L 323.69,249.76 L 317.31,243.33 L 338.45,234.64 L 338.48,227.59 L 347.63,221.71 L 371.18,227.97 L 373.63,216.82 L 372.19,226.62 L 394.19,209.67 L 394.39,197.37 L 410.52,203.20 L 416.43,211.39 L 422.30,191.69 L 442.48,187.20 L 459.49,199.26 L 452.49,193.48 L 463.97,189.55 L 476.39,197.34 L 488.57,181.18 L 490.31,195.41 L 507.12,192.49 L 514.93,186.97 L 525.93,186.61 L 531.39,195.42 L 547.47,192.63 L 555.32,194.84 L 570.74,203.39 L 579.38,195.73 L 584.98,204.05 L 598.79,213.36 L 615.66,201.76 L 621.67,212.94 L 629.92,220.18 L 643.06,217.55 L 650.37,225.10 L 660.18,233.49 L 670.21,236.83 L 672.09,247.84 L 680.64,253.05 L 690.34,261.08 L 697.24,272.03 L 709.35,276.63 L 720.69,271.30 L 722.75,285.28 L 730.13,289.09 L 744.59,289.89 L 739.85,310.90 L 748.06,322.47 L 759.55,321.16 L 754.01,338.12 L 763.29,337.38 L 771.69,346.39 L 781.79,354.93 L 781.48,384.59 L 787.94,374.30 Z" fill="none" stroke="navy" stroke-width="2"/>
<path d="M 804.90,497.55 L 802.98,507.14 L 804.16,529.95 L 803.60,528.22 L 794.67,534.07 L 797.35,544.28 L 788.59,564.25 L 798.05,572.41 L 781.98,582.16 L 785.41,583.46 L 781.90,595.93 L 774.99,602.55 L 773.38,611.15 L 759.04,621.11 L 771.80,637.45 L 765.98,644.65 L 759.13,655.51 L 747.25,670.61 L 746.77,670.83 L 734.75,670.95 L 735.49,688.88 L 734.95,688.51 L 715.83,703.32 L 721.15,705.60 L 706.22,710.34 L 695.17,718.11 L 691.88,728.63 L 686.59,739.74 L 680.50,745.76 L 664.87,743.96 L 659.38,753.61 L 656.94,760.61 L 648.64,771.35 L 635.35,766.03 L 621.95,772.89 L 618.01,780.34 L 604.82,781.36 L 593.56,779.28 L 593.20,783.26 L 571.69,793.07 L 565.14,794.39 L 559.77,784.51 L 550.31,794.10 L 535.98,803.80 L 530.62,792.23 L 519.67,803.63 L 507.48,801.43 L 493.21,805.28 L 498.98,795.74 L 480.42,805.29 L 463.75,803.72 L 463.66,790.43 L 444.75,797.43 L 445.85,789.96 L 434.95,804.49 L 422.90,791.14 L 388.59,783.20 L 382.80,773.04 L 373.67,773.80 L 365.88,766.55 L 348.94,760.19 L 350.82,754.53 L 333.49,756.06 L 319.77,745.70 L 325.86,740.33 L 310.87,732.28 L 304.80,731.41 L 298.88,716.03 L 290.10,715.74 L 282.19,711.01 L 273.56,700.62 L 267.70,700.90 L 257.44,689.21 L 260.55,667.57 L 256.60,663.46 L 239.76,664.49 L 236.24,654.73 L 235.31,642.02 L 222.50,639.48 L 226.41,621.40 L 217.62,620.74 L 228.84,603.78 L 215.97,595.05 L 208.69,549.28 L 197.09,496.42 L 201.08,485.81 L 204.17,495.42 L 197.74,477.54 L 216.87,456.45 L 207.42,457.59 L 212.66,451.03 L 224.50,430.49 L 212.30,419.87 L 213.48,409.49 L 212.84,407.60 L 223.49,398.09 L 221.38,387.90 L 229.72,369.79 L 235.84,365.92 L 234.96,362.60 L 245.75,343.08 L 249.11,338.97 L 242.22,331.44 L 257.56,325.80 L 275.98,320.10 L 267.68,304.23 L 277.09,296.56 L 271.17,292.06 L 289.81,288.88 L 290.00,283.51 L 330.12,259.41 L 324.83,251.34 L 341.27,243.14 L 342.73,236.08 L 350.72,231.84 L 375.82,235.29 L 375.66,227.53 L 377.70,234.91 L 398.19,220.52 L 397.70,206.38 L 412.84,213.40 L 419.29,223.31 L 424.04,200.66 L 445.66,197.49 L 462.04,208.88 L 455.25,203.59 L 463.71,200.28 L 475.00,209.39 L 489.14,191.11 L 490.93,205.23 L 507.01,204.03 L 512.76,199.14 L 522.91,194.68 L 531.74,206.65 L 545.24,202.46 L 554.18,202.69 L 569.82,214.94 L 578.68,206.03 L 579.70,211.93 L 593.74,222.92 L 611.42,211.42 L 616.21,222.98 L 624.73,229.54 L 640.44,225.49 L 647.62,233.51 L 657.27,241.27 L 662.73,242.82 L 668.72,255.59 L 672.88,260.09 L 683.42,269.09 L 688.49,280.52 L 704.00,283.21 L 715.44,280.21 L 714.24,293.15 L 722.22,294.94 L 736.41,295.80 L 732.19,317.84 L 739.79,326.76 L 750.74,328.84 L 747.19,341.81 L 757.16,343.43 L 761.22,349.24 L 770.57,360.56 L 772.16,388.08 Z" fill="none" stroke="maroon" stroke-width="2"/>
<path d="M 797.26,495.70 L 793.67,506.57 L 793.99,530.43 L 794.14,527.01 L 783.19,533.04 L 787.70,542.65 L 778.11,560.66 L 788.81,570.51 L 774.02,578.20 L 775.79,580.32 L 772.62,592.17 L 767.88,599.49 L 765.06,605.63 L 749.84,617.90 L 761.11,634.15 L 759.46,642.30 L 751.84,650.30 L 736.92,666.91 L 736.50,665.12 L 727.75,667.38 L 725.58,683.37 L 728.50,681.45 L 706.31,695.82 L 715.07,698.74 L 699.17,703.15 L 689.51,710.38 L 687.55,722.50 L 679.32,729.71 L 676.50,738.98 L 660.23,736.07 L 651.82,745.09 L 650.06,749.97 L 646.06,764.13 L 631.28,756.17 L 615.73,763.85 L 615.68,770.12 L 599.43,770.99 L 591.95,767.51 L 588.07,772.25 L 569.61,781.71 L 557.31,776.23 L 547.33,785.24 L 534.59,795.32 L 531.17,781.55 L 516.89,791.96 L 509.17,789.78 L 493.28,797.65 L 500.17,784.48 L 480.64,795.96 L 463.97,789.93 L 464.02,781.18 L 447.68,785.73 L 445.96,779.62 L 435.97,795.87 L 426.56,781.60 L 391.58,774.85 L 386.52,762.11 L 379.54,762.33 L 372.34,757.33 L 354.74,753.72 L 356.68,743.66 L 340.87,748.29 L 327.81,737.26 L 333.67,733.90 L 316.34,723.37 L 309.27,724.46 L 305.12,709.98 L 298.23,709.66 L 289.76,702.55 L 280.23,694.87 L 273.69,694.55 L 266.13,684.62 L 266.39,659.88 L 262.98,657.60 L 246.86,658.09 L 243.39,647.37 L 242.15,639.38 L 232.18,636.60 L 237.71,618.00 L 227.81,614.99 L 231.92,588.55 L 219.31,549.57 L 207.41,498.84 L 212.97,487.29 L 212.98,495.48 L 209.80,479.02 L 228.76,456.98 L 216.96,461.04 L 223.79,451.95 L 232.55,430.99 L 223.24,422.09 L 222.18,410.49 L 224.51,409.63 L 232.55,401.61 L 232.67,392.27 L 237.14,374.19 L 242.99,371.85 L 242.43,368.00 L 256.17,349.48 L 255.55,342.43 L 250.87,335.82 L 265.34,333.65 L 282.00,327.14 L 277.31,311.56 L 283.26,304.36 L 280.42,299.24 L 296.84,298.18 L 296.81,290.48 L 337.42,269.01 L 331.83,259.79 L 344.01,253.91 L 349.25,244.66 L 355.77,242.73 L 379.25,245.28 L 379.19,237.33 L 383.95,242.09 L 401.64,232.18 L 398.84,215.68 L 416.89,223.72 L 420.39,230.74 L 446.73,205.88 L 464.13,220.72 L 457.23,212.83 L 462.78,210.86 L 476.84,217.63 L 487.88,202.16 L 491.54,215.18 L 504.54,214.22 L 511.28,209.29 L 523.63,204.40 L 532.91,214.36 L 541.48,213.71 L 550.07,210.67 L 568.80,225.43 L 575.78,216.52 L 578.72,219.85 L 590.81,234.40 L 605.50,218.99 L 612.99,232.02 L 622.46,236.40 L 636.77,232.58 L 641.12,240.06 L 651.08,251.18 L 657.11,249.64 L 663.41,265.30 L 665.08,268.14 L 678.58,275.54 L 683.39,287.71 L 698.60,292.76 L 709.25,286.47 L 709.30,300.43 L 713.10,303.30 L 730.22,303.57 L 724.74,323.19 L 729.85,330.87 L 742.06,335.40 L 739.01,346.88 L 750.65,346.40 L 750.63,355.89 L 762.22,366.46 Z" fill="none" stroke="olive" stroke-width="2"/>
<path d="M 784.94,495.84 L 781.30,504.87 L 782.07,530.20 L 786.03,525.77 L 774.73,533.27 L 778.72,539.85 L 768.99,558.73 L 778.65,570.33 L 764.90,573.33 L 764.63,577.62 L 765.28,589.68 L 759.82,595.38 L 753.35,600.76 L 738.91,613.89 L 750.22,629.02 L 751.89,637.79 L 741.84,646.58 L 729.44,660.19 L 726.75,660.92 L 720.50,663.82 L 717.62,675.62 L 721.40,673.15 L 699.65,688.01 L 707.32,691.27 L 693.53,697.35 L 680.52,704.21 L 683.03,713.39 L 674.42,721.84 L 668.60,732.92 L 655.56,728.32 L 645.59,735.23 L 645.64,740.64 L 642.43,754.62 L 624.65,748.48 L 613.34,754.16 L 610.27,760.84 L 595.76,763.53 L 586.85,760.16 L 584.63,762.24 L 553.38,767.53 L 546.18,777.68 L 531.86,783.62 L 530.84,769.51 L 514.42,783.67 L 508.52,778.21 L 492.68,784.51 L 500.52,775.87 L 481.82,786.51 L 464.06,777.28 L 466.86,769.26 L 451.07,775.82 L 450.11,770.22 L 439.58,785.01 L 430.07,773.03 L 393.93,764.68 L 390.78,754.77 L 384.07,751.52 L 377.05,745.95 L 361.94,742.79 L 361.53,736.28 L 343.96,739.98 L 333.52,730.56 L 340.95,725.48 L 321.39,715.88 L 313.36,717.92 L 314.04,700.85 L 304.14,703.12 L 294.96,695.48 L 286.75,689.18 L 282.97,689.19 L 271.68,678.18 L 275.93,656.00 L 270.84,653.44 L 254.71,652.61 L 252.69,644.11 L 248.89,636.51 L 240.29,629.81 L 246.48,612.80 L 243.57,585.64 L 230.57,549.26 L 215.39,500.78 L 224.09,485.67 L 225.12,496.55 L 221.63,477.95 L 237.98,459.21 L 226.21,460.93 L 233.91,451.68 L 243.21,432.17 L 235.14,423.64 L 229.81,413.55 L 236.09,413.23 L 244.10,403.78 L 243.08,394.79 L 245.40,377.50 L 252.75,375.35 L 249.18,371.93 L 264.54,354.97 L 262.07,348.96 L 260.00,341.59 L 272.42,340.12 L 291.19,335.61 L 286.34,320.25 L 288.51,313.05 L 287.51,304.08 L 305.74,304.32 L 305.86,295.88 L 341.97,278.22 L 337.43,269.87 L 349.33,263.04 L 353.21,255.60 L 360.73,249.76 L 382.65,254.11 L 383.93,245.48 L 385.81,253.05 L 403.65,243.77 L 402.75,224.73 L 418.87,234.04 L 447.53,216.19 L 466.20,232.30 L 458.29,221.80 L 462.14,222.19 L 475.93,226.46 L 488.08,214.42 L 492.99,223.00 L 503.54,224.00 L 509.16,221.31 L 523.73,213.33 L 533.91,225.90 L 540.84,224.38 L 546.58,219.24 L 564.05,234.22 L 571.30,225.00 L 574.39,229.75 L 585.23,242.95 L 601.14,227.70 L 609.20,239.58 L 617.21,247.45 L 631.68,241.44 L 634.57,248.60 L 644.95,257.31 L 652.87,260.35 L 656.82,274.45 L 659.10,275.24 L 674.44,285.63 L 677.16,293.54 L 691.96,301.90 L 701.94,294.48 L 703.14,309.22 L 703.99,310.29 L 721.67,309.56 L 718.50,329.09 L 719.82,334.64 L 734.45,341.41 L 729.25,354.35 L 741.05,349.32 L 742.14,360.61 Z" fill="none" stroke="teal" stroke-width="2"/>
<path d="M 775.76,494.08 L 771.36,503.30 L 771.24,529.72 L 778.19,526.91 L 764.12,530.46 L 770.51,537.90 L 758.59,555.66 L 768.22,570.27 L 757.03,568.79 L 756.10,574.64 L 758.13,588.04 L 749.38,593.51 L 746.27,596.81 L 731.73,607.97 L 741.69,622.56 L 741.66,632.98 L 734.98,643.84 L 719.07,656.78 L 719.75,653.28 L 711.95,659.96 L 709.33,669.72 L 714.44,668.32 L 690.53,679.76 L 699.30,684.85 L 684.23,691.89 L 675.38,695.88 L 676.69,705.73 L 665.85,711.69 L 661.47,727.10 L 651.40,720.02 L 640.93,728.69 L 639.93,732.13 L 638.32,744.74 L 618.20,738.55 L 611.50,743.02 L 607.41,752.09 L 592.51,755.96 L 584.15,750.61 L 582.34,750.95 L 551.33,758.11 L 546.05,766.22 L 527.88,767.87 L 531.37,757.85 L 512.15,772.60 L 507.68,770.20 L 492.10,773.50 L 500.49,767.96 L 482.38,777.80 L 463.70,765.40 L 469.16,759.53 L 454.47,767.52 L 442.43,774.25 L 433.33,764.22 L 395.61,755.74 L 396.17,743.20 L 388.24,741.78 L 381.36,736.20 L 368.77,732.14 L 364.85,726.27 L 347.85,733.46 L 339.86,724.00 L 346.77,717.42 L 327.96,709.37 L 317.96,710.09 L 318.76,695.00 L 313.08,695.79 L 301.26,687.88 L 295.72,684.38 L 290.95,683.85 L 278.79,673.01 L 281.86,651.78 L 277.81,649.57 L 261.47,646.00 L 259.53,637.29 L 255.65,632.64 L 250.59,623.31 L 256.94,609.98 L 250.86,580.61 L 241.83,547.57 L 223.28,498.99 L 237.87,484.53 L 235.92,497.97 L 232.95,480.84 L 246.43,462.77 L 239.52,462.48 L 241.77,455.22 L 254.97,436.99 L 243.99,424.89 L 239.31,417.80 L 244.31,416.80 L 251.49,407.78 L 249.95,397.34 L 252.88,380.90 L 263.55,380.15 L 260.30,374.66 L 271.61,360.35 L 271.44,353.80 L 268.70,346.92 L 282.72,344.45 L 298.25,341.33 L 292.52,325.49 L 294.04,322.11 L 310.87,309.65 L 310.89,304.49 L 348.62,286.74 L 343.70,281.42 L 352.72,270.53 L 358.71,263.35 L 367.74,258.31 L 387.07,262.20 L 389.64,253.15 L 387.80,263.83 L 406.90,254.04 L 404.40,236.60 L 421.59,241.76 L 448.91,226.81 L 465.30,240.52 L 459.15,232.14 L 461.43,234.16 L 478.95,234.34 L 490.63,223.64 L 493.55,235.36 L 501.46,235.62 L 509.77,230.24 L 523.79,223.68 L 531.46,237.20 L 539.94,233.78 L 544.70,229.58 L 561.13,243.84 L 567.61,235.93 L 569.74,238.16 L 581.96,253.02 L 595.80,235.12 L 603.09,246.69 L 613.76,258.74 L 626.50,251.17 L 628.11,257.96 L 637.82,263.81 L 648.63,270.03 L 652.46,281.19 L 654.03,283.31 L 666.93,292.59 L 672.33,301.31 L 687.13,306.80 L 694.56,303.57 L 695.26,315.14 L 696.04,316.87 L 711.82,316.32 L 712.33,334.28 L 712.80,340.58 L 724.40,348.03 L 720.74,357.83 L 733.40,355.38 Z" fill="none" stroke="indigo" stroke-width="2"/>
<path d="M 766.66,494.72 L 761.24,504.97 L 761.32,528.21 L 768.21,528.30 L 754.74,528.71 L 762.88,535.75 L 746.53,551.49 L 760.14,567.13 L 748.51,564.05 L 748.34,571.20 L 746.70,584.19 L 739.29,589.41 L 737.69,592.07 L 723.32,604.33 L 734.68,616.08 L 731.89,627.50 L 724.07,637.91 L 710.67,652.83 L 711.78,649.61 L 702.75,655.00 L 701.89,665.87 L 705.90,661.75 L 683.49,674.50 L 689.94,679.01 L 676.39,684.80 L 669.86,687.77 L 670.60,697.59 L 659.24,703.91 L 657.21,720.42 L 647.22,712.05 L 633.60,721.48 L 635.64,735.65 L 612.29,730.83 L 605.22,735.65 L 601.39,742.17 L 586.88,748.06 L 580.68,739.80 L 580.48,742.23 L 548.27,749.80 L 543.87,756.59 L 525.25,757.47 L 530.60,747.72 L 512.82,761.09 L 504.94,761.19 L 493.99,763.87 L 498.95,760.18 L 484.04,767.66 L 467.02,755.64 L 470.75,750.87 L 455.71,757.96 L 444.97,764.54 L 435.01,752.80 L 397.62,747.33 L 399.05,733.66 L 391.48,734.25 L 383.67,725.79 L 373.20,724.95 L 370.61,716.47 L 353.73,724.59 L 346.68,710.29 L 333.04,703.17 L 324.30,702.79 L 325.23,688.35 L 317.72,686.89 L 306.76,679.82 L 304.58,678.42 L 296.88,678.92 L 288.88,666.77 L 287.76,647.78 L 284.10,644.46 L 271.76,642.70 L 267.77,631.68 L 265.19,625.91 L 261.69,619.96 L 264.33,604.01 L 261.51,579.65 L 251.78,547.39 L 235.44,501.18 L 246.66,487.06 L 244.66,496.33 L 244.39,480.83 L 256.71,463.81 L 250.59,462.75 L 251.23,455.33 L 263.06,441.86 L 253.26,426.64 L 249.24,420.88 L 253.18,422.17 L 259.94,411.02 L 262.70,387.59 L 274.22,386.89 L 268.44,380.46 L 281.60,363.40 L 282.02,359.82 L 278.60,353.34 L 292.87,351.32 L 307.39,346.39 L 300.33,331.13 L 303.71,328.11 L 319.29,315.05 L 319.49,313.51 L 353.73,296.96 L 348.87,291.94 L 356.81,277.06 L 365.24,270.75 L 371.01,269.03 L 393.20,271.94 L 395.39,263.62 L 391.48,270.70 L 412.04,265.01 L 409.77,245.91 L 423.92,253.01 L 451.64,238.47 L 468.01,252.01 L 461.46,242.08 L 462.00,244.57 L 481.10,245.46 L 490.61,231.37 L 491.50,246.04 L 509.89,241.62 L 521.06,233.15 L 530.75,246.22 L 536.32,242.00 L 543.03,241.68 L 560.27,254.80 L 566.68,246.48 L 568.46,246.93 L 578.60,263.60 L 591.16,245.39 L 600.80,257.35 L 607.96,267.33 L 620.36,261.85 L 625.49,268.60 L 631.39,274.56 L 645.17,279.09 L 647.29,291.31 L 650.46,289.97 L 661.58,298.75 L 665.26,308.49 L 678.99,311.98 L 686.86,312.79 L 686.14,323.03 L 688.40,325.69 L 704.02,323.69 L 702.60,341.44 L 703.30,348.30 L 717.47,352.61 L 712.30,361.46 Z" fill="none" stroke="crimson" stroke-width="2"/>
</svg>