<?xml version="1.0" encoding="UTF-8"?>
<svg width="1000" height="1000" xmlns="http://www.w3.org/2000/svg">
  <rect width="1000" height="1000" fill="white"/>
  <path d="M 950.00,500.00 L 950.00,502.00 L 949.98,504.00 L 949.96,506.00 L 949.93,508.00 L 949.89,510.00 L 949.84,512.00 L 949.78,514.00 L 949.72,516.00 L 949.64,518.00 L 949.56,520.00 L 949.46,522.00 L 949.36,524.00 L 949.25,526.00 L 949.13,528.00 L 949.00,529.99 L 948.86,531.99 L 948.71,533.98 L 948.56,535.98 L 948.39,537.97 L 948.22,539.97 L 948.04,541.96 L 947.85,543.95 L 947.65,545.94 L 947.44,547.93 L 947.22,549.92 L 947.00,551.91 L 946.76,553.90 L 946.52,555.88 L 946.26,557.87 L 946.00,559.85 L 945.73,561.84 L 945.45,563.82 L 945.16,565.80 L 944.87,567.78 L 944.56,569.75 L 944.25,571.73 L 943.92,573.70 L 943.59,575.68 L 943.25,577.65 L 942.90,579.62 L 942.54,581.59 L 942.17,583.55 L 941.80,585.52 L 941.41,587.48 L 941.02,589.45 L 940.62,591.41 L 940.21,593.36 L 939.79,595.32 L 939.36,597.28 L 938.92,599.23 L 938.48,601.18 L 938.02,603.13 L 937.56,605.07 L 937.09,607.02 L 936.61,608.96 L 936.12,610.90 L 935.62,612.84 L 935.12,614.78 L 934.60,616.71 L 934.08,618.64 L 933.55,620.57 L 933.01,622.50 L 932.46,624.42 L 931.90,626.34 L 931.33,628.26 L 930.76,630.18 L 930.18,632.09 L 929.58,634.00 L 928.98,635.91 L 928.38,637.82 L 927.76,639.72 L 927.13,641.62 L 926.50,643.52 L 925.86,645.42 L 925.21,647.31 L 924.55,649.20 L 923.88,651.09 L 923.20,652.97 L 922.52,654.85 L 921.83,656.73 L 921.12,658.60 L 920.42,660.47 L 919.70,662.34 L 918.97,664.20 L 918.24,666.07 L 917.49,667.92 L 916.74,669.78 L 915.98,671.63 L 915.22,673.48 L 914.44,675.32 L 913.66,677.16 L 912.87,679.00 L 912.07,680.84 L 911.26,682.67 L 910.44,684.49 L 909.62,686.32 L 908.78,688.14 L 907.94,689.95 L 907.10,691.76 L 906.24,693.57 L 905.37,695.38 L 904.50,697.18 L 903.62,698.97 L 902.73,700.77 L 901.83,702.56 L 900.93,704.34 L 900.02,706.12 L 899.10,707.90 L 898.17,709.67 L 897.23,711.44 L 896.29,713.20 L 895.34,714.96 L 894.38,716.72 L 893.41,718.47 L 892.43,720.22 L 891.45,721.96 L 890.46,723.70 L 889.46,725.43 L 888.45,727.16 L 887.44,728.89 L 886.42,730.61 L 885.39,732.32 L 884.35,734.04 L 883.31,735.74 L 882.26,737.44 L 881.20,739.14 L 880.13,740.83 L 879.06,742.52 L 877.97,744.21 L 876.88,745.88 L 875.79,747.56 L 874.68,749.23 L 873.57,750.89 L 872.45,752.55 L 871.32,754.20 L 870.19,755.85 L 869.05,757.49 L 867.90,759.13 L 866.74,760.77 L 865.58,762.39 L 864.41,764.02 L 863.23,765.64 L 862.05,767.25 L 860.86,768.86 L 859.66,770.46 L 858.45,772.05 L 857.24,773.64 L 856.02,775.23 L 854.79,776.81 L 853.56,778.39 L 852.31,779.96 L 851.07,781.52 L 849.81,783.08 L 848.55,784.63 L 847.28,786.18 L 846.00,787.72 L 844.72,789.25 L 843.43,790.78 L 842.13,792.31 L 840.83,793.83 L 839.52,795.34 L 838.20,796.85 L 836.88,798.35 L 835.55,799.84 L 834.21,801.33 L 832.87,802.81 L 831.52,804.29 L 830.16,805.76 L 828.80,807.23 L 827.43,808.69 L 826.06,810.14 L 824.67,811.59 L 823.29,813.03 L 821.89,814.46 L 820.49,815.89 L 819.08,817.31 L 817.67,818.73 L 816.25,820.14 L 814.82,821.54 L 813.39,822.94 L 811.95,824.33 L 810.50,825.71 L 809.05,827.09 L 807.59,828.46 L 806.13,829.82 L 804.66,831.18 L 803.18,832.53 L 801.70,833.88 L 800.22,835.22 L 798.72,836.55 L 797.22,837.87 L 795.72,839.19 L 794.21,840.50 L 792.69,841.81 L 791.17,843.11 L 789.64,844.40 L 788.10,845.68 L 786.56,846.96 L 785.02,848.23 L 783.47,849.50 L 781.91,850.75 L 780.35,852.00 L 778.78,853.25 L 777.21,854.48 L 775.63,855.71 L 774.04,856.93 L 772.45,858.15 L 770.86,859.36 L 769.26,860.56 L 767.65,861.75 L 766.04,862.94 L 764.42,864.12 L 762.80,865.29 L 761.17,866.45 L 759.54,867.61 L 757.90,868.76 L 756.26,869.91 L 754.61,871.04 L 752.96,872.17 L 751.30,873.29 L 749.64,874.40 L 747.98,875.51 L 746.30,876.61 L 744.63,877.70 L 742.94,878.79 L 741.26,879.86 L 739.57,880.93 L 737.87,881.99 L 736.17,883.05 L 734.46,884.09 L 732.75,885.13 L 731.04,886.16 L 729.32,887.19 L 727.59,888.20 L 725.87,889.21 L 724.13,890.21 L 722.40,891.20 L 720.65,892.19 L 718.91,893.17 L 717.16,894.14 L 715.40,895.10 L 713.64,896.05 L 711.88,897.00 L 710.11,897.94 L 708.34,898.87 L 706.57,899.79 L 704.79,900.70 L 703.00,901.61 L 701.21,902.51 L 699.42,903.40 L 697.63,904.28 L 695.83,905.16 L 694.02,906.02 L 692.22,906.88 L 690.40,907.73 L 688.59,908.58 L 686.77,909.41 L 684.95,910.24 L 683.12,911.05 L 681.29,911.86 L 679.46,912.67 L 677.62,913.46 L 675.78,914.25 L 673.94,915.02 L 672.09,915.79 L 670.24,916.55 L 668.39,917.31 L 666.53,918.05 L 664.67,918.79 L 662.81,919.52 L 660.94,920.24 L 659.07,920.95 L 657.19,921.65 L 655.32,922.35 L 653.44,923.03 L 651.56,923.71 L 649.67,924.38 L 647.78,925.04 L 645.89,925.69 L 644.00,926.34 L 642.10,926.98 L 640.20,927.60 L 638.30,928.22 L 636.39,928.83 L 634.48,929.44 L 632.57,930.03 L 630.66,930.61 L 628.74,931.19 L 626.82,931.76 L 624.90,932.32 L 622.98,932.87 L 621.05,933.41 L 619.12,933.95 L 617.19,934.47 L 615.26,934.99 L 613.32,935.50 L 611.39,936.00 L 609.45,936.49 L 607.51,936.97 L 605.56,937.44 L 603.61,937.91 L 601.67,938.37 L 599.72,938.81 L 597.76,939.25 L 595.81,939.68 L 593.85,940.10 L 591.90,940.52 L 589.94,940.92 L 587.97,941.32 L 586.01,941.70 L 584.05,942.08 L 582.08,942.45 L 580.11,942.81 L 578.14,943.16 L 576.17,943.51 L 574.20,943.84 L 572.22,944.17 L 570.25,944.48 L 568.27,944.79 L 566.29,945.09 L 564.31,945.38 L 562.33,945.66 L 560.35,945.94 L 558.36,946.20 L 556.38,946.45 L 554.39,946.70 L 552.41,946.94 L 550.42,947.17 L 548.43,947.39 L 546.44,947.60 L 544.45,947.80 L 542.46,947.99 L 540.47,948.18 L 538.47,948.35 L 536.48,948.52 L 534.48,948.68 L 532.49,948.83 L 530.49,948.97 L 528.50,949.10 L 526.50,949.22 L 524.50,949.33 L 522.50,949.44 L 520.50,949.53 L 518.50,949.62 L 516.50,949.70 L 514.50,949.77 L 512.50,949.83 L 510.50,949.88 L 508.50,949.92 L 506.50,949.95 L 504.50,949.98 L 502.50,949.99 L 500.50,950.00 L 498.50,950.00 L 496.50,949.99 L 494.50,949.97 L 492.50,949.94 L 490.50,949.90 L 488.50,949.85 L 486.50,949.80 L 484.50,949.73 L 482.50,949.66 L 480.50,949.58 L 478.50,949.49 L 476.50,949.39 L 474.50,949.28 L 472.50,949.16 L 470.51,949.03 L 468.51,948.90 L 466.51,948.75 L 464.52,948.60 L 462.52,948.44 L 460.53,948.27 L 458.54,948.09 L 456.55,947.90 L 454.55,947.70 L 452.56,947.49 L 450.57,947.28 L 448.59,947.05 L 446.60,946.82 L 444.61,946.58 L 442.63,946.33 L 440.64,946.07 L 438.66,945.80 L 436.68,945.52 L 434.70,945.24 L 432.72,944.94 L 430.74,944.64 L 428.76,944.33 L 426.79,944.00 L 424.82,943.67 L 422.84,943.34 L 420.87,942.99 L 418.90,942.63 L 416.94,942.27 L 414.97,941.89 L 413.01,941.51 L 411.04,941.12 L 409.08,940.72 L 407.12,940.31 L 405.17,939.89 L 403.21,939.47 L 401.26,939.03 L 399.31,938.59 L 397.36,938.14 L 395.41,937.68 L 393.47,937.21 L 391.52,936.73 L 389.58,936.24 L 387.64,935.75 L 385.71,935.24 L 383.77,934.73 L 381.84,934.21 L 379.91,933.68 L 377.98,933.14 L 376.06,932.60 L 374.14,932.04 L 372.22,931.48 L 370.30,930.90 L 368.38,930.32 L 366.47,929.73 L 364.56,929.14 L 362.66,928.53 L 360.75,927.91 L 358.85,927.29 L 356.95,926.66 L 355.06,926.02 L 353.16,925.37 L 351.27,924.71 L 349.39,924.05 L 347.50,923.37 L 345.62,922.69 L 343.74,922.00 L 341.87,921.30 L 340.00,920.59 L 338.13,919.88 L 336.26,919.15 L 334.40,918.42 L 332.54,917.68 L 330.69,916.93 L 328.83,916.18 L 326.98,915.41 L 325.14,914.64 L 323.30,913.85 L 321.46,913.07 L 319.62,912.27 L 317.79,911.46 L 315.96,910.65 L 314.14,909.82 L 312.32,908.99 L 310.50,908.16 L 308.69,907.31 L 306.88,906.45 L 305.07,905.59 L 303.27,904.72 L 301.47,903.84 L 299.68,902.95 L 297.89,902.06 L 296.11,901.16 L 294.32,900.25 L 292.55,899.33 L 290.77,898.40 L 289.00,897.47 L 287.24,896.53 L 285.48,895.58 L 283.72,894.62 L 281.97,893.65 L 280.22,892.68 L 278.47,891.70 L 276.74,890.71 L 275.00,889.71 L 273.27,888.71 L 271.54,887.70 L 269.82,886.68 L 268.10,885.65 L 266.39,884.61 L 264.68,883.57 L 262.98,882.52 L 261.28,881.46 L 259.59,880.40 L 257.90,879.32 L 256.21,878.24 L 254.53,877.16 L 252.86,876.06 L 251.19,874.96 L 249.53,873.85 L 247.87,872.73 L 246.21,871.61 L 244.56,870.47 L 242.92,869.33 L 241.28,868.19 L 239.64,867.03 L 238.01,865.87 L 236.39,864.70 L 234.77,863.53 L 233.15,862.34 L 231.55,861.15 L 229.94,859.96 L 228.34,858.75 L 226.75,857.54 L 225.17,856.32 L 223.58,855.10 L 222.01,853.86 L 220.44,852.62 L 218.87,851.38 L 217.31,850.12 L 215.76,848.86 L 214.21,847.60 L 212.67,846.32 L 211.13,845.04 L 209.60,843.75 L 208.07,842.46 L 206.55,841.16 L 205.04,839.85 L 203.53,838.53 L 202.03,837.21 L 200.53,835.88 L 199.04,834.55 L 197.56,833.21 L 196.08,831.86 L 194.60,830.50 L 193.14,829.14 L 191.68,827.78 L 190.22,826.40 L 188.77,825.02 L 187.33,823.63 L 185.90,822.24 L 184.47,820.84 L 183.04,819.43 L 181.63,818.02 L 180.21,816.60 L 178.81,815.18 L 177.41,813.75 L 176.02,812.31 L 174.63,810.86 L 173.25,809.41 L 171.88,807.96 L 170.52,806.50 L 169.16,805.03 L 167.80,803.55 L 166.46,802.07 L 165.12,800.59 L 163.78,799.10 L 162.46,797.60 L 161.14,796.09 L 159.82,794.58 L 158.52,793.07 L 157.22,791.55 L 155.92,790.02 L 154.64,788.49 L 153.36,786.95 L 152.09,785.40 L 150.82,783.85 L 149.56,782.30 L 148.31,780.74 L 147.06,779.17 L 145.83,777.60 L 144.60,776.02 L 143.37,774.44 L 142.16,772.85 L 140.95,771.26 L 139.74,769.66 L 138.55,768.05 L 137.36,766.44 L 136.18,764.83 L 135.00,763.21 L 133.84,761.58 L 132.68,759.95 L 131.53,758.31 L 130.38,756.67 L 129.24,755.03 L 128.11,753.38 L 126.99,751.72 L 125.87,750.06 L 124.77,748.39 L 123.66,746.72 L 122.57,745.05 L 121.49,743.36 L 120.41,741.68 L 119.34,739.99 L 118.27,738.29 L 117.22,736.59 L 116.17,734.89 L 115.13,733.18 L 114.09,731.47 L 113.07,729.75 L 112.05,728.03 L 111.04,726.30 L 110.04,724.57 L 109.04,722.83 L 108.06,721.09 L 107.08,719.34 L 106.11,717.60 L 105.14,715.84 L 104.19,714.08 L 103.24,712.32 L 102.30,710.56 L 101.37,708.78 L 100.44,707.01 L 99.53,705.23 L 98.62,703.45 L 97.72,701.66 L 96.82,699.87 L 95.94,698.08 L 95.06,696.28 L 94.19,694.47 L 93.33,692.67 L 92.48,690.86 L 91.63,689.04 L 90.80,687.23 L 89.97,685.40 L 89.15,683.58 L 88.34,681.75 L 87.53,679.92 L 86.74,678.08 L 85.95,676.24 L 85.17,674.40 L 84.40,672.55 L 83.63,670.70 L 82.88,668.85 L 82.13,666.99 L 81.39,665.13 L 80.66,663.27 L 79.94,661.41 L 79.23,659.54 L 78.52,657.66 L 77.83,655.79 L 77.14,653.91 L 76.46,652.03 L 75.79,650.14 L 75.12,648.25 L 74.47,646.36 L 73.82,644.47 L 73.18,642.57 L 72.55,640.67 L 71.93,638.77 L 71.32,636.87 L 70.71,634.96 L 70.12,633.05 L 69.53,631.14 L 68.95,629.22 L 68.38,627.30 L 67.82,625.38 L 67.27,623.46 L 66.72,621.53 L 66.19,619.61 L 65.66,617.68 L 65.14,615.74 L 64.63,613.81 L 64.13,611.87 L 63.63,609.93 L 63.15,607.99 L 62.67,606.05 L 62.21,604.10 L 61.75,602.15 L 61.30,600.20 L 60.86,598.25 L 60.42,596.30 L 60.00,594.34 L 59.59,592.39 L 59.18,590.43 L 58.78,588.47 L 58.39,586.50 L 58.01,584.54 L 57.64,582.57 L 57.28,580.60 L 56.92,578.63 L 56.58,576.66 L 56.24,574.69 L 55.91,572.72 L 55.60,570.74 L 55.28,568.76 L 54.98,566.79 L 54.69,564.81 L 54.41,562.83 L 54.13,560.84 L 53.87,558.86 L 53.61,556.88 L 53.36,554.89 L 53.12,552.90 L 52.89,550.92 L 52.67,548.93 L 52.45,546.94 L 52.25,544.95 L 52.05,542.96 L 51.87,540.96 L 51.69,538.97 L 51.52,536.98 L 51.36,534.98 L 51.21,532.99 L 51.07,530.99 L 50.94,528.99 L 50.81,527.00 L 50.69,525.00 L 50.59,523.00 L 50.49,521.00 L 50.40,519.00 L 50.32,517.00 L 50.25,515.00 L 50.19,513.00 L 50.13,511.00 L 50.09,509.00 L 50.05,507.00 L 50.03,505.00 L 50.01,503.00 L 50.00,501.00 L 50.00,499.00 L 50.01,497.00 L 50.03,495.00 L 50.05,493.00 L 50.09,491.00 L 50.13,489.00 L 50.19,487.00 L 50.25,485.00 L 50.32,483.00 L 50.40,481.00 L 50.49,479.00 L 50.59,477.00 L 50.69,475.00 L 50.81,473.00 L 50.94,471.01 L 51.07,469.01 L 51.21,467.01 L 51.36,465.02 L 51.52,463.02 L 51.69,461.03 L 51.87,459.04 L 52.05,457.04 L 52.25,455.05 L 52.45,453.06 L 52.67,451.07 L 52.89,449.08 L 53.12,447.10 L 53.36,445.11 L 53.61,443.12 L 53.87,441.14 L 54.13,439.16 L 54.41,437.17 L 54.69,435.19 L 54.98,433.21 L 55.28,431.24 L 55.60,429.26 L 55.91,427.28 L 56.24,425.31 L 56.58,423.34 L 56.92,421.37 L 57.28,419.40 L 57.64,417.43 L 58.01,415.46 L 58.39,413.50 L 58.78,411.53 L 59.18,409.57 L 59.59,407.61 L 60.00,405.66 L 60.42,403.70 L 60.86,401.75 L 61.30,399.80 L 61.75,397.85 L 62.21,395.90 L 62.67,393.95 L 63.15,392.01 L 63.63,390.07 L 64.13,388.13 L 64.63,386.19 L 65.14,384.26 L 65.66,382.32 L 66.19,380.39 L 66.72,378.47 L 67.27,376.54 L 67.82,374.62 L 68.38,372.70 L 68.95,370.78 L 69.53,368.86 L 70.12,366.95 L 70.71,365.04 L 71.32,363.13 L 71.93,361.23 L 72.55,359.33 L 73.18,357.43 L 73.82,355.53 L 74.47,353.64 L 75.12,351.75 L 75.79,349.86 L 76.46,347.97 L 77.14,346.09 L 77.83,344.21 L 78.52,342.34 L 79.23,340.46 L 79.94,338.59 L 80.66,336.73 L 81.39,334.87 L 82.13,333.01 L 82.88,331.15 L 83.63,329.30 L 84.40,327.45 L 85.17,325.60 L 85.95,323.76 L 86.74,321.92 L 87.53,320.08 L 88.34,318.25 L 89.15,316.42 L 89.97,314.60 L 90.80,312.77 L 91.63,310.96 L 92.48,309.14 L 93.33,307.33 L 94.19,305.53 L 95.06,303.72 L 95.94,301.92 L 96.82,300.13 L 97.72,298.34 L 98.62,296.55 L 99.53,294.77 L 100.44,292.99 L 101.37,291.22 L 102.30,289.44 L 103.24,287.68 L 104.19,285.92 L 105.14,284.16 L 106.11,282.40 L 107.08,280.66 L 108.06,278.91 L 109.04,277.17 L 110.04,275.43 L 111.04,273.70 L 112.05,271.97 L 113.07,270.25 L 114.09,268.53 L 115.13,266.82 L 116.17,265.11 L 117.22,263.41 L 118.27,261.71 L 119.34,260.01 L 120.41,258.32 L 121.49,256.64 L 122.57,254.95 L 123.66,253.28 L 124.77,251.61 L 125.87,249.94 L 126.99,248.28 L 128.11,246.62 L 129.24,244.97 L 130.38,243.33 L 131.53,241.69 L 132.68,240.05 L 133.84,238.42 L 135.00,236.79 L 136.18,235.17 L 137.36,233.56 L 138.55,231.95 L 139.74,230.34 L 140.95,228.74 L 142.16,227.15 L 143.37,225.56 L 144.60,223.98 L 145.83,222.40 L 147.06,220.83 L 148.31,219.26 L 149.56,217.70 L 150.82,216.15 L 152.09,214.60 L 153.36,213.05 L 154.64,211.51 L 155.92,209.98 L 157.22,208.45 L 158.52,206.93 L 159.82,205.42 L 161.14,203.91 L 162.46,202.40 L 163.78,200.90 L 165.12,199.41 L 166.46,197.93 L 167.80,196.45 L 169.16,194.97 L 170.52,193.50 L 171.88,192.04 L 173.25,190.59 L 174.63,189.14 L 176.02,187.69 L 177.41,186.25 L 178.81,184.82 L 180.21,183.40 L 181.63,181.98 L 183.04,180.57 L 184.47,179.16 L 185.90,177.76 L 187.33,176.37 L 188.77,174.98 L 190.22,173.60 L 191.68,172.22 L 193.14,170.86 L 194.60,169.50 L 196.08,168.14 L 197.56,166.79 L 199.04,165.45 L 200.53,164.12 L 202.03,162.79 L 203.53,161.47 L 205.04,160.15 L 206.55,158.84 L 208.07,157.54 L 209.60,156.25 L 211.13,154.96 L 212.67,153.68 L 214.21,152.40 L 215.76,151.14 L 217.31,149.88 L 218.87,148.62 L 220.44,147.38 L 222.01,146.14 L 223.58,144.90 L 225.17,143.68 L 226.75,142.46 L 228.34,141.25 L 229.94,140.04 L 231.55,138.85 L 233.15,137.66 L 234.77,136.47 L 236.39,135.30 L 238.01,134.13 L 239.64,132.97 L 241.28,131.81 L 242.92,130.67 L 244.56,129.53 L 246.21,128.39 L 247.87,127.27 L 249.53,126.15 L 251.19,125.04 L 252.86,123.94 L 254.53,122.84 L 256.21,121.76 L 257.90,120.68 L 259.59,119.60 L 261.28,118.54 L 262.98,117.48 L 264.68,116.43 L 266.39,115.39 L 268.10,114.35 L 269.82,113.32 L 271.54,112.30 L 273.27,111.29 L 275.00,110.29 L 276.74,109.29 L 278.47,108.30 L 280.22,107.32 L 281.97,106.35 L 283.72,105.38 L 285.48,104.42 L 287.24,103.47 L 289.00,102.53 L 290.77,101.60 L 292.55,100.67 L 294.32,99.75 L 296.11,98.84 L 297.89,97.94 L 299.68,97.05 L 301.47,96.16 L 303.27,95.28 L 305.07,94.41 L 306.88,93.55 L 308.69,92.69 L 310.50,91.84 L 312.32,91.01 L 314.14,90.18 L 315.96,89.35 L 317.79,88.54 L 319.62,87.73 L 321.46,86.93 L 323.30,86.15 L 325.14,85.36 L 326.98,84.59 L 328.83,83.82 L 330.69,83.07 L 332.54,82.32 L 334.40,81.58 L 336.26,80.85 L 338.13,80.12 L 340.00,79.41 L 341.87,78.70 L 343.74,78.00 L 345.62,77.31 L 347.50,76.63 L 349.39,75.95 L 351.27,75.29 L 353.16,74.63 L 355.06,73.98 L 356.95,73.34 L 358.85,72.71 L 360.75,72.09 L 362.66,71.47 L 364.56,70.86 L 366.47,70.27 L 368.38,69.68 L 370.30,69.10 L 372.22,68.52 L 374.14,67.96 L 376.06,67.40 L 377.98,66.86 L 379.91,66.32 L 381.84,65.79 L 383.77,65.27 L 385.71,64.76 L 387.64,64.25 L 389.58,63.76 L 391.52,63.27 L 393.47,62.79 L 395.41,62.32 L 397.36,61.86 L 399.31,61.41 L 401.26,60.97 L 403.21,60.53 L 405.17,60.11 L 407.12,59.69 L 409.08,59.28 L 411.04,58.88 L 413.01,58.49 L 414.97,58.11 L 416.94,57.73 L 418.90,57.37 L 420.87,57.01 L 422.84,56.66 L 424.82,56.33 L 426.79,56.00 L 428.76,55.67 L 430.74,55.36 L 432.72,55.06 L 434.70,54.76 L 436.68,54.48 L 438.66,54.20 L 440.64,53.93 L 442.63,53.67 L 444.61,53.42 L 446.60,53.18 L 448.59,52.95 L 450.57,52.72 L 452.56,52.51 L 454.55,52.30 L 456.55,52.10 L 458.54,51.91 L 460.53,51.73 L 462.52,51.56 L 464.52,51.40 L 466.51,51.25 L 468.51,51.10 L 470.51,50.97 L 472.50,50.84 L 474.50,50.72 L 476.50,50.61 L 478.50,50.51 L 480.50,50.42 L 482.50,50.34 L 484.50,50.27 L 486.50,50.20 L 488.50,50.15 L 490.50,50.10 L 492.50,50.06 L 494.50,50.03 L 496.50,50.01 L 498.50,50.00 L 500.50,50.00 L 502.50,50.01 L 504.50,50.02 L 506.50,50.05 L 508.50,50.08 L 510.50,50.12 L 512.50,50.17 L 514.50,50.23 L 516.50,50.30 L 518.50,50.38 L 520.50,50.47 L 522.50,50.56 L 524.50,50.67 L 526.50,50.78 L 528.50,50.90 L 530.49,51.03 L 532.49,51.17 L 534.48,51.32 L 536.48,51.48 L 538.47,51.65 L 540.47,51.82 L 542.46,52.01 L 544.45,52.20 L 546.44,52.40 L 548.43,52.61 L 550.42,52.83 L 552.41,53.06 L 554.39,53.30 L 556.38,53.55 L 558.36,53.80 L 560.35,54.06 L 562.33,54.34 L 564.31,54.62 L 566.29,54.91 L 568.27,55.21 L 570.25,55.52 L 572.22,55.83 L 574.20,56.16 L 576.17,56.49 L 578.14,56.84 L 580.11,57.19 L 582.08,57.55 L 584.05,57.92 L 586.01,58.30 L 587.97,58.68 L 589.94,59.08 L 591.90,59.48 L 593.85,59.90 L 595.81,60.32 L 597.76,60.75 L 599.72,61.19 L 601.67,61.63 L 603.61,62.09 L 605.56,62.56 L 607.51,63.03 L 609.45,63.51 L 611.39,64.00 L 613.32,64.50 L 615.26,65.01 L 617.19,65.53 L 619.12,66.05 L 621.05,66.59 L 622.98,67.13 L 624.90,67.68 L 626.82,68.24 L 628.74,68.81 L 630.66,69.39 L 632.57,69.97 L 634.48,70.56 L 636.39,71.17 L 638.30,71.78 L 640.20,72.40 L 642.10,73.02 L 644.00,73.66 L 645.89,74.31 L 647.78,74.96 L 649.67,75.62 L 651.56,76.29 L 653.44,76.97 L 655.32,77.65 L 657.19,78.35 L 659.07,79.05 L 660.94,79.76 L 662.81,80.48 L 664.67,81.21 L 666.53,81.95 L 668.39,82.69 L 670.24,83.45 L 672.09,84.21 L 673.94,84.98 L 675.78,85.75 L 677.62,86.54 L 679.46,87.33 L 681.29,88.14 L 683.12,88.95 L 684.95,89.76 L 686.77,90.59 L 688.59,91.42 L 690.40,92.27 L 692.22,93.12 L 694.02,93.98 L 695.83,94.84 L 697.63,95.72 L 699.42,96.60 L 701.21,97.49 L 703.00,98.39 L 704.79,99.30 L 706.57,100.21 L 708.34,101.13 L 710.11,102.06 L 711.88,103.00 L 713.64,103.95 L 715.40,104.90 L 717.16,105.86 L 718.91,106.83 L 720.65,107.81 L 722.40,108.80 L 724.13,109.79 L 725.87,110.79 L 727.59,111.80 L 729.32,112.81 L 731.04,113.84 L 732.75,114.87 L 734.46,115.91 L 736.17,116.95 L 737.87,118.01 L 739.57,119.07 L 741.26,120.14 L 742.94,121.21 L 744.63,122.30 L 746.30,123.39 L 747.98,124.49 L 749.64,125.60 L 751.30,126.71 L 752.96,127.83 L 754.61,128.96 L 756.26,130.09 L 757.90,131.24 L 759.54,132.39 L 761.17,133.55 L 762.80,134.71 L 764.42,135.88 L 766.04,137.06 L 767.65,138.25 L 769.26,139.44 L 770.86,140.64 L 772.45,141.85 L 774.04,143.07 L 775.63,144.29 L 777.21,145.52 L 778.78,146.75 L 780.35,148.00 L 781.91,149.25 L 783.47,150.50 L 785.02,151.77 L 786.56,153.04 L 788.10,154.32 L 789.64,155.60 L 791.17,156.89 L 792.69,158.19 L 794.21,159.50 L 795.72,160.81 L 797.22,162.13 L 798.72,163.45 L 800.22,164.78 L 801.70,166.12 L 803.18,167.47 L 804.66,168.82 L 806.13,170.18 L 807.59,171.54 L 809.05,172.91 L 810.50,174.29 L 811.95,175.67 L 813.39,177.06 L 814.82,178.46 L 816.25,179.86 L 817.67,181.27 L 819.08,182.69 L 820.49,184.11 L 821.89,185.54 L 823.29,186.97 L 824.67,188.41 L 826.06,189.86 L 827.43,191.31 L 828.80,192.77 L 830.16,194.24 L 831.52,195.71 L 832.87,197.19 L 834.21,198.67 L 835.55,200.16 L 836.88,201.65 L 838.20,203.15 L 839.52,204.66 L 840.83,206.17 L 842.13,207.69 L 843.43,209.22 L 844.72,210.75 L 846.00,212.28 L 847.28,213.82 L 848.55,215.37 L 849.81,216.92 L 851.07,218.48 L 852.31,220.04 L 853.56,221.61 L 854.79,223.19 L 856.02,224.77 L 857.24,226.36 L 858.45,227.95 L 859.66,229.54 L 860.86,231.14 L 862.05,232.75 L 863.23,234.36 L 864.41,235.98 L 865.58,237.61 L 866.74,239.23 L 867.90,240.87 L 869.05,242.51 L 870.19,244.15 L 871.32,245.80 L 872.45,247.45 L 873.57,249.11 L 874.68,250.77 L 875.79,252.44 L 876.88,254.12 L 877.97,255.79 L 879.06,257.48 L 880.13,259.17 L 881.20,260.86 L 882.26,262.56 L 883.31,264.26 L 884.35,265.96 L 885.39,267.68 L 886.42,269.39 L 887.44,271.11 L 888.45,272.84 L 889.46,274.57 L 890.46,276.30 L 891.45,278.04 L 892.43,279.78 L 893.41,281.53 L 894.38,283.28 L 895.34,285.04 L 896.29,286.80 L 897.23,288.56 L 898.17,290.33 L 899.10,292.10 L 900.02,293.88 L 900.93,295.66 L 901.83,297.44 L 902.73,299.23 L 903.62,301.03 L 904.50,302.82 L 905.37,304.62 L 906.24,306.43 L 907.10,308.24 L 907.94,310.05 L 908.78,311.86 L 909.62,313.68 L 910.44,315.51 L 911.26,317.33 L 912.07,319.16 L 912.87,321.00 L 913.66,322.84 L 914.44,324.68 L 915.22,326.52 L 915.98,328.37 L 916.74,330.22 L 917.49,332.08 L 918.24,333.93 L 918.97,335.80 L 919.70,337.66 L 920.42,339.53 L 921.12,341.40 L 921.83,343.27 L 922.52,345.15 L 923.20,347.03 L 923.88,348.91 L 924.55,350.80 L 925.21,352.69 L 925.86,354.58 L 926.50,356.48 L 927.13,358.38 L 927.76,360.28 L 928.38,362.18 L 928.98,364.09 L 929.58,366.00 L 930.18,367.91 L 930.76,369.82 L 931.33,371.74 L 931.90,373.66 L 932.46,375.58 L 933.01,377.50 L 933.55,379.43 L 934.08,381.36 L 934.60,383.29 L 935.12,385.22 L 935.62,387.16 L 936.12,389.10 L 936.61,391.04 L 937.09,392.98 L 937.56,394.93 L 938.02,396.87 L 938.48,398.82 L 938.92,400.77 L 939.36,402.72 L 939.79,404.68 L 940.21,406.64 L 940.62,408.59 L 941.02,410.55 L 941.41,412.52 L 941.80,414.48 L 942.17,416.45 L 942.54,418.41 L 942.90,420.38 L 943.25,422.35 L 943.59,424.32 L 943.92,426.30 L 944.25,428.27 L 944.56,430.25 L 944.87,432.22 L 945.16,434.20 L 945.45,436.18 L 945.73,438.16 L 946.00,440.15 L 946.26,442.13 L 946.52,444.12 L 946.76,446.10 L 947.00,448.09 L 947.22,450.08 L 947.44,452.07 L 947.65,454.06 L 947.85,456.05 L 948.04,458.04 L 948.22,460.03 L 948.39,462.03 L 948.56,464.02 L 948.71,466.02 L 948.86,468.01 L 949.00,470.01 L 949.13,472.00 L 949.25,474.00 L 949.36,476.00 L 949.46,478.00 L 949.56,480.00 L 949.64,482.00 L 949.72,484.00 L 949.78,486.00 L 949.84,488.00 L 949.89,490.00 L 949.93,492.00 L 949.96,494.00 L 949.98,496.00 L 950.00,498.00 Z" fill="none" stroke="black" stroke-width="3"/>
<path d="M 965.22,499.24 L 964.53,509.89 L 964.92,520.95 L 964.59,530.33 L 963.04,540.55 L 961.68,551.60 L 960.11,561.37 L 959.62,572.15 L 957.22,582.42 L 956.22,591.64 L 954.04,602.85 L 950.91,612.04 L 949.28,622.33 L 945.06,631.89 L 943.21,642.58 L 939.87,652.59 L 935.94,662.71 L 931.98,671.68 L 928.78,681.36 L 924.70,690.77 L 920.11,699.30 L 914.79,708.97 L 909.80,718.06 L 904.88,727.20 L 900.57,736.30 L 894.79,744.89 L 889.07,754.78 L 883.94,762.85 L 877.24,771.51 L 871.11,779.28 L 866.12,787.89 L 858.95,796.01 L 852.74,804.06 L 844.92,810.63 L 838.05,818.61 L 830.71,827.13 L 824.44,833.41 L 816.58,840.65 L 809.34,847.70 L 800.50,854.14 L 793.01,860.77 L 784.95,868.20 L 776.41,873.36 L 768.99,879.88 L 759.03,885.01 L 750.42,891.62 L 742.75,896.77 L 732.70,901.99 L 725.19,907.32 L 716.04,912.74 L 705.29,917.20 L 697.04,921.38 L 686.96,925.82 L 677.21,929.55 L 668.16,934.23 L 659.15,936.76 L 648.80,940.04 L 639.63,944.34 L 628.74,946.95 L 619.28,948.93 L 609.50,952.09 L 599.45,954.39 L 588.08,956.15 L 577.94,958.98 L 569.11,960.46 L 557.95,960.63 L 548.59,963.23 L 537.03,963.45 L 526.69,964.61 L 517.48,964.09 L 506.68,965.03 L 496.01,965.58 L 485.92,964.33 L 475.78,964.73 L 464.92,963.41 L 455.89,963.07 L 444.72,961.74 L 433.96,959.93 L 424.09,958.95 L 413.74,956.56 L 403.34,955.20 L 393.50,953.39 L 384.47,949.59 L 373.50,947.85 L 363.54,944.08 L 354.84,941.65 L 344.32,938.64 L 335.15,934.12 L 324.40,930.72 L 315.38,926.78 L 306.43,922.90 L 297.49,917.57 L 287.31,913.33 L 278.90,908.36 L 267.00,902.62 L 258.48,897.08 L 249.43,892.65 L 241.09,886.89 L 232.73,879.74 L 225.06,874.96 L 216.75,868.88 L 208.45,861.26 L 199.89,854.75 L 191.94,847.75 L 184.23,842.30 L 176.53,834.88 L 169.48,827.03 L 163.09,820.52 L 155.43,812.49 L 147.93,804.08 L 142.55,796.64 L 135.37,788.87 L 128.27,780.43 L 122.84,772.54 L 116.34,764.27 L 110.45,754.44 L 105.70,746.52 L 99.75,736.80 L 95.62,728.05 L 90.16,719.59 L 85.11,710.36 L 80.70,701.65 L 75.83,691.93 L 71.73,681.95 L 68.48,672.24 L 64.18,663.32 L 60.28,653.13 L 58.46,644.19 L 53.90,633.07 L 51.35,624.29 L 49.70,614.20 L 46.47,603.00 L 45.02,593.77 L 42.70,584.07 L 41.03,572.31 L 39.78,562.55 L 38.25,553.32 L 36.35,541.71 L 35.48,532.11 L 35.14,521.87 L 35.49,510.90 L 35.22,500.66 L 35.07,491.34 L 35.97,479.71 L 35.84,469.68 L 35.95,460.16 L 37.98,449.06 L 39.38,439.26 L 40.35,428.16 L 41.47,419.36 L 44.72,408.66 L 46.75,398.60 L 48.03,387.81 L 50.87,379.04 L 54.47,369.03 L 57.67,358.11 L 59.88,348.12 L 64.20,339.63 L 67.29,329.55 L 70.79,320.47 L 76.04,311.06 L 80.27,301.52 L 83.55,291.99 L 88.77,283.12 L 94.46,273.93 L 99.62,264.00 L 104.92,254.89 L 110.59,247.36 L 115.27,238.68 L 121.57,229.39 L 128.21,220.92 L 133.26,212.66 L 140.21,205.67 L 147.88,196.81 L 154.18,189.23 L 161.71,181.83 L 168.81,173.70 L 176.18,166.50 L 183.65,159.51 L 189.92,152.82 L 198.71,145.83 L 206.45,139.53 L 214.19,133.19 L 222.21,127.14 L 230.17,121.41 L 239.52,115.20 L 248.48,109.42 L 256.62,102.96 L 267.76,97.03 L 276.21,92.79 L 285.98,87.04 L 294.55,82.55 L 304.03,77.91 L 313.01,73.86 L 323.83,70.24 L 333.38,66.31 L 342.10,62.59 L 351.38,58.78 L 361.91,56.07 L 372.18,52.93 L 381.81,49.79 L 391.88,48.38 L 402.48,44.91 L 411.47,43.40 L 422.52,41.27 L 433.03,40.32 L 443.04,38.10 L 452.56,36.62 L 462.93,36.41 L 474.21,35.06 L 483.84,35.48 L 493.83,35.35 L 504.64,34.61 L 515.24,34.45 L 525.72,36.12 L 535.00,36.25 L 545.41,38.01 L 556.24,37.69 L 566.05,40.33 L 576.60,41.85 L 587.12,43.96 L 597.14,45.95 L 607.69,47.67 L 617.45,49.99 L 627.61,52.78 L 637.63,56.03 L 646.80,58.41 L 656.20,62.39 L 666.73,65.79 L 676.12,69.20 L 684.77,73.23 L 694.51,77.52 L 704.28,81.66 L 713.02,87.20 L 722.91,91.04 L 731.46,96.85 L 740.38,101.56 L 749.17,108.12 L 758.10,113.43 L 767.07,119.37 L 774.72,124.17 L 782.94,131.57 L 791.87,138.28 L 799.16,144.52 L 807.20,151.03 L 814.37,157.33 L 822.24,164.11 L 829.45,172.40 L 836.77,178.99 L 843.91,186.50 L 851.03,194.06 L 857.37,202.79 L 863.30,210.94 L 869.82,218.82 L 875.84,226.99 L 882.07,235.34 L 888.73,244.00 L 894.31,253.42 L 898.90,261.04 L 903.73,270.70 L 910.30,279.45 L 914.53,289.30 L 919.13,298.52 L 923.99,306.99 L 926.68,316.37 L 930.81,326.75 L 935.26,335.66 L 939.02,346.25 L 941.49,355.79 L 945.51,364.86 L 948.51,376.15 L 950.03,384.64 L 952.79,395.73 L 956.04,405.38 L 957.64,415.01 L 959.36,426.08 L 959.95,436.54 L 962.46,446.52 L 962.37,457.42 L 964.28,466.70 L 964.33,477.06 L 964.84,487.34 Z" fill="none" stroke="red" stroke-width="2"/>
<path d="M 980.78,499.73 L 979.59,499.95 L 979.74,510.74 L 980.24,521.53 L 979.94,532.05 L 977.61,542.35 L 976.65,553.23 L 974.88,563.72 L 974.07,575.04 L 972.51,584.42 L 971.53,594.18 L 968.62,606.34 L 965.27,614.91 L 964.31,625.77 L 958.98,636.63 L 957.23,647.78 L 954.36,657.15 L 949.21,668.67 L 945.26,677.58 L 942.58,687.61 L 938.69,697.15 L 933.64,706.20 L 927.54,715.27 L 923.35,724.80 L 918.09,734.50 L 913.54,743.80 L 907.93,752.53 L 901.95,762.63 L 895.92,770.72 L 888.92,779.66 L 889.47,780.69 L 882.59,787.85 L 877.89,797.52 L 871.28,805.60 L 863.75,813.22 L 855.58,820.23 L 848.45,828.12 L 841.43,837.32 L 835.66,844.24 L 827.11,851.04 L 819.90,858.89 L 810.80,865.69 L 802.42,872.31 L 793.62,879.35 L 786.04,885.38 L 778.17,891.96 L 766.72,897.66 L 757.78,903.69 L 750.67,909.25 L 741.00,914.37 L 732.87,920.62 L 723.46,925.59 L 711.95,930.58 L 703.30,935.55 L 693.78,939.24 L 683.12,943.59 L 673.96,948.93 L 663.82,950.39 L 653.86,953.70 L 653.08,953.57 L 643.33,958.57 L 633.04,961.03 L 622.70,963.76 L 613.36,966.59 L 602.96,969.72 L 591.38,971.07 L 580.71,974.46 L 571.21,975.36 L 560.06,976.16 L 550.68,977.46 L 537.69,978.09 L 527.95,979.70 L 517.71,978.48 L 507.20,980.35 L 496.59,980.58 L 485.46,978.65 L 474.26,979.60 L 463.50,977.97 L 453.81,978.74 L 443.47,976.76 L 432.55,975.58 L 421.92,973.38 L 410.22,971.71 L 400.18,970.11 L 390.74,967.48 L 380.88,964.33 L 369.41,961.63 L 358.89,958.15 L 359.41,958.99 L 349.89,956.21 L 338.97,953.49 L 330.33,948.22 L 318.66,944.31 L 309.15,941.30 L 300.03,936.57 L 291.73,931.32 L 280.52,926.53 L 271.26,921.33 L 259.90,915.80 L 251.10,909.42 L 241.44,905.97 L 232.64,899.67 L 223.49,892.76 L 216.36,886.64 L 207.07,880.86 L 199.11,872.28 L 190.99,866.87 L 181.93,858.36 L 174.59,853.32 L 166.46,845.68 L 158.46,838.12 L 153.00,830.45 L 144.40,822.38 L 137.25,813.90 L 131.62,806.80 L 123.25,798.65 L 116.16,790.16 L 116.31,789.98 L 110.34,781.01 L 104.12,773.57 L 97.87,762.08 L 93.04,754.22 L 86.92,744.51 L 82.48,735.14 L 76.44,726.99 L 71.84,716.72 L 67.63,707.42 L 62.55,698.44 L 58.42,687.63 L 54.81,678.32 L 50.90,668.58 L 45.37,658.07 L 44.35,649.44 L 40.13,637.26 L 36.94,628.22 L 35.51,617.75 L 32.09,605.77 L 30.28,597.54 L 27.69,587.09 L 26.45,575.21 L 25.48,565.15 L 23.15,554.74 L 21.76,543.47 L 21.11,532.40 L 19.47,522.79 L 21.16,512.05 L 20.61,500.57 L 19.57,500.89 L 20.67,490.98 L 21.29,479.70 L 20.15,469.18 L 20.68,458.68 L 22.50,447.47 L 24.62,437.77 L 25.00,425.17 L 27.29,416.95 L 29.60,406.37 L 31.55,395.27 L 33.07,383.81 L 35.60,375.63 L 40.72,365.08 L 42.84,353.43 L 45.46,343.37 L 50.35,334.33 L 52.94,324.61 L 56.47,314.50 L 62.31,304.54 L 66.83,295.23 L 70.91,284.97 L 76.27,276.37 L 81.00,266.73 L 86.99,256.78 L 91.45,247.16 L 98.00,239.84 L 102.52,230.74 L 109.54,220.43 L 109.59,220.86 L 116.49,212.27 L 121.71,203.95 L 128.81,196.81 L 136.75,186.72 L 142.93,179.33 L 151.16,170.90 L 157.79,163.57 L 165.21,155.15 L 173.50,149.28 L 179.98,142.29 L 189.52,134.01 L 197.50,127.87 L 205.46,121.75 L 212.99,114.50 L 222.20,108.62 L 231.86,103.35 L 240.71,97.58 L 249.53,90.65 L 260.06,84.50 L 268.21,79.70 L 279.01,74.00 L 288.20,69.23 L 298.23,65.01 L 306.36,59.70 L 317.38,56.97 L 328.09,52.97 L 336.56,47.78 L 347.11,45.22 L 346.28,44.42 L 356.88,42.46 L 367.74,38.49 L 377.35,35.90 L 387.81,33.71 L 399.61,30.64 L 409.33,28.55 L 420.41,25.93 L 430.73,24.84 L 441.19,23.06 L 451.75,20.95 L 461.52,21.37 L 474.10,20.66 L 482.68,20.79 L 493.70,21.11 L 504.57,19.45 L 515.23,18.85 L 527.11,21.07 L 536.39,21.52 L 547.04,22.31 L 558.51,22.39 L 567.59,25.59 L 578.38,27.48 L 589.46,28.77 L 600.86,31.00 L 610.61,33.72 L 620.45,36.05 L 631.15,37.76 L 641.67,41.18 L 642.33,40.94 L 650.75,44.64 L 660.83,47.98 L 671.58,51.07 L 682.18,55.36 L 691.12,59.43 L 701.23,63.91 L 710.23,68.19 L 720.61,73.14 L 730.54,78.45 L 738.96,83.77 L 748.87,88.02 L 757.19,95.31 L 766.73,100.94 L 776.34,106.41 L 782.90,112.24 L 791.38,119.32 L 801.50,126.69 L 808.54,133.83 L 817.16,139.70 L 824.68,145.63 L 832.95,153.85 L 840.33,162.25 L 847.98,168.18 L 854.92,175.96 L 862.08,184.13 L 868.77,192.55 L 874.92,201.87 L 881.56,209.18 L 882.43,209.05 L 888.50,217.52 L 893.75,227.18 L 901.76,235.84 L 907.16,245.56 L 911.50,252.72 L 916.54,263.56 L 923.91,272.94 L 928.26,283.25 L 932.81,291.78 L 937.77,300.32 L 940.71,310.00 L 944.10,321.71 L 949.09,330.78 L 953.29,341.79 L 956.30,351.89 L 960.38,360.69 L 963.20,371.40 L 965.25,381.44 L 967.04,391.85 L 971.05,402.03 L 972.13,411.49 L 974.76,423.81 L 974.65,433.92 L 977.57,444.05 L 977.70,455.58 L 979.11,465.37 L 979.10,476.67 L 980.28,487.04 Z" fill="none" stroke="blue" stroke-width="2"/>
<path d="M 995.12,499.01 L 995.23,499.91 L 994.87,499.59 L 994.99,511.05 L 995.13,521.83 L 995.31,532.44 L 992.44,543.33 L 991.84,554.88 L 990.01,564.99 L 988.72,577.54 L 986.49,586.74 L 985.78,596.54 L 982.85,609.39 L 979.05,618.90 L 978.27,629.50 L 973.68,640.91 L 972.04,652.89 L 967.86,662.63 L 962.52,673.17 L 959.87,683.71 L 956.51,693.58 L 952.71,703.16 L 946.58,711.87 L 940.66,722.50 L 936.79,732.36 L 931.84,741.18 L 927.01,751.01 L 920.83,760.47 L 920.52,760.12 L 914.25,770.57 L 907.77,779.20 L 900.48,788.43 L 902.29,789.22 L 894.94,797.37 L 890.18,806.38 L 882.30,814.64 L 875.28,823.42 L 866.97,829.75 L 859.81,838.39 L 852.51,848.28 L 846.04,855.66 L 837.44,862.23 L 830.08,870.67 L 820.71,876.57 L 811.19,883.86 L 802.49,890.85 L 794.27,897.44 L 786.55,904.12 L 774.36,910.65 L 765.18,916.92 L 759.08,922.23 L 748.55,927.27 L 740.22,934.21 L 731.07,938.79 L 719.07,944.28 L 709.36,949.10 L 709.09,948.44 L 699.20,953.61 L 688.59,957.80 L 679.39,962.39 L 668.55,964.38 L 658.58,967.94 L 657.33,967.58 L 647.45,972.74 L 636.94,975.60 L 627.00,978.50 L 616.20,980.52 L 606.45,984.03 L 594.60,986.05 L 583.87,989.84 L 573.17,990.33 L 561.36,990.81 L 553.01,992.70 L 538.70,993.20 L 529.52,994.37 L 518.06,993.94 L 507.92,995.62 L 497.00,995.96 L 485.30,993.69 L 473.69,994.46 L 462.14,992.70 L 451.86,993.21 L 442.42,991.63 L 441.27,991.07 L 429.77,990.98 L 418.84,988.61 L 407.95,987.06 L 396.32,984.53 L 387.75,981.50 L 376.95,978.32 L 365.85,976.50 L 354.97,971.95 L 354.91,973.19 L 345.48,970.03 L 333.86,967.28 L 325.42,962.17 L 313.05,957.90 L 303.68,955.02 L 294.32,949.99 L 285.92,945.60 L 273.59,939.52 L 263.92,934.55 L 253.15,929.30 L 243.79,921.66 L 232.98,918.85 L 224.90,912.23 L 214.22,905.58 L 208.05,898.39 L 198.35,892.39 L 190.33,883.38 L 181.23,879.05 L 180.89,878.26 L 171.73,868.82 L 163.71,864.36 L 155.62,857.26 L 147.60,847.92 L 142.82,841.34 L 133.52,832.92 L 125.33,823.37 L 120.62,816.71 L 110.92,808.30 L 104.11,798.41 L 103.67,798.63 L 98.71,789.86 L 92.14,782.14 L 84.68,769.93 L 80.00,761.44 L 73.88,752.62 L 69.34,741.87 L 63.87,734.23 L 57.69,723.52 L 53.69,713.34 L 48.78,704.82 L 44.20,693.37 L 41.15,683.23 L 37.62,673.16 L 31.24,663.00 L 30.87,654.20 L 29.92,654.07 L 25.97,642.32 L 22.09,631.45 L 21.44,621.18 L 17.83,609.28 L 16.03,600.97 L 12.67,589.08 L 11.71,578.06 L 10.10,567.63 L 8.20,556.77 L 7.03,545.33 L 5.44,533.86 L 4.42,523.17 L 5.44,511.94 L 4.88,501.28 L 4.60,501.70 L 5.74,490.30 L 6.71,478.57 L 4.95,468.67 L 6.32,457.12 L 6.99,445.62 L 10.37,436.21 L 10.81,422.65 L 13.28,414.35 L 14.88,404.12 L 16.94,392.48 L 18.88,379.51 L 21.28,372.26 L 21.19,371.46 L 25.66,361.11 L 28.24,349.02 L 31.16,338.79 L 36.03,328.42 L 39.56,318.89 L 43.43,308.35 L 49.38,299.14 L 52.59,289.04 L 57.29,278.73 L 63.29,270.10 L 67.32,259.60 L 74.52,248.42 L 78.00,239.71 L 85.19,231.51 L 90.21,222.49 L 97.63,212.41 L 97.18,212.55 L 104.61,203.31 L 109.73,194.94 L 116.79,186.71 L 125.77,176.92 L 131.59,169.41 L 139.87,160.23 L 147.01,153.85 L 154.42,145.06 L 163.27,137.69 L 163.84,138.22 L 170.61,131.02 L 179.15,122.87 L 188.59,115.94 L 196.00,109.22 L 204.09,103.09 L 214.08,96.73 L 224.14,91.14 L 233.06,84.98 L 241.10,77.38 L 251.98,71.97 L 260.21,66.65 L 271.89,61.17 L 281.67,55.95 L 291.25,51.10 L 301.12,46.32 L 311.71,43.53 L 323.23,38.29 L 332.22,33.91 L 342.25,31.29 L 341.23,30.81 L 352.85,28.37 L 363.10,24.82 L 373.41,22.06 L 383.59,18.53 L 395.92,15.43 L 406.21,14.15 L 417.68,11.84 L 418.56,11.69 L 428.17,10.21 L 439.43,7.57 L 449.93,6.08 L 460.33,5.88 L 474.00,5.12 L 482.39,6.15 L 493.67,6.66 L 504.81,4.97 L 514.95,3.13 L 528.18,6.22 L 537.77,6.99 L 548.37,7.61 L 560.33,7.70 L 569.37,11.47 L 580.81,13.17 L 592.55,13.71 L 603.33,15.63 L 613.97,19.10 L 623.74,21.71 L 634.95,23.68 L 646.47,27.42 L 647.53,26.02 L 655.26,30.50 L 665.56,33.79 L 676.57,36.66 L 687.22,41.14 L 687.68,41.66 L 696.68,46.25 L 706.97,50.02 L 716.92,54.40 L 727.92,59.81 L 737.76,65.29 L 746.12,70.00 L 757.33,75.18 L 765.98,82.19 L 774.82,87.75 L 784.95,94.74 L 791.98,100.07 L 800.56,107.96 L 810.82,115.63 L 818.57,122.78 L 826.86,128.28 L 834.92,134.09 L 843.43,142.35 L 850.99,152.11 L 858.49,158.61 L 866.29,165.23 L 874.15,174.10 L 880.76,182.69 L 887.36,192.94 L 893.00,200.10 L 894.37,199.23 L 900.06,208.43 L 906.04,218.57 L 906.25,218.67 L 914.01,227.78 L 919.34,238.40 L 924.74,244.68 L 929.32,256.68 L 937.18,266.19 L 941.32,276.98 L 946.12,285.56 L 952.18,294.23 L 954.96,304.43 L 958.32,315.36 L 963.08,326.24 L 967.91,337.29 L 970.69,347.62 L 974.87,355.82 L 977.86,367.58 L 980.33,377.18 L 981.94,387.72 L 986.45,398.35 L 986.10,408.42 L 989.01,421.73 L 989.37,432.29 L 993.14,442.90 L 993.01,453.49 L 993.49,463.82 L 993.81,476.20 L 995.32,486.34 Z" fill="none" stroke="green" stroke-width="2"/>
<path d="M 1009.60,499.63 L 1009.87,498.74 L 1010.67,500.26 L 1010.10,499.88 L 1010.17,510.89 L 1009.71,522.59 L 1009.84,534.17 L 1007.06,544.30 L 1006.28,556.87 L 1004.59,566.71 L 1004.22,580.36 L 1000.89,588.76 L 1000.78,599.27 L 998.25,613.21 L 994.33,623.00 L 992.42,633.08 L 988.40,644.94 L 986.22,657.12 L 981.99,667.07 L 976.63,679.12 L 974.11,688.70 L 970.51,699.58 L 965.98,709.57 L 960.18,718.52 L 953.33,729.12 L 950.38,738.77 L 945.37,747.70 L 940.03,759.30 L 933.43,769.05 L 934.19,768.32 L 932.79,768.75 L 926.52,779.00 L 920.80,787.02 L 912.78,797.26 L 914.83,798.67 L 907.58,805.88 L 902.59,815.12 L 894.55,824.97 L 886.48,833.21 L 878.83,840.52 L 871.42,849.27 L 862.39,858.92 L 855.88,867.18 L 847.32,873.99 L 840.13,881.87 L 831.14,888.55 L 820.58,895.02 L 811.05,902.17 L 803.13,909.10 L 794.73,916.73 L 783.16,923.23 L 773.64,929.05 L 767.49,935.65 L 756.62,940.26 L 746.82,947.60 L 737.55,951.49 L 725.42,957.33 L 715.32,962.27 L 716.11,963.42 L 715.11,962.39 L 704.45,967.58 L 694.62,970.97 L 684.20,976.07 L 673.51,978.49 L 664.03,982.47 L 661.81,981.18 L 652.59,986.74 L 641.28,989.56 L 630.26,992.44 L 620.12,995.27 L 609.54,998.75 L 597.42,1000.83 L 586.67,1004.18 L 574.98,1005.57 L 563.82,1005.02 L 554.53,1007.94 L 539.20,1008.25 L 529.72,1009.42 L 518.62,1009.04 L 507.60,1010.34 L 496.95,1010.35 L 484.38,1008.81 L 472.24,1009.46 L 461.48,1007.59 L 450.43,1008.07 L 439.97,1006.47 L 441.17,1006.89 L 439.32,1006.47 L 428.04,1005.96 L 415.65,1003.16 L 404.46,1002.59 L 393.88,998.50 L 385.04,995.36 L 373.07,993.28 L 362.21,991.70 L 350.80,986.16 L 351.30,987.34 L 341.39,984.94 L 328.63,981.70 L 320.38,976.26 L 307.62,971.54 L 297.23,968.85 L 288.13,964.00 L 278.98,958.33 L 265.96,952.53 L 257.03,947.81 L 245.72,942.82 L 235.60,934.23 L 224.56,932.20 L 216.94,924.08 L 206.08,917.72 L 199.61,911.10 L 188.43,903.81 L 180.26,894.31 L 171.73,890.86 L 170.85,890.92 L 171.06,889.30 L 161.30,880.61 L 152.83,875.39 L 144.87,868.57 L 137.29,858.16 L 132.13,851.98 L 122.14,842.69 L 113.41,833.43 L 108.66,826.01 L 98.46,818.33 L 92.74,808.10 L 91.89,807.54 L 86.54,799.40 L 80.51,790.95 L 72.56,777.82 L 67.13,768.81 L 60.78,760.67 L 56.22,749.78 L 50.34,741.66 L 44.79,730.95 L 40.25,720.56 L 35.21,710.44 L 29.98,698.75 L 27.45,689.47 L 24.13,677.77 L 17.43,667.43 L 16.25,659.16 L 16.79,659.48 L 15.16,659.16 L 11.96,646.73 L 7.59,636.02 L 6.63,625.60 L 2.42,613.29 L 2.08,603.42 L -1.29,591.74 L -3.51,580.60 L -5.23,570.35 L -6.62,558.93 L -8.10,546.76 L -9.75,534.50 L -10.55,523.86 L -10.20,513.07 L -10.17,501.86 L -9.74,501.54 L -9.39,490.10 L -8.72,477.35 L -10.40,468.41 L -8.50,455.69 L -8.48,443.70 L -4.70,434.80 L -4.01,420.56 L -1.20,411.36 L 0.68,401.96 L 2.52,389.20 L 3.80,376.34 L 6.26,368.75 L 6.77,369.06 L 6.77,367.80 L 10.55,356.15 L 14.51,345.15 L 17.24,334.33 L 21.83,323.76 L 25.18,313.73 L 28.81,302.56 L 35.48,293.22 L 39.29,282.82 L 43.84,272.00 L 49.23,263.19 L 53.43,252.36 L 61.25,241.55 L 64.46,232.33 L 72.88,223.84 L 78.45,213.45 L 84.78,203.13 L 84.48,203.88 L 93.12,193.94 L 97.75,185.50 L 105.03,177.31 L 115.20,166.68 L 120.72,159.95 L 129.20,150.50 L 136.72,142.69 L 143.76,134.39 L 152.35,125.92 L 152.53,126.70 L 153.53,127.69 L 160.73,120.40 L 168.79,111.49 L 178.41,103.82 L 187.38,98.00 L 195.09,90.34 L 204.72,85.17 L 216.39,78.81 L 224.20,73.05 L 232.96,65.33 L 244.60,59.39 L 253.29,53.36 L 264.30,47.32 L 274.64,43.02 L 284.75,38.13 L 294.83,32.99 L 305.41,30.45 L 318.22,24.28 L 327.90,19.08 L 337.37,17.61 L 336.17,17.03 L 349.11,13.88 L 359.38,9.65 L 369.21,8.34 L 380.05,3.72 L 393.47,0.66 L 403.66,-0.32 L 414.53,-2.76 L 415.67,-2.61 L 415.42,-3.66 L 426.33,-4.41 L 437.99,-7.61 L 447.79,-9.64 L 458.82,-9.29 L 472.84,-10.44 L 481.36,-8.92 L 493.56,-8.48 L 504.20,-10.26 L 514.75,-11.70 L 528.75,-8.94 L 538.59,-8.15 L 549.17,-6.68 L 562.80,-6.42 L 571.59,-3.91 L 583.08,-2.21 L 595.04,-1.03 L 605.77,0.86 L 617.30,4.48 L 626.82,6.79 L 638.63,9.45 L 651.06,12.61 L 651.36,11.39 L 660.68,15.99 L 670.78,20.14 L 681.64,22.37 L 693.39,27.83 L 693.65,26.67 L 693.08,28.50 L 702.17,32.19 L 713.98,37.14 L 723.16,41.23 L 734.80,46.61 L 744.55,51.93 L 754.08,56.81 L 764.49,62.46 L 774.18,69.61 L 783.44,75.35 L 794.31,82.41 L 801.16,87.86 L 809.35,96.37 L 820.76,104.44 L 828.10,111.32 L 836.98,116.60 L 845.30,123.36 L 854.29,130.85 L 862.42,141.51 L 869.19,148.28 L 878.03,155.42 L 885.53,164.71 L 892.06,173.72 L 899.18,183.84 L 904.26,191.43 L 906.55,189.91 L 912.41,198.87 L 919.14,210.31 L 918.21,210.43 L 919.33,210.01 L 925.76,219.15 L 932.09,230.49 L 937.72,237.07 L 942.28,249.11 L 950.85,259.25 L 954.71,269.97 L 958.87,278.42 L 965.70,288.75 L 968.12,299.21 L 971.66,309.45 L 977.05,320.50 L 982.05,332.32 L 984.86,343.31 L 988.93,351.14 L 992.81,362.96 L 995.42,373.70 L 996.83,383.78 L 1001.91,394.87 L 1000.32,405.10 L 1003.92,420.10 L 1003.80,430.08 L 1007.54,441.39 L 1007.84,451.33 L 1008.63,462.24 L 1008.94,475.30 L 1010.64,485.45 Z" fill="none" stroke="purple" stroke-width="2"/>
<path d="M 1025.00,500.11 L 1023.90,498.98 L 1025.46,498.20 L 1025.39,500.20 L 1024.72,500.45 L 1025.21,511.43 L 1024.85,523.42 L 1024.94,534.93 L 1022.56,545.79 L 1021.69,558.87 L 1019.13,568.86 L 1018.37,582.13 L 1015.05,591.06 L 1014.98,602.49 L 1012.90,616.40 L 1008.31,626.43 L 1006.40,637.20 L 1003.10,649.44 L 1001.29,661.81 L 996.15,671.41 L 990.38,684.32 L 987.34,694.01 L 983.53,704.85 L 980.17,716.46 L 973.74,724.94 L 967.02,735.75 L 964.18,745.77 L 957.82,754.24 L 958.90,754.65 L 952.59,766.97 L 945.65,776.89 L 947.34,776.63 L 945.62,776.04 L 938.46,787.65 L 933.71,795.25 L 925.47,805.28 L 927.36,807.51 L 920.37,814.24 L 914.93,824.76 L 905.81,835.30 L 897.77,842.75 L 890.50,850.44 L 883.14,859.98 L 872.63,869.97 L 866.46,877.71 L 857.87,885.19 L 849.58,892.48 L 840.41,899.49 L 829.34,906.43 L 819.88,914.10 L 811.79,921.48 L 803.06,928.60 L 792.08,936.47 L 782.00,941.05 L 776.09,948.88 L 776.02,949.22 L 764.77,952.62 L 754.66,960.33 L 744.88,965.28 L 732.47,971.06 L 721.64,975.99 L 722.08,976.88 L 721.37,976.20 L 711.07,980.67 L 700.38,984.47 L 690.32,989.85 L 679.35,992.31 L 668.06,997.11 L 666.97,995.76 L 657.01,1001.31 L 645.22,1003.28 L 634.16,1006.49 L 623.55,1009.38 L 612.39,1013.93 L 600.03,1015.68 L 589.32,1018.94 L 576.94,1020.70 L 564.98,1019.26 L 556.59,1022.79 L 539.75,1023.78 L 530.50,1023.59 L 519.91,1023.56 L 519.48,1023.44 L 508.07,1024.80 L 497.55,1024.99 L 484.17,1023.41 L 471.22,1025.08 L 459.82,1022.38 L 448.66,1023.32 L 437.79,1021.61 L 439.77,1020.99 L 437.51,1020.78 L 425.49,1021.10 L 412.39,1018.27 L 402.17,1018.11 L 390.64,1012.59 L 380.97,1009.78 L 369.70,1007.17 L 357.87,1006.76 L 345.82,1000.94 L 347.34,1001.10 L 337.52,998.62 L 323.66,995.05 L 315.33,990.20 L 302.31,985.63 L 290.72,982.48 L 282.20,978.22 L 271.80,971.20 L 259.47,966.00 L 258.88,966.60 L 249.58,960.42 L 237.90,955.16 L 227.88,947.20 L 216.67,945.30 L 208.91,937.12 L 197.70,929.67 L 190.79,923.23 L 179.66,915.36 L 170.10,906.60 L 162.81,902.34 L 160.57,902.39 L 161.53,900.80 L 152.10,892.59 L 143.34,885.81 L 135.04,879.48 L 126.40,869.00 L 121.72,863.07 L 111.46,852.00 L 101.35,842.84 L 96.40,834.90 L 87.17,827.66 L 80.98,817.15 L 79.77,816.89 L 73.72,808.25 L 68.37,799.14 L 59.68,786.01 L 59.51,786.48 L 54.45,776.55 L 48.10,768.86 L 43.44,756.44 L 37.44,749.13 L 31.96,737.02 L 26.07,726.94 L 21.47,716.80 L 15.86,704.98 L 13.91,694.44 L 10.41,683.33 L 2.72,673.07 L 2.04,664.30 L 2.90,663.65 L 0.31,664.28 L -2.77,651.66 L -6.44,639.26 L -7.42,628.93 L -12.90,616.96 L -12.48,605.79 L -16.12,594.22 L -18.33,583.07 L -20.30,572.02 L -22.16,560.77 L -22.68,547.69 L -24.70,534.78 L -24.95,524.15 L -25.24,513.26 L -25.75,514.14 L -24.60,502.00 L -24.08,501.97 L -24.52,489.52 L -23.84,477.03 L -25.74,466.81 L -23.65,454.39 L -22.74,441.53 L -19.09,433.65 L -18.09,417.53 L -16.02,408.39 L -13.48,398.78 L -12.03,385.15 L -11.23,372.81 L -8.55,365.08 L -7.79,365.35 L -7.73,364.34 L -4.32,352.56 L 0.64,340.18 L 2.27,329.31 L 7.33,318.32 L 11.76,308.85 L 15.70,295.95 L 22.03,287.67 L 26.09,275.79 L 30.48,264.87 L 35.94,255.50 L 36.75,256.55 L 39.67,245.76 L 48.96,233.96 L 52.01,224.27 L 61.04,215.03 L 65.40,204.43 L 73.09,193.72 L 72.37,195.07 L 81.88,184.49 L 85.55,175.96 L 93.90,168.14 L 104.24,156.56 L 109.19,149.25 L 117.82,140.66 L 126.16,131.62 L 132.76,123.59 L 141.99,114.99 L 143.06,115.25 L 143.01,116.32 L 150.13,108.67 L 159.36,100.59 L 169.28,91.44 L 178.71,85.88 L 185.49,77.90 L 195.80,72.97 L 208.30,65.98 L 216.85,59.70 L 215.91,60.37 L 225.52,52.14 L 237.02,46.90 L 245.46,39.45 L 257.90,34.79 L 267.42,30.08 L 278.22,24.74 L 289.03,19.39 L 299.29,17.09 L 312.11,9.57 L 323.49,4.86 L 331.99,4.05 L 331.89,2.55 L 343.94,-0.51 L 354.72,-4.65 L 365.87,-6.32 L 375.78,-10.57 L 389.83,-14.47 L 400.33,-15.40 L 412.63,-18.29 L 413.38,-17.81 L 412.62,-18.59 L 424.25,-19.96 L 435.82,-23.08 L 445.79,-23.95 L 457.66,-24.04 L 472.53,-24.95 L 472.83,-24.97 L 480.59,-23.84 L 493.35,-22.82 L 504.33,-25.44 L 514.68,-26.99 L 529.15,-23.28 L 540.17,-23.81 L 551.41,-21.56 L 565.08,-20.51 L 574.46,-19.40 L 585.78,-17.38 L 598.35,-15.10 L 608.17,-13.02 L 620.31,-9.56 L 631.04,-7.97 L 643.26,-4.43 L 654.98,-1.57 L 656.29,-2.62 L 666.08,1.00 L 676.13,6.73 L 687.07,8.46 L 698.58,14.73 L 699.94,12.78 L 698.46,14.60 L 707.47,18.00 L 719.83,23.57 L 728.92,28.41 L 729.24,27.15 L 742.05,33.96 L 752.29,38.48 L 760.78,43.94 L 772.92,50.06 L 782.80,57.54 L 792.50,62.67 L 803.66,69.99 L 809.37,75.43 L 817.89,83.91 L 830.93,93.25 L 838.52,100.10 L 846.36,106.08 L 855.75,112.99 L 865.13,119.59 L 873.23,130.45 L 879.74,138.23 L 888.52,145.68 L 897.56,155.58 L 903.41,164.92 L 911.68,173.78 L 916.35,183.01 L 919.22,180.36 L 924.63,190.72 L 930.91,202.17 L 930.12,202.66 L 931.13,202.10 L 931.01,201.82 L 938.51,211.51 L 944.73,222.17 L 950.18,228.65 L 954.94,241.08 L 963.28,252.01 L 968.47,263.95 L 973.00,271.89 L 979.17,282.63 L 981.27,293.26 L 986.15,304.07 L 991.39,314.68 L 995.53,327.94 L 998.80,338.40 L 1004.00,346.09 L 1006.73,358.74 L 1010.32,370.06 L 1012.07,379.71 L 1016.74,391.97 L 1015.03,401.55 L 1019.44,417.21 L 1019.28,427.46 L 1021.80,439.20 L 1022.27,450.21 L 1023.95,461.49 L 1023.54,474.22 L 1025.21,484.30 Z" fill="none" stroke="orange" stroke-width="2"/>
<path d="M 1040.11,500.66 L 1039.44,499.89 L 1038.78,498.62 L 1040.72,498.30 L 1039.91,499.44 L 1039.19,500.13 L 1039.54,512.30 L 1039.53,523.92 L 1039.89,536.17 L 1036.85,547.17 L 1036.09,561.16 L 1033.80,570.74 L 1032.81,584.42 L 1029.38,593.30 L 1029.00,605.82 L 1027.79,619.05 L 1022.62,630.11 L 1021.63,641.26 L 1017.56,654.25 L 1016.08,666.28 L 1010.39,676.88 L 1004.38,690.20 L 1001.24,698.88 L 997.99,711.04 L 993.85,723.26 L 987.77,731.65 L 980.60,741.89 L 977.85,752.26 L 971.71,762.27 L 971.43,760.91 L 971.90,762.71 L 965.41,775.38 L 958.60,785.34 L 959.71,785.17 L 959.04,783.24 L 950.83,795.71 L 945.84,803.33 L 937.59,814.62 L 939.99,816.46 L 932.42,823.08 L 926.61,833.44 L 917.52,845.26 L 909.84,853.22 L 901.77,859.81 L 893.74,870.30 L 883.03,880.39 L 876.73,888.45 L 868.26,895.43 L 859.20,903.11 L 850.32,911.21 L 838.05,918.70 L 828.79,925.54 L 821.11,934.20 L 812.36,940.08 L 800.94,948.62 L 789.74,953.67 L 784.27,961.01 L 784.54,961.07 L 784.64,961.90 L 772.87,965.20 L 761.79,973.69 L 751.38,978.09 L 739.64,984.90 L 728.40,990.17 L 728.94,990.49 L 727.15,989.50 L 717.12,993.82 L 706.68,998.94 L 695.00,1003.33 L 685.03,1006.94 L 672.48,1011.25 L 672.44,1010.30 L 661.14,1016.14 L 649.39,1017.90 L 637.40,1020.24 L 626.89,1024.11 L 615.09,1029.17 L 603.03,1030.16 L 591.34,1034.35 L 579.53,1035.84 L 566.51,1033.96 L 557.68,1037.82 L 541.64,1039.31 L 531.62,1038.85 L 520.12,1038.40 L 519.72,1038.99 L 520.47,1037.65 L 508.97,1040.03 L 497.65,1039.20 L 483.33,1038.89 L 470.10,1040.80 L 458.90,1037.21 L 447.01,1038.01 L 435.62,1036.45 L 438.34,1036.41 L 435.56,1035.04 L 423.39,1036.21 L 410.45,1032.86 L 399.63,1033.02 L 387.19,1026.63 L 376.86,1025.17 L 366.20,1022.28 L 353.44,1021.54 L 342.04,1014.96 L 342.41,1015.88 L 333.51,1013.37 L 319.11,1009.34 L 310.30,1004.53 L 297.02,999.78 L 285.55,995.86 L 275.86,991.70 L 264.53,985.03 L 252.71,978.83 L 252.96,978.89 L 252.06,980.38 L 243.07,973.87 L 230.43,968.72 L 220.63,960.62 L 208.11,957.31 L 200.01,949.22 L 189.57,942.36 L 181.44,935.63 L 170.24,926.58 L 160.42,918.64 L 152.87,914.30 L 150.63,913.48 L 151.52,912.83 L 142.10,904.41 L 133.29,897.54 L 123.96,890.92 L 115.73,880.13 L 110.71,873.14 L 99.63,862.63 L 89.40,852.14 L 84.71,844.60 L 76.07,836.92 L 68.73,826.55 L 68.24,825.90 L 61.78,816.53 L 56.26,806.90 L 46.74,794.60 L 46.57,794.60 L 46.92,795.08 L 41.05,784.64 L 35.42,776.38 L 31.10,763.60 L 23.50,755.76 L 18.38,743.02 L 12.25,733.95 L 7.31,723.27 L 2.25,710.42 L 0.30,699.76 L -4.23,688.41 L -11.30,677.47 L -11.69,668.67 L -11.69,668.70 L -13.78,668.70 L -16.51,656.78 L -21.15,643.87 L -22.18,632.12 L -26.81,620.96 L -27.33,608.39 L -30.51,596.32 L -32.76,585.59 L -35.69,573.86 L -36.82,561.76 L -37.02,548.66 L -39.61,535.04 L -39.14,525.09 L -39.99,512.87 L -39.93,513.51 L -40.94,514.62 L -39.64,501.50 L -38.76,502.23 L -39.83,489.48 L -38.56,476.00 L -40.54,465.27 L -38.06,452.45 L -37.30,439.24 L -34.59,431.11 L -33.39,414.68 L -31.17,405.80 L -28.68,396.20 L -26.99,381.12 L -25.79,368.71 L -22.35,360.96 L -23.08,361.78 L -21.57,361.00 L -18.45,347.78 L -14.30,335.62 L -11.56,323.80 L -7.13,312.69 L -1.43,303.05 L 1.82,289.48 L 7.80,280.84 L 12.19,269.85 L 16.77,258.53 L 22.03,248.92 L 21.95,249.07 L 23.74,249.03 L 26.31,238.40 L 36.24,226.94 L 38.59,216.90 L 47.96,206.70 L 53.74,195.62 L 60.73,185.53 L 60.64,186.59 L 70.39,174.83 L 74.05,166.01 L 83.00,158.10 L 92.78,146.87 L 98.52,139.51 L 106.39,130.18 L 115.26,120.33 L 122.59,113.39 L 132.54,103.40 L 133.54,103.63 L 132.66,104.61 L 139.76,97.18 L 149.96,89.46 L 160.28,79.90 L 169.63,74.79 L 176.80,65.61 L 187.14,61.07 L 199.30,53.78 L 208.34,46.83 L 209.02,46.89 L 208.32,47.86 L 218.46,38.64 L 229.73,33.37 L 238.77,26.88 L 251.58,20.80 L 260.76,16.22 L 272.64,10.43 L 282.57,5.88 L 293.39,2.81 L 306.69,-3.96 L 318.38,-8.70 L 327.10,-10.77 L 327.09,-11.41 L 338.84,-14.97 L 350.67,-19.86 L 361.39,-20.66 L 372.43,-25.46 L 386.71,-29.61 L 397.76,-29.41 L 409.93,-33.80 L 410.47,-32.68 L 410.23,-33.20 L 422.05,-34.55 L 434.35,-38.58 L 444.67,-39.31 L 456.20,-38.46 L 472.50,-40.26 L 471.79,-39.61 L 471.34,-40.49 L 479.46,-38.48 L 493.52,-38.45 L 504.64,-40.94 L 515.79,-42.15 L 529.93,-37.81 L 541.67,-39.39 L 552.76,-35.81 L 567.48,-35.25 L 577.04,-34.33 L 588.49,-31.45 L 600.58,-29.84 L 611.32,-28.42 L 624.46,-23.61 L 634.76,-22.48 L 648.03,-19.38 L 659.54,-15.53 L 660.15,-17.13 L 670.98,-12.62 L 681.19,-7.58 L 693.18,-4.90 L 704.69,0.49 L 706.38,-0.35 L 704.07,0.13 L 713.26,4.54 L 726.51,9.63 L 735.80,15.50 L 735.81,15.62 L 736.00,13.18 L 749.17,20.31 L 759.24,25.60 L 768.99,31.16 L 781.43,37.24 L 791.19,44.62 L 800.23,49.97 L 812.28,57.85 L 818.48,63.18 L 827.40,72.54 L 840.05,82.18 L 848.70,88.69 L 855.51,94.25 L 866.18,101.47 L 875.92,108.23 L 883.55,119.49 L 891.15,128.19 L 899.28,135.98 L 908.15,146.27 L 914.31,155.92 L 923.82,165.05 L 928.67,174.02 L 930.73,171.72 L 937.23,181.55 L 943.51,194.33 L 942.28,194.86 L 944.24,193.27 L 943.56,192.79 L 942.95,193.48 L 951.49,203.86 L 957.98,214.88 L 963.35,221.14 L 968.39,233.73 L 976.67,245.37 L 982.61,256.87 L 985.99,265.66 L 992.32,275.91 L 995.07,287.14 L 999.95,298.56 L 1004.83,309.52 L 1009.31,322.75 L 1013.41,333.23 L 1017.79,341.42 L 1020.46,355.40 L 1025.05,366.62 L 1026.66,376.39 L 1031.20,389.36 L 1029.47,398.28 L 1033.75,414.15 L 1034.14,425.25 L 1036.76,436.81 L 1036.76,448.33 L 1038.64,460.17 L 1038.07,473.88 L 1040.25,484.64 Z" fill="none" stroke="brown" stroke-width="2"/>
<path d="M 1055.63,501.44 L 1054.33,500.94 L 1054.36,500.53 L 1053.96,498.77 L 1056.45,498.54 L 1054.62,500.08 L 1054.90,499.95 L 1054.60,512.29 L 1055.17,525.10 L 1054.66,537.66 L 1051.70,547.74 L 1051.63,562.36 L 1048.69,573.42 L 1047.10,587.49 L 1044.22,595.11 L 1043.01,609.02 L 1042.87,622.93 L 1037.05,633.09 L 1036.17,645.50 L 1032.70,658.96 L 1030.59,671.58 L 1024.96,681.23 L 1018.36,695.21 L 1014.52,703.69 L 1012.28,716.97 L 1007.64,729.00 L 1000.94,737.90 L 994.21,748.52 L 990.35,759.53 L 984.88,769.77 L 985.01,769.96 L 984.69,768.49 L 984.33,770.68 L 977.70,783.47 L 971.02,792.59 L 972.89,792.97 L 971.64,791.37 L 963.33,803.98 L 957.66,811.58 L 950.25,823.44 L 952.91,824.64 L 944.73,832.72 L 938.91,843.04 L 928.88,855.53 L 921.30,863.09 L 912.34,869.02 L 904.83,880.63 L 894.40,890.64 L 887.58,899.85 L 878.24,906.26 L 869.42,914.32 L 859.51,922.18 L 848.02,929.88 L 837.46,937.88 L 830.60,946.82 L 821.74,953.09 L 809.24,961.15 L 797.49,965.61 L 791.51,974.14 L 792.13,973.50 L 791.84,974.08 L 791.88,974.86 L 781.11,977.84 L 768.98,987.00 L 758.06,991.50 L 746.40,998.12 L 734.45,1003.65 L 734.50,1003.68 L 733.03,1003.48 L 723.07,1008.09 L 711.84,1013.16 L 701.04,1017.26 L 689.96,1020.72 L 677.36,1024.94 L 677.42,1025.06 L 666.20,1029.88 L 653.62,1031.93 L 641.86,1034.06 L 629.75,1037.92 L 618.30,1043.08 L 606.03,1044.74 L 594.02,1049.78 L 581.83,1050.75 L 569.17,1048.80 L 559.73,1052.51 L 542.36,1054.70 L 532.88,1053.49 L 520.63,1053.41 L 520.52,1053.39 L 520.54,1054.54 L 521.54,1052.82 L 508.69,1055.05 L 497.51,1053.69 L 483.59,1054.14 L 470.03,1056.16 L 457.74,1051.94 L 445.10,1052.92 L 433.14,1051.14 L 435.90,1050.84 L 434.43,1049.71 L 421.23,1050.98 L 407.24,1048.42 L 396.58,1048.09 L 384.09,1041.83 L 373.98,1039.40 L 362.56,1036.29 L 349.64,1035.77 L 337.89,1029.84 L 338.06,1030.03 L 329.54,1027.67 L 313.86,1024.07 L 305.01,1018.55 L 291.55,1013.68 L 279.03,1009.09 L 268.97,1005.58 L 257.52,998.03 L 245.62,992.51 L 245.23,991.73 L 246.59,992.57 L 245.15,993.68 L 235.47,986.52 L 223.49,980.96 L 212.13,973.57 L 199.50,970.16 L 190.94,961.81 L 180.24,954.25 L 172.08,948.48 L 161.23,938.55 L 150.21,930.64 L 143.50,925.45 L 140.29,924.86 L 142.64,924.88 L 131.64,916.17 L 123.29,909.04 L 114.08,901.22 L 105.33,890.30 L 100.24,883.27 L 88.44,872.85 L 77.59,861.73 L 72.54,853.70 L 64.90,846.26 L 56.64,835.05 L 55.63,834.90 L 49.80,824.57 L 44.38,815.43 L 33.55,802.75 L 33.57,802.94 L 34.52,803.41 L 34.79,803.51 L 28.33,792.34 L 21.80,784.09 L 17.59,771.43 L 10.74,762.66 L 5.13,750.17 L -0.85,740.75 L -6.99,728.87 L -11.61,715.83 L -13.06,704.98 L -17.68,693.51 L -25.97,682.72 L -25.47,673.49 L -26.54,672.61 L -27.79,673.68 L -31.16,660.92 L -36.16,648.11 L -37.12,636.37 L -41.55,624.10 L -42.38,611.69 L -44.86,598.85 L -47.12,587.93 L -50.76,575.99 L -52.11,563.16 L -52.20,550.34 L -54.20,536.58 L -53.87,526.18 L -55.07,513.54 L -55.53,512.77 L -55.08,513.62 L -55.85,515.33 L -54.31,500.99 L -53.02,501.50 L -55.48,488.61 L -52.87,475.23 L -56.21,463.86 L -53.67,450.38 L -52.39,438.33 L -49.28,429.22 L -47.86,412.46 L -45.23,403.69 L -43.17,393.21 L -42.10,378.06 L -39.86,364.73 L -37.59,357.25 L -37.55,357.51 L -36.59,356.39 L -33.25,342.75 L -29.13,331.84 L -25.30,318.67 L -21.37,307.63 L -15.36,297.94 L -12.68,282.98 L -6.24,275.25 L -0.70,263.20 L 4.09,251.46 L 8.92,241.44 L 9.44,242.05 L 8.29,241.94 L 9.84,241.35 L 12.86,231.86 L 23.80,220.05 L 26.41,209.55 L 35.50,198.83 L 42.10,187.26 L 48.97,177.20 L 49.18,177.80 L 58.37,165.91 L 61.50,156.13 L 70.71,148.79 L 82.25,137.31 L 86.93,129.18 L 96.19,119.93 L 103.80,110.32 L 111.71,102.00 L 122.63,92.91 L 122.68,93.30 L 122.42,93.38 L 130.40,85.62 L 140.95,78.33 L 151.51,68.22 L 159.95,63.31 L 168.45,53.10 L 177.97,48.45 L 191.11,40.79 L 199.60,34.88 L 200.51,34.47 L 201.11,34.69 L 200.26,34.52 L 210.63,26.02 L 222.21,21.16 L 232.17,14.33 L 244.67,8.25 L 254.78,2.42 L 265.88,-3.06 L 275.82,-7.38 L 287.60,-10.98 L 301.33,-18.13 L 313.65,-23.35 L 323.06,-24.67 L 322.23,-25.32 L 333.59,-29.75 L 346.67,-34.56 L 357.72,-35.54 L 368.98,-40.46 L 383.53,-44.10 L 394.71,-44.14 L 406.98,-48.27 L 407.79,-46.91 L 407.40,-48.50 L 419.31,-49.28 L 432.11,-54.12 L 442.78,-54.66 L 454.89,-53.60 L 471.18,-54.51 L 471.19,-54.76 L 470.50,-54.59 L 471.35,-54.91 L 478.93,-53.12 L 493.81,-53.77 L 504.88,-55.83 L 516.07,-56.84 L 530.07,-52.28 L 542.80,-54.14 L 554.15,-51.00 L 569.15,-50.03 L 579.88,-49.56 L 590.20,-46.85 L 603.98,-43.83 L 613.94,-42.97 L 628.18,-38.73 L 638.96,-37.24 L 652.43,-33.82 L 664.36,-29.23 L 664.41,-31.79 L 675.94,-27.42 L 685.70,-21.21 L 698.29,-18.69 L 710.50,-12.83 L 711.42,-14.75 L 709.31,-14.05 L 718.87,-9.60 L 733.04,-4.35 L 742.28,2.59 L 742.15,2.15 L 743.13,1.99 L 742.05,-1.08 L 756.45,7.27 L 767.14,12.76 L 775.79,17.62 L 788.60,23.73 L 799.88,32.06 L 807.80,37.33 L 821.36,44.93 L 826.94,50.51 L 836.77,61.25 L 849.22,70.14 L 858.06,77.45 L 864.81,83.51 L 875.57,90.69 L 886.89,97.13 L 894.16,109.69 L 902.08,117.50 L 910.28,126.63 L 919.81,135.93 L 926.01,146.55 L 935.81,155.85 L 940.65,165.16 L 942.36,162.39 L 949.42,173.21 L 955.77,185.60 L 954.24,186.03 L 955.78,185.26 L 957.14,184.50 L 955.84,183.47 L 955.96,185.66 L 963.99,194.84 L 970.60,206.63 L 975.78,212.62 L 981.22,226.18 L 990.00,238.13 L 995.46,250.50 L 999.32,258.95 L 1005.60,269.57 L 1008.44,281.64 L 1014.52,293.44 L 1019.16,303.88 L 1023.86,318.31 L 1027.53,329.16 L 1031.63,336.69 L 1035.13,351.57 L 1039.22,363.12 L 1040.76,372.19 L 1045.16,386.35 L 1043.70,394.81 L 1048.19,412.11 L 1049.36,422.74 L 1051.09,435.04 L 1051.43,446.58 L 1054.08,459.85 L 1053.00,473.62 L 1054.98,484.76 Z" fill="none" stroke="pink" stroke-width="2"/>
<path d="M 1071.35,500.76 L 1071.07,500.79 L 1069.28,500.47 L 1069.90,501.04 L 1069.49,498.13 L 1071.88,498.10 L 1070.06,499.99 L 1070.28,499.19 L 1069.53,513.05 L 1070.19,526.54 L 1069.58,538.95 L 1066.35,548.75 L 1066.74,563.31 L 1064.26,575.44 L 1061.51,590.07 L 1058.51,598.30 L 1058.30,611.52 L 1056.88,626.44 L 1051.33,636.16 L 1050.29,648.81 L 1047.54,662.46 L 1044.14,676.64 L 1039.10,686.27 L 1032.19,699.83 L 1027.93,708.55 L 1026.28,723.50 L 1022.11,735.36 L 1013.79,744.55 L 1007.94,755.72 L 1003.01,766.11 L 998.76,777.52 L 998.54,777.73 L 997.72,775.26 L 998.12,775.52 L 996.84,778.62 L 990.58,791.01 L 983.44,800.81 L 985.15,800.35 L 984.17,799.61 L 975.52,812.73 L 970.73,820.10 L 961.75,831.63 L 964.79,832.99 L 956.54,840.89 L 950.96,852.07 L 939.94,864.32 L 933.24,873.31 L 923.11,879.37 L 916.02,890.96 L 904.89,901.23 L 898.02,910.70 L 888.65,916.95 L 879.64,924.89 L 869.28,932.89 L 858.00,940.93 L 847.23,949.28 L 839.51,958.23 L 830.55,965.85 L 817.86,973.64 L 805.90,977.85 L 799.16,987.08 L 799.33,986.95 L 799.25,986.83 L 800.37,986.95 L 789.21,990.05 L 776.34,1000.82 L 776.11,999.91 L 765.38,1005.29 L 752.69,1010.82 L 740.10,1016.93 L 741.56,1018.01 L 738.70,1017.45 L 729.16,1021.33 L 717.62,1026.62 L 706.69,1030.72 L 695.51,1034.67 L 681.55,1039.37 L 682.01,1039.20 L 670.97,1044.80 L 657.27,1045.83 L 645.57,1048.29 L 632.74,1053.29 L 621.42,1057.49 L 608.62,1060.24 L 596.28,1064.36 L 584.47,1065.47 L 571.43,1063.86 L 561.45,1066.97 L 543.94,1070.34 L 533.39,1069.20 L 521.12,1068.23 L 521.45,1069.16 L 521.26,1069.56 L 522.93,1067.49 L 508.62,1069.60 L 498.03,1067.92 L 483.68,1069.43 L 468.88,1071.22 L 456.70,1067.58 L 456.06,1066.16 L 443.40,1067.27 L 431.14,1066.16 L 433.76,1066.24 L 432.01,1064.44 L 419.79,1066.21 L 405.11,1063.68 L 393.29,1063.36 L 381.27,1056.62 L 371.24,1054.16 L 358.53,1051.19 L 345.72,1049.54 L 332.81,1044.62 L 333.45,1044.88 L 324.81,1042.54 L 309.45,1037.77 L 299.98,1032.75 L 285.14,1028.03 L 272.87,1022.54 L 262.01,1019.29 L 250.40,1011.52 L 238.29,1005.12 L 238.70,1004.88 L 239.65,1006.07 L 238.29,1006.57 L 227.97,999.53 L 215.43,993.30 L 204.46,985.67 L 191.27,982.14 L 182.61,974.72 L 171.02,965.94 L 163.32,960.57 L 152.31,949.94 L 152.25,950.81 L 140.35,941.60 L 134.31,936.67 L 131.28,935.65 L 133.26,936.24 L 121.46,927.12 L 113.28,919.31 L 103.37,912.81 L 94.85,901.64 L 89.32,893.09 L 76.60,883.44 L 65.71,871.29 L 61.40,863.83 L 52.55,854.89 L 45.39,844.78 L 44.24,844.45 L 36.86,833.66 L 31.43,823.90 L 20.21,810.45 L 21.06,810.64 L 21.99,811.22 L 22.20,812.08 L 15.01,800.56 L 8.13,791.89 L 4.78,778.06 L -3.00,769.41 L -7.79,757.12 L -15.09,747.50 L -21.45,734.87 L -25.79,722.23 L -26.73,711.13 L -32.50,699.35 L -39.90,687.21 L -40.33,688.40 L -40.35,677.90 L -40.21,677.33 L -42.54,678.37 L -45.59,665.95 L -51.39,651.69 L -51.61,639.79 L -56.34,626.90 L -57.32,614.48 L -59.42,601.11 L -61.17,590.31 L -65.12,578.24 L -66.41,565.49 L -66.64,550.94 L -69.08,537.21 L -69.41,527.52 L -69.81,513.24 L -70.71,513.84 L -69.90,514.18 L -71.28,515.32 L -69.86,501.76 L -67.37,501.26 L -70.41,487.83 L -68.43,474.61 L -70.69,463.46 L -68.92,449.37 L -67.26,436.07 L -63.36,428.06 L -63.24,410.78 L -59.33,400.78 L -57.79,391.02 L -57.35,374.47 L -56.13,375.13 L -53.98,361.68 L -52.23,353.25 L -52.14,354.35 L -50.45,353.20 L -48.00,338.94 L -44.05,326.79 L -39.05,313.95 L -35.81,302.53 L -29.75,292.03 L -26.19,276.90 L -19.64,269.12 L -14.26,256.94 L -8.97,244.52 L -3.78,234.43 L -4.41,234.57 L -5.74,235.38 L -4.20,233.97 L -0.42,225.00 L 11.66,212.85 L 12.93,202.38 L 23.70,191.25 L 29.70,178.51 L 36.71,168.05 L 36.83,168.34 L 46.79,156.66 L 49.41,147.04 L 59.50,139.43 L 70.97,128.07 L 76.24,119.19 L 85.20,110.16 L 92.39,100.59 L 101.28,91.09 L 101.63,91.34 L 112.47,82.11 L 111.77,81.96 L 112.06,82.06 L 120.95,74.36 L 131.11,67.08 L 141.39,56.57 L 150.18,52.00 L 159.45,41.40 L 168.65,36.67 L 183.46,28.65 L 190.89,22.14 L 192.33,21.34 L 193.16,22.40 L 191.68,21.83 L 202.43,13.52 L 215.35,8.66 L 225.29,0.59 L 237.15,-5.15 L 247.95,-11.01 L 259.38,-16.20 L 269.80,-20.38 L 281.67,-25.03 L 296.40,-31.49 L 308.73,-37.23 L 317.73,-38.30 L 316.92,-39.20 L 328.98,-44.37 L 342.98,-49.07 L 354.08,-50.65 L 364.87,-55.52 L 380.60,-59.16 L 391.81,-58.30 L 391.95,-59.66 L 405.10,-63.48 L 405.45,-61.74 L 404.77,-63.97 L 417.30,-64.53 L 430.38,-68.81 L 441.35,-69.06 L 452.96,-69.12 L 470.66,-70.23 L 470.99,-69.47 L 470.26,-69.89 L 471.26,-70.61 L 478.24,-68.62 L 493.93,-68.59 L 505.33,-70.68 L 516.98,-72.35 L 530.82,-67.13 L 544.66,-69.75 L 555.31,-66.13 L 570.84,-65.60 L 581.93,-64.32 L 592.32,-62.23 L 607.12,-58.92 L 617.07,-57.61 L 631.98,-53.14 L 642.11,-51.39 L 656.77,-47.46 L 668.80,-43.25 L 669.54,-45.34 L 680.36,-41.47 L 690.46,-35.30 L 704.45,-32.93 L 715.61,-26.61 L 716.24,-26.49 L 717.12,-29.13 L 715.15,-27.60 L 725.56,-24.18 L 738.58,-17.77 L 748.25,-10.33 L 749.20,-10.54 L 749.58,-11.75 L 748.68,-14.36 L 762.60,-6.51 L 774.01,0.08 L 782.94,4.61 L 796.10,10.12 L 808.28,19.18 L 816.47,25.03 L 829.27,32.16 L 835.50,38.12 L 846.19,50.02 L 859.16,58.74 L 867.73,66.22 L 875.32,72.29 L 885.46,80.10 L 897.14,86.70 L 905.36,98.82 L 913.32,106.87 L 921.43,116.07 L 931.44,126.58 L 938.18,136.74 L 948.33,146.21 L 951.85,156.86 L 954.49,153.84 L 961.67,164.21 L 968.27,177.67 L 968.52,177.42 L 966.29,176.76 L 967.99,176.73 L 969.06,175.91 L 968.89,174.46 L 967.99,176.52 L 976.98,187.05 L 983.99,198.60 L 987.86,204.84 L 994.26,218.27 L 1003.90,231.43 L 1008.90,244.19 L 1012.26,253.03 L 1019.76,264.05 L 1022.50,275.13 L 1028.80,287.79 L 1033.54,298.61 L 1037.24,314.09 L 1042.10,324.68 L 1045.31,332.23 L 1048.86,347.59 L 1054.01,359.13 L 1055.49,368.44 L 1060.47,383.00 L 1057.93,391.60 L 1062.71,409.64 L 1063.60,420.09 L 1065.63,432.50 L 1066.56,445.15 L 1068.57,458.52 L 1067.69,472.32 L 1070.30,484.00 Z" fill="none" stroke="cyan" stroke-width="2"/>
</svg>